<svg width="338" height="325" viewBox="0 0 338 325" fill="none" xmlns="http://www.w3.org/2000/svg">
<mask id="mask0_229_5437" style="mask-type:alpha" maskUnits="userSpaceOnUse" x="0" y="0" width="338" height="325">
<path d="M337.359 135.63C336.077 106.56 324.167 78.8376 306.678 57.7035C296.444 45.3424 284.255 34.607 271.056 26.3711C257.356 17.8201 242.453 8.23774 226.203 7.21362C222.192 6.96296 218.096 7.27091 214.185 8.61731C199.217 13.7522 229.619 29.3933 233.601 31.6994C191.254 14.5543 147.431 -2.83422 101.804 0.388537C93.0098 1.0116 83.9073 2.52988 76.3159 7.82952C68.7245 13.1292 63.031 23.0696 64.4705 32.6949C65.6665 40.6515 71.1523 49.4031 66.4471 55.8056C65.1007 57.6318 63.1527 58.7562 61.2334 59.7302C51.3861 64.7505 40.6722 67.5579 31.3835 73.8387C17.0029 83.5643 7.51364 100.903 3.42432 118.95C-0.672162 136.998 0.122784 155.804 2.4933 173.959C6.95503 208.12 17.3036 241.823 36.9625 267.877C65.0434 305.089 109.775 323.072 154.085 324.856C207.704 327.018 265.098 304.91 299.058 256.906C304.093 249.787 308.669 241.93 310.317 233.15C311.964 224.37 310.145 214.48 304.1 208.944C302.467 207.454 300.383 205.879 300.484 203.479C300.62 200.228 304.351 199.018 307.201 198.244C325.9 193.181 335.955 169.218 337.252 147.919C337.502 143.808 337.531 139.712 337.352 135.637L337.359 135.63Z" fill="white"/>
</mask>
<g mask="url(#mask0_229_5437)">
<path d="M337.359 135.63C336.077 106.56 324.167 78.8376 306.678 57.7035C296.444 45.3424 284.255 34.607 271.056 26.3711C257.356 17.8201 242.453 8.23774 226.203 7.21362C222.192 6.96296 218.096 7.27091 214.185 8.61731C199.217 13.7522 229.619 29.3933 233.601 31.6994C191.254 14.5543 147.431 -2.83422 101.804 0.388537C93.0098 1.0116 83.9073 2.52988 76.3159 7.82952C68.7245 13.1292 63.031 23.0696 64.4705 32.6949C65.6665 40.6515 71.1523 49.4031 66.4471 55.8056C65.1007 57.6318 63.1527 58.7562 61.2334 59.7302C51.3861 64.7505 40.6722 67.5579 31.3835 73.8387C17.0029 83.5643 7.51364 100.903 3.42432 118.95C-0.672162 136.998 0.122784 155.804 2.4933 173.959C6.95503 208.12 17.3036 241.823 36.9625 267.877C65.0434 305.089 109.775 323.072 154.085 324.856C207.704 327.018 265.098 304.91 299.058 256.906C304.093 249.787 308.669 241.93 310.317 233.15C311.964 224.37 310.145 214.48 304.1 208.944C302.467 207.454 300.383 205.879 300.484 203.479C300.62 200.228 304.351 199.018 307.201 198.244C325.9 193.181 335.955 169.218 337.252 147.919C337.502 143.808 337.531 139.712 337.352 135.637L337.359 135.63Z" fill="#EBF4FE"/>
<path d="M86.0481 178.655C83.1206 175.98 81.2646 174.065 79.6279 168.674C77.5694 161.874 81.5599 156.964 80.2775 154.999C79.1133 153.21 77.2994 157.116 74.954 160.465C72.9124 163.376 70.4911 162.153 61.8436 163.064C57.7266 163.494 52.8755 163.933 52.8755 165.51C52.8755 167.746 58.1821 167.62 63.1597 166.97C63.1597 166.97 61.6327 177.71 65.1592 180.983C67.4286 183.092 72.904 183.042 74.8359 184.67C78.2021 187.505 79.1639 190.246 79.5857 190.829L86.0481 178.655Z" fill="#FFA18A"/>
<path d="M150.478 134.936C143.915 136.236 132.981 143.896 119.432 152.569C113.762 156.196 108.498 181.717 107.637 193.056C107.502 194.802 95.1344 184.003 88.6213 180.123C88.6213 180.123 88.4273 184.788 78.6915 193.655C78.6915 193.655 105.899 226.287 116.622 221.293C127.666 216.147 129.589 187.336 129.589 187.336C129.412 191.782 135.157 217.429 135.157 217.429C132.846 231.105 126.206 257.646 126.206 257.646C140.084 269.736 194.256 263.046 200.051 257.688C200.051 257.688 189.27 230.059 188.78 217.429L194.736 189.943C200.44 200.64 202.911 213.641 202.911 213.641C201.789 228.937 200.49 264.708 200.49 264.708C204.346 266.935 213.288 267.095 215.912 267.475C216.03 267.492 216.461 267.77 216.461 267.77C224.02 244.789 221.354 219.555 221.345 211.878C221.337 198.506 211.593 160.972 204.624 153.623C199.064 147.768 174.396 135.282 170.203 134.692L150.478 134.936Z" fill="#003366"/>
<path d="M150.47 126.795V134.97C150.47 137.957 150.47 141.542 150.47 141.542C160.206 144.132 169.925 141.584 169.925 141.584L169.891 132.853L169.941 126.787H150.47V126.795Z" fill="#FFA18A"/>
<path opacity="0.25" d="M169.899 130.684C165.453 136.126 155.692 136.446 150.47 130.684V127.487H169.925L169.899 130.684Z" fill="#FF7A5A"/>
<path d="M176.8 107.956C176.682 107.956 176.573 107.965 176.463 107.973L177.298 101.73C178.378 90.8721 169.325 85.4137 160.459 85.3968C152.376 85.3799 144.792 88.4593 143.754 98.271C143.602 99.739 143.628 101.215 143.788 102.683L144.328 107.256C144.277 107.256 144.235 107.248 144.185 107.248C142.261 107.239 140.616 108.8 141.029 110.706C141.552 113.119 142.674 114.992 144.176 114.925C144.26 114.925 144.471 114.908 144.556 114.899C146.471 125.091 151.71 132.076 160.206 132.076C166.229 132.076 174.32 125.994 176.193 115.001C176.345 115.018 176.336 115.009 176.488 115.009C178.412 115.018 178.977 113.035 179.483 111.027C179.947 109.146 178.724 107.965 176.8 107.956Z" fill="#FFA18A"/>
<path opacity="0.5" d="M178.513 111.862C178.462 111.55 178.243 111.306 177.948 111.187C177.796 111.128 177.644 111.12 177.484 111.128C177.635 110.774 177.897 110.47 178.218 110.243C178.378 110.124 178.218 109.854 178.057 109.981C177.661 110.276 177.332 110.639 177.155 111.095C176.961 111.592 176.969 112.141 177.053 112.655C177.087 112.849 177.391 112.765 177.357 112.571C177.298 112.191 177.29 111.803 177.382 111.432C177.45 111.424 177.526 111.424 177.593 111.424C177.619 111.424 177.635 111.424 177.661 111.432H177.669C177.678 111.432 177.678 111.432 177.686 111.432C177.728 111.441 177.762 111.449 177.804 111.457C177.821 111.466 177.838 111.466 177.855 111.474C177.863 111.474 177.872 111.483 177.88 111.483C177.88 111.483 177.88 111.483 177.889 111.483C177.914 111.5 177.948 111.508 177.973 111.525C177.981 111.533 177.998 111.542 178.007 111.55C178.015 111.559 178.015 111.559 178.024 111.567C178.049 111.584 178.066 111.609 178.091 111.635L178.1 111.643C178.108 111.651 178.116 111.66 178.125 111.677C178.142 111.702 178.159 111.727 178.167 111.753C178.167 111.753 178.167 111.761 178.175 111.761C178.184 111.77 178.184 111.786 178.192 111.795C178.201 111.82 178.209 111.854 178.218 111.879C178.218 111.896 178.226 111.913 178.226 111.921C178.218 111.888 178.226 111.913 178.226 111.93C178.226 111.964 178.226 111.989 178.226 112.023C178.226 112.048 178.226 112.073 178.218 112.099C178.218 112.107 178.218 112.107 178.218 112.115C178.218 112.132 178.209 112.149 178.209 112.166C178.201 112.2 178.192 112.234 178.184 112.259C178.175 112.276 178.175 112.293 178.167 112.301C178.184 112.267 178.159 112.318 178.159 112.326C178.142 112.36 178.125 112.385 178.108 112.411C178.1 112.428 178.091 112.436 178.083 112.453C178.074 112.461 178.066 112.47 178.066 112.478C178.007 112.537 177.998 112.63 178.066 112.698C178.125 112.757 178.234 112.765 178.285 112.698C178.471 112.487 178.564 112.175 178.513 111.862Z" fill="#FF7A5A"/>
<path opacity="0.5" d="M143.788 111.044C143.611 110.58 143.29 110.217 142.894 109.922C142.733 109.804 142.573 110.065 142.733 110.184C143.046 110.42 143.307 110.715 143.459 111.078C143.155 111.069 142.843 111.137 142.632 111.373C142.421 111.601 142.362 111.921 142.43 112.217C142.472 112.386 142.556 112.546 142.666 112.672C142.725 112.74 142.835 112.731 142.885 112.672C142.953 112.613 142.944 112.52 142.885 112.453C142.877 112.445 142.852 112.411 142.868 112.436C142.86 112.428 142.852 112.411 142.843 112.402C142.826 112.377 142.809 112.352 142.793 112.326C142.784 112.31 142.776 112.301 142.767 112.284C142.767 112.276 142.759 112.276 142.759 112.267C142.75 112.242 142.733 112.208 142.725 112.183C142.717 112.158 142.708 112.124 142.708 112.099C142.708 112.09 142.7 112.048 142.7 112.073C142.7 112.09 142.7 112.048 142.7 112.04C142.7 112.014 142.7 111.981 142.7 111.955C142.7 111.938 142.7 111.93 142.7 111.913C142.7 111.905 142.708 111.846 142.7 111.888C142.708 111.829 142.725 111.778 142.742 111.719C142.75 111.694 142.733 111.744 142.75 111.711C142.759 111.702 142.759 111.685 142.767 111.677C142.784 111.652 142.801 111.626 142.818 111.601C142.793 111.635 142.826 111.592 142.826 111.584C142.835 111.576 142.843 111.567 142.852 111.55C142.86 111.533 142.868 111.533 142.885 111.525C142.894 111.517 142.894 111.517 142.902 111.508C142.885 111.517 142.927 111.491 142.902 111.508C142.927 111.491 142.953 111.474 142.978 111.457C142.995 111.449 143.003 111.441 143.02 111.441C143.029 111.441 143.029 111.432 143.037 111.432C143.037 111.432 143.046 111.432 143.054 111.424C143.096 111.407 143.13 111.398 143.172 111.39C143.189 111.382 143.214 111.382 143.231 111.382C143.24 111.382 143.231 111.382 143.24 111.382C143.257 111.382 143.265 111.382 143.282 111.382C143.366 111.373 143.451 111.382 143.535 111.39C143.619 111.761 143.611 112.149 143.552 112.529C143.518 112.723 143.822 112.807 143.856 112.613C143.965 112.09 143.982 111.542 143.788 111.044Z" fill="#FF7A5A"/>
<path d="M147.433 135.755C148.504 150.797 160.518 200.817 160.518 200.817C160.518 200.817 176.37 149.709 174.193 135.721C174.193 135.721 172.202 129.267 169.941 128.6L169.899 130.684C169.688 134.067 160.518 139.222 160.518 139.222C160.518 139.222 152.047 134.565 150.47 130.684V128.288C148.799 128.963 147.298 133.907 147.433 135.755Z" fill="#F9F5EC"/>
<mask id="mask1_229_5437" style="mask-type:alpha" maskUnits="userSpaceOnUse" x="142" y="77" width="38" height="30">
<rect x="142.303" y="77.0784" width="37.1209" height="29.528" fill="#D9D9D9"/>
</mask>
<g mask="url(#mask1_229_5437)">
<path d="M178.167 89.6742C176.184 85.8608 170.81 82.1909 164.66 80.858C165.774 79.8793 164.415 78.1582 164.711 77.0784C164.711 77.0784 161.867 79.2719 157.911 80.2843C158.839 79.5165 157.75 77.8461 157.599 77.0784C157.599 77.0784 154.173 79.8118 149.027 81.7354C144.125 83.5745 142.835 87.6916 142.657 93.749C142.657 93.749 142.674 93.7406 142.691 93.7322C142.48 97.6552 143.948 102.464 144.328 107.88C144.556 110.209 144.488 114.435 145.163 117.625C146.268 122.897 150.554 132.414 159.927 132.928C168.828 133.409 174.269 124.138 175.737 117.101C176.496 113.465 176.707 111.027 176.463 107.973C177.138 104.185 181.204 95.5038 178.167 89.6742ZM160.205 125.31C157.826 125.268 155.878 124.973 154.291 124.391C154.798 123.361 155.017 121.092 156.274 120.35C157.177 119.818 158.653 119.759 160.577 119.818C162.348 119.877 163.538 120.155 164.238 120.704C165.267 121.505 165.655 123.328 166.018 124.298C164.424 124.964 162.517 125.352 160.205 125.31ZM171.35 119.734C170.532 121.016 169.469 122.222 168.068 123.184C167.773 121.978 167.107 120.603 165.672 119.784C164.238 118.957 162.348 118.358 160.374 118.283C158.029 118.19 156.046 118.603 154.561 119.784C153.262 120.822 152.452 122.071 152.03 123.21C150.858 122.341 150.006 121.202 149.407 119.734C147.424 114.866 144.581 107.113 144.783 105.138C145.374 101.468 146.572 96.3559 151.609 95.4954C153.178 95.7991 157.168 97.4864 161.235 97.4527C165.048 97.4274 171.038 94.1371 173.729 95.4954C175.577 97.4274 176.176 102.456 176.361 105.501C175.754 107.585 174.041 115.524 171.35 119.734Z" fill="#382632"/>
</g>
<path d="M160.518 139.222L156.122 143.812L158.569 147.827L155.97 181.143C157.025 186.155 160.518 200.817 160.518 200.817C160.518 200.817 165.031 186.053 166.162 181.143L163.066 147.827L165.276 143.812L160.518 139.222Z" fill="#F47458"/>
<path d="M128.552 256.533C122.612 282.441 133.588 309.472 131.184 344.054C128.67 380.297 133.63 415.165 133.63 415.165C139.325 417.705 149.913 415.418 149.913 415.418C153.026 398.005 156.072 380.356 155.203 348.432C154.443 320.794 163.142 291.57 163.142 291.57C166.693 301.39 172.742 319.41 173.586 347.707C174.776 387.561 177.711 415.418 177.711 415.418C186.393 417.325 194.298 415.283 194.298 415.283C201.309 391.526 197.765 382.221 197.782 345.53C197.791 321.393 204.43 288.819 196.938 256.533H128.552Z" fill="#003366"/>
<path d="M165.31 144.293C166.702 145.423 168.153 146.469 169.562 147.566C169.857 147.794 170.161 148.123 170.49 148.291C170.802 148.452 171.089 148.114 171.325 147.946C172.101 147.363 172.877 146.781 173.645 146.199C173.923 145.988 173.653 145.516 173.367 145.727C172.886 146.09 172.405 146.452 171.924 146.815C171.696 146.992 171.46 147.161 171.232 147.338C171.013 147.507 170.777 147.735 170.524 147.844C170.616 147.844 170.709 147.844 170.802 147.844C170.372 147.625 169.984 147.212 169.604 146.916C169.174 146.587 168.735 146.25 168.305 145.929C167.427 145.263 166.55 144.605 165.698 143.913C165.428 143.694 165.04 144.073 165.31 144.293Z" fill="#DDD5CC"/>
<path d="M155.776 143.913C154.933 144.605 154.055 145.263 153.186 145.921C152.756 146.241 152.334 146.57 151.912 146.891C151.718 147.043 151.524 147.195 151.33 147.338C151.119 147.507 150.908 147.726 150.672 147.844C150.765 147.844 150.858 147.844 150.951 147.844C150.613 147.701 150.309 147.389 150.014 147.169C149.795 147.009 149.584 146.849 149.365 146.68C149.086 146.469 148.816 146.942 149.086 147.153C149.356 147.355 149.618 147.549 149.888 147.752C150.132 147.929 150.394 148.207 150.672 148.317C151.018 148.452 151.381 147.988 151.626 147.794C153.127 146.613 154.68 145.499 156.164 144.293C156.434 144.073 156.046 143.694 155.776 143.913Z" fill="#DDD5CC"/>
<path d="M140.574 139.306C139.401 142.563 138.33 145.87 137.435 149.219C137.3 149.734 137.039 150.384 137.284 150.907C137.528 151.421 138.186 151.674 138.65 151.936C140.397 152.923 142.16 153.885 143.923 154.83C143.906 154.686 143.889 154.543 143.864 154.399C143.257 155.066 142.649 155.732 142.042 156.399C141.536 156.956 140.869 157.513 140.456 158.154C140 158.862 140.354 159.529 140.633 160.238C141.105 161.469 141.611 162.684 142.135 163.891C143.636 167.426 145.214 170.927 146.808 174.419C150.191 181.852 153.65 189.243 157.143 196.616C157.987 198.405 158.805 200.21 159.699 201.973C159.86 202.285 160.332 202.007 160.172 201.695C157.936 197.308 155.928 192.794 153.844 188.34C150.36 180.899 146.884 173.441 143.594 165.915C142.911 164.355 142.244 162.794 141.603 161.216C141.375 160.659 141.105 160.086 140.937 159.504C140.624 158.432 141.552 157.732 142.202 157.023C142.885 156.272 143.569 155.522 144.252 154.779C144.362 154.653 144.362 154.442 144.193 154.349C142.734 153.573 141.282 152.78 139.84 151.978C138.988 151.497 137.722 151.143 137.798 149.928C137.84 149.278 138.178 148.502 138.355 147.87C139.165 145.026 140.084 142.217 141.088 139.441C141.215 139.121 140.692 138.977 140.574 139.306Z" fill="#281A24"/>
<path d="M179.913 139.23C180.917 142.006 181.837 144.815 182.647 147.659C182.833 148.3 183.17 149.059 183.204 149.717C183.28 150.966 182.031 151.286 181.162 151.767C179.719 152.577 178.268 153.362 176.809 154.138C176.648 154.222 176.64 154.442 176.75 154.568C177.323 155.192 177.889 155.817 178.462 156.441C179.129 157.167 180.276 158.052 180.124 159.132C180.057 159.605 179.745 160.136 179.568 160.575C179.028 161.925 178.462 163.258 177.889 164.591C176.379 168.092 174.809 171.568 173.223 175.035C169.95 182.198 166.609 189.327 163.234 196.447C162.433 198.126 161.674 199.83 160.822 201.492C160.661 201.804 161.134 202.083 161.294 201.771C163.648 197.156 165.757 192.406 167.95 187.715C171.494 180.139 175.037 172.555 178.353 164.878C178.994 163.401 179.618 161.916 180.209 160.423C180.445 159.833 180.926 158.989 180.749 158.356C180.555 157.664 179.762 157.074 179.298 156.568C178.572 155.775 177.855 154.99 177.129 154.197C177.113 154.34 177.096 154.484 177.07 154.627C178.791 153.716 180.496 152.78 182.191 151.818C182.672 151.548 183.356 151.295 183.651 150.789C183.971 150.24 183.71 149.565 183.558 149.008C182.664 145.659 181.592 142.36 180.42 139.095C180.327 138.758 179.795 138.901 179.913 139.23Z" fill="#281A24"/>
<path d="M129.842 187.116C130.028 184.071 129.809 181.034 129.454 178.013C129.117 175.196 128.771 172.361 128.248 169.577C127.202 163.975 124.873 158.761 122.545 153.598C122.401 153.277 121.929 153.556 122.072 153.876C124.384 158.997 126.687 164.169 127.725 169.72C128.256 172.572 128.619 175.482 128.957 178.368C129.294 181.278 129.48 184.197 129.302 187.125C129.277 187.471 129.826 187.462 129.842 187.116Z" fill="#281A24"/>
<path d="M195.074 189.614C196.365 177.625 197.782 165.156 204.32 154.703C204.506 154.408 204.033 154.13 203.848 154.425C197.259 164.954 195.833 177.524 194.534 189.614C194.5 189.96 195.04 189.96 195.074 189.614Z" fill="#281A24"/>
<path d="M128.408 259.325C131.496 259.553 134.592 259.688 137.697 259.705C140.591 259.722 143.501 259.705 146.37 259.283C151.803 258.49 156.595 255.79 160.965 252.584C161.243 252.382 160.973 251.909 160.686 252.112C156.358 255.292 151.617 257.975 146.226 258.76C143.29 259.19 140.295 259.182 137.334 259.156C134.356 259.131 131.378 258.996 128.408 258.777C128.054 258.751 128.054 259.3 128.408 259.325Z" fill="#281A24"/>
<path d="M197.132 258.962C190.721 259.384 184.089 259.747 177.695 259.004C171.502 258.296 166.103 255.478 160.965 252.103C160.67 251.909 160.4 252.382 160.686 252.576C165.698 255.866 170.979 258.667 177.003 259.46C180.251 259.89 183.55 259.899 186.823 259.882C190.265 259.857 193.699 259.73 197.132 259.502C197.478 259.485 197.478 258.945 197.132 258.962Z" fill="#281A24"/>
<path d="M163.319 291.148C162.104 282.686 161.209 274.182 160.636 265.652C160.611 265.307 160.071 265.307 160.096 265.652C160.678 274.232 161.581 282.787 162.804 291.3C162.838 291.637 163.369 291.494 163.319 291.148Z" fill="#281A24"/>
<path d="M161.091 252.348C161.606 244.477 161.581 236.572 161.496 228.692C161.42 221.504 161.226 214.308 160.99 207.12C160.923 205.112 160.838 203.104 160.788 201.096C160.779 200.75 160.231 200.742 160.248 201.096C160.577 214.004 161.108 226.903 160.973 239.828C160.931 244.004 160.83 248.18 160.56 252.348C160.526 252.694 161.066 252.694 161.091 252.348Z" fill="#281A24"/>
<path d="M175.484 186.121C175.872 183.835 177.568 182.383 178.024 182.383C178.437 182.383 180.968 183.539 180.968 183.539C181.078 183.514 183.668 180.409 184.047 180.409C184.613 180.409 187.177 182.814 187.22 185.944L175.484 186.121Z" fill="#F9F5EC"/>
<path d="M187.928 188.492H174.658C174.514 188.492 174.404 188.374 174.404 188.239V185.033C174.404 184.889 174.523 184.78 174.658 184.78H187.928C188.072 184.78 188.181 184.898 188.181 185.033V188.239C188.181 188.374 188.072 188.492 187.928 188.492Z" fill="#281A24"/>
<path d="M166.094 210.545C166.094 211.287 165.495 211.886 164.753 211.886C164.01 211.886 163.411 211.287 163.411 210.545C163.411 209.802 164.01 209.203 164.753 209.203C165.495 209.203 166.094 209.802 166.094 210.545Z" fill="#281A24"/>
<path d="M166.44 223.824C166.44 224.566 165.841 225.165 165.099 225.165C164.356 225.165 163.757 224.566 163.757 223.824C163.757 223.082 164.356 222.483 165.099 222.483C165.841 222.491 166.44 223.09 166.44 223.824Z" fill="#281A24"/>
<path d="M166.896 237.55C166.896 238.293 166.297 238.892 165.554 238.892C164.812 238.892 164.213 238.293 164.213 237.55C164.213 236.808 164.812 236.209 165.554 236.209C166.297 236.217 166.896 236.816 166.896 237.55Z" fill="#281A24"/>
<path d="M132.525 233.459C136.558 231.467 140.279 228.894 143.577 225.832C143.839 225.596 143.451 225.208 143.189 225.444C139.924 228.472 136.237 231.012 132.247 232.986C131.935 233.146 132.213 233.619 132.525 233.459Z" fill="#281A24"/>
<path d="M191.876 233.855C187.886 231.881 184.199 229.341 180.934 226.313C180.681 226.077 180.293 226.456 180.546 226.701C183.845 229.763 187.565 232.328 191.598 234.328C191.919 234.479 192.189 234.007 191.876 233.855Z" fill="#281A24"/>
<path d="M151.423 94.8036C149.98 93.8924 149.66 92.1376 149.592 90.5515C149.533 89.0583 149.711 87.5144 150.343 86.1477C150.993 84.7388 152.149 83.6842 153.439 82.8574C154.764 82.0137 156.266 81.5919 157.649 80.8664C157.961 80.7061 157.683 80.2336 157.371 80.3939C155.667 81.2882 153.87 81.7944 152.309 82.9671C151.06 83.912 150.099 85.0847 149.567 86.5695C149.019 88.1049 148.926 89.8091 149.095 91.4205C149.255 92.9391 149.786 94.4155 151.128 95.2676C151.448 95.4616 151.718 94.9892 151.423 94.8036Z" fill="#2B1C27"/>
<path d="M163.968 81.0435C162.374 82.2668 161.429 84.4688 162.829 86.2152C163.538 87.101 164.533 87.6831 165.2 88.6111C166.027 89.7585 166.406 91.1674 166.052 92.5594C165.968 92.8969 166.491 93.0403 166.575 92.7029C167.115 90.5684 166.128 88.5183 164.542 87.101C163.74 86.3839 162.804 85.7174 162.686 84.5531C162.559 83.313 163.285 82.2331 164.23 81.5075C164.517 81.3051 164.247 80.8326 163.968 81.0435Z" fill="#2B1C27"/>
<path d="M143.889 87.5649C143.248 91.1251 145.661 94.1539 148.58 95.8496C148.884 96.0268 149.154 95.5543 148.858 95.3772C146.176 93.8164 143.83 91.007 144.421 87.7083C144.48 87.3624 143.957 87.219 143.889 87.5649Z" fill="#2B1C27"/>
<path d="M189.944 259.806C190.948 261.974 191.961 264.235 193.285 266.226C194.568 268.15 196.272 269.736 197.959 271.297C198.212 271.533 198.6 271.153 198.347 270.908C196.643 269.331 194.914 267.736 193.648 265.779C192.383 263.822 191.387 261.637 190.417 259.527C190.265 259.215 189.793 259.485 189.944 259.806Z" fill="#281A24"/>
<path d="M127.548 270.242C128.357 269.407 129.159 268.563 129.952 267.703C130.652 266.943 131.386 266.192 131.977 265.332C132.559 264.48 132.989 263.527 133.428 262.59C133.883 261.611 134.322 260.624 134.643 259.595C134.744 259.258 134.221 259.114 134.12 259.452C133.799 260.472 133.369 261.434 132.913 262.404C132.491 263.316 132.07 264.235 131.504 265.062C130.905 265.931 130.138 266.699 129.429 267.475C128.687 268.285 127.927 269.078 127.168 269.862C126.915 270.107 127.303 270.495 127.548 270.242Z" fill="#281A24"/>
<path d="M88.5285 180.519C87.6764 187.58 79.0374 193.334 79.0374 193.334C77.8141 192.229 76.4221 189.394 76.4221 189.394C81.5599 185.151 85.5082 178.013 85.5082 178.013C86.8918 178.764 88.5285 180.519 88.5285 180.519Z" fill="#F9F5EC"/>
<path d="M107.823 193.841C111.56 196.954 114.057 201.577 113.982 206.504C113.973 206.833 114.488 206.833 114.488 206.504C114.564 201.45 112.016 196.675 108.186 193.478C107.933 193.267 107.57 193.63 107.823 193.841Z" fill="#281A24"/>
<path d="M87.339 180.983C87.339 181.574 86.8581 182.055 86.2675 182.055C85.677 182.055 85.1961 181.574 85.1961 180.983C85.1961 180.393 85.677 179.912 86.2675 179.912C86.8581 179.903 87.339 180.384 87.339 180.983Z" fill="#382632"/>
<path d="M77.9322 179.051L65.3026 181.793C64.7964 181.903 64.3071 181.582 64.1974 181.084L58.1062 152.982C57.9966 152.476 58.3172 151.987 58.8149 151.877L71.4445 149.135C71.9506 149.025 72.44 149.346 72.5496 149.844L78.6493 177.937C78.7505 178.452 78.4384 178.941 77.9322 179.051Z" fill="#281A24"/>
<path d="M77.6876 178.275L65.3617 180.949C65.1846 180.992 65.0074 180.873 64.9652 180.696L58.8909 152.991C58.8487 152.813 58.9668 152.636 59.144 152.594L71.4698 149.92C71.647 149.878 71.8242 149.996 71.8663 150.173L77.9491 177.878C77.9828 178.064 77.8647 178.241 77.6876 178.275Z" fill="white"/>
<path d="M61.2615 167.974C58.9499 169.231 56.537 172.749 57.0938 174.023C57.5325 175.018 59.3464 174.942 59.3464 174.942C59.1439 177.406 61.5989 177.583 61.5989 177.583C61.2109 179.009 63.2272 179.481 63.2272 179.481C63.2272 179.481 63.4297 179.76 63.9949 180.123C63.9949 180.123 63.6828 177.937 64.8808 177.338C66.9984 176.284 68.6941 173.694 68.0782 172.58C67.2093 171.011 64.6445 174.006 64.6445 174.006C64.324 172.96 66.6187 170.716 65.851 169.703C64.9989 168.573 62.4257 170.952 62.4257 170.952C63.32 169.594 64.6446 168.396 63.9949 167.56C63.4972 166.919 62.2486 167.442 61.2615 167.974Z" fill="#FFA18A"/>
<path d="M202.473 365.398L185.844 363.913C185.212 363.854 184.731 363.331 184.731 362.698V302.056L202.473 304.267V365.398Z" fill="#1E1C1E"/>
<path d="M227.698 346.23L202.464 365.407V304.275L228.179 290.76V345.26C228.188 345.631 228.002 345.994 227.698 346.23Z" fill="#383638"/>
<path d="M184.731 302.056L211.179 290.853C211.331 290.785 211.491 290.76 211.652 290.76H228.187L202.473 304.275L184.731 302.056Z" fill="#2B292B"/>
<path opacity="0.4" d="M193.969 364.639L192.475 364.512V303.018L193.969 303.212V364.639Z" fill="white"/>
<path opacity="0.2" d="M193.969 303.212L192.475 303.018L216.216 290.751H217.785L193.969 303.212Z" fill="white"/>
<path d="M200.347 297.99C200.347 295.164 199.174 288.954 202.127 287.267C203.865 286.271 206.581 285.993 208.53 285.841C209.661 285.748 210.572 285.386 211.044 286.668C211.255 287.242 211.196 288.052 211.238 288.667C211.39 290.734 211.441 292.81 211.458 294.877H213.499C213.474 292.034 213.634 288.912 213.01 286.128C212.04 281.834 205.4 284.036 202.507 284.981C199.301 286.027 198.339 287.621 198.314 290.92C198.297 293.282 198.305 295.636 198.305 297.998H200.347V297.99Z" fill="#1E1C1E"/>
<path d="M213.752 266.479C213.474 268.327 213.82 273.903 213.963 282.635C214.006 285.183 213.086 287.335 211.357 289.106C210.369 290.11 209.543 290.228 207.611 291.62C203.637 294.48 200.549 297.467 199.815 296.918C199.528 296.708 199.52 296.303 199.528 295.847C199.528 295.847 198.778 296.193 198.533 295.788C198.238 295.299 199.478 293.097 200.305 291.595C201.511 289.385 202.549 287.495 202.878 285.166C203.181 283.023 202.987 281.944 202.194 281.91C201.098 281.859 198.938 290.363 196.702 289.477C195.816 289.123 196.896 279.877 199.123 274.874C201.511 269.508 202.802 265.897 203.139 264.606C203.139 264.606 205.307 264.455 208.429 265.045C211.804 265.678 213.752 266.479 213.752 266.479Z" fill="#FFA18A"/>
<path d="M215.929 267.441C208.361 263.619 200.507 264.674 200.507 264.674C200.364 266.31 201.123 269.196 201.123 269.196C207.779 268.816 215.676 271.423 215.676 271.423C216.182 269.93 215.929 267.441 215.929 267.441Z" fill="#F9F5EC"/>
<g opacity="0.7">
<path d="M199.773 295.898C200.516 295.661 201.131 295.13 201.688 294.607C202.304 294.025 202.886 293.417 203.435 292.768C204.515 291.485 205.4 290.068 206.058 288.532C206.151 288.321 205.839 288.136 205.746 288.347C205.113 289.815 204.278 291.19 203.257 292.413C202.76 293.012 202.228 293.577 201.671 294.117C201.098 294.674 200.465 295.29 199.689 295.535C199.453 295.619 199.554 295.965 199.773 295.898Z" fill="#FF7A5A"/>
</g>
<g opacity="0.7">
<path d="M208.159 289.595C207.838 290.363 207.349 291.047 206.877 291.73C206.818 291.814 206.86 291.932 206.944 291.983C207.037 292.034 207.138 292 207.197 291.916C207.678 291.241 208.159 290.549 208.48 289.781C208.522 289.688 208.505 289.587 208.412 289.528C208.328 289.486 208.193 289.503 208.159 289.595Z" fill="#FF7A5A"/>
</g>
<path d="M200.321 297.239L198.339 297.509V291.89L200.153 291.856L200.321 297.239Z" fill="#1E1C1E"/>
<g opacity="0.7">
<path d="M64.2902 174.006C63.185 174.774 62.3076 175.845 61.7845 177.085C61.7424 177.178 61.7592 177.279 61.852 177.338C61.928 177.381 62.063 177.364 62.1051 177.271C62.6029 176.09 63.4297 175.061 64.4842 174.318C64.6614 174.183 64.4842 173.871 64.2902 174.006Z" fill="#FF7A5A"/>
</g>
<g opacity="0.7">
<path d="M59.7007 174.833C60.3419 173.475 61.2362 172.268 62.3498 171.256C62.527 171.095 62.2654 170.842 62.0883 170.994C60.9578 172.024 60.0382 173.264 59.3886 174.647C59.2789 174.858 59.5995 175.044 59.7007 174.833Z" fill="#FF7A5A"/>
</g>
<path d="M65.4882 152.577C65.7259 152.577 65.9185 152.385 65.9185 152.147C65.9185 151.909 65.7259 151.717 65.4882 151.717C65.2506 151.717 65.058 151.909 65.058 152.147C65.058 152.385 65.2506 152.577 65.4882 152.577Z" fill="#281A24"/>
<path d="M202.228 115.382C201.812 116.521 203.243 118.318 204.929 118.664C206.524 118.991 208.487 118.049 208.608 116.853C208.723 115.708 207.123 114.635 205.828 114.337C204.512 114.034 202.613 114.325 202.228 115.382Z" fill="white"/>
<path d="M202.28 115.401C202.358 115.428 202.45 115.333 202.61 115.224C202.766 115.113 203.002 114.983 203.333 114.89C203.661 114.796 204.076 114.739 204.524 114.741C204.971 114.744 205.451 114.802 205.881 114.943C206.32 115.086 206.752 115.308 207.105 115.557C207.46 115.805 207.731 116.092 207.866 116.33C207.932 116.45 207.967 116.553 207.981 116.636C207.993 116.719 207.989 116.784 207.979 116.841C207.953 116.956 207.91 117.034 207.907 117.039C207.902 117.045 207.868 117.121 207.758 117.25C207.648 117.377 207.45 117.556 207.153 117.717C206.858 117.878 206.471 118.021 206.046 118.089C205.834 118.122 205.612 118.139 205.393 118.128C205.173 118.118 204.96 118.086 204.746 118.021C204.316 117.896 203.901 117.66 203.555 117.385C203.209 117.109 202.93 116.794 202.746 116.502C202.558 116.209 202.464 115.947 202.417 115.755C202.368 115.563 202.357 115.43 202.28 115.401C202.244 115.387 202.199 115.406 202.146 115.46C202.12 115.487 202.097 115.524 202.07 115.57C202.047 115.616 202.023 115.672 202.005 115.736C201.926 115.995 201.94 116.397 202.097 116.822C202.252 117.249 202.539 117.695 202.933 118.096C203.328 118.493 203.833 118.848 204.424 119.065C204.718 119.175 205.036 119.242 205.344 119.271C205.653 119.298 205.957 119.289 206.246 119.254C206.825 119.18 207.348 119.004 207.774 118.776C208.2 118.55 208.529 118.271 208.735 118.023C208.944 117.779 209.028 117.58 209.038 117.568C209.042 117.561 209.065 117.511 209.102 117.422C209.12 117.377 209.138 117.32 209.16 117.254C209.169 117.22 209.178 117.183 209.187 117.145C209.197 117.106 209.205 117.064 209.211 117.019C209.239 116.84 209.243 116.614 209.192 116.378C209.143 116.142 209.045 115.898 208.906 115.678C208.628 115.232 208.214 114.864 207.744 114.563C207.27 114.264 206.735 114.028 206.158 113.888C205.573 113.747 204.989 113.737 204.456 113.8C203.922 113.865 203.432 114.012 203.045 114.227C202.852 114.334 202.685 114.458 202.556 114.588C202.426 114.717 202.335 114.854 202.281 114.974C202.253 115.033 202.238 115.092 202.225 115.141C202.217 115.192 202.212 115.235 202.214 115.272C202.221 115.346 202.244 115.388 202.28 115.401Z" fill="#003366"/>
<path d="M197.641 119.112C197.382 119.918 198.285 120.989 199.302 121.214C200.298 121.435 201.556 120.878 201.675 120.042C201.789 119.243 200.824 118.464 199.96 118.265C199.092 118.065 197.886 118.349 197.641 119.112Z" fill="white"/>
<path d="M197.694 119.129C197.731 119.141 197.774 119.134 197.818 119.116C197.84 119.107 197.863 119.095 197.885 119.081C197.908 119.068 197.938 119.055 197.964 119.039C198.071 118.976 198.209 118.903 198.401 118.842C198.59 118.78 198.836 118.738 199.102 118.732C199.235 118.73 199.373 118.734 199.507 118.754C199.576 118.76 199.641 118.776 199.707 118.787C199.77 118.805 199.834 118.818 199.895 118.842C199.956 118.86 200.018 118.889 200.08 118.913C200.14 118.944 200.202 118.969 200.26 119.004C200.379 119.068 200.489 119.144 200.588 119.221C200.689 119.298 200.769 119.383 200.841 119.46C200.905 119.541 200.964 119.616 200.993 119.682C201.061 119.816 201.063 119.893 201.056 119.941C201.056 119.991 201.038 120.024 201.038 120.027C201.037 120.03 201.026 120.061 200.984 120.125C200.939 120.187 200.85 120.286 200.693 120.385C200.538 120.484 200.318 120.577 200.072 120.628C199.825 120.677 199.559 120.685 199.321 120.627C199.074 120.569 198.82 120.442 198.607 120.288C198.394 120.133 198.219 119.954 198.1 119.789C197.978 119.625 197.91 119.478 197.857 119.362C197.806 119.247 197.77 119.154 197.694 119.129C197.623 119.104 197.519 119.165 197.445 119.34C197.372 119.511 197.354 119.793 197.445 120.095C197.533 120.398 197.719 120.717 197.986 120.998C198.253 121.278 198.601 121.528 199.02 121.676C199.23 121.752 199.454 121.794 199.669 121.811C199.885 121.825 200.096 121.817 200.298 121.787C200.701 121.729 201.066 121.593 201.364 121.413C201.663 121.236 201.892 121.005 202.027 120.803C202.163 120.602 202.211 120.448 202.216 120.438C202.218 120.432 202.233 120.395 202.251 120.325C202.261 120.29 202.271 120.248 202.28 120.197C202.29 120.147 202.295 120.089 202.298 120.024C202.301 119.96 202.308 119.887 202.297 119.812C202.293 119.775 202.289 119.735 202.284 119.695C202.281 119.675 202.279 119.654 202.275 119.634C202.271 119.614 202.266 119.594 202.261 119.574C202.24 119.493 202.218 119.405 202.182 119.325C202.165 119.284 202.147 119.242 202.129 119.199C202.107 119.161 202.085 119.121 202.063 119.08C201.879 118.757 201.6 118.484 201.277 118.261C201.113 118.153 200.94 118.052 200.753 117.973C200.567 117.892 200.371 117.825 200.163 117.783C200.061 117.759 199.955 117.749 199.852 117.737C199.75 117.731 199.648 117.724 199.548 117.729C199.448 117.728 199.351 117.74 199.255 117.748C199.159 117.763 199.065 117.774 198.974 117.797C198.929 117.808 198.884 117.819 198.84 117.829C198.796 117.843 198.752 117.856 198.709 117.87C198.623 117.894 198.542 117.932 198.463 117.964C198.306 118.037 198.163 118.118 198.042 118.215C198.013 118.24 197.983 118.263 197.955 118.287C197.928 118.312 197.902 118.339 197.877 118.364C197.853 118.39 197.829 118.413 197.808 118.441C197.787 118.468 197.768 118.495 197.75 118.521C197.712 118.57 197.685 118.626 197.662 118.676C197.651 118.701 197.64 118.725 197.631 118.748C197.624 118.773 197.618 118.797 197.613 118.819C197.605 118.865 197.596 118.903 197.598 118.94C197.6 118.977 197.605 119.009 197.613 119.035C197.629 119.087 197.657 119.117 197.694 119.129Z" fill="#003366"/>
<path d="M242.233 107.917C242.707 105.862 242.349 103.809 241.379 102.11C242.868 101.305 244.017 99.8911 244.427 98.1139C245.185 94.8288 243.131 91.5506 239.841 90.792C239.447 90.7012 239.054 90.6517 238.665 90.6386C237.512 86.9174 233.98 83.7187 229.288 82.6367C222.759 81.1314 216.455 84.2937 215.209 89.7001C215.061 90.3404 214.992 90.9834 214.994 91.622C211.223 91.6684 207.831 94.2717 206.947 98.1048C206.769 98.8804 206.704 99.6557 206.743 100.413C205.864 101.398 205.221 102.595 204.908 103.948C203.978 107.985 206.307 112.059 210.242 113.714C210.698 117.641 213.569 121.04 217.648 121.98C220.063 122.537 222.476 122.133 224.484 121.019C225.109 121.274 225.767 121.484 226.454 121.642C232.067 122.937 237.469 120.295 238.518 115.743C238.731 114.819 238.749 113.887 238.594 112.978C240.372 111.885 241.727 110.11 242.233 107.917Z" fill="white"/>
<path d="M242.178 107.905C242.106 107.886 241.965 108.486 241.47 109.446C241.218 109.921 240.869 110.482 240.37 111.053C240.123 111.34 239.832 111.622 239.507 111.899C239.345 112.039 239.169 112.171 238.987 112.303C238.941 112.335 238.894 112.367 238.847 112.399L238.776 112.448C238.75 112.465 238.737 112.476 238.69 112.505C238.534 112.604 238.372 112.704 238.211 112.809C238.228 112.927 238.247 113.045 238.262 113.166C238.27 113.227 238.278 113.288 238.286 113.349L238.291 113.396L238.294 113.423L238.299 113.479C238.311 113.628 238.32 113.779 238.322 113.932C238.328 114.238 238.312 114.552 238.273 114.871C238.233 115.189 238.174 115.513 238.079 115.834C238.055 115.914 238.035 115.996 238.009 116.076C237.981 116.156 237.953 116.237 237.925 116.317L237.883 116.438L237.833 116.557C237.8 116.636 237.766 116.716 237.733 116.797C237.694 116.875 237.656 116.953 237.617 117.032L237.559 117.151C237.539 117.19 237.516 117.228 237.494 117.266C237.45 117.343 237.406 117.421 237.362 117.498C237.315 117.574 237.265 117.649 237.216 117.725L237.142 117.839C237.116 117.876 237.088 117.912 237.062 117.949C237.008 118.022 236.953 118.096 236.899 118.17C236.84 118.241 236.782 118.312 236.722 118.383C236.692 118.419 236.664 118.455 236.633 118.49L236.538 118.593C236.289 118.872 236.005 119.128 235.707 119.375C235.408 119.62 235.081 119.84 234.742 120.05C233.372 120.871 231.702 121.354 229.956 121.438C229.738 121.446 229.519 121.456 229.298 121.45C229.078 121.453 228.857 121.438 228.635 121.428C228.192 121.395 227.747 121.35 227.304 121.267C226.861 121.19 226.419 121.091 225.983 120.964C225.764 120.901 225.547 120.832 225.332 120.756C225.225 120.719 225.118 120.679 225.011 120.638L224.923 120.604L224.766 120.542L224.453 120.415C224.261 120.516 224.068 120.616 223.875 120.717L223.523 120.881C223.405 120.933 223.284 120.98 223.164 121.03C223.044 121.079 222.921 121.119 222.799 121.164C222.308 121.333 221.801 121.459 221.286 121.541C220.257 121.706 219.196 121.69 218.169 121.497C217.141 121.304 216.152 120.931 215.259 120.408C214.813 120.146 214.39 119.848 213.998 119.516C213.606 119.184 213.245 118.82 212.918 118.431C212.59 118.042 212.298 117.628 212.042 117.196C211.788 116.763 211.571 116.313 211.394 115.852C211.217 115.391 211.078 114.92 210.98 114.445C210.952 114.327 210.934 114.207 210.913 114.089L210.898 114C210.896 113.992 210.891 113.952 210.887 113.924L210.875 113.834C210.859 113.714 210.842 113.594 210.826 113.474L210.802 113.294L210.643 113.223C210.536 113.175 210.43 113.128 210.324 113.08L210.164 113.009C210.132 112.995 210.127 112.991 210.111 112.984L210.072 112.964L209.912 112.884C209.065 112.454 208.31 111.898 207.677 111.26C207.043 110.623 206.529 109.907 206.154 109.158C205.778 108.41 205.535 107.635 205.416 106.879C205.359 106.5 205.331 106.127 205.329 105.763C205.324 105.399 205.357 105.046 205.403 104.705C205.502 104.023 205.685 103.396 205.924 102.844C206.161 102.291 206.447 101.809 206.746 101.401C206.782 101.348 206.822 101.3 206.859 101.251C206.896 101.201 206.934 101.153 206.972 101.107C206.991 101.084 207.01 101.06 207.029 101.037L207.057 101.003L207.115 100.936C207.196 100.842 207.276 100.75 207.354 100.659L207.369 100.642C207.371 100.639 207.375 100.637 207.375 100.633L207.375 100.622L207.373 100.576L207.37 100.485C207.367 100.424 207.365 100.364 207.363 100.304L207.36 100.215L207.358 100.145C207.357 100.118 207.357 100.091 207.357 100.064C207.355 99.957 207.357 99.8531 207.36 99.7528C207.371 99.3514 207.413 99.0072 207.46 98.7256C207.506 98.4437 207.558 98.2244 207.598 98.0705C207.635 97.9155 207.664 97.8264 207.671 97.8044C207.677 97.7845 207.7 97.7084 207.739 97.5797C207.784 97.4531 207.842 97.2727 207.934 97.0505C207.976 96.9377 208.036 96.8187 208.093 96.6853C208.124 96.6197 208.16 96.5525 208.194 96.4819C208.212 96.4466 208.23 96.4108 208.248 96.3743C208.268 96.3386 208.288 96.3021 208.309 96.2651C208.471 95.9678 208.675 95.6383 208.937 95.2965C209.197 94.9541 209.515 94.5999 209.897 94.2549C209.945 94.2119 209.993 94.1687 210.042 94.1249C210.092 94.0831 210.143 94.0409 210.195 93.9983C210.296 93.9108 210.408 93.833 210.517 93.7476C210.742 93.5876 210.978 93.4243 211.236 93.28C211.492 93.1326 211.764 92.9931 212.053 92.8715C212.195 92.8068 212.345 92.7538 212.495 92.6958C212.648 92.6447 212.801 92.5902 212.961 92.5468C213.278 92.456 213.608 92.3786 213.95 92.3296C214.035 92.314 214.122 92.3063 214.208 92.2954C214.295 92.2843 214.382 92.2744 214.47 92.2692L214.595 92.2596C214.642 92.2558 214.689 92.2522 214.738 92.2513C214.835 92.248 214.932 92.2447 215.029 92.2414C215.223 92.2348 215.418 92.2282 215.614 92.2216C215.616 91.9475 215.613 91.6635 215.62 91.3854C215.622 91.3159 215.623 91.2463 215.627 91.1771L215.635 91.042C215.639 90.9776 215.645 90.9131 215.651 90.8484C215.675 90.59 215.713 90.3295 215.764 90.0683C215.876 89.5481 216.026 89.0206 216.248 88.509C216.688 87.4853 217.372 86.5133 218.261 85.6915C219.149 84.8687 220.234 84.1928 221.435 83.7176C222.635 83.2411 223.946 82.9586 225.287 82.8793C226.63 82.7951 228.002 82.931 229.336 83.2477C230.67 83.5666 231.963 84.0825 233.141 84.7807L233.361 84.9126L233.577 85.0509C233.722 85.1409 233.86 85.2413 234.001 85.3365C234.278 85.5357 234.551 85.7391 234.81 85.9589C235.333 86.392 235.812 86.8718 236.247 87.381C236.677 87.8943 237.065 88.4379 237.386 89.0122C237.55 89.2974 237.693 89.5918 237.825 89.889L237.92 90.1131C237.951 90.1881 237.979 90.2642 238.008 90.3396L238.06 90.4765L238.134 90.6998C238.184 90.8478 238.234 90.9959 238.284 91.1436C238.458 91.1502 238.636 91.1556 238.809 91.1642L238.939 91.1731L239.04 91.182L239.168 91.1957C239.339 91.2159 239.508 91.2439 239.675 91.2795C240.009 91.3536 240.335 91.4529 240.647 91.5814C240.959 91.7092 241.258 91.8643 241.539 92.0432C241.819 92.223 242.081 92.427 242.321 92.6497C242.802 93.0958 243.201 93.6163 243.494 94.1787C243.786 94.7409 243.986 95.3384 244.075 95.9395C244.121 96.2396 244.146 96.5397 244.143 96.8364C244.14 97.1331 244.116 97.4258 244.071 97.7118C243.974 98.2824 243.807 98.8264 243.564 99.3148C243.448 99.562 243.307 99.7909 243.162 100.012C243.085 100.118 243.014 100.229 242.93 100.328C242.89 100.379 242.85 100.43 242.81 100.48C242.768 100.528 242.725 100.576 242.683 100.624L242.62 100.696L242.554 100.763C242.51 100.809 242.466 100.854 242.423 100.898C242.331 100.983 242.242 101.07 242.149 101.149C242.054 101.227 241.963 101.307 241.865 101.377C241.817 101.413 241.77 101.449 241.722 101.485C241.647 101.533 241.572 101.581 241.498 101.628C241.357 101.721 241.185 101.821 241.025 101.917L240.965 101.953L240.935 101.971C240.931 101.974 240.925 101.977 240.921 101.98L240.93 101.995L240.999 102.119C241.044 102.201 241.09 102.283 241.135 102.364C241.18 102.444 241.224 102.524 241.267 102.605C241.302 102.673 241.337 102.741 241.371 102.809C241.424 102.906 241.465 103.008 241.511 103.105C241.688 103.499 241.822 103.884 241.925 104.252C242.028 104.62 242.092 104.971 242.142 105.296C242.159 105.459 242.184 105.615 242.192 105.765C242.198 105.841 242.204 105.914 242.209 105.985C242.213 106.056 242.214 106.126 242.216 106.194C242.233 106.737 242.2 107.162 242.179 107.451C242.153 107.741 242.147 107.898 242.178 107.905C242.207 107.912 242.27 107.768 242.352 107.483C242.428 107.198 242.516 106.767 242.55 106.201C242.553 106.131 242.559 106.058 242.561 105.983C242.561 105.908 242.562 105.832 242.562 105.753C242.566 105.596 242.552 105.431 242.546 105.258C242.518 104.914 242.473 104.539 242.387 104.143C242.3 103.748 242.178 103.33 242.01 102.901C241.966 102.795 241.926 102.685 241.875 102.578C241.856 102.536 241.838 102.494 241.819 102.452C241.804 102.418 241.789 102.385 241.772 102.353C241.757 102.32 241.74 102.288 241.724 102.255L241.7 102.207C241.691 102.197 241.706 102.195 241.713 102.19L241.738 102.176C241.807 102.14 241.869 102.109 241.949 102.059C241.987 102.036 242.025 102.013 242.063 101.99C242.117 101.953 242.171 101.916 242.225 101.878C242.336 101.805 242.44 101.72 242.548 101.638C242.655 101.554 242.757 101.462 242.862 101.371C242.913 101.323 242.963 101.275 243.014 101.226L243.091 101.153L243.164 101.076C243.212 101.024 243.261 100.972 243.31 100.92C243.358 100.866 243.404 100.811 243.451 100.756C243.547 100.647 243.632 100.527 243.722 100.41C243.892 100.169 244.058 99.9157 244.197 99.6421C244.488 99.0999 244.696 98.4921 244.823 97.8492C244.882 97.5267 244.919 97.1947 244.931 96.8569C244.942 96.5188 244.923 96.1754 244.879 95.8307C244.793 95.1406 244.579 94.4494 244.257 93.7954C243.934 93.1412 243.486 92.5304 242.938 92.0023C242.664 91.7387 242.364 91.4957 242.041 91.2807C241.718 91.0665 241.373 90.8793 241.011 90.7237C240.649 90.5676 240.27 90.4451 239.881 90.3527C239.686 90.308 239.488 90.2721 239.289 90.2452L239.139 90.2267L239.075 90.2195C239.048 90.2166 239.022 90.2142 238.996 90.2127C238.987 90.1919 238.981 90.1667 238.974 90.1444L238.964 90.11L238.925 90.0055C238.894 89.9219 238.865 89.8374 238.832 89.7543L238.731 89.5058C238.591 89.1764 238.437 88.8504 238.262 88.535C237.919 87.9 237.503 87.3004 237.043 86.7351C236.576 86.1745 236.063 85.6465 235.503 85.1703C235.225 84.9284 234.932 84.7052 234.636 84.4857C234.335 84.273 234.03 84.0634 233.713 83.8741C233.083 83.4876 232.419 83.1554 231.736 82.871C231.053 82.5852 230.348 82.355 229.632 82.1749C228.916 81.998 228.188 81.8665 227.457 81.7908C226.725 81.714 225.989 81.6984 225.26 81.7333C223.802 81.8049 222.366 82.0982 221.036 82.6121C219.708 83.1277 218.487 83.8665 217.473 84.7917C216.457 85.7142 215.657 86.8269 215.139 88.0118C214.88 88.6049 214.7 89.2149 214.569 89.8196C214.508 90.123 214.463 90.4262 214.433 90.7269C214.424 90.8347 214.415 90.941 214.407 91.0461L214.397 91.0457L214.392 91.0456L214.389 91.0456L214.387 91.0456L214.352 91.0481C214.247 91.0542 214.142 91.0672 214.039 91.0793C213.935 91.0909 213.832 91.103 213.731 91.1207C213.526 91.1498 213.326 91.1915 213.129 91.232C212.933 91.2796 212.739 91.3255 212.551 91.3833C211.795 91.6049 211.107 91.9169 210.501 92.2766C210.198 92.4571 209.913 92.6472 209.651 92.8489C209.386 93.0467 209.145 93.2574 208.92 93.4662C208.473 93.8891 208.104 94.3229 207.802 94.7404C207.199 95.5782 206.864 96.3384 206.664 96.8767C206.466 97.4179 206.397 97.7423 206.383 97.7889C206.372 97.8405 206.265 98.2039 206.181 98.855C206.14 99.1802 206.107 99.5776 206.111 100.04C206.111 100.068 206.111 100.098 206.111 100.127C206.112 100.148 206.112 100.168 206.113 100.189C206.113 100.191 206.113 100.19 206.113 100.191C206.114 100.19 206.11 100.195 206.109 100.197C206.093 100.216 206.077 100.235 206.061 100.255C205.893 100.457 205.727 100.681 205.563 100.923C205.234 101.407 204.924 101.977 204.672 102.627C204.547 102.952 204.436 103.297 204.347 103.66C204.299 103.841 204.267 104.028 204.227 104.217C204.199 104.408 204.162 104.601 204.146 104.799C204.1 105.195 204.086 105.606 204.101 106.027C204.115 106.447 204.16 106.878 204.244 107.312C204.408 108.179 204.71 109.063 205.167 109.904C205.621 110.744 206.222 111.544 206.956 112.249C207.689 112.955 208.557 113.56 209.52 114.023L209.61 114.068L209.63 114.078L209.635 114.08L209.644 114.084L209.682 114.1L209.701 114.108C209.704 114.11 209.709 114.11 209.71 114.113L209.711 114.12L209.716 114.149C209.733 114.245 209.75 114.34 209.767 114.436C209.788 114.57 209.821 114.702 209.849 114.835C209.97 115.365 210.135 115.891 210.344 116.404C210.762 117.429 211.356 118.401 212.103 119.259C212.847 120.119 213.751 120.856 214.757 121.426C215.261 121.71 215.79 121.953 216.336 122.148C216.883 122.344 217.447 122.489 218.019 122.591C219.164 122.79 220.345 122.791 221.485 122.593C222.056 122.494 222.616 122.346 223.158 122.153C223.293 122.101 223.429 122.055 223.561 121.999C223.693 121.942 223.826 121.889 223.956 121.829C224.085 121.767 224.215 121.707 224.343 121.643L224.472 121.573L224.513 121.55L224.649 121.6C224.766 121.643 224.882 121.684 224.999 121.723C225.233 121.802 225.469 121.873 225.706 121.939C226.179 122.069 226.658 122.171 227.138 122.247C227.617 122.329 228.099 122.372 228.578 122.4C228.818 122.408 229.057 122.42 229.295 122.414C229.414 122.411 229.533 122.415 229.652 122.407C229.77 122.401 229.889 122.396 230.007 122.39C231.895 122.268 233.702 121.714 235.188 120.782C235.556 120.543 235.91 120.293 236.235 120.015C236.558 119.736 236.865 119.445 237.134 119.128L237.237 119.011C237.271 118.972 237.302 118.93 237.334 118.89C237.397 118.809 237.461 118.729 237.524 118.648C237.582 118.564 237.641 118.481 237.699 118.398L237.785 118.273L237.864 118.144C237.916 118.058 237.97 117.974 238.02 117.888C238.067 117.8 238.114 117.712 238.161 117.625C238.183 117.581 238.208 117.539 238.229 117.494L238.291 117.361C238.331 117.272 238.371 117.183 238.412 117.095C238.446 117.005 238.481 116.915 238.516 116.825L238.567 116.691C238.581 116.646 238.596 116.601 238.61 116.556C238.639 116.465 238.667 116.375 238.695 116.286C238.722 116.196 238.741 116.104 238.765 116.015C238.858 115.656 238.913 115.296 238.945 114.943C238.976 114.591 238.982 114.245 238.962 113.91C238.954 113.742 238.938 113.577 238.918 113.416L238.904 113.309L238.893 113.241C238.886 113.195 238.876 113.15 238.867 113.104C238.923 113.06 238.986 113.019 239.046 112.977C239.142 112.905 239.237 112.833 239.33 112.763C239.52 112.613 239.701 112.463 239.867 112.306C240.2 111.993 240.494 111.677 240.738 111.357C241.233 110.722 241.557 110.107 241.774 109.589C241.989 109.07 242.094 108.645 242.152 108.358C242.201 108.066 242.208 107.911 242.178 107.905Z" fill="#003366"/>
<g clip-path="url(#clip0_229_5437)">
<path d="M229.183 104.755L229.183 104.755C229.179 104.758 229.177 104.76 229.175 104.762C229.158 104.774 229.152 104.779 228.568 105.352C228.237 105.678 227.72 106.186 226.91 106.982C226.103 107.776 225.004 108.856 223.508 110.326L223.453 110.381L223.426 110.307L220.803 102.91L229.183 104.755ZM229.183 104.755L229.184 104.754M229.183 104.755L229.184 104.754M229.184 104.754C230.001 104.025 230.562 103.075 230.808 102.007C231.468 99.1462 229.694 96.2855 226.853 95.6305C224.007 94.9742 221.166 96.7699 220.506 99.6318C220.26 100.698 220.347 101.835 220.791 102.88L229.184 104.754ZM227.351 108.04L227.297 108.094L227.368 108.122C228.31 108.497 229.554 109.098 230.506 109.848C231.46 110.602 232.101 111.491 231.881 112.444C231.756 112.989 231.378 113.409 230.81 113.718C230.242 114.028 229.487 114.225 228.617 114.323C226.877 114.519 224.691 114.318 222.653 113.848C220.474 113.345 218.489 112.565 217.065 111.653C216.045 111 215.482 110.395 215.194 109.868C214.906 109.343 214.891 108.893 214.971 108.546C215.191 107.592 216.158 107.073 217.346 106.814C218.531 106.556 219.912 106.561 220.921 106.636L220.998 106.642L220.972 106.569L219.806 103.282L219.806 103.282L219.805 103.279C219.282 102.039 219.173 100.679 219.47 99.3928C220.258 95.9737 223.686 93.8088 227.092 94.5941C230.51 95.382 232.632 98.8324 231.845 102.246C231.548 103.533 230.87 104.677 229.884 105.555L229.884 105.555C229.875 105.564 229.871 105.566 229.868 105.569C229.843 105.589 229.821 105.613 227.351 108.04ZM221.4 107.775L221.389 107.745L221.358 107.742C219.65 107.566 218.356 107.656 217.47 107.872C217.027 107.98 216.683 108.12 216.44 108.276C216.198 108.431 216.049 108.605 216.007 108.784C215.947 109.048 216.082 109.368 216.368 109.707C216.655 110.049 217.105 110.421 217.698 110.795C218.886 111.542 220.658 112.296 222.892 112.811C225.139 113.33 227.064 113.425 228.456 113.272C229.151 113.195 229.716 113.056 230.122 112.874C230.525 112.694 230.785 112.467 230.845 112.205C230.886 112.026 230.829 111.804 230.679 111.559C230.528 111.312 230.281 111.036 229.93 110.745C229.227 110.162 228.104 109.515 226.491 108.926L226.461 108.915L226.439 108.937L223.603 111.725L223.638 111.76L223.603 111.725C223.473 111.852 223.288 111.904 223.111 111.864C222.934 111.823 222.79 111.694 222.729 111.523L221.4 107.775Z" fill="#003366" stroke="#EDF1F4" stroke-width="0.1"/>
<path d="M222.871 100.177C223.225 98.6409 224.763 97.6793 226.299 98.0335C227.836 98.3876 228.797 99.9256 228.443 101.462C228.089 102.998 226.551 103.959 225.015 103.605C223.479 103.251 222.517 101.713 222.871 100.177ZM223.908 100.416C223.685 101.381 224.289 102.346 225.254 102.569C226.218 102.791 227.184 102.187 227.407 101.223C227.629 100.258 227.025 99.2923 226.06 99.0699C225.096 98.8474 224.13 99.4513 223.908 100.416Z" fill="#003366" stroke="#EDF1F4" stroke-width="0.1"/>
</g>
<path d="M172.755 63.2546C172.608 64.4502 174.393 65.8702 176.102 65.8285C177.718 65.789 179.408 64.4398 179.258 63.2546C179.114 62.1212 177.326 61.4402 176.007 61.4406C174.665 61.4409 172.892 62.1456 172.755 63.2546Z" fill="white"/>
<path d="M172.81 63.2613C172.892 63.2704 172.96 63.1579 173.09 63.0169C173.217 62.8739 173.416 62.6961 173.715 62.5318C174.012 62.3678 174.401 62.2203 174.835 62.1221C175.268 62.025 175.745 61.9747 176.193 62.0152C176.65 62.0554 177.117 62.1734 177.515 62.3358C177.914 62.4965 178.24 62.7138 178.424 62.9146C178.514 63.0152 178.571 63.1076 178.603 63.1846C178.634 63.2624 178.644 63.326 178.647 63.3836C178.647 63.5003 178.623 63.5852 178.621 63.5913C178.618 63.5979 178.602 63.6793 178.524 63.8286C178.447 63.9764 178.294 64.1935 178.043 64.4158C177.793 64.6372 177.451 64.8622 177.055 65.0226C176.857 65.1015 176.646 65.1676 176.432 65.2063C176.216 65.2453 176.003 65.2621 175.781 65.2469C175.338 65.2218 174.883 65.0864 174.487 64.8974C174.091 64.7066 173.75 64.4643 173.506 64.2229C173.26 63.9818 173.11 63.7488 173.022 63.5734C172.932 63.3989 172.891 63.2726 172.81 63.2613C172.772 63.2565 172.733 63.2841 172.694 63.3483C172.674 63.3804 172.661 63.4214 172.645 63.4717C172.632 63.5216 172.622 63.5809 172.619 63.6474C172.601 63.9148 172.703 64.3013 172.951 64.6775C173.195 65.0558 173.573 65.4242 174.043 65.7239C174.514 66.0202 175.083 66.2506 175.703 66.3288C176.011 66.37 176.335 66.3633 176.639 66.3231C176.944 66.2808 177.236 66.2041 177.509 66.1057C178.052 65.9046 178.519 65.6179 178.88 65.3024C179.242 64.9883 179.499 64.6445 179.642 64.3582C179.79 64.0758 179.827 63.8641 179.834 63.8512C179.836 63.8434 179.847 63.7892 179.864 63.6954C179.871 63.6478 179.876 63.5883 179.882 63.5199C179.883 63.4851 179.883 63.4474 179.884 63.4077C179.885 63.368 179.883 63.3255 179.879 63.2804C179.867 63.1013 179.819 62.8814 179.718 62.6643C179.618 62.4472 179.468 62.2328 179.284 62.0514C178.916 61.6817 178.434 61.4179 177.911 61.2309C177.386 61.0476 176.815 60.9385 176.226 60.9313C175.628 60.9259 175.061 61.0463 174.559 61.2261C174.057 61.4087 173.615 61.6606 173.288 61.9545C173.125 62.1014 172.992 62.258 172.896 62.4128C172.799 62.5673 172.741 62.7195 172.716 62.8483C172.702 62.9116 172.701 62.972 172.699 63.0217C172.702 63.0733 172.707 63.1159 172.718 63.1508C172.741 63.2214 172.772 63.2566 172.81 63.2613Z" fill="#003366"/>
<path d="M169.148 67.8878C169.078 68.7257 170.191 69.5611 171.225 69.5523C172.238 69.5436 173.331 68.7234 173.26 67.8878C173.192 67.0891 172.084 66.5511 171.204 66.5511C170.319 66.5511 169.215 67.0954 169.148 67.8878Z" fill="white"/>
<path d="M169.204 67.8926C169.242 67.8958 169.282 67.8793 169.321 67.8523C169.341 67.8386 169.36 67.8224 169.378 67.8039C169.397 67.7856 169.423 67.7665 169.444 67.7452C169.535 67.661 169.651 67.5587 169.824 67.4576C169.993 67.3553 170.222 67.2598 170.478 67.1944C170.606 67.1626 170.74 67.136 170.875 67.1249C170.943 67.1158 171.009 67.1169 171.076 67.113C171.141 67.1163 171.205 67.1145 171.269 67.1236C171.333 67.1272 171.399 67.1419 171.464 67.1513C171.53 67.1674 171.595 67.1785 171.66 67.1995C171.789 67.2344 171.912 67.2834 172.025 67.3364C172.14 67.388 172.236 67.4521 172.324 67.5111C172.403 67.5745 172.477 67.6347 172.519 67.692C172.615 67.8065 172.634 67.8806 172.639 67.9287C172.65 67.977 172.639 68.0126 172.641 68.0152C172.64 68.0184 172.636 68.0512 172.61 68.1222C172.58 68.1925 172.517 68.3082 172.386 68.4392C172.258 68.5699 172.066 68.7089 171.839 68.8128C171.611 68.9158 171.356 68.9826 171.112 68.9791C170.861 68.9788 170.587 68.9117 170.346 68.8105C170.105 68.7083 169.896 68.5737 169.744 68.4414C169.589 68.309 169.491 68.1826 169.414 68.0818C169.339 67.9816 169.283 67.9002 169.204 67.8926C169.13 67.8845 169.043 67.9665 169.01 68.1521C168.978 68.3343 169.023 68.6114 169.178 68.8834C169.331 69.1572 169.582 69.4238 169.903 69.6367C170.224 69.848 170.617 70.0117 171.055 70.0618C171.276 70.0886 171.502 70.0788 171.713 70.0474C171.926 70.0136 172.128 69.9583 172.317 69.8845C172.694 69.7379 173.016 69.5249 173.265 69.2846C173.515 69.0464 173.685 68.7714 173.771 68.5464C173.858 68.3209 173.869 68.1618 173.872 68.1509C173.872 68.1446 173.879 68.1051 173.881 68.0333C173.882 67.9977 173.883 67.9544 173.88 67.9035C173.879 67.8525 173.871 67.7952 173.859 67.7317C173.847 67.6686 173.838 67.5968 173.811 67.5268C173.799 67.4914 173.786 67.4545 173.772 67.4162C173.765 67.3974 173.759 67.3776 173.75 67.3589C173.741 67.341 173.732 67.3227 173.723 67.3042C173.684 67.2307 173.644 67.1502 173.591 67.0812C173.565 67.0455 173.539 67.0088 173.512 66.9714C173.482 66.9385 173.452 66.905 173.421 66.8707C173.171 66.5988 172.84 66.3969 172.478 66.2535C172.295 66.1848 172.105 66.126 171.906 66.0913C171.708 66.0542 171.504 66.0333 171.293 66.0395C171.189 66.0389 171.084 66.0527 170.982 66.0641C170.881 66.0809 170.781 66.0974 170.686 66.1236C170.589 66.1453 170.497 66.1787 170.406 66.2082C170.317 66.2442 170.229 66.2754 170.146 66.3182C170.104 66.3387 170.063 66.359 170.022 66.3793C169.983 66.4021 169.944 66.4249 169.905 66.4475C169.828 66.4904 169.757 66.5455 169.688 66.5936C169.552 66.6996 169.432 66.8098 169.337 66.931C169.314 66.9609 169.291 66.9902 169.268 67.0192C169.248 67.0503 169.229 67.0816 169.211 67.1116C169.193 67.1424 169.174 67.1698 169.161 67.201C169.147 67.2322 169.134 67.2624 169.122 67.2916C169.096 67.3481 169.083 67.4079 169.072 67.4616C169.066 67.4885 169.061 67.5137 169.058 67.5383C169.057 67.564 169.056 67.5883 169.057 67.6112C169.058 67.6572 169.059 67.6963 169.069 67.7317C169.079 67.767 169.091 67.7964 169.105 67.8198C169.132 67.8663 169.165 67.8893 169.204 67.8926Z" fill="#003366"/>
<path d="M209.806 47.1037C209.806 45.009 209.002 43.102 207.685 41.6736C208.946 40.5626 209.743 38.9378 209.743 37.1264C209.743 33.778 207.024 31.0636 203.67 31.0636C203.269 31.0636 202.877 31.1035 202.498 31.1776C200.552 27.8335 196.42 25.5259 191.637 25.5259C184.983 25.5259 179.588 29.9929 179.588 35.5033C179.588 36.1558 179.664 36.7936 179.809 37.4112C176.169 38.2976 173.468 41.5739 173.468 45.4807C173.468 46.2713 173.578 47.036 173.785 47.7604C173.154 48.9092 172.798 50.2113 172.798 51.5912C172.798 55.7052 175.962 59.1282 180.139 59.8518C181.457 63.5507 184.994 66.1994 189.151 66.1994C191.613 66.1994 193.858 65.27 195.553 63.7438C196.214 63.8512 196.898 63.9078 197.598 63.9078C203.32 63.9078 207.958 60.1462 207.958 55.5058C207.958 54.5641 207.767 53.6587 207.414 52.8134C208.891 51.3588 209.806 49.3382 209.806 47.1037Z" fill="white"/>
<path d="M209.751 47.1038C209.676 47.1017 209.674 47.7145 209.41 48.7534C209.272 49.2696 209.059 49.8906 208.703 50.5539C208.529 50.8869 208.31 51.225 208.057 51.5657C207.931 51.737 207.791 51.904 207.644 52.0727C207.606 52.1139 207.568 52.1553 207.53 52.197L207.472 52.2598C207.451 52.2825 207.44 52.2961 207.402 52.3341C207.273 52.4653 207.138 52.5982 207.006 52.7351C207.048 52.8454 207.093 52.9562 207.135 53.0699C207.156 53.1267 207.177 53.1837 207.199 53.241L207.214 53.2852L207.223 53.3116L207.24 53.3644C207.285 53.5056 207.327 53.6499 207.364 53.7977C207.438 54.0926 207.493 54.4 207.526 54.7168C207.558 55.0335 207.573 55.3602 207.553 55.6924C207.548 55.7754 207.547 55.859 207.539 55.9426C207.53 56.026 207.521 56.11 207.512 56.1942L207.498 56.3208L207.476 56.447C207.462 56.5313 207.447 56.616 207.433 56.7012C207.413 56.7853 207.393 56.8699 207.373 56.9549L207.344 57.0825C207.333 57.125 207.319 57.1667 207.306 57.2089C207.281 57.2933 207.256 57.378 207.231 57.4632C207.202 57.5472 207.17 57.6307 207.139 57.715L207.094 57.8416C207.077 57.8833 207.058 57.9245 207.04 57.9661C207.004 58.0492 206.968 58.1326 206.932 58.2163C206.891 58.2979 206.85 58.3799 206.809 58.4622C206.788 58.5031 206.768 58.545 206.746 58.5855L206.677 58.7061C206.499 59.0323 206.28 59.3431 206.048 59.6481C205.813 59.9522 205.546 60.2384 205.265 60.5172C204.121 61.6172 202.613 62.4574 200.942 62.9288C200.732 62.9848 200.523 63.0433 200.308 63.0871C200.095 63.1387 199.878 63.1735 199.661 63.2133C199.226 63.2803 198.784 63.3358 198.338 63.3548C197.892 63.3791 197.441 63.3814 196.991 63.3562C196.765 63.3436 196.54 63.3254 196.315 63.3002C196.202 63.288 196.09 63.2736 195.978 63.2581L195.885 63.2448L195.719 63.2192L195.388 63.1666C195.224 63.3068 195.06 63.4472 194.896 63.5877L194.592 63.8249C194.489 63.9019 194.382 63.9742 194.278 64.0493C194.172 64.1233 194.062 64.1897 193.954 64.2605C193.516 64.533 193.054 64.7688 192.574 64.9631C191.615 65.3526 190.585 65.5731 189.548 65.6155C188.51 65.6584 187.469 65.518 186.488 65.2111C185.998 65.0573 185.522 64.8634 185.069 64.6295C184.616 64.3951 184.185 64.1235 183.781 63.8201C183.378 63.5166 183.002 63.1814 182.658 62.8204C182.316 62.4584 182.006 62.0705 181.731 61.6641C181.457 61.2576 181.218 60.8323 181.017 60.3951C180.964 60.287 180.92 60.1752 180.873 60.0652L180.838 59.9825C180.834 59.9753 180.82 59.9373 180.81 59.9115L180.778 59.8271C180.736 59.7144 180.693 59.6018 180.651 59.4894L180.588 59.3209L180.417 59.2872C180.304 59.265 180.19 59.2427 180.077 59.2205L179.907 59.1872C179.872 59.1807 179.866 59.1785 179.85 59.1748L179.807 59.1644L179.635 59.1229C178.72 58.8956 177.864 58.5257 177.109 58.0501C176.354 57.5743 175.697 56.9958 175.167 56.3553C174.636 55.7151 174.227 55.0191 173.944 54.3137C173.804 53.9602 173.694 53.6052 173.61 53.2538C173.525 52.9025 173.478 52.5529 173.446 52.2129C173.389 51.5312 173.427 50.8831 173.534 50.2955C173.641 49.7073 173.81 49.1773 174.009 48.7153C174.032 48.6568 174.059 48.6011 174.084 48.5449C174.109 48.4888 174.135 48.4341 174.162 48.3807C174.175 48.3539 174.188 48.3271 174.201 48.3007L174.22 48.2611L174.262 48.1831C174.319 48.0746 174.376 47.9675 174.432 47.862L174.442 47.8422C174.443 47.8388 174.447 47.8359 174.446 47.8322L174.443 47.8212L174.431 47.7771L174.408 47.6896C174.392 47.6315 174.376 47.5737 174.361 47.5164L174.338 47.4313L174.32 47.364C174.314 47.3377 174.307 47.3116 174.301 47.2857C174.276 47.1824 174.254 47.0814 174.235 46.9837C174.156 46.5926 174.12 46.2502 174.102 45.9672C174.084 45.6842 174.085 45.4604 174.09 45.3023C174.091 45.144 174.099 45.0514 174.101 45.0286C174.102 45.008 174.107 44.9292 174.116 44.796C174.132 44.6634 174.148 44.4759 174.188 44.2403C174.203 44.1218 174.234 43.9932 174.26 43.8513C174.276 43.7809 174.295 43.708 174.312 43.6319C174.322 43.5938 174.331 43.5551 174.34 43.5157C174.352 43.4767 174.363 43.437 174.375 43.3966C174.466 43.0726 174.589 42.7081 174.766 42.319C174.942 41.9295 175.171 41.5157 175.463 41.0967C175.5 41.0445 175.537 40.9918 175.574 40.9386C175.614 40.8868 175.654 40.8346 175.694 40.782C175.772 40.6747 175.863 40.5744 175.95 40.4674C176.132 40.2622 176.324 40.0516 176.542 39.8543C176.757 39.6545 176.989 39.4589 177.241 39.2768C177.365 39.1824 177.498 39.0976 177.63 39.0081C177.766 38.9245 177.903 38.8376 178.047 38.76C178.334 38.6014 178.636 38.4529 178.956 38.329C179.035 38.295 179.117 38.2682 179.198 38.2383C179.28 38.2082 179.362 38.1792 179.446 38.1545L179.565 38.1174C179.609 38.1033 179.654 38.0892 179.701 38.0774C179.794 38.0526 179.887 38.0278 179.981 38.0028C180.167 37.9532 180.354 37.9033 180.542 37.8532C180.483 37.5875 180.417 37.3132 180.361 37.0426C180.348 36.9749 180.334 36.9072 180.322 36.8395L180.3 36.7068C180.29 36.6435 180.28 36.58 180.272 36.516C180.238 36.2604 180.216 36 180.208 35.7356C180.2 35.2073 180.227 34.6634 180.327 34.1187C180.525 33.0298 180.97 31.9365 181.647 30.9427C182.323 29.9482 183.223 29.052 184.278 28.3242C185.334 27.5952 186.539 27.0294 187.82 26.6532C189.1 26.2722 190.459 26.0975 191.821 26.1062C193.183 26.1173 194.549 26.3281 195.844 26.7411L196.087 26.8196L196.327 26.9052C196.487 26.96 196.643 27.0264 196.801 27.0869C197.114 27.2179 197.424 27.3537 197.723 27.5088C198.326 27.8112 198.896 28.1689 199.431 28.5645C199.961 28.9653 200.458 29.4048 200.897 29.8891C201.119 30.1285 201.324 30.3815 201.518 30.6396L201.66 30.8352C201.707 30.9008 201.75 30.9684 201.795 31.0348L201.876 31.1558L201.998 31.3552C202.08 31.4874 202.161 31.6195 202.242 31.7513C202.412 31.7188 202.585 31.6845 202.755 31.6541L202.882 31.6338L202.982 31.6198L203.109 31.6045C203.279 31.586 203.449 31.5753 203.618 31.5725C203.958 31.5698 204.296 31.593 204.627 31.6477C204.957 31.7018 205.281 31.7852 205.593 31.8957C205.904 32.0072 206.203 32.1463 206.485 32.3081C207.05 32.6326 207.553 33.0472 207.961 33.5262C208.369 34.0051 208.696 34.5388 208.917 35.1005C209.028 35.3808 209.12 35.6656 209.183 35.9534C209.246 36.2413 209.288 36.5298 209.308 36.8166C209.342 37.3906 209.301 37.9545 209.175 38.4813C209.118 38.7465 209.032 38.9995 208.942 39.2455C208.891 39.366 208.847 39.4886 208.788 39.6036C208.76 39.6618 208.733 39.7196 208.706 39.7772C208.675 39.8334 208.645 39.8892 208.615 39.9449L208.57 40.0282L208.521 40.1086C208.489 40.1622 208.456 40.2154 208.424 40.2685C208.354 40.3713 208.287 40.4745 208.215 40.5721C208.14 40.6684 208.071 40.7669 207.992 40.856C207.953 40.9017 207.915 40.947 207.877 40.9921C207.815 41.0554 207.753 41.1184 207.692 41.1809C207.576 41.3026 207.432 41.4376 207.299 41.5659L207.249 41.6141L207.224 41.6382C207.22 41.6422 207.215 41.6461 207.212 41.6501L207.224 41.6632L207.318 41.7679C207.381 41.837 207.443 41.9058 207.505 41.974C207.566 42.0416 207.627 42.1095 207.687 42.1776C207.736 42.2362 207.784 42.2943 207.832 42.3522C207.905 42.4348 207.968 42.5235 208.034 42.6077C208.293 42.9492 208.509 43.2925 208.691 43.6252C208.872 43.9587 209.013 44.2838 209.133 44.5874C209.187 44.7416 209.246 44.8869 209.287 45.0303C209.309 45.1017 209.331 45.1712 209.352 45.2391C209.372 45.3073 209.388 45.3746 209.406 45.4397C209.544 45.9616 209.606 46.3801 209.651 46.6647C209.69 46.9513 209.719 47.1038 209.751 47.1038C209.78 47.1039 209.809 46.9512 209.825 46.6571C209.835 46.3635 209.824 45.9269 209.73 45.3724C209.718 45.3033 209.707 45.2318 209.692 45.1589C209.676 45.0863 209.659 45.0121 209.642 44.936C209.611 44.7825 209.561 44.6263 209.516 44.4604C209.412 44.1335 209.286 43.781 209.114 43.417C208.941 43.0538 208.73 42.6767 208.472 42.299C208.405 42.2058 208.342 42.108 208.269 42.016C208.241 41.9798 208.214 41.9434 208.186 41.9068C208.165 41.8773 208.143 41.8486 208.119 41.821C208.097 41.7933 208.074 41.7655 208.051 41.7376L208.017 41.6961C208.005 41.689 208.02 41.683 208.025 41.6768L208.047 41.658C208.105 41.6071 208.159 41.5638 208.225 41.4973C208.256 41.4669 208.288 41.4362 208.319 41.4055C208.363 41.3576 208.407 41.3093 208.451 41.2609C208.542 41.1652 208.624 41.0601 208.71 40.956C208.795 40.8511 208.874 40.7391 208.955 40.6277C208.993 40.57 209.031 40.5122 209.07 40.4539L209.127 40.3662L209.181 40.2752C209.216 40.2143 209.252 40.1531 209.288 40.0916C209.322 40.0289 209.354 39.9649 209.387 39.9011C209.456 39.7745 209.511 39.6397 209.572 39.5062C209.683 39.2345 209.787 38.9526 209.861 38.6567C210.021 38.0672 210.087 37.4324 210.066 36.7819C210.052 36.4565 210.013 36.1272 209.95 35.7975C209.885 35.4678 209.79 35.1397 209.67 34.816C209.433 34.1673 209.072 33.546 208.614 32.9849C208.155 32.424 207.586 31.9327 206.938 31.5439C206.614 31.35 206.269 31.1817 205.909 31.0456C205.548 30.9105 205.172 30.8064 204.787 30.7366C204.402 30.6663 204.008 30.6322 203.611 30.6296C203.412 30.6299 203.213 30.6392 203.014 30.6577L202.865 30.6733L202.801 30.6805C202.775 30.6837 202.749 30.6873 202.723 30.6916C202.71 30.6735 202.699 30.6504 202.687 30.6304L202.669 30.5995L202.609 30.5068C202.56 30.4328 202.513 30.3576 202.463 30.2844L202.309 30.0666C202.1 29.7791 201.878 29.4979 201.639 29.2317C201.165 28.6937 200.629 28.2062 200.057 27.7618C199.48 27.3235 198.866 26.9268 198.217 26.5911C197.895 26.4188 197.561 26.2683 197.226 26.122C196.887 25.9833 196.545 25.8484 196.196 25.736C195.5 25.5025 194.783 25.329 194.059 25.2062C193.334 25.082 192.601 25.0166 191.868 25.0021C191.135 24.9907 190.401 25.0257 189.676 25.1158C188.951 25.2047 188.236 25.3537 187.538 25.5502C186.142 25.9449 184.818 26.5491 183.646 27.3432C182.475 28.1386 181.459 29.1261 180.683 30.2478C179.906 31.3673 179.381 32.6226 179.144 33.8849C179.025 34.5167 178.987 35.1473 178.995 35.7617C179.004 36.0691 179.028 36.3726 179.066 36.6702C179.081 36.7765 179.097 36.8814 179.112 36.9849L179.102 36.9868L179.098 36.9877L179.094 36.9885L179.093 36.9888L179.059 36.9991C178.959 37.0285 178.861 37.0644 178.763 37.0992C178.665 37.1335 178.568 37.1682 178.474 37.208C178.283 37.2818 178.099 37.3666 177.917 37.45C177.738 37.5398 177.56 37.6275 177.391 37.7255C176.708 38.1086 176.113 38.5639 175.607 39.0473C175.354 39.2896 175.12 39.5372 174.912 39.7909C174.699 40.0414 174.513 40.299 174.342 40.5514C174.004 41.0603 173.743 41.5626 173.544 42.034C173.148 42.9794 172.993 43.79 172.919 44.3554C172.849 44.9234 172.855 45.2527 172.851 45.3009C172.852 45.3533 172.83 45.7289 172.894 46.3778C172.927 46.7017 172.983 47.0936 173.09 47.5401C173.096 47.5679 173.103 47.5961 173.11 47.6244C173.115 47.6443 173.12 47.6643 173.125 47.6844C173.126 47.6861 173.126 47.6854 173.126 47.6859C173.127 47.685 173.124 47.6903 173.123 47.6922C173.112 47.7143 173.101 47.7369 173.09 47.7597C172.972 47.9923 172.862 48.2459 172.757 48.5169C172.546 49.0587 172.374 49.6795 172.275 50.3649C172.226 50.7075 172.196 51.0661 172.19 51.4373C172.184 51.6229 172.195 51.8114 172.199 52.003C172.214 52.1942 172.222 52.389 172.25 52.585C172.294 52.978 172.372 53.379 172.481 53.7826C172.589 54.1864 172.728 54.5936 172.906 54.9945C173.259 55.7974 173.748 56.5858 174.377 57.2968C175.004 58.0093 175.765 58.6495 176.632 59.1678C177.499 59.6872 178.475 60.0793 179.509 60.3127L179.606 60.3355L179.628 60.3407L179.633 60.3416L179.643 60.3434L179.684 60.3505L179.704 60.3542C179.707 60.3551 179.712 60.3547 179.713 60.3567L179.716 60.3634L179.727 60.3907C179.765 60.4793 179.802 60.5682 179.84 60.6573C179.891 60.7818 179.952 60.902 180.009 61.0245C180.245 61.5109 180.522 61.9826 180.838 62.4326C181.472 63.331 182.263 64.1395 183.177 64.8032C184.09 65.4692 185.129 65.9813 186.23 66.3078C186.781 66.471 187.347 66.5875 187.919 66.6548C188.492 66.7227 189.07 66.7367 189.646 66.7084C190.799 66.6455 191.942 66.3829 193.002 65.9364C193.532 65.7135 194.041 65.4452 194.523 65.1371C194.641 65.0574 194.763 64.9823 194.878 64.8986C194.993 64.8141 195.11 64.7328 195.223 64.6458C195.334 64.5569 195.446 64.4695 195.555 64.3793L195.665 64.2831L195.7 64.2515L195.842 64.2693C195.964 64.2845 196.086 64.2987 196.208 64.3103C196.452 64.3344 196.697 64.351 196.94 64.3615C197.428 64.3823 197.914 64.3734 198.395 64.3406C198.877 64.3129 199.353 64.2466 199.823 64.1671C200.057 64.1208 200.291 64.0793 200.52 64.0202C200.635 63.9913 200.751 63.9682 200.864 63.9346C200.977 63.9023 201.091 63.8702 201.204 63.8382C203.004 63.2994 204.629 62.3598 205.859 61.1256C206.162 60.8131 206.449 60.4918 206.701 60.1501C206.952 59.8077 207.184 59.458 207.374 59.0911L207.447 58.9553C207.471 58.9098 207.491 58.8626 207.514 58.8166C207.557 58.7239 207.6 58.6318 207.644 58.5399C207.682 58.4457 207.719 58.3518 207.757 58.2584L207.813 58.1184L207.861 57.9761C207.892 57.8814 207.925 57.7874 207.954 57.6931C207.98 57.5975 208.006 57.5024 208.032 57.4077C208.044 57.3602 208.058 57.3133 208.069 57.2657L208.098 57.1226C208.118 57.0275 208.137 56.9328 208.156 56.8385C208.17 56.7433 208.183 56.6485 208.197 56.5543L208.216 56.4133C208.22 56.3661 208.224 56.3191 208.228 56.2722C208.235 56.1783 208.243 56.0849 208.25 55.992C208.256 55.899 208.254 55.8062 208.257 55.7141C208.267 55.3458 208.24 54.9853 208.193 54.6372C208.144 54.2892 208.072 53.9531 207.978 53.6331C207.933 53.4729 207.881 53.3168 207.825 53.1646L207.788 53.0641L207.762 53.001C207.745 52.9586 207.725 52.9169 207.706 52.8744C207.751 52.8197 207.803 52.766 207.851 52.7112C207.928 52.6201 208.004 52.5301 208.079 52.4414C208.228 52.2537 208.37 52.068 208.496 51.8786C208.749 51.5019 208.962 51.13 209.128 50.7664C209.464 50.0417 209.641 49.3732 209.735 48.8241C209.828 48.2732 209.834 47.8394 209.827 47.5479C209.808 47.2552 209.781 47.1036 209.751 47.1038Z" fill="#003366"/>
<g clip-path="url(#clip1_229_5437)">
<path d="M192.357 52.4749H185.457C185.096 52.4749 184.801 52.1807 184.801 51.8204V45.0015H198.303V46.2784C198.303 46.852 198.768 47.317 199.342 47.317C199.915 47.317 200.38 46.852 200.38 46.2784V41.8555C200.38 40.3513 199.157 39.1285 197.653 39.1285H185.451C183.947 39.1285 182.724 40.3514 182.724 41.8555V51.8204C182.724 53.3278 183.949 54.5522 185.456 54.5522H192.357C192.93 54.5522 193.395 54.0872 193.395 53.5136C193.395 52.9407 192.931 52.4749 192.357 52.4749ZM185.451 41.2064H197.654C198.011 41.2064 198.303 41.4979 198.303 41.8555V42.9236H184.801V41.8555C184.801 41.4979 185.093 41.2064 185.451 41.2064Z" fill="#003366" stroke="white"/>
<path d="M186.154 43.0426C186.696 43.0426 187.135 42.6033 187.135 42.0614C187.135 41.5195 186.696 41.0802 186.154 41.0802C185.612 41.0802 185.173 41.5195 185.173 42.0614C185.173 42.6033 185.612 43.0426 186.154 43.0426Z" fill="#003366" stroke="white"/>
<path d="M187.849 43.0426C188.391 43.0426 188.83 42.6033 188.83 42.0614C188.83 41.5195 188.391 41.0802 187.849 41.0802C187.307 41.0802 186.868 41.5195 186.868 42.0614C186.868 42.6033 187.307 43.0426 187.849 43.0426Z" fill="#003366" stroke="white"/>
<path d="M189.544 43.0426C190.086 43.0426 190.525 42.6033 190.525 42.0614C190.525 41.5195 190.086 41.0802 189.544 41.0802C189.002 41.0802 188.562 41.5195 188.562 42.0614C188.562 42.6033 189.002 43.0426 189.544 43.0426Z" fill="#003366" stroke="white"/>
<path d="M197.233 46.906C194.847 46.906 192.906 48.8463 192.906 51.2328C192.906 53.6192 194.847 55.5595 197.233 55.5595C199.62 55.5595 201.56 53.6192 201.56 51.2328C201.56 48.8463 199.619 46.906 197.233 46.906ZM197.233 53.481C195.994 53.481 194.984 52.4714 194.984 51.2322C194.984 49.9929 195.994 48.9833 197.233 48.9833C198.472 48.9833 199.482 49.9929 199.482 51.2322C199.482 52.4714 198.472 53.481 197.233 53.481Z" fill="#003366" stroke="white"/>
<path d="M196.498 51.9659L196.499 51.9669L198.348 51.5846L198.701 51.2309L198.701 51.2306L198.272 50.8016V50.0244C198.272 49.4508 197.807 48.9857 197.233 48.9857C196.66 48.9857 196.194 49.4508 196.194 50.0244V51.2321C196.194 51.5083 196.305 51.7722 196.498 51.9659Z" fill="#003366" stroke="white"/>
</g>
<path d="M114.154 104.366C114.344 105.909 112.041 107.742 109.835 107.688C107.749 107.637 105.569 105.896 105.762 104.366C105.948 102.904 108.255 102.025 109.958 102.026C111.689 102.026 113.977 102.935 114.154 104.366Z" fill="white"/>
<path d="M114.083 104.375C113.977 104.387 113.89 104.242 113.721 104.06C113.559 103.875 113.301 103.646 112.916 103.434C112.533 103.222 112.03 103.032 111.471 102.905C110.911 102.78 110.295 102.715 109.718 102.767C109.128 102.819 108.525 102.971 108.012 103.181C107.497 103.388 107.076 103.669 106.839 103.928C106.722 104.058 106.649 104.177 106.607 104.276C106.568 104.377 106.555 104.459 106.551 104.533C106.551 104.684 106.581 104.793 106.584 104.801C106.588 104.81 106.608 104.915 106.709 105.107C106.809 105.298 107.006 105.578 107.33 105.865C107.652 106.151 108.094 106.441 108.606 106.648C108.861 106.75 109.133 106.835 109.41 106.885C109.688 106.936 109.963 106.957 110.249 106.938C110.821 106.905 111.409 106.731 111.92 106.487C112.431 106.24 112.87 105.928 113.185 105.616C113.503 105.305 113.696 105.004 113.809 104.778C113.927 104.553 113.979 104.39 114.083 104.375C114.132 104.369 114.183 104.405 114.233 104.488C114.259 104.529 114.276 104.582 114.296 104.647C114.313 104.711 114.326 104.788 114.33 104.874C114.354 105.219 114.221 105.717 113.902 106.203C113.587 106.691 113.099 107.166 112.492 107.553C111.884 107.936 111.15 108.233 110.35 108.334C109.952 108.387 109.535 108.378 109.142 108.326C108.748 108.272 108.372 108.173 108.02 108.046C107.319 107.786 106.716 107.416 106.25 107.009C105.783 106.604 105.452 106.16 105.267 105.791C105.075 105.426 105.028 105.153 105.019 105.137C105.016 105.126 105.002 105.057 104.981 104.935C104.972 104.874 104.965 104.797 104.957 104.709C104.955 104.664 104.955 104.615 104.955 104.564C104.954 104.513 104.956 104.458 104.962 104.4C104.977 104.169 105.038 103.885 105.169 103.605C105.298 103.325 105.491 103.048 105.728 102.814C106.203 102.337 106.826 101.996 107.5 101.755C108.178 101.519 108.915 101.378 109.675 101.369C110.447 101.361 111.179 101.517 111.827 101.749C112.475 101.985 113.044 102.31 113.466 102.689C113.676 102.878 113.849 103.081 113.973 103.28C114.098 103.48 114.173 103.676 114.204 103.842C114.223 103.924 114.225 104.002 114.227 104.066C114.222 104.133 114.216 104.188 114.203 104.233C114.173 104.324 114.132 104.369 114.083 104.375Z" fill="#003366"/>
<path d="M118.808 110.346C118.9 111.427 117.464 112.505 116.129 112.494C114.821 112.482 113.411 111.424 113.502 110.346C113.59 109.315 115.02 108.621 116.155 108.621C117.298 108.621 118.722 109.323 118.808 110.346Z" fill="white"/>
<path d="M118.737 110.352C118.687 110.356 118.636 110.335 118.586 110.3C118.561 110.282 118.536 110.261 118.512 110.237C118.488 110.214 118.454 110.189 118.427 110.161C118.31 110.053 118.159 109.921 117.937 109.79C117.718 109.658 117.423 109.535 117.093 109.451C116.928 109.41 116.754 109.375 116.58 109.361C116.493 109.349 116.407 109.351 116.322 109.346C116.238 109.35 116.154 109.348 116.071 109.359C115.989 109.364 115.904 109.383 115.82 109.395C115.735 109.416 115.651 109.43 115.568 109.457C115.401 109.502 115.242 109.566 115.096 109.634C114.948 109.701 114.824 109.783 114.711 109.859C114.608 109.941 114.513 110.019 114.458 110.093C114.335 110.241 114.31 110.336 114.304 110.398C114.29 110.461 114.304 110.507 114.302 110.51C114.302 110.514 114.307 110.556 114.342 110.648C114.38 110.739 114.462 110.888 114.63 111.057C114.795 111.226 115.043 111.405 115.336 111.539C115.63 111.672 115.96 111.758 116.274 111.754C116.599 111.753 116.953 111.667 117.263 111.536C117.574 111.404 117.844 111.231 118.04 111.06C118.24 110.889 118.367 110.726 118.466 110.596C118.563 110.467 118.635 110.362 118.737 110.352C118.833 110.341 118.945 110.447 118.988 110.687C119.029 110.922 118.971 111.279 118.77 111.63C118.573 111.984 118.248 112.328 117.834 112.602C117.42 112.875 116.913 113.086 116.347 113.151C116.063 113.186 115.772 113.173 115.498 113.132C115.225 113.089 114.963 113.017 114.72 112.922C114.233 112.733 113.817 112.458 113.496 112.148C113.173 111.841 112.954 111.486 112.844 111.195C112.731 110.904 112.716 110.699 112.713 110.685C112.712 110.677 112.703 110.626 112.701 110.533C112.699 110.487 112.698 110.431 112.702 110.366C112.704 110.3 112.714 110.226 112.729 110.144C112.745 110.063 112.757 109.97 112.791 109.88C112.807 109.834 112.824 109.786 112.841 109.737C112.851 109.713 112.859 109.687 112.87 109.663C112.882 109.64 112.893 109.616 112.906 109.592C112.955 109.497 113.007 109.394 113.075 109.305C113.109 109.259 113.143 109.211 113.178 109.163C113.216 109.12 113.255 109.077 113.295 109.033C113.618 108.682 114.045 108.422 114.512 108.236C114.748 108.148 114.993 108.072 115.25 108.027C115.505 107.979 115.769 107.952 116.04 107.96C116.175 107.96 116.311 107.977 116.442 107.992C116.572 108.014 116.702 108.035 116.825 108.069C116.949 108.097 117.068 108.14 117.185 108.178C117.3 108.225 117.415 108.265 117.522 108.32C117.575 108.346 117.628 108.373 117.681 108.399C117.731 108.428 117.782 108.458 117.832 108.487C117.932 108.542 118.023 108.613 118.113 108.675C118.287 108.812 118.443 108.954 118.565 109.111C118.595 109.149 118.625 109.187 118.654 109.225C118.681 109.265 118.705 109.305 118.728 109.344C118.751 109.384 118.775 109.419 118.793 109.459C118.811 109.5 118.827 109.538 118.843 109.576C118.876 109.649 118.893 109.726 118.907 109.796C118.915 109.83 118.921 109.863 118.925 109.894C118.927 109.928 118.927 109.959 118.927 109.989C118.925 110.048 118.924 110.098 118.911 110.144C118.898 110.19 118.882 110.228 118.865 110.258C118.83 110.318 118.787 110.347 118.737 110.352Z" fill="#003366"/>
<path d="M66.3403 83.5243C66.3403 80.8211 67.3788 78.3602 69.0785 76.5169C67.4506 75.0833 66.4226 72.9865 66.4226 70.6489C66.4226 66.3279 69.931 62.825 74.2589 62.825C74.7766 62.825 75.282 62.8765 75.7717 62.9721C78.283 58.6566 83.6151 55.6787 89.7874 55.6787C98.375 55.6787 105.337 61.4432 105.337 68.5543C105.337 69.3964 105.238 70.2194 105.051 71.0164C109.748 72.1603 113.234 76.3883 113.234 81.4299C113.234 82.4501 113.092 83.437 112.825 84.3718C113.639 85.8542 114.098 87.5346 114.098 89.3153C114.098 94.6244 110.016 99.0416 104.625 99.9754C102.925 104.749 98.3604 108.167 92.9958 108.167C89.8183 108.167 86.9218 106.967 84.7344 104.998C83.881 105.137 82.9986 105.21 82.0949 105.21C74.7114 105.21 68.7259 100.355 68.7259 94.3671C68.7259 93.1518 68.9725 91.9834 69.4273 90.8925C67.5219 89.0155 66.3403 86.4079 66.3403 83.5243Z" fill="white"/>
<path d="M66.412 83.5243C66.5081 83.5217 66.5115 84.3124 66.8524 85.6531C67.0303 86.3193 67.3048 87.1206 67.7639 87.9767C67.9895 88.4063 68.2719 88.8427 68.5983 89.2823C68.7602 89.5034 68.9416 89.7189 69.1311 89.9366C69.18 89.9897 69.229 90.0432 69.2784 90.0971L69.3527 90.1781C69.38 90.2074 69.394 90.2249 69.4435 90.274C69.6103 90.4432 69.7844 90.6148 69.9545 90.7914C69.8998 90.9338 69.8421 91.0767 69.7881 91.2234C69.7607 91.2967 69.7331 91.3704 69.7054 91.4443L69.6858 91.5013L69.6747 91.5354L69.6523 91.6035C69.5939 91.7858 69.5396 91.972 69.4927 92.1626C69.3967 92.5432 69.3261 92.94 69.2829 93.3487C69.2418 93.7574 69.2225 94.1791 69.2488 94.6078C69.2551 94.7149 69.2562 94.8228 69.266 94.9306C69.2777 95.0383 69.2895 95.1466 69.3014 95.2553L69.3196 95.4187L69.3478 95.5815C69.3664 95.6903 69.3851 95.7997 69.4037 95.9095C69.4291 96.0181 69.4546 96.1272 69.4802 96.2369L69.5186 96.4016C69.5326 96.4565 69.5507 96.5103 69.5665 96.5648C69.5989 96.6737 69.6317 96.783 69.6644 96.8929C69.7017 97.0014 69.7429 97.109 69.782 97.2179L69.8413 97.3812C69.863 97.4351 69.8873 97.4882 69.9102 97.5419C69.9564 97.6491 70.0029 97.7568 70.0494 97.8648C70.1023 97.9701 70.1554 98.0759 70.2088 98.1821C70.2359 98.2349 70.2611 98.2889 70.2896 98.3412L70.3792 98.4969C70.6088 98.9178 70.8905 99.3189 71.1909 99.7125C71.4942 100.105 71.8389 100.474 72.2016 100.834C73.6773 102.254 75.6237 103.338 77.7793 103.946C78.0501 104.018 78.3209 104.094 78.5979 104.15C78.8724 104.217 79.1526 104.262 79.4324 104.313C79.9947 104.4 80.5641 104.471 81.1404 104.496C81.7159 104.527 82.2973 104.53 82.8787 104.498C83.1695 104.481 83.4602 104.458 83.7507 104.425C83.896 104.41 84.0409 104.391 84.1861 104.371L84.3058 104.354L84.5197 104.321L84.9467 104.253C85.1583 104.434 85.3703 104.615 85.5825 104.796L85.9744 105.102C86.1071 105.202 86.2447 105.295 86.3796 105.392C86.5156 105.488 86.6582 105.573 86.7973 105.665C87.3624 106.016 87.9589 106.321 88.5781 106.571C89.8162 107.074 91.145 107.359 92.4834 107.413C93.8231 107.469 95.1662 107.287 96.4316 106.891C97.0642 106.693 97.6787 106.443 98.2636 106.141C98.8482 105.838 99.4043 105.488 99.9251 105.096C100.446 104.705 100.931 104.272 101.374 103.806C101.817 103.339 102.216 102.839 102.571 102.314C102.925 101.789 103.233 101.241 103.493 100.676C103.561 100.537 103.618 100.393 103.679 100.251L103.724 100.144C103.728 100.135 103.746 100.086 103.759 100.052L103.8 99.9434C103.855 99.798 103.91 99.6528 103.964 99.5077L104.046 99.2902L104.266 99.2467C104.413 99.2181 104.559 99.1894 104.706 99.1607L104.925 99.1178C104.97 99.1094 104.977 99.1065 104.998 99.1017L105.054 99.0882L105.276 99.0347C106.457 98.7414 107.561 98.2641 108.535 97.6503C109.51 97.0363 110.358 96.2898 111.042 95.4633C111.727 94.6371 112.254 93.7388 112.62 92.8286C112.801 92.3725 112.943 91.9143 113.051 91.4608C113.161 91.0074 113.222 90.5563 113.263 90.1175C113.336 89.2379 113.287 88.4015 113.148 87.6432C113.011 86.8842 112.793 86.2002 112.537 85.604C112.507 85.5285 112.471 85.4566 112.439 85.3841C112.407 85.3117 112.374 85.2411 112.339 85.1721C112.322 85.1376 112.305 85.103 112.288 85.069L112.263 85.0178L112.21 84.9172C112.136 84.7772 112.063 84.639 111.991 84.5028L111.977 84.4773C111.976 84.4729 111.971 84.4691 111.972 84.4644L111.976 84.4501L111.991 84.3933L112.022 84.2804C112.042 84.2054 112.062 84.1308 112.082 84.0568L112.112 83.947L112.134 83.8601C112.143 83.8262 112.151 83.7925 112.159 83.7591C112.192 83.6258 112.22 83.4955 112.245 83.3694C112.346 82.8647 112.393 82.4228 112.416 82.0577C112.44 81.6924 112.438 81.4036 112.431 81.1997C112.43 80.9954 112.42 80.8758 112.418 80.8464C112.416 80.8198 112.409 80.7181 112.397 80.5462C112.378 80.3752 112.357 80.1332 112.306 79.8291C112.286 79.6761 112.245 79.5103 112.212 79.3271C112.192 79.2362 112.168 79.1421 112.144 79.044C112.133 78.9949 112.121 78.9449 112.108 78.8941C112.094 78.8438 112.079 78.7924 112.064 78.7403C111.947 78.3222 111.787 77.8519 111.559 77.3498C111.332 76.8471 111.037 76.3131 110.66 75.7724C110.612 75.705 110.564 75.6371 110.516 75.5683C110.465 75.5016 110.413 75.4341 110.361 75.3662C110.26 75.2278 110.143 75.0984 110.032 74.9603C109.796 74.6955 109.548 74.4237 109.267 74.1691C108.99 73.9113 108.691 73.6589 108.365 73.4239C108.206 73.302 108.034 73.1926 107.863 73.0771C107.688 72.9692 107.511 72.857 107.325 72.7569C106.955 72.5523 106.565 72.3606 106.152 72.2008C106.05 72.1568 105.944 72.1223 105.839 72.0837C105.734 72.0448 105.628 72.0074 105.519 71.9755L105.367 71.9277C105.309 71.9094 105.252 71.8913 105.19 71.8761C105.07 71.844 104.95 71.812 104.829 71.7798C104.589 71.7157 104.347 71.6513 104.105 71.5868C104.181 71.2438 104.266 70.8899 104.338 70.5407C104.356 70.4533 104.374 70.366 104.389 70.2786L104.418 70.1074C104.431 70.0257 104.443 69.9437 104.454 69.8611C104.498 69.5313 104.526 69.1952 104.537 68.854C104.547 68.1723 104.512 67.4704 104.382 66.7675C104.127 65.3622 103.553 63.9514 102.679 62.6689C101.807 61.3855 100.646 60.229 99.2837 59.2898C97.9218 58.3491 96.3663 57.6188 94.7135 57.1335C93.0613 56.6417 91.3082 56.4163 89.5505 56.4276C87.7926 56.4418 86.0296 56.7138 84.3581 57.2468L84.0451 57.3481L83.7357 57.4587C83.5283 57.5293 83.327 57.615 83.1229 57.6931C82.7201 57.8622 82.32 58.0374 81.9338 58.2375C81.1559 58.6278 80.4201 59.0894 79.7298 59.5999C79.0451 60.1171 78.4037 60.6843 77.838 61.3092C77.5509 61.6182 77.2873 61.9447 77.0367 62.2778L76.8529 62.5302C76.7928 62.6149 76.7367 62.7021 76.6784 62.7878L76.5746 62.9439L76.4167 63.2012C76.3117 63.3718 76.2067 63.5423 76.1021 63.7124C75.8825 63.6705 75.6596 63.6262 75.4404 63.587L75.2761 63.5608L75.1469 63.5427L74.9828 63.5229C74.7639 63.4991 74.5446 63.4853 74.3259 63.4816C73.8874 63.4781 73.4514 63.5081 73.0247 63.5787C72.5978 63.6485 72.1804 63.7562 71.7781 63.8987C71.3765 64.0426 70.991 64.2221 70.6261 64.4309C69.8974 64.8497 69.249 65.3847 68.7216 66.0029C68.1949 66.6209 67.773 67.3095 67.4881 68.0344C67.345 68.3962 67.2267 68.7636 67.1451 69.1351C67.0641 69.5066 67.0092 69.8789 66.983 70.2491C66.9398 70.9897 66.9927 71.7174 67.1555 72.3973C67.2289 72.7395 67.3394 73.066 67.4558 73.3835C67.5224 73.539 67.5791 73.6971 67.6544 73.8455C67.6902 73.9207 67.7258 73.9953 67.7611 74.0696C67.8002 74.1421 67.8392 74.2142 67.878 74.286L67.9359 74.3935L67.9991 74.4973C68.0411 74.5664 68.0829 74.6351 68.1246 74.7036C68.2141 74.8362 68.3008 74.9694 68.3943 75.0954C68.4902 75.2196 68.5803 75.3468 68.6824 75.4618C68.732 75.5207 68.7812 75.5792 68.8302 75.6374C68.9104 75.7191 68.99 75.8004 69.0691 75.8811C69.2184 76.0381 69.4044 76.2123 69.5761 76.3779L69.6407 76.4401L69.673 76.4711C69.6782 76.4763 69.6841 76.4813 69.6886 76.4865L69.6733 76.5035L69.5512 76.6385C69.4706 76.7277 69.3903 76.8164 69.3107 76.9045C69.231 76.9917 69.1528 77.0794 69.076 77.1673C69.0128 77.2429 68.95 77.3179 68.8877 77.3925C68.7938 77.4992 68.7127 77.6136 68.6273 77.7223C68.2937 78.163 68.0147 78.6059 67.7797 79.0353C67.546 79.4657 67.3645 79.8853 67.2091 80.2771C67.1404 80.476 67.0638 80.6635 67.0109 80.8486C66.9821 80.9407 66.9539 81.0304 66.9265 81.118C66.9012 81.206 66.8798 81.2929 66.857 81.3769C66.6794 82.0505 66.5986 82.5905 66.5414 82.9578C66.4901 83.3276 66.4528 83.5243 66.412 83.5243C66.3742 83.5245 66.3366 83.3274 66.3166 82.9479C66.3033 82.569 66.3176 82.0057 66.4387 81.2901C66.4545 81.2008 66.469 81.1086 66.4876 81.0145C66.5086 80.9209 66.5303 80.8251 66.5524 80.7269C66.5926 80.5288 66.6573 80.3272 66.7154 80.1132C66.8489 79.6912 67.0125 79.2364 67.2343 78.7666C67.457 78.298 67.7291 77.8113 68.0629 77.3239C68.1486 77.2037 68.2297 77.0774 68.3246 76.9587C68.3599 76.912 68.3955 76.8651 68.4313 76.8178C68.459 76.7797 68.4876 76.7426 68.5176 76.7071C68.5469 76.6714 68.5763 76.6355 68.606 76.5994L68.6498 76.5459C68.6644 76.5367 68.6463 76.529 68.6387 76.5209L68.6109 76.4968C68.5359 76.431 68.4666 76.3752 68.3816 76.2893C68.3411 76.2501 68.3004 76.2105 68.2594 76.1709C68.203 76.109 68.1461 76.0468 68.0889 75.9842C67.9715 75.8608 67.8657 75.7251 67.7547 75.5908C67.6453 75.4554 67.544 75.3109 67.439 75.1671C67.39 75.0927 67.3408 75.018 67.2912 74.9429L67.2168 74.8297L67.1479 74.7123C67.1021 74.6336 67.0559 74.5546 67.0095 74.4753C66.9657 74.3945 66.9243 74.3118 66.8815 74.2294C66.7923 74.0661 66.7214 73.8922 66.6423 73.7199C66.4994 73.3692 66.365 73.0055 66.2696 72.6236C66.0629 71.8628 65.9779 71.0437 66.0048 70.2043C66.0233 69.7843 66.0737 69.3593 66.1555 68.9339C66.2385 68.5084 66.362 68.0851 66.516 67.6673C66.8225 66.8302 67.2877 66.0284 67.8788 65.3043C68.4711 64.5805 69.2058 63.9465 70.042 63.4447C70.4605 63.1945 70.905 62.9773 71.3699 62.8017C71.8354 62.6273 72.3203 62.4929 72.8174 62.4029C73.3144 62.3122 73.8229 62.2682 74.3353 62.2649C74.5918 62.2652 74.8489 62.2773 75.106 62.3011L75.2986 62.3212L75.3804 62.3306C75.4147 62.3346 75.4483 62.3393 75.4814 62.3449C75.4987 62.3215 75.5128 62.2917 75.5284 62.2659L75.5511 62.2259L75.6287 62.1064C75.6915 62.0109 75.7525 61.9138 75.8172 61.8194L76.0156 61.5383C76.2857 61.1673 76.5712 60.8044 76.8808 60.4609C77.4923 59.7666 78.1838 59.1375 78.9221 58.5641C79.6664 57.9984 80.4588 57.4865 81.296 57.0533C81.7119 56.8309 82.1424 56.6367 82.5757 56.4478C83.0129 56.2689 83.4535 56.0948 83.9044 55.9497C84.8026 55.6485 85.7271 55.4246 86.6621 55.2661C87.5971 55.1058 88.5441 55.0214 89.49 55.0027C90.4359 54.9881 91.382 55.0332 92.3178 55.1494C93.2536 55.2641 94.1768 55.4565 95.0775 55.7101C96.8783 56.2194 98.5868 56.9991 100.1 58.0239C101.61 59.0503 102.922 60.3246 103.923 61.7721C104.926 63.2168 105.604 64.8368 105.91 66.4658C106.063 67.281 106.112 68.0948 106.102 68.8877C106.091 69.2844 106.06 69.676 106.01 70.0601C105.99 70.1972 105.971 70.3326 105.951 70.4663L105.963 70.4686L105.969 70.4698L105.973 70.4708L105.976 70.4713L106.019 70.4845C106.149 70.5224 106.275 70.5687 106.401 70.6137C106.527 70.658 106.652 70.7027 106.774 70.7541C107.021 70.8493 107.258 70.9588 107.493 71.0663C107.724 71.1822 107.953 71.2954 108.172 71.4219C109.052 71.9163 109.821 72.5038 110.474 73.1277C110.801 73.4403 111.102 73.7598 111.371 74.0872C111.645 74.4106 111.885 74.743 112.107 75.0687C112.543 75.7255 112.879 76.3737 113.136 76.982C113.647 78.2019 113.848 79.248 113.942 79.9777C114.033 80.7106 114.026 81.1356 114.03 81.1978C114.029 81.2654 114.058 81.7501 113.976 82.5875C113.933 83.0054 113.86 83.5113 113.722 84.0874C113.714 84.1232 113.705 84.1596 113.696 84.1962C113.69 84.2219 113.683 84.2477 113.676 84.2737C113.676 84.2759 113.676 84.2749 113.676 84.2755C113.674 84.2744 113.678 84.2812 113.679 84.2838C113.693 84.3123 113.707 84.3414 113.722 84.3708C113.874 84.671 114.017 84.9982 114.152 85.3479C114.424 86.0471 114.646 86.8483 114.774 87.7328C114.837 88.1749 114.876 88.6376 114.883 89.1166C114.891 89.3561 114.877 89.5995 114.872 89.8467C114.852 90.0934 114.842 90.3448 114.806 90.5977C114.749 91.1049 114.648 91.6224 114.508 92.1432C114.369 92.6643 114.189 93.1897 113.959 93.7071C113.505 94.7433 112.873 95.7606 112.061 96.6782C111.251 97.5976 110.27 98.4238 109.151 99.0926C108.032 99.763 106.773 100.269 105.438 100.57L105.313 100.6L105.284 100.606L105.278 100.607L105.265 100.61L105.213 100.619L105.187 100.624C105.183 100.625 105.177 100.624 105.175 100.627L105.171 100.636L105.157 100.671C105.108 100.785 105.06 100.9 105.011 101.015C104.945 101.175 104.866 101.331 104.793 101.489C104.489 102.116 104.131 102.725 103.724 103.306C102.906 104.465 101.884 105.509 100.704 106.365C99.5273 107.224 98.186 107.885 96.765 108.307C96.0547 108.517 95.3241 108.668 94.5853 108.754C93.8462 108.842 93.0999 108.86 92.3563 108.824C90.8688 108.742 89.3938 108.404 88.0261 107.827C87.3421 107.54 86.6848 107.194 86.0638 106.796C85.9107 106.693 85.7538 106.596 85.605 106.488C85.4567 106.379 85.3057 106.274 85.1605 106.162C85.0172 106.047 84.8726 105.934 84.7312 105.818L84.5897 105.694L84.5449 105.653L84.3606 105.676C84.2032 105.696 84.0458 105.714 83.8882 105.729C83.5733 105.76 83.2582 105.781 82.9437 105.795C82.3144 105.822 81.6876 105.81 81.0664 105.768C80.4447 105.732 79.83 105.647 79.224 105.544C78.9221 105.484 78.6202 105.431 78.3243 105.355C78.1761 105.317 78.0264 105.287 77.8805 105.244C77.734 105.202 77.5878 105.161 77.442 105.12C75.1192 104.424 73.0223 103.212 71.4341 101.619C71.0432 101.216 70.673 100.801 70.3474 100.36C70.0244 99.9184 69.7244 99.4671 69.4798 98.9937L69.3851 98.8184C69.3545 98.7597 69.3278 98.6988 69.2992 98.6394C69.2431 98.5199 69.1872 98.4009 69.1314 98.2824C69.0824 98.1608 69.0337 98.0397 68.9849 97.9191L68.9132 97.7385L68.8514 97.5548C68.8109 97.4326 68.7688 97.3113 68.7303 97.1895C68.697 97.0663 68.6638 96.9435 68.6308 96.8212C68.6149 96.76 68.5971 96.6995 68.5828 96.6381L68.5447 96.4534C68.5196 96.3307 68.4948 96.2084 68.4701 96.0868C68.4526 95.9639 68.4352 95.8416 68.4178 95.72L68.3923 95.5381C68.3873 95.4772 68.3821 95.4165 68.377 95.3559C68.3676 95.2348 68.358 95.1142 68.3488 94.9943C68.3414 94.8744 68.3433 94.7547 68.3402 94.6358C68.3265 94.1605 68.3622 93.6952 68.4229 93.2461C68.4857 92.7969 68.5788 92.3632 68.6994 91.9503C68.7585 91.7435 68.8254 91.5421 68.8969 91.3457L68.9453 91.2161L68.9791 91.1346C69.0011 91.0799 69.0264 91.026 69.0503 90.9712C68.9933 90.9006 68.9262 90.8313 68.8638 90.7605C68.7646 90.643 68.6666 90.5269 68.5699 90.4124C68.3767 90.1702 68.1934 89.9305 68.0315 89.6862C67.7049 89.2 67.4295 88.7201 67.2161 88.2509C66.7817 87.3157 66.5536 86.453 66.4322 85.7444C66.3126 85.0334 66.3047 84.4736 66.3144 84.0974C66.3378 83.7197 66.373 83.5242 66.412 83.5243Z" fill="#003366"/>
<mask id="mask2_229_5437" style="mask-type:luminance" maskUnits="userSpaceOnUse" x="76" y="71" width="26" height="26">
<path d="M76.9685 71.7895H101.203V96.0243H76.9685V71.7895Z" fill="white"/>
</mask>
<g mask="url(#mask2_229_5437)">
<path d="M91.3062 90.1219C92.0308 90.3634 92.8166 89.9885 93.0848 89.2734C93.3674 88.5198 92.9679 87.6822 92.2044 87.4277L86.0346 85.3864C84.7205 84.9483 82.2121 84.8639 80.5185 86.5575" stroke="#003366" stroke-width="1.5" stroke-miterlimit="10" stroke-linecap="round" stroke-linejoin="round"/>
<path d="M80.5185 86.5576H77.6785V93.6576H80.5185V86.5576Z" stroke="#003366" stroke-width="1.5" stroke-miterlimit="10" stroke-linecap="round" stroke-linejoin="round"/>
<path d="M80.5185 92.2376L86.9558 93.7004C87.9189 93.9209 88.9521 94.0478 89.9401 94.0363C92.4964 94.0063 94.9821 93.1724 97.0624 91.6865L99.8985 89.5854C100.561 89.112 100.691 88.1791 100.182 87.543C99.7109 86.9541 98.8616 86.8362 98.2479 87.2745L95.1585 89.5567C94.0494 90.3489 92.6282 90.5626 91.3352 90.1316L86.956 88.6876" stroke="#003366" stroke-width="1.5" stroke-miterlimit="10" stroke-linecap="round" stroke-linejoin="round"/>
<path d="M93.7245 81.2756C94.6153 81.9437 96.3178 81.4707 96.3178 80.5225C96.3178 78.9508 93.3086 79.9643 93.3086 78.3925C93.3086 77.4401 95.014 76.9735 95.9019 77.6394" stroke="#003366" stroke-width="1.5" stroke-miterlimit="10" stroke-linecap="round" stroke-linejoin="round"/>
<path d="M94.8132 82.3922V81.5875" stroke="#003366" stroke-width="1.5" stroke-miterlimit="10" stroke-linecap="round" stroke-linejoin="round"/>
<path d="M94.8132 77.3275V76.5228" stroke="#003366" stroke-width="1.5" stroke-miterlimit="10" stroke-linecap="round" stroke-linejoin="round"/>
<path d="M100.493 79.4575C100.493 82.5945 97.9502 85.1376 94.8132 85.1376C91.6763 85.1376 89.1332 82.5945 89.1332 79.4575C89.1332 76.3206 91.6763 73.7775 94.8132 73.7775C97.9502 73.7775 100.493 76.3206 100.493 79.4575Z" stroke="#003366" stroke-width="1.5" stroke-miterlimit="10" stroke-linecap="round" stroke-linejoin="round"/>
</g>
</g>
<defs>
<clipPath id="clip0_229_5437">
<rect width="21.8176" height="21.8176" fill="white" transform="translate(216.694 91.1403) rotate(12.9834)"/>
</clipPath>
<clipPath id="clip1_229_5437">
<rect width="19.1518" height="19.1518" fill="white" transform="translate(182.566 37.7678)"/>
</clipPath>
</defs>
</svg>
