<svg width="338" height="325" viewBox="0 0 338 325" fill="none" xmlns="http://www.w3.org/2000/svg">
<mask id="mask0_228_3571" style="mask-type:alpha" maskUnits="userSpaceOnUse" x="0" y="0" width="338" height="325">
<path d="M337.359 135.63C336.077 106.56 324.167 78.8376 306.678 57.7035C296.444 45.3424 284.255 34.607 271.056 26.3711C257.356 17.8201 242.453 8.23774 226.203 7.21362C222.192 6.96296 218.096 7.27091 214.185 8.61731C199.217 13.7522 229.619 29.3933 233.601 31.6994C191.254 14.5543 147.431 -2.83422 101.804 0.388537C93.0098 1.0116 83.9073 2.52988 76.3159 7.82952C68.7245 13.1292 63.031 23.0696 64.4705 32.6949C65.6665 40.6515 71.1524 49.4031 66.4471 55.8056C65.1007 57.6318 63.1528 58.7562 61.2334 59.7302C51.3861 64.7505 40.6722 67.5579 31.3835 73.8387C17.0029 83.5643 7.51367 100.903 3.42435 118.95C-0.672132 136.998 0.122815 155.804 2.49333 173.959C6.95506 208.12 17.3037 241.823 36.9625 267.877C65.0434 305.089 109.775 323.072 154.085 324.856C207.704 327.018 265.098 304.91 299.058 256.906C304.093 249.787 308.669 241.93 310.317 233.15C311.964 224.37 310.145 214.48 304.1 208.944C302.467 207.454 300.383 205.879 300.484 203.479C300.62 200.228 304.351 199.018 307.201 198.244C325.9 193.181 335.955 169.218 337.252 147.919C337.502 143.808 337.531 139.712 337.352 135.637L337.359 135.63Z" fill="white"/>
</mask>
<g mask="url(#mask0_228_3571)">
<path opacity="0.3" d="M345.265 265.549V221.694H327.69V241.222H313.147V234.935V196.228H289.333V237.369L282.21 237.633V196.15H273.898V178.473H268.913V166.599H249.441V178.473H244.456V196.15H237.197V218.621L232.309 218.887L231.157 152.311H205.514V187.728L196.49 187.992V132.636H193.403V120.954H164.172V132.636H163.246V207.234H157.548V183.974H152.798V172.599H145.912V139.398H135.94V172.599H129.054V183.974H124.304V223.325H120.98L114.81 223.286V177.693L86.5006 178.031V244.917H78.1968V211.672L48.0835 211.99V152.625H42.1477V139.17H20.2764V154.811H14.6023V116H1.06785V244.917H-12.4139V293.311H-12.4666V325H363.533V265.549H345.265Z" fill="#6EA7CE"/>
<path d="M248.662 69.6533C248.662 69.6533 290.783 96.4759 290.307 98.2277C289.83 99.978 286.897 98.6129 280.942 96.2113C274.988 93.8096 239.993 73.8432 240.306 73.6338C240.619 73.4245 248.662 69.6533 248.662 69.6533Z" fill="#023160"/>
<path d="M175.135 87.7345L186.632 92.8562C186.632 92.8562 191.43 93.7968 193.364 93.3272C195.296 92.8562 184.249 86.6368 184.249 86.6368L175.135 87.7345Z" fill="#E3E9EE"/>
<path d="M193.364 93.3272C195.296 92.8562 184.249 86.6368 184.249 86.6368L182.797 86.8113C186.182 89.1723 191.339 92.8518 191.481 93.4508C192.209 93.474 192.877 93.445 193.364 93.3272Z" fill="#023160"/>
<path d="M220.001 79.58C220.42 79.7894 283.098 100.174 283.098 100.174C283.098 100.174 289.365 101.429 290.307 99.4432C290.307 99.4432 290.817 98.8559 290.307 98.2279C289.797 97.6013 243.716 68.3931 243.716 68.3931L220.001 79.58Z" fill="#E3E9EE"/>
<path d="M164.74 79.2662L259.281 45.8144C259.281 45.8144 274.741 39.96 285.292 46.3378C285.292 46.3378 288.216 47.9064 287.067 53.4468C285.918 58.9872 276.934 62.5418 276.934 62.5418L218.121 81.2536C218.121 81.2536 189.498 89.4079 173.41 88.5705C157.323 87.7346 156.801 87.7346 157.114 82.6114C157.427 77.4897 164.74 79.2662 164.74 79.2662Z" fill="#003366"/>
<path d="M228.359 65.996L149.906 41.0052C149.906 41.0052 135.386 36.3008 134.132 36.3008C132.879 36.3008 127.238 35.5695 126.612 36.9273C125.985 38.2866 129.328 39.3319 129.328 39.3319L206.213 74.4571L228.359 65.996Z" fill="#E3E9EE"/>
<path d="M168.632 80.5862C168.632 80.5862 141.485 72.0219 139.917 71.5916C138.35 71.1598 133.962 71.5916 133.962 71.5916V72.6688C133.962 72.6688 136.839 73.1951 138.454 73.4335L161.932 83.0576L168.632 80.5862Z" fill="#023160"/>
<path d="M134.133 36.3007L225.811 66.9685L228.359 65.9959L173.22 48.4311L134.133 36.3007Z" fill="#023160"/>
<path d="M180.427 78.7703H179.628C179.253 78.7703 178.95 78.4664 178.95 78.0914V76.6259C178.95 76.2509 179.253 75.947 179.628 75.947H180.427C180.802 75.947 181.105 76.2509 181.105 76.6259V78.0914C181.104 78.4664 180.8 78.7703 180.427 78.7703Z" fill="white"/>
<path d="M187.165 76.5751H186.366C185.991 76.5751 185.688 76.2713 185.688 75.8962V74.4308C185.688 74.0557 185.991 73.7518 186.366 73.7518H187.165C187.54 73.7518 187.843 74.0557 187.843 74.4308V75.8962C187.842 76.2713 187.538 76.5751 187.165 76.5751Z" fill="white"/>
<path d="M194.333 73.9656H193.534C193.159 73.9656 192.855 73.6618 192.855 73.2867V71.8213C192.855 71.4462 193.159 71.1423 193.534 71.1423H194.333C194.708 71.1423 195.011 71.4462 195.011 71.8213V73.2867C195.011 73.6618 194.708 73.9656 194.333 73.9656Z" fill="white"/>
<path d="M224.694 63.206H223.895C223.52 63.206 223.216 62.9021 223.216 62.527V61.0631C223.216 60.688 223.52 60.3842 223.895 60.3842H224.694C225.068 60.3842 225.372 60.688 225.372 61.0631V62.5285C225.371 62.9036 225.067 63.206 224.694 63.206Z" fill="white"/>
<path d="M231.587 60.6983H230.788C230.413 60.6983 230.109 60.3944 230.109 60.0193V58.5539C230.109 58.1788 230.413 57.875 230.788 57.875H231.587C231.962 57.875 232.265 58.1788 232.265 58.5539V60.0193C232.265 60.3944 231.962 60.6983 231.587 60.6983Z" fill="white"/>
<path d="M238.403 58.3852H237.604C237.229 58.3852 236.926 58.0813 236.926 57.7062V56.2408C236.926 55.8657 237.229 55.5619 237.604 55.5619H238.403C238.778 55.5619 239.082 55.8657 239.082 56.2408V57.7062C239.082 58.0813 238.778 58.3852 238.403 58.3852Z" fill="white"/>
<path d="M245.298 56.0591H244.499C244.124 56.0591 243.821 55.7553 243.821 55.3802V53.9148C243.821 53.5397 244.124 53.2358 244.499 53.2358H245.298C245.673 53.2358 245.976 53.5397 245.976 53.9148V55.3802C245.976 55.7553 245.673 56.0591 245.298 56.0591Z" fill="white"/>
<path d="M252.31 53.7856H251.511C251.136 53.7856 250.833 53.4817 250.833 53.1066V51.6412C250.833 51.2661 251.136 50.9623 251.511 50.9623H252.31C252.685 50.9623 252.989 51.2661 252.989 51.6412V53.1066C252.989 53.4817 252.685 53.7856 252.31 53.7856Z" fill="white"/>
<path d="M133.962 72.6675C133.962 72.6675 138.35 72.2357 139.917 72.6675C141.485 73.0993 167.261 81.0573 167.261 81.0573L160.562 83.5273L133.962 72.6675Z" fill="#E3E9EE"/>
<path d="M204.599 64.9578C204.877 67.2868 203.309 69.389 201.098 69.6521C198.887 69.9167 196.869 68.2419 196.592 65.9129C196.314 63.584 197.882 61.4818 200.094 61.2186C202.304 60.9555 204.322 62.6288 204.599 64.9578Z" fill="#023160"/>
<path d="M199.558 61.3218L211.93 55.5546L215.97 65.1729C215.97 65.1729 201.758 69.7843 201.577 69.5953C201.397 69.4063 199.558 61.3218 199.558 61.3218Z" fill="#023160"/>
<path d="M214.923 65.4312C217.659 65.1045 219.599 62.5044 219.255 59.6238C218.912 56.7432 216.415 54.6729 213.679 54.9996C210.943 55.3263 209.004 57.9264 209.348 60.807C209.691 63.6876 212.187 65.7579 214.923 65.4312Z" fill="#E3E9EE"/>
<path d="M211.479 60.5439C211.183 58.0507 212.597 55.7682 214.755 54.9875C214.401 54.9483 214.038 54.9483 213.672 54.9919C210.936 55.319 208.997 57.9184 209.34 60.7998C209.682 63.6812 212.178 65.7514 214.914 65.4243C215.281 65.3807 215.634 65.2949 215.968 65.1728C213.686 64.9228 211.776 63.0372 211.479 60.5439Z" fill="#003366"/>
<path d="M193.021 56.7308C193.243 58.6018 191.985 60.2897 190.208 60.5005C188.433 60.7127 186.812 59.368 186.59 57.4984C186.367 55.6288 187.625 53.9395 189.402 53.7287C191.177 53.5165 192.799 54.8612 193.021 56.7308Z" fill="#023160"/>
<path d="M188.974 53.8115L198.909 49.1797L202.153 56.9037C202.153 56.9037 190.74 60.6065 190.595 60.4553C190.45 60.3027 188.974 53.8115 188.974 53.8115Z" fill="#023160"/>
<path d="M204.784 52.442C205.06 54.755 203.503 56.8426 201.306 57.1058C199.109 57.3674 197.105 55.7058 196.829 53.3913C196.553 51.0783 198.11 48.9907 200.307 48.7275C202.503 48.4659 204.508 50.129 204.784 52.442Z" fill="#E3E9EE"/>
<path d="M198.546 53.1863C198.308 51.183 199.442 49.3512 201.177 48.7246C200.892 48.6941 200.601 48.6926 200.307 48.7275C198.11 48.9892 196.553 51.0783 196.829 53.3913C197.105 55.7043 199.108 57.3674 201.306 57.1058C201.601 57.0709 201.884 57.0011 202.153 56.9037C200.32 56.703 198.784 55.1896 198.546 53.1863Z" fill="#003366"/>
<path d="M265.347 88.8146C265.572 90.7031 264.301 92.4084 262.507 92.6221C260.713 92.8358 259.077 91.478 258.852 89.5895C258.627 87.701 259.898 85.9957 261.692 85.782C263.485 85.5683 265.122 86.9262 265.347 88.8146Z" fill="#023160"/>
<path d="M261.259 85.8666L271.293 81.1897L274.569 88.9908C274.569 88.9908 263.043 92.7299 262.897 92.5773C262.75 92.4232 261.259 85.8666 261.259 85.8666Z" fill="#023160"/>
<path d="M277.226 84.4838C277.505 86.8201 275.932 88.9295 273.714 89.1941C271.495 89.4587 269.47 87.7796 269.193 85.4433C268.914 83.1071 270.487 80.9976 272.705 80.733C274.924 80.467 276.947 82.1476 277.226 84.4838Z" fill="#E3E9EE"/>
<path d="M270.927 85.2354C270.686 83.2131 271.832 81.3624 273.584 80.7286C273.297 80.6966 273.003 80.6966 272.705 80.7315C270.487 80.9961 268.914 83.1056 269.193 85.4418C269.472 87.7781 271.495 89.4572 273.714 89.1926C274.011 89.1577 274.298 89.0865 274.569 88.9891C272.718 88.787 271.168 87.2576 270.927 85.2354Z" fill="#003366"/>
<path d="M252.511 81.6241C252.788 83.953 251.221 86.0552 249.01 86.3184C246.798 86.583 244.781 84.9082 244.503 82.5792C244.226 80.2502 245.793 78.148 248.004 77.8849C250.215 77.6218 252.233 79.2951 252.511 81.6241Z" fill="#023160"/>
<path d="M247.47 77.988L259.841 72.2208L263.881 81.8391C263.881 81.8391 249.669 86.4506 249.489 86.2616C249.309 86.0726 247.47 77.988 247.47 77.988Z" fill="#023160"/>
<path d="M267.157 76.2845C267.5 79.1659 265.561 81.7653 262.825 82.0909C260.09 82.418 257.594 80.3464 257.251 77.4664C256.908 74.585 258.848 71.9856 261.583 71.6585C264.319 71.3314 266.814 73.403 267.157 76.2845Z" fill="#E3E9EE"/>
<path d="M259.391 77.2102C259.093 74.7169 260.508 72.4345 262.667 71.6538C262.312 71.6145 261.951 71.6145 261.583 71.6582C258.848 71.9853 256.908 74.5847 257.251 77.4661C257.594 80.3475 260.09 82.4177 262.825 82.0906C263.193 82.047 263.546 81.9612 263.88 81.8391C261.599 81.5905 259.689 79.7049 259.391 77.2102Z" fill="#003366"/>
<path d="M262.109 49.6087C266.7 48.0067 276.551 45.1223 283.318 47.1082C283.318 47.1082 282.378 44.4812 274.661 44.4812C269.201 44.4812 264.232 46.659 261.569 48.5446C260.998 48.9487 261.448 49.8399 262.109 49.6087Z" fill="white"/>
<path d="M266.63 45.2256L267.766 48.9895C267.766 48.9895 269.685 48.5185 269.685 48.4022C269.685 48.2844 268.157 44.7168 268.157 44.7168L266.63 45.2256Z" fill="#003366"/>
<path d="M276.541 44.2063L277.128 47.7347C277.128 47.7347 277.363 48.0094 277.402 47.7347C277.441 47.4599 276.971 44.2063 276.971 44.2063H276.541Z" fill="#003366"/>
<path opacity="0.1" d="M386.533 223H-25.4666V238H386.533V223Z" fill="#003366"/>
<g opacity="0.5">
<path d="M249.437 -5.73877H112.183V222.769H249.437V-5.73877Z" fill="#9BC1F9"/>
<path d="M244.535 -2.4126H117.034V219.188H244.535V-2.4126Z" fill="#DAEDFF"/>
<path opacity="0.2" d="M171.377 219.186H186.517L236.876 -2.4126H221.734L171.377 219.186Z" fill="white"/>
<path opacity="0.2" d="M160.437 -2.4126L117.034 188.579V219.186H141.288L191.645 -2.4126H160.437Z" fill="white"/>
</g>
<g opacity="0.5">
<path d="M388.494 -5.73877H251.24V222.769H388.494V-5.73877Z" fill="#9BC1F9"/>
<path d="M381.631 -2.4126H254.13V219.188H381.631V-2.4126Z" fill="#DAEDFF"/>
<path opacity="0.2" d="M308.472 219.186H323.613L373.97 -2.4126H358.83L308.472 219.186Z" fill="white"/>
<path opacity="0.2" d="M328.741 -2.4126H297.531L254.13 188.579V219.186H278.383L328.741 -2.4126Z" fill="white"/>
</g>
<g opacity="0.5">
<path d="M112.343 -5.73877H-24.9113V222.769H112.343V-5.73877Z" fill="#9BC1F9"/>
<path d="M107.441 -2.4126H-20.0604V219.188H107.441V-2.4126Z" fill="#DAEDFF"/>
<path opacity="0.2" d="M34.2815 219.186H49.4232L99.7796 -2.4126H84.638L34.2815 219.186Z" fill="white"/>
<path opacity="0.2" d="M54.5503 -2.4126H23.3406L-20.0604 188.579V219.186H4.19223L54.5503 -2.4126Z" fill="white"/>
</g>
<path d="M114.321 -5.73877H110.205V226.199H114.321V-5.73877Z" fill="#A9C1D5"/>
<path d="M251.352 -5.73877H247.237V226.199H251.352V-5.73877Z" fill="#A9C1D5"/>
<path d="M19.6087 38.2206C19.6087 39.1295 18.8732 39.8656 17.9649 39.8656C17.0566 39.8656 16.321 39.1295 16.321 38.2206C16.321 37.3116 17.0566 36.5756 17.9649 36.5756C18.8732 36.5739 19.6087 37.3116 19.6087 38.2206Z" fill="#2D4972"/>
<path d="M11.4011 36.574C11.4011 37.865 10.3545 38.9123 9.06448 38.9123C7.77443 38.9123 6.72791 37.865 6.72791 36.574C6.72791 35.283 7.77443 34.2357 9.06448 34.2357C10.3545 34.2357 11.4011 35.283 11.4011 36.574Z" fill="#F47458"/>
<path d="M8.02618 85.1077C8.02618 86.3987 6.97965 87.4459 5.6896 87.4459C4.39955 87.4459 3.35303 86.3987 3.35303 85.1077C3.35303 83.8167 4.39955 82.7694 5.6896 82.7694C6.97965 82.7694 8.02618 83.8167 8.02618 85.1077Z" fill="#F47458"/>
<path d="M43.9091 59.8743C43.9091 60.7223 43.2229 61.409 42.3755 61.409C41.5281 61.409 40.8419 60.7223 40.8419 59.8743C40.8419 59.0263 41.5281 58.3396 42.3755 58.3396C43.2229 58.3396 43.9091 59.0263 43.9091 59.8743Z" fill="#F47458"/>
<path d="M37.1215 60.3567C37.1215 61.2047 36.4353 61.8914 35.5879 61.8914C34.7405 61.8914 34.0543 61.2047 34.0543 60.3567C34.0543 59.5087 34.7405 58.822 35.5879 58.822C36.4353 58.822 37.1215 59.5103 37.1215 60.3567Z" fill="#2D4972"/>
<path d="M13.8199 61.8931C13.8199 62.7411 13.1337 63.4278 12.2863 63.4278C11.4389 63.4278 10.7527 62.7411 10.7527 61.8931C10.7527 61.0451 11.4389 60.3584 12.2863 60.3584C13.1337 60.3568 13.8199 61.0451 13.8199 61.8931Z" fill="#F47458"/>
<path d="M15.0919 77.6435C15.0919 78.4915 14.4057 79.1781 13.5583 79.1781C12.7109 79.1781 12.0247 78.4915 12.0247 77.6435C12.0247 76.7954 12.7109 76.1088 13.5583 76.1088C14.4057 76.1088 15.0919 76.7954 15.0919 77.6435Z" fill="#2D4972"/>
<path d="M27.8904 43.6612C27.8904 44.5092 27.2042 45.1959 26.3568 45.1959C25.5094 45.1959 24.8232 44.5092 24.8232 43.6612C24.8232 42.8131 25.5094 42.1265 26.3568 42.1265C27.2026 42.1248 27.8904 42.8131 27.8904 43.6612Z" fill="#2D4972"/>
<path d="M42.7359 44.2622C42.7359 45.1103 42.0497 45.7969 41.2023 45.7969C40.3549 45.7969 39.6687 45.1103 39.6687 44.2622C39.6687 43.4142 40.3549 42.7275 41.2023 42.7275C42.0497 42.7259 42.7359 43.4142 42.7359 44.2622Z" fill="#F47458"/>
<path d="M36.2873 35.0392C36.2873 35.8872 35.6011 36.5739 34.7537 36.5739C33.9063 36.5739 33.2201 35.8872 33.2201 35.0392C33.2201 34.1912 33.9063 33.5045 34.7537 33.5045C35.5994 33.5045 36.2873 34.1912 36.2873 35.0392Z" fill="#2D4972"/>
<path opacity="0.8" d="M366.942 31.675C366.463 29.5854 364.594 28.0277 362.361 28.0277C361.951 28.0277 361.553 28.0804 361.175 28.1792C360.072 25.8211 357.681 24.186 354.907 24.186C354.19 24.186 353.499 24.2947 352.849 24.4972C351.356 22.0239 348.643 20.369 345.544 20.369C341.857 20.369 338.717 22.7106 337.528 25.9891C336.685 25.5198 335.716 25.2497 334.683 25.2497C331.451 25.2497 328.831 27.8712 328.831 31.1053C328.831 31.2963 328.841 31.4857 328.859 31.6734H366.942V31.675Z" fill="white"/>
<path opacity="0.8" d="M334.533 131C333.816 127.859 331.023 125.515 327.682 125.515C327.07 125.515 326.475 125.594 325.908 125.742C324.26 122.196 320.682 119.739 316.534 119.739C315.461 119.739 314.427 119.904 313.455 120.208C311.221 116.487 307.165 114 302.53 114C297.016 114 292.319 117.522 290.539 122.45C289.279 121.744 287.829 121.339 286.285 121.339C281.451 121.339 277.533 125.281 277.533 130.144C277.533 130.433 277.549 130.717 277.575 130.999H334.533V131Z" fill="white"/>
<path opacity="0.8" d="M94.5334 86C93.9041 83.2283 91.4542 81.1604 88.5243 81.1604C87.9869 81.1604 87.4653 81.2302 86.9681 81.3611C85.5226 78.2317 82.3844 76.0635 78.7462 76.0635C77.805 76.0635 76.8983 76.2089 76.0448 76.4779C74.0863 73.1958 70.5271 71 66.4606 71C61.624 71 57.503 74.1076 55.9425 78.4571C54.8375 77.8333 53.5658 77.477 52.2108 77.477C47.9705 77.477 44.5334 80.9554 44.5334 85.2467C44.5334 85.5012 44.5464 85.7528 44.5694 86H94.5334Z" fill="white"/>
<path d="M232.022 218.426H229.501V269.785H232.022V218.426Z" fill="white"/>
<path d="M208.786 281.743C208.486 281.743 208.198 281.579 208.053 281.294C207.849 280.889 208.01 280.397 208.413 280.192L230.388 269.054C230.64 268.927 230.935 268.938 231.177 269.08L249.987 280.218C250.378 280.448 250.505 280.952 250.275 281.341C250.045 281.732 249.543 281.859 249.15 281.629L230.728 270.721L209.154 281.655C209.037 281.713 208.911 281.743 208.786 281.743Z" fill="white"/>
<path d="M263.524 216.422C256.934 214.85 244.026 213.782 229.178 213.782C214.329 213.782 201.421 214.85 194.832 216.422H190.174V218.804C190.174 221.577 207.636 223.825 229.176 223.825C250.716 223.825 268.179 221.578 268.179 218.804V216.422H263.524Z" fill="#262251"/>
<path d="M229.179 221.444C250.72 221.444 268.182 219.195 268.182 216.422C268.182 213.648 250.72 211.4 229.179 211.4C207.638 211.4 190.176 213.648 190.176 216.422C190.176 219.195 207.638 221.444 229.179 221.444Z" fill="#003366"/>
<g opacity="0.4">
<path d="M245.393 198.132C244.848 197.133 243.731 194.262 243.394 190.547C243.149 187.821 243.339 185.041 243.96 182.283C244.738 178.837 246.195 175.417 248.293 172.117L248.238 172.083C246.137 175.39 244.676 178.817 243.898 182.271C243.275 185.034 243.085 187.822 243.332 190.555C243.669 194.28 244.791 197.158 245.337 198.161L245.393 198.132Z" fill="#288B54"/>
<path d="M248.307 169.143C249.008 167.918 249.487 167.815 250.015 168.074C250.543 168.332 250.868 168.879 250.52 169.769C249.681 171.926 247.645 173.83 247.289 173.656C247.031 173.53 247.333 170.851 248.307 169.143Z" fill="#84B884"/>
<path d="M249.597 173.822C250.926 173.345 251.357 173.577 251.591 174.118C251.826 174.658 251.716 175.282 250.873 175.735C248.834 176.829 246.048 176.954 245.891 176.591C245.777 176.327 247.747 174.485 249.597 173.822Z" fill="#84B884"/>
<path d="M247.259 173.72C248.523 172.09 248.825 169.928 250.151 168.339C250.164 168.322 250.189 168.343 250.175 168.359C248.849 169.948 248.548 172.11 247.284 173.74C247.271 173.757 247.247 173.736 247.259 173.72Z" fill="#288B54"/>
<path d="M248.746 170.893C248.374 170.647 248.071 170.218 247.975 169.783C247.971 169.762 248.002 169.76 248.006 169.779C248.1 170.206 248.401 170.627 248.765 170.867C248.782 170.879 248.763 170.905 248.746 170.893Z" fill="#288B54"/>
<path d="M249.149 169.971C249.642 169.974 250.136 169.808 250.561 169.564C250.579 169.555 250.598 169.579 250.58 169.59C250.151 169.837 249.651 170.007 249.153 170.004C249.131 170.004 249.129 169.971 249.149 169.971Z" fill="#288B54"/>
<path d="M248.172 169.469C248.326 169.897 248.564 170.274 248.884 170.598C248.899 170.613 248.879 170.638 248.864 170.623C248.54 170.294 248.299 169.913 248.142 169.48C248.134 169.461 248.164 169.449 248.172 169.469Z" fill="#288B54"/>
<path d="M242.144 173.727C241.327 172.576 241.435 172.098 241.891 171.728C242.347 171.357 242.98 171.293 243.643 171.983C245.246 173.651 246.116 176.3 245.809 176.548C245.587 176.73 243.281 175.33 242.144 173.727Z" fill="#84B884"/>
<path d="M245.854 176.601C244.908 174.769 243.072 173.586 242.189 171.714C242.181 171.695 242.21 171.684 242.219 171.702C243.102 173.573 244.938 174.757 245.884 176.589C245.894 176.608 245.864 176.619 245.854 176.601Z" fill="#288B54"/>
<path d="M243.918 174.063C243.542 174.297 243.02 174.396 242.587 174.297C242.566 174.293 242.572 174.26 242.591 174.266C243.016 174.362 243.53 174.267 243.898 174.038C243.917 174.027 243.936 174.052 243.918 174.063Z" fill="#288B54"/>
<path d="M243.249 173.312C243.458 172.864 243.515 172.348 243.473 171.859C243.472 171.839 243.503 171.835 243.504 171.855C243.546 172.351 243.491 172.87 243.277 173.324C243.271 173.343 243.241 173.329 243.249 173.312Z" fill="#288B54"/>
<path d="M242.381 173.987C242.833 174.028 243.279 173.971 243.706 173.815C243.725 173.808 243.738 173.838 243.719 173.845C243.287 174.001 242.835 174.059 242.377 174.019C242.357 174.017 242.361 173.985 242.381 173.987Z" fill="#288B54"/>
<path d="M239.579 178.875C238.625 177.53 238.751 176.973 239.285 176.54C239.818 176.107 240.555 176.033 241.331 176.839C243.203 178.788 244.22 181.881 243.861 182.172C243.6 182.383 240.908 180.748 239.579 178.875Z" fill="#84B884"/>
<path d="M243.913 182.233C242.81 180.092 240.661 178.712 239.631 176.526C239.62 176.504 239.655 176.49 239.666 176.512C240.697 178.699 242.844 180.079 243.948 182.219C243.959 182.241 243.924 182.254 243.913 182.233Z" fill="#288B54"/>
<path d="M241.652 179.27C241.214 179.543 240.603 179.658 240.098 179.543C240.075 179.537 240.08 179.501 240.103 179.506C240.599 179.619 241.2 179.507 241.631 179.24C241.65 179.226 241.673 179.256 241.652 179.27Z" fill="#288B54"/>
<path d="M240.872 178.39C241.117 177.871 241.184 177.263 241.132 176.694C241.13 176.669 241.168 176.665 241.169 176.69C241.221 177.265 241.154 177.877 240.906 178.404C240.895 178.427 240.861 178.412 240.872 178.39Z" fill="#288B54"/>
<path d="M239.858 179.18C240.386 179.228 240.906 179.16 241.405 178.979C241.428 178.971 241.442 179.007 241.419 179.015C240.915 179.198 240.387 179.266 239.852 179.217C239.829 179.216 239.835 179.178 239.858 179.18Z" fill="#288B54"/>
<path d="M248.599 179.321C250.192 178.89 250.671 179.201 250.894 179.851C251.116 180.501 250.932 181.219 249.908 181.667C247.433 182.751 244.178 182.638 244.028 182.201C243.918 181.884 246.384 179.921 248.599 179.321Z" fill="#84B884"/>
<path d="M243.949 182.229C246.34 181.934 248.377 180.391 250.785 180.18C250.809 180.178 250.814 180.216 250.789 180.217C248.379 180.427 246.343 181.971 243.954 182.265C243.93 182.269 243.926 182.231 243.949 182.229Z" fill="#288B54"/>
<path d="M247.513 181.127C247.409 180.618 247.515 180.012 247.796 179.574C247.809 179.554 247.838 179.577 247.826 179.597C247.55 180.025 247.449 180.626 247.551 181.123C247.555 181.146 247.519 181.15 247.513 181.127Z" fill="#288B54"/>
<path d="M248.608 180.699C249.012 181.109 249.556 181.38 250.109 181.53C250.132 181.536 250.127 181.573 250.104 181.566C249.546 181.416 248.993 181.143 248.584 180.728C248.568 180.711 248.591 180.681 248.608 180.699Z" fill="#288B54"/>
<path d="M248.218 179.475C247.991 179.955 247.874 180.464 247.872 180.995C247.872 181.019 247.835 181.023 247.835 180.999C247.839 180.461 247.954 179.946 248.184 179.46C248.193 179.439 248.227 179.453 248.218 179.475Z" fill="#288B54"/>
<path d="M248.728 183.727C250.519 183.241 251.058 183.591 251.309 184.323C251.56 185.054 251.351 185.862 250.2 186.367C247.415 187.587 243.753 187.461 243.584 186.968C243.462 186.611 246.234 184.403 248.728 183.727Z" fill="#84B884"/>
<path d="M243.157 187.005C245.949 186.664 248.375 184.936 251.188 184.693C251.215 184.691 251.219 184.733 251.194 184.736C248.381 184.979 245.955 186.705 243.162 187.047C243.135 187.05 243.129 187.008 243.157 187.005Z" fill="#288B54"/>
<path d="M247.506 185.757C247.388 185.187 247.506 184.499 247.824 184.011C247.839 183.988 247.872 184.015 247.857 184.036C247.546 184.517 247.432 185.196 247.547 185.752C247.554 185.779 247.512 185.785 247.506 185.757Z" fill="#288B54"/>
<path d="M248.738 185.277C249.19 185.739 249.808 186.045 250.427 186.212C250.452 186.219 250.447 186.261 250.421 186.254C249.795 186.086 249.169 185.778 248.712 185.311C248.693 185.291 248.719 185.258 248.738 185.277Z" fill="#288B54"/>
<path d="M248.299 183.901C248.044 184.44 247.912 185.015 247.91 185.612C247.91 185.639 247.868 185.643 247.868 185.618C247.87 185.014 248.002 184.431 248.26 183.886C248.272 183.86 248.31 183.876 248.299 183.901Z" fill="#288B54"/>
<path d="M238.524 182.508C236.898 181.615 236.291 181.828 235.876 182.48C235.46 183.131 235.473 183.966 236.472 184.727C238.891 186.569 242.481 187.307 242.76 186.869C242.964 186.551 240.789 183.753 238.524 182.508Z" fill="#84B884"/>
<path d="M243.151 187.046C240.519 186.055 238.567 183.808 235.889 182.909C235.864 182.9 235.88 182.861 235.906 182.869C238.581 183.769 240.534 186.015 243.167 187.006C243.193 187.016 243.177 187.055 243.151 187.046Z" fill="#288B54"/>
<path d="M239.194 184.755C239.438 184.239 239.486 183.553 239.297 183.013C239.288 182.987 239.327 182.972 239.336 182.998C239.529 183.548 239.482 184.246 239.233 184.771C239.221 184.795 239.182 184.779 239.194 184.755Z" fill="#288B54"/>
<path d="M238.171 184.049C237.616 184.395 236.937 184.55 236.288 184.566C236.261 184.566 236.256 184.525 236.283 184.524C236.925 184.507 237.597 184.357 238.146 184.015C238.169 184.001 238.194 184.035 238.171 184.049Z" fill="#288B54"/>
<path d="M238.943 182.773C239.065 183.363 239.057 183.958 238.917 184.544C238.91 184.57 238.869 184.564 238.875 184.539C239.013 183.956 239.021 183.365 238.901 182.778C238.895 182.751 238.937 182.747 238.943 182.773Z" fill="#288B54"/>
</g>
<g opacity="0.4">
<path d="M238.139 195.16C237.973 194.542 237.316 192.936 236.013 191.29C235.056 190.08 233.901 189.019 232.577 188.134C230.923 187.028 229.001 186.196 226.865 185.662L226.875 185.627C229.015 186.162 230.941 186.995 232.599 188.104C233.925 188.992 235.084 190.056 236.043 191.268C237.35 192.92 238.009 194.529 238.174 195.151L238.139 195.16Z" fill="#288B54"/>
<path d="M225.706 184.453C224.945 184.224 224.71 184.368 224.594 184.678C224.479 184.989 224.558 185.337 225.045 185.567C226.223 186.123 227.794 186.11 227.871 185.903C227.929 185.751 226.766 184.772 225.706 184.453Z" fill="#84B884"/>
<path d="M226.994 186.863C226.267 187.184 226.181 187.446 226.295 187.757C226.409 188.067 226.696 188.28 227.216 188.139C228.473 187.796 229.658 186.767 229.582 186.557C229.526 186.406 228.007 186.417 226.994 186.863Z" fill="#84B884"/>
<path d="M227.908 185.916C226.76 185.741 225.798 184.974 224.64 184.84C224.63 184.839 224.627 184.856 224.638 184.858C225.796 184.993 226.758 185.759 227.905 185.934C227.918 185.935 227.92 185.918 227.908 185.916Z" fill="#288B54"/>
<path d="M226.206 185.338C226.263 185.094 226.219 184.801 226.09 184.586C226.085 184.577 226.07 184.588 226.075 184.597C226.203 184.807 226.244 185.097 226.188 185.335C226.185 185.346 226.203 185.349 226.206 185.338Z" fill="#288B54"/>
<path d="M225.684 185.118C225.483 185.311 225.217 185.434 224.95 185.499C224.939 185.502 224.94 185.52 224.953 185.517C225.224 185.452 225.493 185.327 225.695 185.133C225.703 185.124 225.692 185.11 225.684 185.118Z" fill="#288B54"/>
<path d="M225.888 184.533C225.991 184.768 226.04 185.014 226.035 185.27C226.035 185.281 226.052 185.284 226.052 185.273C226.058 185.014 226.007 184.764 225.904 184.526C225.9 184.516 225.883 184.522 225.888 184.533Z" fill="#288B54"/>
<path d="M230 183.936C229.888 183.149 229.658 182.997 229.328 183.021C228.998 183.047 228.715 183.266 228.712 183.804C228.704 185.107 229.376 186.526 229.598 186.509C229.759 186.497 230.158 185.031 230 183.936Z" fill="#84B884"/>
<path d="M229.6 186.547C229.275 185.433 229.566 184.237 229.202 183.131C229.198 183.12 229.182 183.127 229.186 183.138C229.551 184.246 229.26 185.44 229.583 186.554C229.586 186.566 229.604 186.558 229.6 186.547Z" fill="#288B54"/>
<path d="M229.407 184.761C229.651 184.711 229.902 184.548 230.041 184.34C230.048 184.331 230.033 184.32 230.027 184.33C229.892 184.533 229.644 184.695 229.405 184.744C229.393 184.745 229.395 184.764 229.407 184.761Z" fill="#288B54"/>
<path d="M229.388 184.194C229.129 184.092 228.906 183.903 228.734 183.688C228.727 183.678 228.712 183.689 228.719 183.698C228.892 183.917 229.118 184.107 229.38 184.21C229.392 184.216 229.399 184.199 229.388 184.194Z" fill="#288B54"/>
<path d="M230.004 184.134C229.836 184.326 229.631 184.475 229.396 184.578C229.385 184.582 229.392 184.6 229.403 184.594C229.64 184.491 229.847 184.339 230.018 184.145C230.026 184.137 230.012 184.126 230.004 184.134Z" fill="#288B54"/>
<path d="M233.044 185.045C232.912 184.126 232.645 183.947 232.259 183.977C231.874 184.007 231.544 184.262 231.54 184.892C231.53 186.413 232.315 188.07 232.574 188.05C232.763 188.035 233.227 186.323 233.044 185.045Z" fill="#84B884"/>
<path d="M232.577 188.095C232.197 186.793 232.539 185.396 232.111 184.104C232.107 184.092 232.088 184.099 232.092 184.112C232.52 185.405 232.178 186.801 232.558 188.103C232.561 188.116 232.581 188.108 232.577 188.095Z" fill="#288B54"/>
<path d="M232.352 186.009C232.637 185.95 232.93 185.76 233.093 185.517C233.101 185.506 233.083 185.493 233.077 185.504C232.918 185.741 232.63 185.93 232.35 185.987C232.335 185.99 232.338 186.011 232.352 186.009Z" fill="#288B54"/>
<path d="M232.329 185.346C232.027 185.23 231.764 185.007 231.564 184.754C231.556 184.744 231.538 184.756 231.548 184.767C231.75 185.022 232.015 185.246 232.32 185.365C232.333 185.371 232.342 185.352 232.329 185.346Z" fill="#288B54"/>
<path d="M233.049 185.277C232.853 185.501 232.614 185.676 232.339 185.794C232.327 185.799 232.335 185.818 232.348 185.813C232.625 185.692 232.866 185.516 233.066 185.289C233.074 185.28 233.058 185.266 233.049 185.277Z" fill="#288B54"/>
<path d="M229.534 188.722C228.717 189.163 228.642 189.475 228.803 189.826C228.964 190.178 229.317 190.399 229.909 190.186C231.34 189.669 232.626 188.362 232.517 188.126C232.44 187.955 230.672 188.108 229.534 188.722Z" fill="#84B884"/>
<path d="M232.561 188.107C231.47 188.913 230.04 189.072 228.975 189.92C228.964 189.928 228.977 189.946 228.987 189.936C230.053 189.088 231.483 188.929 232.573 188.123C232.584 188.116 232.571 188.1 232.561 188.107Z" fill="#288B54"/>
<path d="M230.678 189.038C230.523 188.79 230.244 188.583 229.959 188.514C229.946 188.511 229.943 188.532 229.957 188.535C230.235 188.602 230.509 188.809 230.66 189.05C230.668 189.062 230.684 189.05 230.678 189.038Z" fill="#288B54"/>
<path d="M230.065 189.288C230.06 189.612 229.942 189.934 229.775 190.209C229.768 190.22 229.784 190.234 229.791 190.223C229.961 189.945 230.08 189.619 230.086 189.292C230.086 189.278 230.065 189.274 230.065 189.288Z" fill="#288B54"/>
<path d="M229.749 188.638C230.027 188.746 230.273 188.909 230.481 189.125C230.49 189.134 230.507 189.122 230.497 189.113C230.287 188.894 230.039 188.728 229.757 188.619C229.745 188.613 229.737 188.632 229.749 188.638Z" fill="#288B54"/>
<path d="M231.191 190.572C230.272 191.067 230.186 191.42 230.368 191.815C230.55 192.211 230.948 192.46 231.613 192.219C233.223 191.638 234.67 190.167 234.548 189.901C234.458 189.707 232.471 189.881 231.191 190.572Z" fill="#84B884"/>
<path d="M234.737 189.75C233.465 190.694 231.804 190.928 230.561 191.921C230.549 191.93 230.564 191.949 230.574 191.94C231.817 190.949 233.477 190.713 234.75 189.769C234.763 189.76 234.749 189.741 234.737 189.75Z" fill="#288B54"/>
<path d="M232.476 190.927C232.304 190.649 231.988 190.414 231.669 190.337C231.654 190.333 231.651 190.357 231.666 190.36C231.98 190.434 232.289 190.668 232.457 190.941C232.466 190.954 232.485 190.941 232.476 190.927Z" fill="#288B54"/>
<path d="M231.788 191.208C231.783 191.572 231.65 191.937 231.461 192.245C231.453 192.257 231.472 192.272 231.48 192.26C231.67 191.949 231.806 191.58 231.813 191.212C231.811 191.196 231.788 191.193 231.788 191.208Z" fill="#288B54"/>
<path d="M231.432 190.477C231.746 190.597 232.023 190.782 232.255 191.025C232.266 191.036 232.285 191.022 232.274 191.011C232.038 190.766 231.76 190.58 231.442 190.456C231.428 190.448 231.419 190.47 231.432 190.477Z" fill="#288B54"/>
<path d="M233.203 192.112C232.178 192.317 231.994 192.628 232.051 193.059C232.108 193.491 232.417 193.847 233.124 193.811C234.835 193.729 236.648 192.746 236.61 192.455C236.582 192.245 234.63 191.828 233.203 192.112Z" fill="#84B884"/>
<path d="M236.833 192.367C235.34 192.895 233.683 192.633 232.205 193.217C232.191 193.222 232.199 193.244 232.214 193.239C233.693 192.655 235.349 192.917 236.842 192.389C236.856 192.385 236.848 192.363 236.833 192.367Z" fill="#288B54"/>
<path d="M234.328 192.833C234.245 192.515 234.013 192.196 233.728 192.029C233.715 192.021 233.705 192.043 233.719 192.051C233.994 192.214 234.224 192.527 234.304 192.836C234.309 192.851 234.332 192.848 234.328 192.833Z" fill="#288B54"/>
<path d="M233.587 192.897C233.474 193.243 233.241 193.552 232.969 193.791C232.958 193.801 232.972 193.82 232.983 193.81C233.257 193.567 233.493 193.256 233.607 192.906C233.613 192.893 233.591 192.883 233.587 192.897Z" fill="#288B54"/>
<path d="M233.463 192.093C233.728 192.301 233.937 192.559 234.089 192.858C234.096 192.872 234.118 192.863 234.111 192.849C233.958 192.545 233.746 192.284 233.478 192.074C233.466 192.064 233.451 192.084 233.463 192.093Z" fill="#288B54"/>
<path d="M234.885 186.118C235.203 185.124 235.532 184.976 235.955 185.08C236.377 185.185 236.696 185.531 236.583 186.228C236.31 187.918 235.131 189.611 234.847 189.54C234.639 189.49 234.442 187.504 234.885 186.118Z" fill="#84B884"/>
<path d="M234.754 189.764C235.445 188.339 235.371 186.665 236.115 185.261C236.122 185.247 236.1 185.238 236.093 185.251C235.349 186.656 235.424 188.329 234.733 189.754C234.726 189.769 234.748 189.778 234.754 189.764Z" fill="#288B54"/>
<path d="M235.482 187.295C235.182 187.18 234.897 186.918 234.765 186.625C234.759 186.611 234.737 186.619 234.744 186.634C234.878 186.934 235.169 187.2 235.474 187.318C235.486 187.322 235.496 187.301 235.482 187.295Z" fill="#288B54"/>
<path d="M235.626 186.611C235.987 186.538 236.324 186.337 236.596 186.093C236.606 186.083 236.593 186.064 236.582 186.074C236.313 186.317 235.981 186.515 235.623 186.588C235.609 186.591 235.611 186.614 235.626 186.611Z" fill="#288B54"/>
<path d="M234.815 186.388C234.995 186.676 235.228 186.916 235.513 187.101C235.525 187.109 235.54 187.09 235.528 187.082C235.246 186.897 235.012 186.66 234.836 186.374C234.826 186.361 234.807 186.376 234.815 186.388Z" fill="#288B54"/>
<path d="M238.647 188.538C239.438 187.61 239.862 187.6 240.269 187.905C240.676 188.209 240.864 188.724 240.425 189.426C239.366 191.121 237.331 192.411 237.057 192.207C236.859 192.058 237.544 189.83 238.647 188.538Z" fill="#84B884"/>
<path d="M236.857 192.407C238.248 191.186 238.922 189.347 240.36 188.173C240.374 188.163 240.357 188.139 240.344 188.152C238.906 189.326 238.231 191.165 236.841 192.385C236.826 192.396 236.844 192.418 236.857 192.407Z" fill="#288B54"/>
<path d="M238.757 190.075C238.487 189.817 238.297 189.402 238.29 189.027C238.29 189.009 238.263 189.014 238.263 189.031C238.271 189.413 238.466 189.835 238.74 190.097C238.753 190.109 238.77 190.087 238.757 190.075Z" fill="#288B54"/>
<path d="M239.225 189.404C239.646 189.489 240.102 189.425 240.504 189.284C240.52 189.278 240.511 189.252 240.493 189.258C240.097 189.398 239.644 189.461 239.229 189.377C239.211 189.373 239.207 189.402 239.225 189.404Z" fill="#288B54"/>
<path d="M238.451 188.798C238.514 189.19 238.658 189.556 238.88 189.883C238.89 189.898 238.913 189.882 238.902 189.867C238.682 189.543 238.539 189.182 238.478 188.794C238.476 188.776 238.449 188.779 238.451 188.798Z" fill="#288B54"/>
</g>
<path d="M244.342 197.179C244.343 197.145 244.505 193.691 246.623 189.297C247.866 186.717 249.531 184.324 251.57 182.182C254.119 179.506 257.265 177.218 260.92 175.383L260.89 175.323C257.227 177.162 254.075 179.456 251.52 182.139C249.475 184.286 247.807 186.686 246.56 189.271C244.438 193.676 244.275 197.142 244.274 197.176L244.342 197.179Z" fill="#288B54"/>
<path d="M262.531 172.721C263.818 171.998 264.303 172.162 264.639 172.678C264.975 173.193 264.972 173.857 264.182 174.472C262.27 175.957 259.419 176.573 259.193 176.227C259.028 175.973 260.739 173.729 262.531 172.721Z" fill="#84B884"/>
<path d="M261.175 177.614C262.625 177.9 262.885 178.34 262.805 178.95C262.725 179.56 262.292 180.062 261.292 180.016C258.874 179.904 256.305 178.519 256.359 178.109C256.399 177.811 259.157 177.215 261.175 177.614Z" fill="#84B884"/>
<path d="M259.134 176.266C261.142 175.478 262.579 173.706 264.622 172.987C264.642 172.98 264.65 173.013 264.63 173.02C262.587 173.739 261.152 175.51 259.142 176.299C259.122 176.306 259.114 176.273 259.134 176.266Z" fill="#288B54"/>
<path d="M261.985 174.529C261.784 174.108 261.741 173.563 261.888 173.119C261.894 173.098 261.927 173.108 261.92 173.128C261.775 173.564 261.817 174.1 262.015 174.513C262.025 174.532 261.995 174.548 261.985 174.529Z" fill="#288B54"/>
<path d="M262.843 173.917C263.287 174.183 263.817 174.298 264.33 174.308C264.352 174.308 264.35 174.342 264.329 174.342C263.809 174.332 263.274 174.215 262.826 173.945C262.807 173.935 262.824 173.906 262.843 173.917Z" fill="#288B54"/>
<path d="M262.234 172.941C262.144 173.409 262.155 173.873 262.268 174.338C262.273 174.358 262.241 174.366 262.235 174.346C262.121 173.876 262.11 173.407 262.201 172.931C262.205 172.91 262.238 172.921 262.234 172.941Z" fill="#288B54"/>
<path d="M254.536 173.524C254.421 172.052 254.775 171.681 255.383 171.594C255.993 171.506 256.594 171.789 256.818 172.764C257.361 175.123 256.72 177.968 256.31 178.028C256.013 178.07 254.696 175.575 254.536 173.524Z" fill="#84B884"/>
<path d="M256.321 178.101C256.448 175.949 255.452 173.901 255.656 171.745C255.657 171.724 255.691 171.725 255.69 171.747C255.486 173.902 256.483 175.949 256.355 178.103C256.354 178.123 256.321 178.122 256.321 178.101Z" fill="#288B54"/>
<path d="M255.945 174.78C255.48 174.785 254.965 174.594 254.626 174.274C254.609 174.259 254.634 174.236 254.65 174.251C254.983 174.566 255.491 174.753 255.947 174.746C255.967 174.747 255.967 174.78 255.945 174.78Z" fill="#288B54"/>
<path d="M255.752 173.744C256.181 173.457 256.51 173.021 256.733 172.56C256.742 172.541 256.771 172.558 256.761 172.577C256.536 173.043 256.202 173.482 255.769 173.773C255.751 173.787 255.735 173.757 255.752 173.744Z" fill="#288B54"/>
<path d="M254.608 173.886C254.995 174.165 255.424 174.351 255.894 174.445C255.915 174.449 255.904 174.481 255.884 174.477C255.412 174.384 254.981 174.196 254.59 173.915C254.573 173.902 254.59 173.873 254.608 173.886Z" fill="#288B54"/>
<path d="M249.468 176.771C249.334 175.051 249.746 174.62 250.458 174.517C251.169 174.413 251.871 174.743 252.134 175.882C252.768 178.637 252.02 181.96 251.541 182.029C251.194 182.079 249.655 179.165 249.468 176.771Z" fill="#84B884"/>
<path d="M251.555 182.115C251.707 179.6 250.535 177.21 250.777 174.692C250.78 174.667 250.819 174.667 250.816 174.693C250.575 177.211 251.746 179.602 251.594 182.116C251.591 182.14 251.552 182.14 251.555 182.115Z" fill="#288B54"/>
<path d="M251.114 178.237C250.569 178.244 249.968 178.02 249.571 177.645C249.552 177.628 249.581 177.6 249.6 177.618C249.988 177.986 250.581 178.204 251.115 178.198C251.141 178.198 251.139 178.237 251.114 178.237Z" fill="#288B54"/>
<path d="M250.889 177.028C251.39 176.692 251.773 176.183 252.034 175.645C252.045 175.622 252.079 175.643 252.068 175.665C251.804 176.209 251.415 176.722 250.908 177.062C250.888 177.077 250.869 177.041 250.889 177.028Z" fill="#288B54"/>
<path d="M249.552 177.193C250.004 177.52 250.505 177.738 251.054 177.846C251.078 177.852 251.067 177.888 251.043 177.884C250.492 177.776 249.988 177.556 249.532 177.227C249.512 177.211 249.532 177.178 249.552 177.193Z" fill="#288B54"/>
<path d="M257.326 182.013C258.986 182.48 259.25 183.016 259.1 183.719C258.951 184.422 258.4 184.968 257.239 184.821C254.434 184.465 251.572 182.617 251.673 182.144C251.746 181.801 255.014 181.363 257.326 182.013Z" fill="#84B884"/>
<path d="M251.587 182.127C253.897 183.138 256.548 182.862 258.829 183.96C258.852 183.971 258.83 184.005 258.808 183.994C256.53 182.899 253.882 183.176 251.575 182.165C251.553 182.154 251.564 182.117 251.587 182.127Z" fill="#288B54"/>
<path d="M255.381 183.054C255.558 182.544 255.979 182.049 256.467 181.811C256.49 181.8 256.509 181.834 256.486 181.845C256.008 182.079 255.592 182.564 255.419 183.065C255.409 183.089 255.372 183.077 255.381 183.054Z" fill="#288B54"/>
<path d="M256.594 183.257C256.738 183.844 257.082 184.377 257.497 184.809C257.515 184.826 257.486 184.854 257.469 184.836C257.048 184.399 256.701 183.86 256.556 183.267C256.549 183.242 256.587 183.233 256.594 183.257Z" fill="#288B54"/>
<path d="M256.898 181.949C256.437 182.257 256.058 182.655 255.772 183.13C255.758 183.152 255.725 183.131 255.738 183.109C256.028 182.629 256.412 182.227 256.879 181.915C256.9 181.9 256.919 181.934 256.898 181.949Z" fill="#288B54"/>
<path d="M255.074 186.038C256.943 186.564 257.239 187.168 257.071 187.959C256.902 188.75 256.282 189.364 254.977 189.198C251.821 188.799 248.602 186.718 248.715 186.186C248.798 185.8 252.473 185.307 255.074 186.038Z" fill="#84B884"/>
<path d="M248.31 185.988C251.005 187.176 254.106 186.941 256.767 188.228C256.792 188.24 256.769 188.278 256.744 188.266C254.087 186.98 250.989 187.216 248.298 186.03C248.271 186.019 248.284 185.977 248.31 185.988Z" fill="#288B54"/>
<path d="M252.885 187.208C253.086 186.633 253.559 186.079 254.107 185.809C254.133 185.797 254.153 185.835 254.129 185.847C253.591 186.112 253.124 186.656 252.927 187.221C252.919 187.248 252.877 187.235 252.885 187.208Z" fill="#288B54"/>
<path d="M254.251 187.438C254.413 188.097 254.799 188.698 255.266 189.183C255.285 189.203 255.254 189.233 255.235 189.213C254.763 188.722 254.372 188.113 254.209 187.447C254.201 187.421 254.244 187.41 254.251 187.438Z" fill="#288B54"/>
<path d="M254.593 185.965C254.074 186.312 253.648 186.759 253.325 187.292C253.31 187.317 253.273 187.294 253.287 187.269C253.614 186.729 254.046 186.277 254.571 185.926C254.596 185.911 254.616 185.95 254.593 185.965Z" fill="#288B54"/>
<path d="M252.052 189.65C253.993 189.605 254.453 190.095 254.524 190.9C254.596 191.705 254.182 192.474 252.887 192.698C249.752 193.243 246.063 192.196 246.016 191.656C245.98 191.262 249.35 189.712 252.052 189.65Z" fill="#84B884"/>
<path d="M245.571 191.585C248.493 191.929 251.386 190.798 254.307 191.246C254.334 191.25 254.334 191.295 254.305 191.29C251.386 190.842 248.492 191.972 245.569 191.629C245.542 191.626 245.542 191.583 245.571 191.585Z" fill="#288B54"/>
<path d="M250.303 191.409C250.329 190.798 250.617 190.136 251.062 189.712C251.082 189.693 251.114 189.725 251.092 189.744C250.655 190.158 250.372 190.809 250.347 191.409C250.345 191.439 250.302 191.438 250.303 191.409Z" fill="#288B54"/>
<path d="M251.676 191.23C252.022 191.812 252.57 192.275 253.16 192.601C253.184 192.614 253.161 192.652 253.136 192.639C252.542 192.309 251.988 191.84 251.638 191.251C251.623 191.226 251.661 191.205 251.676 191.23Z" fill="#288B54"/>
<path d="M251.574 189.716C251.179 190.204 250.903 190.755 250.748 191.363C250.742 191.39 250.7 191.378 250.706 191.351C250.861 190.739 251.139 190.185 251.537 189.695C251.553 189.672 251.591 189.695 251.574 189.716Z" fill="#288B54"/>
<path d="M246.568 179.467C245.588 177.792 244.93 177.657 244.206 178.018C243.482 178.381 243.045 179.135 243.534 180.356C244.716 183.308 247.542 185.899 248.028 185.654C248.382 185.479 247.933 181.798 246.568 179.467Z" fill="#84B884"/>
<path d="M248.287 186.025C246.458 183.719 245.906 180.66 243.99 178.413C243.971 178.392 244.004 178.362 244.021 178.383C245.937 180.631 246.489 183.69 248.318 185.995C248.337 186.017 248.305 186.046 248.287 186.025Z" fill="#288B54"/>
<path d="M245.965 181.84C246.461 181.508 246.87 180.919 246.992 180.331C246.997 180.304 247.039 180.316 247.034 180.343C246.91 180.943 246.494 181.538 245.987 181.878C245.963 181.895 245.942 181.857 245.965 181.84Z" fill="#288B54"/>
<path d="M245.421 180.66C244.733 180.668 244.05 180.445 243.454 180.111C243.43 180.098 243.453 180.06 243.477 180.073C244.066 180.403 244.744 180.623 245.423 180.615C245.451 180.615 245.45 180.66 245.421 180.66Z" fill="#288B54"/>
<path d="M246.803 179.925C246.594 180.522 246.267 181.052 245.826 181.506C245.805 181.527 245.775 181.494 245.796 181.475C246.232 181.026 246.555 180.505 246.761 179.913C246.771 179.886 246.813 179.898 246.803 179.925Z" fill="#288B54"/>
<path d="M240.731 185.381C238.918 184.021 238.147 184.174 237.532 184.89C236.917 185.607 236.788 186.618 237.866 187.71C240.475 190.354 244.688 191.865 245.102 191.383C245.402 191.034 243.254 187.276 240.731 185.381Z" fill="#84B884"/>
<path d="M245.545 191.664C242.532 190.011 240.556 186.961 237.475 185.411C237.445 185.396 237.472 185.353 237.502 185.368C240.584 186.918 242.559 189.968 245.572 191.621C245.6 191.636 245.573 191.679 245.545 191.664Z" fill="#288B54"/>
<path d="M241.153 188.213C241.536 187.629 241.711 186.813 241.578 186.125C241.571 186.093 241.621 186.08 241.628 186.113C241.765 186.815 241.589 187.643 241.198 188.24C241.179 188.267 241.135 188.241 241.153 188.213Z" fill="#288B54"/>
<path d="M240.038 187.184C239.307 187.506 238.461 187.576 237.672 187.485C237.639 187.481 237.641 187.43 237.673 187.434C238.454 187.525 239.289 187.458 240.014 187.139C240.042 187.126 240.068 187.17 240.038 187.184Z" fill="#288B54"/>
<path d="M241.189 185.772C241.233 186.509 241.122 187.222 240.854 187.91C240.842 187.941 240.793 187.926 240.805 187.895C241.071 187.211 241.183 186.504 241.139 185.771C241.137 185.739 241.188 185.74 241.189 185.772Z" fill="#288B54"/>
<path d="M246.777 216.225H238.506C236.781 216.225 235.321 214.417 235.082 211.988L233.495 195.853H251.419L249.699 212.628C249.487 214.694 248.244 216.225 246.777 216.225Z" fill="#F47458"/>
<path d="M251.244 197.199H233.353C232.945 197.199 232.612 196.868 232.612 196.458V195.365C232.612 194.957 232.943 194.624 233.353 194.624H251.244C251.653 194.624 251.985 194.956 251.985 195.365V196.458C251.984 196.868 251.653 197.199 251.244 197.199Z" fill="#F47458"/>
<path d="M242.299 198.402C248.237 198.497 250.393 197.199 250.393 197.199H234.072C234.072 197.199 236.36 198.308 242.299 198.402Z" fill="#E36448"/>
<path d="M147.675 282.555C147.675 284.384 144.666 286.077 139.548 287.46C129.38 290.21 114.358 291.013 103.813 291.013C80.7383 291.013 61.8255 287.577 60.0851 283.213C59.9982 282.996 59.9534 282.778 59.9534 282.555C59.9534 277.883 79.5898 274.097 103.812 274.097C128.034 274.097 147.675 277.883 147.675 282.555Z" fill="white"/>
<path opacity="0.4" d="M139.547 287.46C129.392 290.206 114.376 291.013 103.812 291.013C80.7368 291.013 61.8241 287.577 60.0836 283.213C73.5415 281.373 105.08 280.446 105.08 280.446L139.547 287.46Z" fill="white"/>
<path d="M116.732 282.677C114.702 283.455 110.811 284.163 103.382 284.181C100.553 284.188 98.2406 284.074 96.3481 283.882C94.2601 283.673 92.6853 283.368 91.496 283.03C89.6863 282.514 89.2397 280.139 90.7561 279.023C96.4838 274.81 96.6318 267.014 95.9774 261.892C95.6041 258.955 94.966 256.898 94.966 256.898C94.966 256.898 110.547 237.458 110.547 256.898C110.547 271.009 114.95 277.137 117.364 279.436C118.402 280.423 118.071 282.163 116.732 282.677Z" fill="white"/>
<path opacity="0.5" d="M96.3805 283.881C94.2925 283.672 92.7177 283.367 91.5285 283.029C89.7188 282.513 89.2721 280.138 90.7886 279.022C94.4758 276.309 95.8511 272.111 96.1864 268.098C98.497 268.317 100.839 268.44 103.205 268.456C104.389 275.477 97.8916 282.385 96.3805 283.881Z" fill="white"/>
<path d="M183.034 189.229C183.034 193.247 182.735 197.195 182.157 201.051C176.448 239.202 143.533 268.459 103.784 268.459C68.1125 268.459 37.9479 244.899 28.0076 212.495C25.7471 205.138 24.5334 197.327 24.5334 189.229C24.5334 145.473 60.0144 110 103.784 110C147.553 110 183.034 145.473 183.034 189.229Z" fill="white"/>
<path opacity="0.1" d="M182.157 201.051C176.448 239.202 143.533 268.459 103.784 268.459C68.1125 268.459 37.9479 244.899 28.0075 212.495C43.7883 220.407 72.2437 232.182 92.8426 226.588C113.735 220.913 157.539 208.219 182.157 201.051Z" fill="#003366"/>
<path d="M130.045 252.009C90.8212 256.258 53.6568 223.614 49.1807 182.86C44.9599 144.469 71.2785 113.347 107.965 113.344C144.652 113.344 177.812 144.467 182.033 182.86C186.008 219.025 162.966 248.417 130.045 252.009Z" fill="#383463"/>
<path d="M98.6872 247.89C88.2296 243.842 81.3764 238.89 75.8184 233.644C75.2943 233.15 71.3749 226.411 70.8876 225.875C70.7192 225.689 69.9576 225.423 69.7947 225.237C75.3351 222.083 85.8239 219.67 104.735 223.566C133.028 229.397 164.585 221.977 170.247 225.901C172.42 227.41 169.849 231.63 164.418 236.367C135.522 261.564 105.789 250.638 98.6872 247.89Z" fill="#75ACF2"/>
<path d="M106.742 225.777C106.742 225.777 106.74 225.777 106.74 225.779C106.176 226.091 105.399 226.121 104.722 226.104C97.0104 225.917 89.2734 226.704 81.7577 228.44C78.7208 229.143 75.7083 230 72.6699 230.694C71.9925 230.029 71.3259 229.354 70.6702 228.664C62.5354 220.089 56.1818 209.589 52.4647 198.123C54.3124 197.899 56.1438 197.584 57.9399 197.1C65.6403 195.021 72.7283 189.825 80.6893 190.311L82.8167 190.421C82.8398 190.436 83.4765 190.866 83.5634 190.954C89.3793 195.451 89.9129 204.531 94.9034 210.124C97.0267 212.506 99.8532 214.125 102.35 216.114C104.849 218.103 107.146 220.717 107.491 223.892C107.578 224.701 107.465 225.386 106.742 225.777Z" fill="#FFB06F"/>
<path d="M83.2864 190.17C83.6476 189.794 84.063 189.446 84.5626 189.297C85.0622 189.148 85.6595 189.236 86.0071 189.623C86.0722 189.696 86.1306 189.784 86.1347 189.882C86.1388 189.974 86.094 190.061 86.041 190.137C85.3011 191.195 83.2213 190.451 82.6131 191.59L82.2316 191.566C82.5275 191.062 82.8819 190.592 83.2864 190.17Z" fill="#F47458"/>
<path d="M106.527 223.999L106.601 224.248C107.369 224.515 108.136 224.782 108.904 225.05C109.424 225.232 109.963 225.423 110.358 225.808C110.753 226.192 110.96 226.829 110.688 227.308C110.371 227.869 109.585 227.957 108.961 227.793C107.364 227.375 106.241 225.625 106.527 223.999Z" fill="#F47458"/>
<path d="M174.557 196.495C174.557 196.495 172.515 221.733 168.94 224.976C165.366 228.22 144.896 223.754 144.896 223.754L158.261 206.65L174.557 196.495Z" fill="#E36448"/>
<path d="M174.557 196.495C174.485 196.095 174.045 195.892 173.659 195.764C166.722 193.466 159.069 194.514 152.011 192.621C145.108 190.768 138.749 186.122 131.614 186.572L129.71 186.673C123.869 190.514 123.553 199.121 118.91 204.346C117.009 206.484 114.48 207.94 112.246 209.725C110.011 211.51 107.954 213.858 107.651 216.701C107.609 217.1 107.607 217.524 107.798 217.877C108.213 218.642 109.267 218.704 110.137 218.681C117.046 218.502 123.978 219.196 130.716 220.74C135.431 221.821 140.079 223.322 144.897 223.755C149.715 224.188 154.869 223.426 158.663 220.427C160.671 218.84 162.182 216.726 163.668 214.641C167.643 209.056 171.647 203.422 174.414 197.151C174.505 196.941 174.598 196.718 174.557 196.495Z" fill="#F47458"/>
<path d="M177.959 197.059C177.825 196.613 177.421 196.283 176.977 196.139C176.533 195.995 176.054 196.01 175.591 196.075C174.394 196.242 173.247 196.725 172.275 197.443L173.749 196.776C174.774 197.195 175.822 197.56 176.886 197.869C177.18 197.955 177.522 198.028 177.768 197.846C177.998 197.675 178.042 197.335 177.959 197.059Z" fill="#F47458"/>
<path d="M129.288 186.448C128.964 186.112 128.591 185.802 128.143 185.669C127.695 185.536 127.16 185.616 126.849 185.964C126.791 186.029 126.739 186.109 126.735 186.197C126.733 186.28 126.772 186.357 126.819 186.425C127.483 187.371 129.347 186.702 129.893 187.721L130.234 187.7C129.97 187.246 129.651 186.827 129.288 186.448Z" fill="#F47458"/>
<path d="M153.165 227.168C153.335 226.471 153.012 225.743 152.591 225.161C152.17 224.579 151.641 224.071 151.3 223.439L150.533 222.813C150.865 223.816 151.049 224.875 150.989 225.929C150.945 226.697 150.864 227.654 151.528 228.042C152.147 228.405 152.995 227.867 153.165 227.168Z" fill="#F47458"/>
<path d="M108.515 216.796L108.45 217.019C107.761 217.259 107.074 217.501 106.386 217.741C105.92 217.904 105.437 218.078 105.084 218.422C104.731 218.767 104.547 219.337 104.791 219.767C105.076 220.268 105.781 220.347 106.339 220.199C107.77 219.822 108.773 218.253 108.515 216.796Z" fill="#F47458"/>
<path d="M138.602 161.531C138.602 161.531 139.814 158.579 141.447 157.802C143.081 157.026 144.757 155.669 145.523 156.266C146.287 156.863 147.301 160.426 146.787 161.871C146.272 163.317 143.667 167.259 142.037 167.114C140.562 166.981 138.602 161.531 138.602 161.531Z" fill="#FABBA5"/>
<path d="M139.718 163.553C139.718 163.553 137.926 161.431 137.883 160.449C137.84 159.466 138.958 157.329 138.757 156.38C138.556 155.431 139.479 155.69 139.87 156.661C140.261 157.631 140.466 161.721 140.466 161.721L139.718 163.553Z" fill="#FABBA5"/>
<path d="M144.513 157.933C145.2 157.634 145.909 157.413 146.643 157.265C146.749 157.243 146.704 157.083 146.598 157.103C145.849 157.254 145.129 157.483 144.429 157.789C144.33 157.831 144.415 157.975 144.513 157.933Z" fill="#FB8671"/>
<path d="M142.711 160.825C142.953 160.078 144.482 159.664 145.12 159.443C145.751 159.225 146.412 159.098 147.023 158.826C147.121 158.782 147.037 158.638 146.939 158.682C146.048 159.079 145.068 159.248 144.167 159.633C143.592 159.879 142.762 160.124 142.55 160.78C142.517 160.883 142.679 160.927 142.711 160.825Z" fill="#FB8671"/>
<path d="M108.629 226.895C111.964 229.37 121.469 230.07 130.173 228.16C135.397 227.016 139.976 225.721 143.95 224.334C147.918 222.949 151.281 221.468 154.073 219.948V219.946C154.524 219.702 154.958 219.456 155.379 219.209C156.116 221.01 160.754 200.805 157.208 201.625C140.671 205.444 122.402 204.519 122.599 201.899L108.629 226.895Z" fill="black"/>
<path opacity="0.6" d="M128.708 211.841C128.708 211.841 137.649 213.764 142.805 211.711C147.961 209.657 151.063 207.562 151.562 209.11C152.06 210.659 146.837 216.367 146.837 216.367L128.708 211.841Z" fill="#494949"/>
<path d="M88.1983 205.786C88.1983 205.786 81.2867 229.204 76.1835 229.837C71.0803 230.471 72.0537 226.499 73.7846 219.207C75.4314 212.267 78.8743 204.111 79.4051 199.869C79.6169 198.173 88.1983 205.786 88.1983 205.786Z" fill="#FABBA5"/>
<path d="M79.9847 225.468C78.4791 228.423 76.8826 232.815 75.8182 233.642C73.9569 232.002 72.0454 230.131 70.6688 228.664C71.7875 228.231 72.636 224.492 72.8491 223.319C72.8505 223.321 81.3179 222.859 79.9847 225.468Z" fill="#FABBA5"/>
<path d="M101.701 213.019C101.701 213.019 96.7335 215.234 98.4984 225.616C100.263 235.997 106.305 234.298 114.206 234.964C125.456 235.913 137.204 234.666 137.565 237.08C138.124 240.824 155.788 227.218 156.062 223.273C156.616 215.336 116.248 208.839 101.701 213.019Z" fill="black"/>
<path d="M152.227 288.501V289.791H146.081L145.372 287.293L152.227 288.501Z" fill="black"/>
<path d="M154.747 274.182C154.747 274.182 157.04 281.04 160.525 283.079C163.335 284.722 168.704 284.97 170.137 288.236C170.456 288.964 169.932 289.792 169.167 289.792H154.747C154.747 289.792 149.5 288.27 147.023 288.641C144.547 289.011 144.665 282.759 145.372 280.449C146.08 278.137 145.491 274.183 145.491 274.183H154.747V274.182Z" fill="#383463"/>
<path d="M157.325 234.01C160.033 258.6 158.066 275.671 157.428 276.456C156.311 277.833 155.22 276.545 150.618 277.63C145.624 278.806 143.394 276.37 143.394 276.37C143.394 276.37 142.014 266.978 139.654 251.106C138.807 245.41 137.888 239.245 136.954 233.009C134.18 214.49 155.489 218.435 156.061 223.272C156.281 225.118 157.088 231.855 157.325 234.01Z" fill="black"/>
<path d="M135.174 235.733C137.804 236.438 140.546 236.292 143.083 235.3C143.234 235.241 143.169 234.994 143.016 235.054C140.52 236.03 137.831 236.182 135.242 235.487C135.083 235.445 135.015 235.689 135.174 235.733Z" fill="#383463"/>
<path d="M139.41 237.061C138.462 236.791 137.597 236.356 136.814 235.76C136.684 235.661 136.558 235.882 136.687 235.98C137.488 236.588 138.375 237.03 139.343 237.306C139.501 237.35 139.567 237.106 139.41 237.061Z" fill="#383463"/>
<path d="M133.484 228.836C133.664 228.79 133.845 228.744 134.026 228.699C134.184 228.659 134.117 228.414 133.958 228.454C133.777 228.5 133.597 228.546 133.416 228.591C133.259 228.631 133.325 228.876 133.484 228.836Z" fill="#383463"/>
<path d="M136.031 228.587C136.256 228.587 136.483 228.587 136.708 228.587C136.871 228.587 136.872 228.333 136.708 228.333C136.483 228.333 136.256 228.333 136.031 228.333C135.868 228.333 135.867 228.587 136.031 228.587Z" fill="#383463"/>
<path d="M138.779 228.864C138.985 228.813 139.184 228.853 139.361 228.969C139.498 229.059 139.626 228.839 139.489 228.75C139.255 228.596 138.979 228.554 138.709 228.618C138.552 228.656 138.618 228.902 138.779 228.864Z" fill="#383463"/>
<path d="M141.725 229.537C142.056 229.578 142.359 229.751 142.561 230.017C142.659 230.146 142.88 230.02 142.781 229.89C142.519 229.544 142.156 229.336 141.725 229.284C141.562 229.264 141.563 229.518 141.725 229.537Z" fill="#383463"/>
<path d="M143.939 231.125C144.075 231.26 144.21 231.396 144.346 231.532C144.462 231.647 144.642 231.468 144.525 231.353C144.39 231.217 144.254 231.081 144.118 230.945C144.003 230.829 143.823 231.009 143.939 231.125Z" fill="#383463"/>
<path d="M145.017 233.667C145.135 233.892 145.169 234.139 145.114 234.388C145.081 234.546 145.325 234.616 145.36 234.455C145.428 234.139 145.386 233.827 145.237 233.539C145.161 233.394 144.941 233.522 145.017 233.667Z" fill="#383463"/>
<path d="M145.393 236.32C145.393 236.501 145.393 236.681 145.393 236.862C145.393 237.025 145.647 237.026 145.647 236.862C145.647 236.681 145.647 236.501 145.647 236.32C145.647 236.157 145.393 236.156 145.393 236.32Z" fill="#383463"/>
<path d="M144.718 239.708C144.666 240.205 144.615 240.7 144.563 241.197C144.547 241.36 144.801 241.358 144.817 241.197C144.869 240.7 144.92 240.205 144.972 239.708C144.99 239.546 144.734 239.548 144.718 239.708Z" fill="#383463"/>
<path d="M144.58 243.639C144.58 244.18 144.58 244.723 144.58 245.265C144.58 245.427 144.833 245.429 144.833 245.265C144.833 244.723 144.833 244.18 144.833 243.639C144.833 243.474 144.58 243.474 144.58 243.639Z" fill="#383463"/>
<path d="M145.039 247.866C145.105 248.321 145.17 248.777 145.237 249.232C145.26 249.393 145.506 249.324 145.482 249.164C145.416 248.709 145.351 248.253 145.284 247.799C145.261 247.637 145.015 247.706 145.039 247.866Z" fill="#383463"/>
<path d="M145.822 252.374C145.958 252.69 146.093 253.006 146.228 253.322C146.292 253.472 146.512 253.343 146.448 253.195C146.312 252.879 146.176 252.562 146.04 252.246C145.977 252.096 145.758 252.224 145.822 252.374Z" fill="#383463"/>
<path d="M146.748 256.378C146.748 256.558 146.748 256.739 146.748 256.919C146.748 257.082 147.001 257.083 147.001 256.919C147.001 256.739 147.001 256.558 147.001 256.378C147.001 256.213 146.748 256.213 146.748 256.378Z" fill="#383463"/>
<path d="M147.706 260.545C147.653 260.91 147.699 261.253 147.846 261.592C147.911 261.742 148.13 261.613 148.066 261.465C147.949 261.196 147.91 260.903 147.952 260.612C147.974 260.452 147.729 260.384 147.706 260.545Z" fill="#383463"/>
<path d="M147.968 264.508C147.968 264.643 147.968 264.779 147.968 264.915C147.968 265.078 148.222 265.079 148.222 264.915C148.222 264.779 148.222 264.643 148.222 264.508C148.222 264.345 147.968 264.345 147.968 264.508Z" fill="#383463"/>
<path d="M148.51 268.302C148.51 268.754 148.51 269.206 148.51 269.657C148.51 269.82 148.764 269.821 148.764 269.657C148.764 269.205 148.764 268.753 148.764 268.302C148.764 268.14 148.51 268.14 148.51 268.302Z" fill="#383463"/>
<path d="M148.95 272.939C148.995 273.164 149.039 273.391 149.084 273.616C149.115 273.776 149.361 273.708 149.33 273.548C149.285 273.323 149.24 273.096 149.195 272.871C149.163 272.711 148.917 272.779 148.95 272.939Z" fill="#383463"/>
<path d="M149.189 276.298C149.189 276.343 149.189 276.389 149.189 276.434C149.189 276.597 149.442 276.598 149.442 276.434C149.442 276.389 149.442 276.343 149.442 276.298C149.442 276.135 149.189 276.135 149.189 276.298Z" fill="#383463"/>
<path d="M144.808 182.86C144.365 186.307 143.404 188.684 142.312 190.323C140.072 193.684 137.284 193.936 137.284 193.936C137.284 193.936 133.488 194.744 128.007 192.515C123.546 190.7 117.969 186.872 112.419 178.958C112.419 178.958 115.782 163.357 119.355 164.795C125.907 167.433 132.479 179.267 134.527 178.411C135.174 178.141 138.168 163.193 138.948 162.559C140.296 161.464 145.48 165.657 145.48 165.657C145.48 165.657 145.698 175.935 144.808 182.86Z" fill="#003366"/>
<path d="M100.628 139.288C100.628 139.288 99.4527 138.938 98.516 139.638C98.516 139.638 99.321 139.433 100.136 139.789C100.952 140.144 100.628 139.288 100.628 139.288Z" fill="black"/>
<path d="M101.325 139.715C101.325 139.715 100.127 139.458 99.6047 138.384C99.6047 138.384 100.229 138.954 101.109 139.034C101.989 139.112 101.325 139.715 101.325 139.715Z" fill="black"/>
<path d="M115.699 140.979C115.699 140.979 116.268 144.497 115.912 145.529C115.557 146.559 114.363 141.419 114.363 141.419L115.699 140.979Z" fill="black"/>
<path d="M86.8624 176.977C87.1895 177.979 88.4793 181.135 90.0201 184.852C90.274 185.467 87.9335 187.848 88.1982 188.484C87.2995 195.076 96.4484 220.645 98.6369 221.558C99.1663 221.779 102.757 213.972 117.034 212.241C127.079 211.024 125.86 203.417 125.86 203.417C124.118 200.702 123.424 197.513 122.543 194.259C120.881 188.12 121.58 169.796 121.58 169.796L118.55 165.38C117.723 164.174 116.343 163.471 114.882 163.504C102.406 163.781 90.7084 168.728 90.7084 168.728C90.7084 168.728 84.8748 170.905 86.8624 176.977Z" fill="white"/>
<path d="M88.9761 182.803C90.8727 181.744 92.9186 180.89 94.9224 180.578C98.1155 180.08 101.424 173.74 103.663 168.436C104.325 166.866 104.894 165.387 105.338 164.177C105.528 163.657 105.696 163.188 105.838 162.781C105.98 162.376 106.096 162.034 106.186 161.768C106.321 161.366 106.393 161.141 106.393 161.141C106.393 161.141 103.756 161.787 100.388 162.477C99.0835 162.744 97.6675 163.018 96.2529 163.264C91.3845 164.108 91.223 166.846 87.3389 171.102C83.4548 175.356 85.1083 184.958 88.9761 182.803Z" fill="#C3D7F0"/>
<path d="M101.435 162.258C102.236 162.088 102.858 161.426 103.003 160.584C103.296 158.888 103.657 156.617 103.896 154.493C103.96 153.927 103.394 151.765 103.371 151.727C103.436 151.746 112.281 154.319 111.201 157.035C111.154 157.156 111.109 157.285 111.07 157.418C110.809 158.284 110.719 159.376 110.719 160.479C110.719 161.138 110.764 161.768 110.828 162.342C111.436 162.422 112.068 162.508 112.708 162.599C112.82 163.099 112.917 167.433 107.613 167.434C103.263 167.434 100.529 163.065 100.387 162.478C100.745 162.402 101.095 162.329 101.435 162.258Z" fill="#FABBA5"/>
<path d="M103.741 154.222C103.796 154.625 103.627 156.127 103.63 156.59C105.626 160.651 110.648 160.45 110.72 160.477C110.72 159.375 110.809 158.283 111.07 157.417C109.082 156.423 104.87 154.049 103.741 154.222Z" fill="#ED938B"/>
<path d="M103.877 156.935C104.242 158.117 108.303 159.071 109.927 159.254C110.998 159.375 112.638 159.632 113.552 158.974C114.325 158.416 116.5 153.633 115.99 151.168C115.891 150.69 115.758 148.684 115.952 147.335C116.274 145.092 114.772 141.386 114.772 141.386C108.585 136.811 103.182 143.269 102.729 145.759C102.275 148.249 102.404 152.167 103.877 156.935Z" fill="#FABBA5"/>
<path d="M99.0374 149.556C99.8981 152.761 103.202 154.424 103.202 154.424C102.893 152.426 102.742 148.292 103.205 148.3C103.67 148.307 104.927 149.796 104.806 149.06C104.684 148.326 103.995 147.247 104.906 145.666C105.817 144.084 105.035 142.142 105.035 142.142C105.035 142.142 105.042 142.145 105.056 142.15C105.06 142.152 105.064 142.153 105.068 142.156C105.233 142.23 105.419 142.294 105.623 142.349C105.624 142.349 105.627 142.35 105.63 142.35C106.176 142.499 106.838 142.585 107.551 142.62C108.179 142.653 108.847 142.646 109.504 142.608C110.209 142.567 110.901 142.492 111.522 142.393C112.11 142.298 112.636 142.183 113.049 142.053C113.303 141.973 113.527 141.921 113.724 141.891C113.881 141.867 114.023 141.856 114.149 141.857C115.037 141.864 115.145 142.426 115.145 142.426C116.489 140.514 116.227 139.224 115.902 138.023C115.319 135.877 113.626 134.838 113.626 134.838C113.181 135.603 112.311 135.721 112.311 135.721C112.37 135.542 112.403 135.371 112.418 135.216C112.465 134.695 112.301 134.339 112.282 134.301C112.281 134.3 112.281 134.299 112.281 134.299C112.281 134.299 110.482 136.032 106.132 135.527C100.202 134.839 100.286 139.234 100.286 139.234C97.3879 140.979 98.178 146.35 99.0374 149.556Z" fill="black"/>
<path d="M104.539 149.629C104.539 149.629 103.113 147.338 101.778 148.375C100.444 149.413 101.812 151.332 102.327 152.068C102.878 152.856 103.197 152.862 104.167 152.608C105.137 152.354 104.539 149.629 104.539 149.629Z" fill="#FABBA5"/>
<path d="M104.232 152.418C103.915 152.999 103.166 152.96 102.706 152.599C102.418 152.373 102.212 152.054 102.026 151.738C101.8 151.357 101.584 150.966 101.427 150.548C101.165 149.85 101.043 148.896 101.685 148.377C102.316 147.867 103.158 148.106 103.666 148.677C103.732 148.752 103.625 148.865 103.558 148.79C103.086 148.258 102.276 148.023 101.712 148.558C101.146 149.097 101.37 150.039 101.642 150.674C101.875 151.222 102.183 151.822 102.578 152.262C102.958 152.685 103.753 152.973 104.1 152.335C104.15 152.248 104.281 152.328 104.232 152.418Z" fill="#E58F78"/>
<path d="M102.678 148.829C102.905 148.926 103.124 149.057 103.253 149.284C103.402 149.547 103.348 149.751 103.273 150.021C103.132 150.531 103.626 150.635 103.872 150.959C104.01 151.143 104.051 151.369 103.936 151.574C103.887 151.662 103.755 151.582 103.805 151.494C104.074 151.012 103.169 150.735 103.086 150.291C103.052 150.107 103.147 149.982 103.19 149.811C103.292 149.403 102.957 149.117 102.639 148.981C102.548 148.945 102.587 148.791 102.678 148.829Z" fill="#E58F78"/>
<path d="M100.289 139.232C101.22 141.274 105.037 142.141 105.037 142.141C105.037 142.141 105.043 142.144 105.057 142.149C105.061 142.15 105.065 142.152 105.069 142.154C105.142 142.182 105.338 142.254 105.624 142.347C105.626 142.347 105.629 142.349 105.631 142.349C106.177 142.498 106.84 142.583 107.552 142.619C108.181 142.651 108.849 142.644 109.506 142.606C110.21 142.566 110.903 142.491 111.523 142.392C112.111 142.297 112.626 142.131 113.051 142.051C114.997 141.685 113.067 138.688 113.067 138.688C112.419 139.753 111.424 139.881 111.424 139.881C112.107 138.771 111.048 137.456 111.048 137.456C110.024 139.409 108.083 138.217 108.083 138.217C108.083 138.217 109.094 137.98 109.633 137.172C110.491 135.891 109.84 134.791 109.84 134.791C109.84 134.791 108.869 135.991 106.134 135.524C100.289 134.527 100.289 139.232 100.289 139.232Z" fill="black"/>
<path d="M114.2 138.717C114.2 138.717 115.031 141.652 113.485 141.918L113.629 140.853C113.63 140.853 114.366 140.176 114.2 138.717Z" fill="black"/>
<path d="M111.844 137.723C111.844 137.723 112.114 139.521 111.398 140.021C110.683 140.52 110.794 139.715 110.794 139.715C110.794 139.715 111.717 139.205 111.844 137.723Z" fill="black"/>
<path d="M79.105 204.416C79.105 204.416 78.3909 198.799 83.0515 178.666L98.1725 175.328C98.1725 175.328 89.5056 203.027 87.7868 206.791C83.4072 216.38 79.105 204.416 79.105 204.416Z" fill="#003366"/>
<path d="M99.708 162.148C99.708 162.148 92.381 163.691 88.6381 166.402C86.398 168.024 83.0774 176.224 81.2595 186.957C81.2595 186.957 88.2892 188.853 98.2472 187.789C102.537 187.33 101.514 176.539 101.514 176.539L99.708 162.148Z" fill="#003366"/>
<path d="M144.242 161.404C145.387 161.017 146.533 160.64 147.717 160.388C147.822 160.366 147.778 160.204 147.672 160.226C146.488 160.479 145.343 160.855 144.197 161.243C144.096 161.278 144.14 161.438 144.242 161.404Z" fill="#FB8671"/>
<path opacity="0.6" d="M139.032 246.915C139.032 246.915 154.95 233.82 156.725 228.587C158.5 223.353 138.223 241.49 138.223 241.49L139.032 246.915Z" fill="#494949"/>
<path d="M123.417 247.128L122.41 247.933L118.573 243.132L120.084 241.021L123.417 247.128Z" fill="black"/>
<path d="M136.182 240.16C136.182 240.16 132.253 246.231 132.834 250.225C133.302 253.446 136.461 257.794 134.802 260.951C134.433 261.654 133.46 261.762 132.983 261.164L123.982 249.902C123.982 249.902 121.897 244.853 120.061 243.151C118.226 241.448 123.187 237.638 125.433 236.749C127.68 235.86 130.404 232.931 130.404 232.931L136.182 240.16Z" fill="#003366"/>
<path d="M139.324 242.129C137.092 242.143 134.479 242.128 130.877 239.116C126.969 235.848 127.217 232.797 127.217 232.797C127.217 232.797 132.682 226.666 141.9 216.286C145.208 212.56 146.074 209.903 149.692 205.819C160.435 193.692 172.811 207.61 169.649 213.167C162.118 226.397 140.804 242.12 139.324 242.129Z" fill="black"/>
<path d="M116.853 167.929C116.772 168.093 118.891 192.534 125.877 203.555C125.877 203.555 130.084 204.27 132.379 204.152C132.379 204.152 123.484 182.193 123.488 177.45C123.492 172.706 122.395 167.296 119.988 165.215C118.535 163.96 112.708 162.597 112.708 162.597L116.853 167.929Z" fill="#003366"/>
<path d="M114.898 168.708C116.948 174.35 119.256 185.972 121.26 192.535C121.26 192.535 121.917 185.638 121.928 184.119C121.963 179.594 121.727 178.024 121.155 175.456C121.155 175.456 119.297 174.37 118.653 174.525C118.653 174.525 120.05 173.473 120.859 173.791C120.859 173.791 119.988 165.553 118.207 164.244C118.207 164.244 113.638 162.139 112.962 162.371C112.286 162.601 114.332 167.151 114.898 168.708Z" fill="#114374"/>
<path d="M102.497 230.526C102.497 230.526 96.1063 229.785 89.4432 226.866C89.0278 226.685 88.6123 226.494 88.1969 226.296C88.1969 226.296 89.1961 214.313 89.7147 205.095C89.9319 201.28 90.065 197.94 90.0093 196.12C89.8247 189.906 89.1934 179.772 89.1934 179.772L103.557 167.929C103.558 167.929 107.482 206.639 102.497 230.526Z" fill="#003366"/>
<path d="M114.859 211.609L111.135 217.287L107.403 211.61C108.766 190.733 107.211 173.942 106.649 169.75C106.621 169.54 106.599 169.371 106.582 169.249C106.558 169.086 106.546 169.002 106.546 169.002L106.744 168.932L109.851 167.833C109.928 168.243 110.003 168.651 110.076 169.054C115.601 199.13 114.859 211.609 114.859 211.609Z" fill="#F47458"/>
<path d="M110.077 168.864C110.223 169.534 109.608 170.131 108.61 170.256C107.712 170.369 106.992 169.681 106.651 169.45C106.622 169.272 106.601 169.131 106.583 169.028C106.63 168.949 106.686 168.857 106.744 168.759L109.851 167.833C109.928 168.178 110.003 168.523 110.077 168.864Z" fill="#F94D65"/>
<path d="M107.145 167.071C107.145 167.071 108.266 167.079 108.769 166.908C109.271 166.736 109.959 167.122 110.098 167.751C110.257 168.474 110.175 169.673 108.558 169.96C107.909 170.076 106.303 169.424 106.306 167.988C106.309 166.551 107.145 167.071 107.145 167.071Z" fill="#F47458"/>
<path d="M108.77 166.908C108.77 166.908 110.882 163.219 110.782 161.795C110.681 160.37 110.723 160.169 110.723 160.169C110.723 160.169 111.216 160.204 111.395 160.769C111.576 161.334 112.446 161.499 112.964 162.371C113.481 163.242 114.325 167.091 111.685 170.811C111.685 170.811 110.595 170.581 110.584 169.67C110.558 167.379 108.77 166.908 108.77 166.908Z" fill="#F2F2F2"/>
<path d="M100.013 161.672C100.013 161.672 97.29 162.088 96.0831 163.102C96.0831 163.102 96.5827 173.337 98.7196 177.034C98.7196 177.034 101.767 176.766 102.245 177.074C102.245 177.074 100.077 178.515 99.6333 178.895C99.6333 178.895 101.941 189.655 104.99 194.531C104.99 194.531 105.404 174.4 103.888 169.046C103.181 166.551 100.013 161.672 100.013 161.672Z" fill="#114374"/>
<path d="M103.136 159.801C103.136 159.801 102.619 164.586 107.145 167.071C107.145 167.071 106.415 167.235 106.188 168.926C106.037 170.053 104.466 171.171 104.151 171.171C103.838 171.171 98.33 167.516 99.0781 161.856C99.0781 161.856 100.026 161.146 100.528 160.897C101.03 160.647 103.049 159.151 103.136 159.801Z" fill="#F2F2F2"/>
<path d="M79.6888 196.128L71.4916 226.294C71.4916 226.294 76.2092 229.69 79.568 228.587C79.568 228.587 91.2447 203.735 91.7022 198.604C92.1597 193.472 79.6888 196.128 79.6888 196.128Z" fill="#003366"/>
<path d="M142.464 164.072H143.066V155.899H142.464V164.072Z" fill="white"/>
<path d="M142.764 164.742C144.718 164.742 146.302 164.395 146.302 163.967C146.302 163.539 144.718 163.192 142.764 163.192C140.811 163.192 139.227 163.539 139.227 163.967C139.227 164.395 140.811 164.742 142.764 164.742Z" fill="white"/>
<path d="M136.465 150.915C136.465 154.394 139.285 157.213 142.764 157.213C146.244 157.213 149.064 154.394 149.064 150.915C149.064 149.849 148.924 148.627 148.606 147.681H136.923C136.521 149.124 136.465 149.82 136.465 150.915Z" fill="white"/>
<path d="M142.764 148.531C145.991 148.531 148.606 148.15 148.606 147.681C148.606 147.212 145.991 146.831 142.764 146.831C139.538 146.831 136.923 147.212 136.923 147.681C136.923 148.15 139.538 148.531 142.764 148.531Z" fill="#D3E3F8"/>
<path d="M137.887 152.917C138.62 154.894 140.534 156.373 142.766 156.373C144.996 156.373 146.916 154.885 147.65 152.912C147.668 152.862 137.887 152.917 137.887 152.917Z" fill="#F47458"/>
<path d="M137.88 152.879C137.88 152.901 137.899 152.921 137.937 152.942C137.938 152.942 137.938 152.942 137.938 152.942C138.302 153.137 140.345 153.288 142.766 153.288C145.18 153.288 147.219 153.139 147.593 152.945C147.634 152.923 147.655 152.902 147.655 152.879C147.655 152.871 147.652 152.864 147.646 152.856C147.504 152.64 145.349 152.471 142.766 152.471C140.171 152.471 138.013 152.643 137.887 152.859C137.881 152.867 137.88 152.873 137.88 152.879Z" fill="#E36448"/>
<path d="M145.21 155.717C146.687 155.308 147.283 155.445 147.485 156.173C147.687 156.902 147.386 157.121 145.909 157.529C144.432 157.939 142.792 158.258 142.589 157.529C142.386 156.802 143.732 156.127 145.21 155.717Z" fill="#FFAF9B"/>
<path d="M144.612 157.924C146.256 157.019 146.971 156.957 147.337 157.619C147.702 158.281 147.391 158.602 145.747 159.507C144.103 160.412 142.254 161.282 141.89 160.62C141.523 159.957 142.968 158.83 144.612 157.924Z" fill="#FFAF9B"/>
<path d="M145.71 159.024C147.426 158.549 148.105 158.661 148.307 159.39C148.51 160.119 148.154 160.353 146.438 160.828C144.722 161.303 142.823 161.695 142.62 160.966C142.418 160.239 143.994 159.5 145.71 159.024Z" fill="#FFAF9B"/>
<path d="M146.16 160.488C147.392 160.146 147.891 160.266 148.063 160.887C148.236 161.509 147.984 161.694 146.752 162.036C145.519 162.378 144.149 162.642 143.977 162.021C143.804 161.398 144.926 160.829 146.16 160.488Z" fill="#FFAF9B"/>
<path d="M125.087 179.594C124.699 184.169 126.162 188.367 127.805 192.564C127.858 192.698 128.078 192.64 128.025 192.503C126.39 188.327 124.928 184.149 125.315 179.593C125.327 179.449 125.099 179.449 125.087 179.594Z" fill="#083972"/>
<path d="M135.208 176.567C134.726 178.284 133.903 179.776 133.196 181.396C132.562 182.849 132.536 184.412 132.535 185.972C132.535 186.118 132.763 186.118 132.763 185.972C132.763 184.092 132.903 182.428 133.781 180.726C134.464 179.403 135.023 178.063 135.428 176.628C135.469 176.486 135.249 176.426 135.208 176.567Z" fill="#083972"/>
<path d="M134.719 178.098C133.544 179.05 132.562 180.183 131.784 181.479C131.708 181.606 131.905 181.72 131.981 181.595C132.749 180.313 133.72 179.199 134.881 178.26C134.994 178.168 134.832 178.008 134.719 178.098Z" fill="#2D4972"/>
<path d="M89.5274 205.683C92.0227 201.081 93.1006 195.781 96.2367 191.52C96.3236 191.402 96.1267 191.288 96.0399 191.405C92.9024 195.667 91.8259 200.965 89.3306 205.568C89.2613 205.698 89.4582 205.813 89.5274 205.683Z" fill="#315AB4"/>
<path opacity="0.4" d="M142.312 190.322C140.072 193.682 137.284 193.935 137.284 193.935C137.284 193.935 133.488 194.742 128.007 192.514C126.969 190.236 125.462 186.665 125.531 185.232C125.531 185.232 129.406 189.227 130.646 191.462C131.887 193.7 140.215 189.024 142.311 190.322H142.312Z" fill="#083972"/>
<path opacity="0.4" d="M134.526 178.409C134.526 178.409 131.648 181.462 131.603 182.007C131.557 182.554 132.787 180.846 132.65 181.437C132.514 182.029 131.924 186.106 132.379 186.539C132.833 186.972 133.002 183.314 133.921 181.283C134.837 179.252 134.526 178.409 134.526 178.409Z" fill="#083972"/>
<path opacity="0.4" d="M92.1 220.787C93.0408 223.496 91.1918 225.58 89.4445 226.864C89.0291 226.684 88.6137 226.493 88.1982 226.294C88.1982 226.294 89.1974 214.311 89.716 205.094L89.7174 205.087L93.5296 196.059C93.501 196.303 92.6688 203.273 94.0129 205.444C95.38 207.654 90.4587 216.065 92.1 220.787Z" fill="#2D4972"/>
<path d="M221.205 275.169H209.258C207.65 275.169 206.343 273.862 206.343 272.255V249.922C206.343 248.315 207.65 247.009 209.258 247.009H221.205C222.812 247.009 224.119 248.316 224.119 249.922V272.256C224.119 273.862 222.812 275.169 221.205 275.169ZM209.258 248.324C208.377 248.324 207.66 249.041 207.66 249.922V272.256C207.66 273.137 208.377 273.854 209.258 273.854H221.205C222.086 273.854 222.803 273.137 222.803 272.256V249.922C222.803 249.041 222.086 248.324 221.205 248.324H209.258Z" fill="#003366"/>
<path d="M201.673 293.134C200.997 293.134 200.444 292.581 200.444 291.905V290.847C200.444 290.171 200.997 289.618 201.673 289.618C202.349 289.618 202.901 290.171 202.901 290.847V291.905C202.901 292.581 202.349 293.134 201.673 293.134Z" fill="#003366"/>
<path d="M228.506 293.134C227.83 293.134 227.277 292.581 227.277 291.905V290.847C227.277 290.171 227.83 289.618 228.506 289.618C229.182 289.618 229.734 290.171 229.734 290.847V291.905C229.733 292.581 229.181 293.134 228.506 293.134Z" fill="#003366"/>
<path d="M220.343 248.616H210.351C209.875 248.616 209.487 248.228 209.487 247.753V247.485C209.487 247.01 209.875 246.622 210.351 246.622H220.343C220.818 246.622 221.206 247.01 221.206 247.485V247.753C221.206 248.228 220.816 248.616 220.343 248.616Z" fill="#383463"/>
<path d="M238.206 291.376H191.257C188.222 291.376 185.763 288.915 185.763 285.883V258.108C185.763 255.074 188.223 252.616 191.257 252.616H238.206C241.24 252.616 243.7 255.075 243.7 258.108V285.883C243.7 288.915 241.239 291.376 238.206 291.376Z" fill="#F47458"/>
<path d="M194.353 291.376H191.257C188.222 291.376 185.763 288.915 185.763 285.883V281.734H188.336C191.658 281.734 194.353 284.427 194.353 287.749V291.376Z" fill="#E36448"/>
<path d="M194.353 252.616H191.257C188.222 252.616 185.763 255.076 185.763 258.108V262.258H188.336C191.658 262.258 194.353 259.565 194.353 256.242V252.616Z" fill="#E36448"/>
<path d="M235.111 252.616H238.206C241.242 252.616 243.7 255.076 243.7 258.108V262.258H241.127C237.805 262.258 235.111 259.565 235.111 256.242V252.616Z" fill="#E36448"/>
<path d="M235.111 291.376H238.206C241.242 291.376 243.7 288.915 243.7 285.883V281.734H241.127C237.805 281.734 235.111 284.427 235.111 287.749V291.376Z" fill="#E36448"/>
</g>
</svg>
