<svg width="338" height="325" viewBox="0 0 338 325" fill="none" xmlns="http://www.w3.org/2000/svg">
<mask id="mask0_198_3764" style="mask-type:alpha" maskUnits="userSpaceOnUse" x="0" y="0" width="338" height="325">
<path d="M337.359 135.63C336.077 106.56 324.167 78.8376 306.678 57.7035C296.444 45.3424 284.255 34.607 271.056 26.3711C257.356 17.8201 242.453 8.23774 226.203 7.21362C222.192 6.96296 218.096 7.27091 214.185 8.61731C199.217 13.7522 229.619 29.3933 233.601 31.6994C191.254 14.5543 147.431 -2.83422 101.804 0.388537C93.0098 1.0116 83.9073 2.52988 76.3159 7.82952C68.7245 13.1292 63.031 23.0696 64.4705 32.6949C65.6665 40.6515 71.1524 49.4031 66.4471 55.8056C65.1007 57.6318 63.1528 58.7562 61.2334 59.7302C51.3861 64.7505 40.6722 67.5579 31.3835 73.8387C17.0029 83.5643 7.51367 100.903 3.42435 118.95C-0.672132 136.998 0.122815 155.804 2.49333 173.959C6.95506 208.12 17.3037 241.823 36.9625 267.877C65.0434 305.089 109.775 323.072 154.085 324.856C207.704 327.018 265.098 304.91 299.058 256.906C304.093 249.787 308.669 241.93 310.317 233.15C311.964 224.37 310.145 214.48 304.1 208.944C302.467 207.454 300.383 205.879 300.484 203.479C300.62 200.228 304.351 199.018 307.201 198.244C325.9 193.181 335.955 169.218 337.252 147.919C337.502 143.808 337.531 139.712 337.352 135.637L337.359 135.63Z" fill="white"/>
</mask>
<g mask="url(#mask0_198_3764)">
<path opacity="0.3" d="M366.539 221.565V184.626H347.305V201.074H331.388V195.779V163.175H305.326V197.829L297.529 198.051V163.109H288.433V148.22H282.977V138.218H261.666V148.22H256.21V163.109H248.266V182.037L242.916 182.261L241.656 126.182H213.59V156.015L203.714 156.237V109.61H200.336V99.7697H168.345V109.61H167.331V172.445H161.095V152.853H155.897V143.271H148.361V115.306H137.446V143.271H129.91V152.853H124.712V185.999H121.074L114.321 185.966V147.563L83.3379 147.847V204.186H74.25V176.183L41.2928 176.452V126.447H34.7964V115.113H10.8597V128.288H4.64967V95.597H-10.1629V204.186H-24.9179V244.95H-24.9755V271.642H386.533V221.565H366.539Z" fill="#6EA7CE"/>
<path d="M261.512 71.6971C261.512 71.6971 309.221 102.078 308.681 104.062C308.141 106.045 304.819 104.499 298.074 101.778C291.329 99.0582 251.691 76.4428 252.047 76.2057C252.401 75.9686 261.512 71.6971 261.512 71.6971Z" fill="#023160"/>
<path d="M178.229 92.1769L191.252 97.9782C191.252 97.9782 196.687 99.0436 198.877 98.5117C201.065 97.9782 188.553 90.9337 188.553 90.9337L178.229 92.1769Z" fill="#E3E9EE"/>
<path d="M198.877 98.5117C201.065 97.9782 188.553 90.9337 188.553 90.9337L186.908 91.1313C190.741 93.8055 196.583 97.9732 196.744 98.6516C197.569 98.678 198.325 98.6451 198.877 98.5117Z" fill="#023160"/>
<path d="M229.048 82.9406C229.522 83.1778 300.516 106.267 300.516 106.267C300.516 106.267 307.615 107.688 308.681 105.439C308.681 105.439 309.258 104.774 308.681 104.062C308.103 103.353 255.909 70.2695 255.909 70.2695L229.048 82.9406Z" fill="#E3E9EE"/>
<path d="M166.456 82.5851L273.538 44.6953C273.538 44.6953 291.05 38.0642 303.001 45.2881C303.001 45.2881 306.313 47.0649 305.011 53.3403C303.71 59.6158 293.534 63.6419 293.534 63.6419L226.919 84.8361C226.919 84.8361 194.498 94.0723 176.276 93.1238C158.054 92.177 157.463 92.177 157.817 86.3741C158.173 80.5729 166.456 82.5851 166.456 82.5851Z" fill="#003366"/>
<path d="M238.514 67.5544L149.654 39.2482C149.654 39.2482 133.207 33.9196 131.787 33.9196C130.367 33.9196 123.978 33.0913 123.269 34.6293C122.559 36.169 126.346 37.3529 126.346 37.3529L213.431 77.138L238.514 67.5544Z" fill="#E3E9EE"/>
<path d="M170.864 84.0802C170.864 84.0802 140.115 74.3797 138.34 73.8923C136.564 73.4032 131.595 73.8923 131.595 73.8923V75.1125C131.595 75.1125 134.853 75.7086 136.683 75.9786L163.275 86.8795L170.864 84.0802Z" fill="#023160"/>
<path d="M131.787 33.9194L235.628 68.6559L238.515 67.5542L176.061 47.6592L131.787 33.9194Z" fill="#023160"/>
<path d="M184.224 82.0235H183.319C182.894 82.0235 182.55 81.6794 182.55 81.2545V79.5947C182.55 79.1698 182.894 78.8257 183.319 78.8257H184.224C184.648 78.8257 184.992 79.1698 184.992 79.5947V81.2545C184.991 81.6794 184.647 82.0235 184.224 82.0235Z" fill="white"/>
<path d="M191.855 79.5371H190.95C190.526 79.5371 190.182 79.1929 190.182 78.7681V77.1082C190.182 76.6834 190.526 76.3392 190.95 76.3392H191.855C192.28 76.3392 192.624 76.6834 192.624 77.1082V78.7681C192.622 79.1929 192.278 79.5371 191.855 79.5371Z" fill="white"/>
<path d="M199.974 76.5814H199.069C198.645 76.5814 198.301 76.2372 198.301 75.8124V74.1525C198.301 73.7277 198.645 73.3835 199.069 73.3835H199.974C200.399 73.3835 200.743 73.7277 200.743 74.1525V75.8124C200.743 76.2372 200.399 76.5814 199.974 76.5814Z" fill="white"/>
<path d="M234.363 64.3943H233.458C233.033 64.3943 232.69 64.0501 232.69 63.6253V61.9671C232.69 61.5423 233.033 61.1981 233.458 61.1981H234.363C234.787 61.1981 235.131 61.5423 235.131 61.9671V63.627C235.13 64.0518 234.786 64.3943 234.363 64.3943Z" fill="white"/>
<path d="M242.171 61.5538H241.266C240.841 61.5538 240.497 61.2096 240.497 60.7848V59.125C240.497 58.7001 240.841 58.356 241.266 58.356H242.171C242.595 58.356 242.939 58.7001 242.939 59.125V60.7848C242.939 61.2096 242.595 61.5538 242.171 61.5538Z" fill="white"/>
<path d="M249.891 58.9339H248.986C248.562 58.9339 248.218 58.5898 248.218 58.1649V56.5051C248.218 56.0802 248.562 55.7361 248.986 55.7361H249.891C250.316 55.7361 250.66 56.0802 250.66 56.5051V58.1649C250.66 58.5898 250.316 58.9339 249.891 58.9339Z" fill="white"/>
<path d="M257.701 56.2993H256.796C256.371 56.2993 256.027 55.9551 256.027 55.5303V53.8704C256.027 53.4456 256.371 53.1014 256.796 53.1014H257.701C258.125 53.1014 258.469 53.4456 258.469 53.8704V55.5303C258.469 55.9551 258.125 56.2993 257.701 56.2993Z" fill="white"/>
<path d="M265.643 53.724H264.738C264.314 53.724 263.97 53.3798 263.97 52.955V51.2951C263.97 50.8703 264.314 50.5261 264.738 50.5261H265.643C266.068 50.5261 266.412 50.8703 266.412 51.2951V52.955C266.412 53.3798 266.068 53.724 265.643 53.724Z" fill="white"/>
<path d="M131.595 75.1109C131.595 75.1109 136.564 74.6219 138.34 75.1109C140.115 75.6 169.311 84.6138 169.311 84.6138L161.723 87.4115L131.595 75.1109Z" fill="#E3E9EE"/>
<path d="M211.603 66.3785C211.917 69.0165 210.142 71.3975 207.637 71.6956C205.133 71.9953 202.847 70.0983 202.533 67.4604C202.219 64.8224 203.994 62.4413 206.5 62.1433C209.003 61.8452 211.289 63.7405 211.603 66.3785Z" fill="#023160"/>
<path d="M205.893 62.2602L219.906 55.7279L224.482 66.6223C224.482 66.6223 208.384 71.8455 208.18 71.6314C207.976 71.4173 205.893 62.2602 205.893 62.2602Z" fill="#023160"/>
<path d="M223.297 66.9147C226.395 66.5447 228.592 63.5997 228.203 60.3369C227.814 57.0741 224.986 54.7291 221.888 55.0992C218.789 55.4693 216.592 58.4143 216.981 61.677C217.37 64.9398 220.198 67.2848 223.297 66.9147Z" fill="#E3E9EE"/>
<path d="M219.396 61.3792C219.06 58.5551 220.661 55.9699 223.106 55.0856C222.705 55.0411 222.293 55.0411 221.879 55.0905C218.78 55.461 216.584 58.4053 216.972 61.669C217.36 64.9327 220.187 67.2775 223.286 66.907C223.702 66.8576 224.102 66.7605 224.48 66.6222C221.895 66.3389 219.731 64.2032 219.396 61.3792Z" fill="#003366"/>
<path d="M198.488 57.0601C198.74 59.1794 197.315 61.0911 195.303 61.3299C193.292 61.5703 191.456 60.0471 191.204 57.9295C190.952 55.8119 192.377 53.8985 194.389 53.6597C196.4 53.4193 198.237 54.9425 198.488 57.0601Z" fill="#023160"/>
<path d="M193.904 53.7536L205.157 48.5073L208.832 57.2561C208.832 57.2561 195.905 61.4501 195.74 61.2789C195.576 61.106 193.904 53.7536 193.904 53.7536Z" fill="#023160"/>
<path d="M211.812 52.2024C212.124 54.8222 210.36 57.1869 207.873 57.4849C205.385 57.7813 203.114 55.8992 202.801 53.2777C202.489 50.6578 204.252 48.2932 206.74 47.9952C209.228 47.6988 211.499 49.5826 211.812 52.2024Z" fill="#E3E9EE"/>
<path d="M204.746 53.0455C204.476 50.7764 205.761 48.7016 207.726 47.9918C207.404 47.9573 207.074 47.9556 206.74 47.9951C204.252 48.2915 202.489 50.6578 202.801 53.2776C203.114 55.8975 205.383 57.7813 207.873 57.4849C208.207 57.4454 208.527 57.3663 208.832 57.256C206.755 57.0287 205.016 55.3146 204.746 53.0455Z" fill="#003366"/>
<path d="M280.41 93.4003C280.665 95.5394 279.225 97.4709 277.193 97.713C275.161 97.955 273.308 96.417 273.053 94.278C272.798 92.139 274.238 90.2074 276.27 89.9654C278.3 89.7233 280.155 91.2613 280.41 93.4003Z" fill="#023160"/>
<path d="M275.78 90.061L287.145 84.7637L290.855 93.5997C290.855 93.5997 277.8 97.8349 277.634 97.662C277.468 97.4875 275.78 90.061 275.78 90.061Z" fill="#023160"/>
<path d="M293.865 88.495C294.181 91.1412 292.399 93.5305 289.886 93.8302C287.374 94.1299 285.08 92.228 284.766 89.5818C284.45 86.9356 286.232 84.5463 288.744 84.2466C291.257 83.9452 293.549 85.8488 293.865 88.495Z" fill="#E3E9EE"/>
<path d="M286.73 89.3462C286.457 87.0556 287.755 84.9594 289.74 84.2415C289.414 84.2053 289.082 84.2053 288.744 84.2448C286.232 84.5445 284.45 86.9338 284.766 89.58C285.081 92.2262 287.374 94.1281 289.886 93.8284C290.224 93.7889 290.548 93.7082 290.855 93.5979C288.759 93.369 287.003 91.6367 286.73 89.3462Z" fill="#003366"/>
<path d="M265.871 85.2561C266.185 87.894 264.409 90.2751 261.905 90.5732C259.401 90.8728 257.115 88.9759 256.801 86.3379C256.486 83.7 258.262 81.3189 260.766 81.0208C263.271 80.7228 265.556 82.6181 265.871 85.2561Z" fill="#023160"/>
<path d="M260.161 81.1375L274.174 74.6052L278.75 85.4996C278.75 85.4996 262.652 90.7228 262.448 90.5087C262.244 90.2947 260.161 81.1375 260.161 81.1375Z" fill="#023160"/>
<path d="M282.46 79.2079C282.849 82.4716 280.652 85.4158 277.553 85.7847C274.455 86.1552 271.628 83.8087 271.24 80.5466C270.851 77.2829 273.048 74.3387 276.147 73.9682C279.245 73.5977 282.072 75.9442 282.46 79.2079Z" fill="#E3E9EE"/>
<path d="M273.664 80.2567C273.326 77.4327 274.929 74.8474 277.374 73.9632C276.973 73.9187 276.563 73.9187 276.147 73.9681C273.048 74.3386 270.851 77.2829 271.24 80.5466C271.628 83.8102 274.455 86.1551 277.553 85.7846C277.97 85.7352 278.37 85.638 278.748 85.4997C276.165 85.2181 274.001 83.0824 273.664 80.2567Z" fill="#003366"/>
<path d="M276.742 48.9931C281.942 47.1785 293.1 43.9115 300.764 46.1608C300.764 46.1608 299.7 43.1853 290.959 43.1853C284.775 43.1853 279.146 45.652 276.13 47.7877C275.483 48.2455 275.993 49.2549 276.742 48.9931Z" fill="white"/>
<path d="M281.863 44.0284L283.15 48.2916C283.15 48.2916 285.323 47.7581 285.323 47.6263C285.323 47.4929 283.592 43.452 283.592 43.452L281.863 44.0284Z" fill="#003366"/>
<path d="M293.088 42.874L293.753 46.8705C293.753 46.8705 294.02 47.1817 294.064 46.8705C294.109 46.5593 293.575 42.874 293.575 42.874H293.088Z" fill="#003366"/>
<path opacity="0.1" d="M386.16 223.727H-24.9755V286.407H386.16V223.727Z" fill="#003366"/>
<path opacity="0.1" d="M386.533 222.698H-24.9755V229.904H386.533V222.698Z" fill="#003366"/>
<g opacity="0.5">
<path d="M249.437 -5.73877H112.183V222.769H249.437V-5.73877Z" fill="#9BC1F9"/>
<path d="M244.535 -2.4126H117.034V219.188H244.535V-2.4126Z" fill="#DAEDFF"/>
<path opacity="0.2" d="M171.377 219.186H186.517L236.876 -2.4126H221.734L171.377 219.186Z" fill="white"/>
<path opacity="0.2" d="M160.437 -2.4126L117.034 188.579V219.186H141.288L191.645 -2.4126H160.437Z" fill="white"/>
</g>
<g opacity="0.5">
<path d="M388.494 -5.73877H251.24V222.769H388.494V-5.73877Z" fill="#9BC1F9"/>
<path d="M381.631 -2.4126H254.13V219.188H381.631V-2.4126Z" fill="#DAEDFF"/>
<path opacity="0.2" d="M308.472 219.186H323.613L373.97 -2.4126H358.83L308.472 219.186Z" fill="white"/>
<path opacity="0.2" d="M328.741 -2.4126H297.531L254.13 188.579V219.186H278.383L328.741 -2.4126Z" fill="white"/>
</g>
<g opacity="0.5">
<path d="M112.343 -5.73877H-24.9113V222.769H112.343V-5.73877Z" fill="#9BC1F9"/>
<path d="M107.441 -2.4126H-20.0604V219.188H107.441V-2.4126Z" fill="#DAEDFF"/>
<path opacity="0.2" d="M34.2814 219.186H49.4231L99.7796 -2.4126H84.6379L34.2814 219.186Z" fill="white"/>
<path opacity="0.2" d="M54.5503 -2.4126H23.3406L-20.0604 188.579V219.186H4.19223L54.5503 -2.4126Z" fill="white"/>
</g>
<path d="M114.321 -5.73877H110.205V226.199H114.321V-5.73877Z" fill="#A9C1D5"/>
<path d="M251.352 -5.73877H247.237V226.199H251.352V-5.73877Z" fill="#A9C1D5"/>
<path opacity="0.1" d="M386.533 286.322H-24.9755V323.59H386.533V286.322Z" fill="#003366"/>
<path d="M98.3628 99.3942H-10.3291C-11.8956 99.3942 -13.1659 98.123 -13.1659 96.5554V29.2923C-13.1659 27.7247 -11.8956 26.4535 -10.3291 26.4535H98.3628C99.9292 26.4535 101.2 27.7247 101.2 29.2923V96.5554C101.201 98.123 99.9309 99.3942 98.3628 99.3942Z" fill="#DEEEFF"/>
<path d="M97.1451 25.4309H91.7167C91.6673 24.5269 90.9219 23.8106 90.007 23.8106H88.4619V-5.74377H87.8103V23.809H73.4141V-5.74377H72.7624V23.809H72.1043C71.1894 23.809 70.444 24.5269 70.3946 25.4293H18.0455C17.9961 24.5253 17.2507 23.809 16.3358 23.809H14.9405V-5.74377H14.2888V23.809H-0.105768V-5.74377H-0.757378V23.809H-1.5653C-2.48019 23.809 -3.22559 24.5269 -3.27495 25.4293H-9.11145C-11.9104 25.4293 -14.1877 27.7083 -14.1877 30.5092V95.3352C-14.1877 98.1362 -11.9104 100.415 -9.11145 100.415H97.1467C99.9457 100.415 102.223 98.1362 102.223 95.3352V30.5109C102.221 27.7099 99.944 25.4309 97.1451 25.4309ZM100.179 95.3369C100.179 97.0115 98.8185 98.3733 97.1451 98.3733H-9.11145C-10.7849 98.3733 -12.1457 97.0115 -12.1457 95.3369V30.5109C-12.1457 28.8379 -10.7849 27.4744 -9.11145 27.4744H97.1467C98.8185 27.4744 100.181 28.8362 100.181 30.5109V95.3369H100.179Z" fill="#003366"/>
<path d="M19.6087 38.2206C19.6087 39.1295 18.8732 39.8656 17.9649 39.8656C17.0566 39.8656 16.321 39.1295 16.321 38.2206C16.321 37.3116 17.0566 36.5756 17.9649 36.5756C18.8732 36.5739 19.6087 37.3116 19.6087 38.2206Z" fill="#2D4972"/>
<path d="M11.4011 36.574C11.4011 37.865 10.3545 38.9123 9.06448 38.9123C7.77443 38.9123 6.72791 37.865 6.72791 36.574C6.72791 35.283 7.77443 34.2357 9.06448 34.2357C10.3545 34.2357 11.4011 35.283 11.4011 36.574Z" fill="#F47458"/>
<path d="M8.02624 85.1077C8.02624 86.3987 6.97971 87.4459 5.68966 87.4459C4.39961 87.4459 3.35309 86.3987 3.35309 85.1077C3.35309 83.8167 4.39961 82.7694 5.68966 82.7694C6.97971 82.7694 8.02624 83.8167 8.02624 85.1077Z" fill="#F47458"/>
<path d="M43.9091 59.8742C43.9091 60.7222 43.2229 61.4089 42.3755 61.4089C41.5281 61.4089 40.8419 60.7222 40.8419 59.8742C40.8419 59.0261 41.5281 58.3395 42.3755 58.3395C43.2229 58.3395 43.9091 59.0261 43.9091 59.8742Z" fill="#F47458"/>
<path d="M37.1215 60.3567C37.1215 61.2047 36.4353 61.8914 35.5879 61.8914C34.7405 61.8914 34.0543 61.2047 34.0543 60.3567C34.0543 59.5087 34.7405 58.822 35.5879 58.822C36.4353 58.822 37.1215 59.5103 37.1215 60.3567Z" fill="#2D4972"/>
<path d="M13.8199 61.8931C13.8199 62.7411 13.1337 63.4278 12.2863 63.4278C11.4389 63.4278 10.7527 62.7411 10.7527 61.8931C10.7527 61.0451 11.4389 60.3584 12.2863 60.3584C13.1337 60.3568 13.8199 61.0451 13.8199 61.8931Z" fill="#F47458"/>
<path d="M15.0919 77.6435C15.0919 78.4915 14.4057 79.1781 13.5583 79.1781C12.7109 79.1781 12.0247 78.4915 12.0247 77.6435C12.0247 76.7954 12.7109 76.1088 13.5583 76.1088C14.4057 76.1088 15.0919 76.7954 15.0919 77.6435Z" fill="#2D4972"/>
<path d="M27.8904 43.6612C27.8904 44.5092 27.2042 45.1959 26.3568 45.1959C25.5094 45.1959 24.8232 44.5092 24.8232 43.6612C24.8232 42.8131 25.5094 42.1265 26.3568 42.1265C27.2026 42.1248 27.8904 42.8131 27.8904 43.6612Z" fill="#2D4972"/>
<path d="M42.7359 44.2622C42.7359 45.1103 42.0497 45.7969 41.2023 45.7969C40.3549 45.7969 39.6687 45.1103 39.6687 44.2622C39.6687 43.4142 40.3549 42.7275 41.2023 42.7275C42.0497 42.7259 42.7359 43.4142 42.7359 44.2622Z" fill="#F47458"/>
<path d="M36.2873 35.0392C36.2873 35.8872 35.6011 36.5739 34.7537 36.5739C33.9063 36.5739 33.2201 35.8872 33.2201 35.0392C33.2201 34.1912 33.9063 33.5045 34.7537 33.5045C35.5994 33.5045 36.2873 34.1912 36.2873 35.0392Z" fill="#2D4972"/>
<path d="M93.1269 74.3319H68.6949C67.1679 74.3319 65.9272 73.0887 65.9272 71.5622V35.273C65.9272 33.7449 67.1695 32.5033 68.6949 32.5033H93.1285C94.6555 32.5033 95.8962 33.7465 95.8962 35.273V71.5622C95.8946 73.0903 94.6539 74.3319 93.1269 74.3319ZM68.6949 32.7437C67.3012 32.7437 66.1674 33.8783 66.1674 35.273V71.5622C66.1674 72.957 67.3012 74.0915 68.6949 74.0915H93.1285C94.5222 74.0915 95.656 72.957 95.656 71.5622V35.273C95.656 33.8783 94.5222 32.7437 93.1285 32.7437H68.6949Z" fill="#2D4972"/>
<path d="M93.8756 36.2578H68.9121V39.4062H93.8756V36.2578Z" fill="#003366"/>
<path d="M93.8756 41.8877H68.9121V42.6583H93.8756V41.8877Z" fill="#183658"/>
<path d="M93.8756 44.8418H68.9121V45.6124H93.8756V44.8418Z" fill="#6EA7CE"/>
<path d="M93.8756 47.7975H68.9121V48.5681H93.8756V47.7975Z" fill="#183658"/>
<path d="M93.8756 50.7517H68.9121V51.5223H93.8756V50.7517Z" fill="#6EA7CE"/>
<path d="M93.8756 53.7059H68.9121V54.4766H93.8756V53.7059Z" fill="#183658"/>
<path d="M93.8756 56.6615H68.9121V57.4321H93.8756V56.6615Z" fill="#183658"/>
<path d="M93.8756 59.6157H68.9121V60.3864H93.8756V59.6157Z" fill="#6EA7CE"/>
<path d="M93.8756 62.5699H68.9121V63.3406H93.8756V62.5699Z" fill="#183658"/>
<path d="M93.8756 65.5239H68.9121V66.2946H93.8756V65.5239Z" fill="#6EA7CE"/>
<path d="M93.8756 68.4797H68.9121V69.2504H93.8756V68.4797Z" fill="#183658"/>
<path d="M48.0425 44.8715L48.0442 44.8698L47.7891 44.5207L47.7875 44.5224C42.3772 37.2309 33.7088 32.505 23.9363 32.505C14.6312 32.505 6.32809 36.7896 0.883209 43.4949L0.881565 43.4932L0.611707 43.8324C-3.37363 48.8893 -5.75299 55.2735 -5.75299 62.2142C-5.75299 68.0318 -4.08119 73.456 -1.19338 78.0386L-1.19502 78.0403L-1.07655 78.2264C-1.07655 78.228 -1.07491 78.228 -1.07491 78.2296L-0.963014 78.4058L-0.959723 78.4042C4.33542 86.542 13.5073 91.925 23.9363 91.925C40.3335 91.925 53.624 78.6232 53.624 62.2158C53.6256 55.7395 51.5556 49.7505 48.0425 44.8715ZM3.31193 41.5732C5.99077 38.8924 9.11058 36.788 12.5842 35.3175C16.1795 33.796 20.0003 33.0237 23.938 33.0237C27.8756 33.0237 31.6964 33.796 35.2917 35.3175C38.7653 36.788 41.8852 38.8924 44.564 41.5732C45.5858 42.5958 46.5221 43.6809 47.3728 44.827L44.0128 47.2789C39.4531 41.15 32.1588 37.1799 23.9363 37.1799C16.1088 37.1799 9.1221 40.7795 4.53452 46.4128L1.288 43.816C1.9215 43.0387 2.5945 42.2895 3.31193 41.5732ZM24.1963 62.6439L33.6627 68.6345C33.2316 69.2866 32.7347 69.8959 32.1752 70.4574C31.1057 71.5277 29.86 72.3692 28.4712 72.9554C27.1137 73.5301 25.6772 73.8363 24.1963 73.8676V62.6439ZM24.3115 62.2076L33.4751 55.5139C33.949 56.1874 34.3489 56.9103 34.673 57.6743C35.2802 59.1118 35.5879 60.6383 35.5879 62.2125C35.5879 63.7867 35.2802 65.3132 34.673 66.7507C34.4493 67.2793 34.1893 67.7865 33.8947 68.2723L24.3115 62.2076ZM23.9429 61.9408L14.9734 54.7646C15.2021 54.4897 15.444 54.2245 15.6991 53.9693C16.7686 52.899 18.0159 52.0575 19.403 51.4713C20.8395 50.8637 22.3649 50.5558 23.938 50.5558C25.511 50.5558 27.0364 50.8637 28.4729 51.4713C29.86 52.0592 31.1056 52.899 32.1768 53.9693C32.5537 54.3464 32.9009 54.7465 33.2201 55.1648L23.9429 61.9408ZM23.6138 62.2323L14.024 68.3431C13.7113 67.8359 13.4349 67.3057 13.2012 66.7507C12.5941 65.3132 12.2864 63.7867 12.2864 62.2125C12.2864 60.6383 12.5941 59.1118 13.2012 57.6743C13.5912 56.7505 14.0947 55.891 14.7019 55.1022L23.6138 62.2323ZM23.7635 62.6505V73.8693C22.2514 73.8479 20.7852 73.5416 19.4014 72.9554C18.0142 72.3675 16.7686 71.5277 15.6974 70.4574C15.1577 69.9173 14.6772 69.3327 14.2576 68.707L23.7635 62.6505ZM23.7635 74.0768V80.7622C21.3217 80.7408 18.9538 80.2518 16.7209 79.3066C14.5127 78.3729 12.5315 77.0342 10.8285 75.3299C9.93003 74.4308 9.13527 73.4543 8.44746 72.4087L14.0849 68.8173C16.1828 71.946 19.7288 74.0191 23.7635 74.0768ZM24.1963 74.0751C28.2261 73.9878 31.7606 71.89 33.8371 68.7448L39.4861 72.3198C38.7834 73.4 37.9689 74.4061 37.0458 75.3315C35.3428 77.0358 33.3599 78.3729 31.1534 79.3082C28.9468 80.2419 26.6086 80.7293 24.1963 80.7622V74.0751ZM34.0675 68.3826C35.1634 66.5844 35.7936 64.4734 35.7936 62.2125C35.7936 59.6734 34.9972 57.3219 33.6397 55.392L39.0385 51.4483C39.825 52.5499 40.4865 53.7338 41.018 54.9919C41.9839 57.2791 42.4742 59.7079 42.4742 62.2125C42.4742 64.7171 41.9839 67.1459 41.018 69.4332C40.6478 70.3108 40.2117 71.1523 39.7148 71.9558L34.0675 68.3826ZM33.3846 55.0429C31.2192 52.1893 27.7933 50.3466 23.9363 50.3466C20.2669 50.3466 16.9858 52.0147 14.8105 54.6362L9.59107 50.4603C9.9794 49.9877 10.3908 49.5315 10.8268 49.0952C12.5299 47.3909 14.5127 46.0538 16.7193 45.1185C19.0048 44.1519 21.4319 43.6612 23.9347 43.6612C26.4374 43.6612 28.8645 44.1519 31.1501 45.1185C33.3583 46.0521 35.3395 47.3909 37.0425 49.0952C37.6727 49.7258 38.2519 50.3944 38.7801 51.0992L33.3846 55.0429ZM14.5407 54.9738C12.9972 56.9778 12.0774 59.4873 12.0774 62.2125C12.0774 64.5014 12.7257 66.6404 13.8479 68.4534L8.21051 72.0448C7.69218 71.2148 7.23803 70.3438 6.85299 69.4332C5.8871 67.1459 5.39675 64.7171 5.39675 62.2125C5.39675 59.7079 5.8871 57.2791 6.85299 54.9919C7.49144 53.4835 8.31747 52.0789 9.31956 50.7978L14.5407 54.9738ZM5.06765 62.2125C5.06765 65.8895 6.11911 69.3195 7.93571 72.221L3.11776 75.2903C2.41844 74.1772 1.80797 73.0081 1.29129 71.7846C0.00946379 68.7531 -0.6405 65.5322 -0.6405 62.2109C-0.6405 58.8912 0.00946379 55.6703 1.29129 52.6372C2.14529 50.615 3.25598 48.7346 4.60363 47.0204L9.06287 50.5887C6.5601 53.7964 5.06765 57.8291 5.06765 62.2125ZM8.16937 72.5865C11.513 77.6665 17.2442 81.0339 23.7635 81.0932V86.8055C20.5071 86.7824 17.3478 86.1353 14.3712 84.8756C11.4439 83.6373 8.81604 81.8638 6.55845 79.6046C5.34738 78.3927 4.27618 77.072 3.35142 75.6559L8.16937 72.5865ZM24.1963 81.0916C30.719 81.0026 36.4419 77.6039 39.7641 72.496L44.5903 75.5505C43.6507 77.0062 42.5565 78.3614 41.3158 79.603C39.0582 81.8622 36.4304 83.6357 33.5031 84.8739C30.5528 86.1221 27.4231 86.7709 24.1963 86.8038V81.0916ZM39.9929 72.132C41.7749 69.2487 42.805 65.8517 42.805 62.2125C42.805 58.1271 41.5083 54.3447 39.3034 51.254L43.9157 47.8849C44.9754 49.3619 45.8672 50.9493 46.5813 52.6388C47.8632 55.6703 48.5131 58.8912 48.5131 62.2125C48.5131 65.5322 47.8632 68.7531 46.5813 71.7862C46.0811 72.9702 45.4904 74.1047 44.819 75.1883L39.9929 72.132ZM39.05 50.9049C35.6077 46.3057 30.12 43.3302 23.938 43.3302C18.0521 43.3302 12.7964 46.0274 9.33602 50.2528L4.87678 46.6845C5.40333 46.039 5.96444 45.4165 6.5601 44.8204C8.81769 42.5612 11.4455 40.7877 14.3728 39.5494C17.4021 38.2667 20.6207 37.6163 23.9396 37.6163C27.2569 37.6163 30.4754 38.2667 33.5064 39.5494C36.4337 40.7877 39.0615 42.5612 41.3191 44.8204C42.1715 45.6734 42.9547 46.5791 43.6656 47.5341L39.05 50.9049ZM-2.94087 73.5745C-4.46129 69.9766 -5.23302 66.153 -5.23302 62.2125C-5.23302 58.272 -4.46129 54.4485 -2.94087 50.8505C-1.92068 48.4382 -0.594425 46.1954 1.01649 44.1535L4.26302 46.7503C0.917766 51.007 -1.0782 56.3767 -1.0782 62.2125C-1.0782 67.1048 0.325394 71.6677 2.75082 75.5242L-0.757329 77.7587C-1.59323 76.4315 -2.32382 75.0351 -2.94087 73.5745ZM3.31193 82.8535C1.86227 81.4028 0.582088 79.8203 -0.522026 78.1243L2.98448 75.8897C7.42068 82.6822 15.0639 87.1842 23.7635 87.2435V91.4013C19.8868 91.3783 16.1252 90.6093 12.5825 89.1092C9.10894 87.6387 5.99077 85.5343 3.31193 82.8535ZM44.5623 82.8535C41.8835 85.5343 38.7637 87.6387 35.2901 89.1092C31.7737 90.5978 28.0418 91.3668 24.1963 91.3997V87.2419C32.9042 87.1529 40.5474 82.6114 44.9589 75.7843L48.4736 78.009C47.3514 79.7479 46.0466 81.3682 44.5623 82.8535ZM48.7024 77.6434L45.1876 75.4204C47.5719 71.587 48.9508 67.062 48.9508 62.2125C48.9508 56.7703 47.2148 51.7348 44.2678 47.628L47.6262 45.1761C48.8949 46.938 49.9611 48.8334 50.8135 50.8505C52.3339 54.4485 53.1056 58.272 53.1056 62.2125C53.1056 66.153 52.3339 69.9766 50.8135 73.5745C50.2146 74.9923 49.5086 76.3492 48.7024 77.6434Z" fill="#2D4972"/>
<path d="M79.4201 88.3139H41.2023V87.9845H79.4201C80.646 87.9845 81.6448 86.9867 81.6448 85.7582V74.2513H81.9739V85.7599C81.9739 87.1678 80.827 88.3139 79.4201 88.3139Z" fill="#2D4972"/>
<path d="M61.6588 85.7319L61.5535 85.6051C61.412 85.4355 58.0848 81.4358 58.0289 79.4598C57.9713 77.4377 59.5197 75.7482 61.4778 75.6922C62.4273 75.6642 63.3306 76.0215 64.0217 76.6967C64.7112 77.3702 65.1061 78.2808 65.1341 79.2589C65.19 81.2365 61.9023 85.424 61.7625 85.6002L61.6588 85.7319ZM61.486 75.9623C59.676 76.0133 58.2445 77.5793 58.2971 79.4532C58.3448 81.146 61.0763 84.5941 61.6539 85.3038C62.2183 84.5677 64.9136 80.9599 64.8658 79.2688C64.8412 78.3598 64.4742 77.5151 63.8358 76.891C63.1957 76.2669 62.3614 75.9376 61.486 75.9623ZM61.5831 80.9088C60.7735 80.9088 60.1038 80.2419 60.0792 79.4038C60.0545 78.5508 60.7094 77.8378 61.5371 77.8131C61.9402 77.8016 62.3219 77.9531 62.6132 78.238C62.9044 78.5228 63.0706 78.9065 63.0822 79.3182C63.0937 79.7315 62.9489 80.1234 62.6741 80.4231C62.3993 80.7244 62.0258 80.8973 61.6243 80.9072C61.6111 80.9088 61.5963 80.9088 61.5831 80.9088ZM61.5798 78.0815C61.5683 78.0815 61.5568 78.0815 61.5453 78.0815C60.8657 78.1013 60.3276 78.6891 60.349 79.3956C60.3688 80.1003 60.9365 80.6602 61.6177 80.6404C61.9468 80.6306 62.2512 80.4906 62.4783 80.2436C62.7053 79.9949 62.8255 79.6706 62.8156 79.328C62.8057 78.9855 62.6675 78.6677 62.4273 78.4323C62.1952 78.205 61.8958 78.0815 61.5798 78.0815Z" fill="#2D4972"/>
<path d="M39.733 89.7789C41.023 89.7434 42.0399 88.6682 42.0044 87.3773C41.9689 86.0864 40.8944 85.0688 39.6045 85.1043C38.3146 85.1398 37.2976 86.215 37.3331 87.5059C37.3686 88.7968 38.4431 89.8145 39.733 89.7789Z" fill="#003366"/>
<path d="M62.7546 88.085C62.7546 88.7338 62.2297 89.2607 61.5798 89.2607C60.9315 89.2607 60.4049 88.7355 60.4049 88.085C60.4049 87.4362 60.9298 86.9093 61.5798 86.9093C62.2281 86.9093 62.7546 87.4362 62.7546 88.085Z" fill="#003366"/>
<path opacity="0.8" d="M366.942 31.675C366.463 29.5854 364.594 28.0277 362.361 28.0277C361.951 28.0277 361.553 28.0804 361.175 28.1792C360.072 25.8211 357.681 24.186 354.907 24.186C354.19 24.186 353.499 24.2947 352.849 24.4972C351.356 22.0239 348.643 20.369 345.544 20.369C341.857 20.369 338.717 22.7106 337.528 25.9891C336.685 25.5198 335.716 25.2497 334.683 25.2497C331.451 25.2497 328.831 27.8712 328.831 31.1053C328.831 31.2963 328.841 31.4857 328.859 31.6734H366.942V31.675Z" fill="white"/>
<path opacity="0.8" d="M374.867 133.885C373.863 129.515 369.955 126.253 365.282 126.253C364.425 126.253 363.592 126.363 362.799 126.569C360.494 121.634 355.488 118.216 349.684 118.216C348.184 118.216 346.737 118.444 345.377 118.868C342.252 113.691 336.577 110.229 330.092 110.229C322.378 110.229 315.806 115.13 313.316 121.988C311.554 121.005 309.525 120.442 307.364 120.442C300.601 120.442 295.12 125.927 295.12 132.695C295.12 133.097 295.142 133.492 295.178 133.884H374.867V133.885Z" fill="white"/>
<path opacity="0.8" d="M216.314 26.022C215.593 22.8834 212.788 20.5419 209.432 20.5419C208.817 20.5419 208.22 20.6209 207.65 20.7691C205.995 17.2255 202.401 14.7703 198.235 14.7703C197.157 14.7703 196.119 14.935 195.141 15.2396C192.899 11.5231 188.823 9.03662 184.166 9.03662C178.627 9.03662 173.908 12.5555 172.121 17.4807C170.856 16.7743 169.4 16.3709 167.848 16.3709C162.992 16.3709 159.056 20.3097 159.056 25.169C159.056 25.4572 159.071 25.7421 159.097 26.022H216.314Z" fill="white"/>
<path d="M120.518 261.703L119.792 261.174C122.44 257.538 125.177 253.778 126.537 249.427C126.774 248.673 126.975 247.878 127.169 247.109C127.705 244.995 128.258 242.81 129.615 241.032C130.622 239.713 131.978 238.747 133.289 237.813C133.7 237.521 134.125 237.217 134.53 236.912C141.493 231.624 145.159 222.285 143.651 213.674L144.536 213.519C146.101 222.453 142.297 232.142 135.074 237.628C134.658 237.943 134.228 238.25 133.811 238.547C132.496 239.483 131.254 240.367 130.328 241.579C129.083 243.211 128.576 245.213 128.039 247.331C127.84 248.111 127.636 248.919 127.393 249.698C125.989 254.189 123.207 258.01 120.518 261.703Z" fill="#001333"/>
<path d="M124.66 268.82C124.464 268.82 124.265 268.791 124.064 268.732L124.323 267.872C125.059 268.094 125.883 267.489 126.226 266.803C126.621 266.01 126.633 265.038 126.648 264.097V264.061C126.726 258.424 127.418 251.384 132.132 246.962C133.173 245.985 134.367 245.189 135.521 244.418C135.924 244.15 136.327 243.881 136.724 243.606C140.164 241.209 144.732 237.072 146.951 230.977C148.931 225.538 148.661 219.388 148.421 213.962L149.318 213.922C149.561 219.432 149.836 225.677 147.794 231.284C145.495 237.601 140.783 241.873 137.235 244.343C136.834 244.623 136.426 244.895 136.019 245.166C134.895 245.916 133.732 246.692 132.746 247.617C128.28 251.81 127.621 258.614 127.546 264.074V264.109C127.532 265.152 127.518 266.228 127.031 267.205C126.605 268.06 125.682 268.82 124.66 268.82Z" fill="#001333"/>
<path d="M253.813 218.181H251.893V306.645H253.813V218.181Z" fill="white"/>
<path d="M281.153 218.181H279.233V306.645H281.153V218.181Z" fill="white"/>
<path d="M195.743 132.365H92.5477C90.0183 132.365 87.9686 134.415 87.9686 136.944V190.168V198.696C87.9686 200.469 89.1406 201.908 90.5875 201.908H134.878V214.582H108.637C106.677 214.582 105.087 216.172 105.087 218.132H134.877H143.578H144.144H152.845H182.634C182.634 216.172 181.045 214.582 179.085 214.582H152.846V201.908H197.703C199.15 201.908 200.322 200.469 200.322 198.696V190.168V136.943C200.322 134.415 198.272 132.365 195.743 132.365Z" fill="#022D59"/>
<path d="M181.533 214.581H155.291V199.595H146.59H146.024H137.323V214.581H111.083C109.123 214.581 107.534 216.17 107.534 218.13H137.323H146.024H146.59H155.291H185.08C185.08 216.17 183.491 214.581 181.533 214.581Z" fill="#003366"/>
<path d="M202.767 190.166V136.943C202.767 134.413 200.717 132.364 198.188 132.364H94.9924C92.463 132.364 90.4133 134.413 90.4133 136.943V190.166H202.767Z" fill="#003366"/>
<path d="M90.4133 190.166V198.695C90.4133 200.469 91.5853 201.907 93.0322 201.907H200.148C201.595 201.907 202.767 200.468 202.767 198.695V190.166H90.4133Z" fill="#003366"/>
<path d="M200.137 187.854V137.085C200.137 135.755 199.019 134.676 197.639 134.676H95.5392C94.161 134.676 93.0434 135.755 93.0434 137.085V187.854H200.137Z" fill="white"/>
<path d="M195.711 148.297H144.131V148.579H195.711V148.297Z" fill="#6EA7CE"/>
<path d="M195.711 154.779H144.131V155.062H195.711V154.779Z" fill="#6EA7CE"/>
<path d="M195.711 161.262H144.131V161.544H195.711V161.262Z" fill="#6EA7CE"/>
<path d="M195.711 167.746H144.131V168.028H195.711V167.746Z" fill="#6EA7CE"/>
<path d="M195.711 174.228H144.131V174.511H195.711V174.228Z" fill="#6EA7CE"/>
<path d="M154.774 162.835C154.592 163.468 154.476 164.102 154.192 164.724C153.905 164.111 153.789 163.476 153.613 162.837C152.572 163.079 151.539 163.319 150.486 163.564C150.486 163.442 150.486 163.324 150.486 163.208C150.486 163.123 150.5 163.033 150.483 162.951C150.443 162.747 150.54 162.654 150.714 162.565C151.57 162.123 152.419 161.668 153.271 161.218C153.337 161.182 153.364 161.151 153.357 161.066C153.268 160.047 153.184 159.026 153.1 158.007C153.061 157.525 153.024 157.043 152.99 156.561C152.984 156.491 152.957 156.471 152.893 156.473C152.677 156.48 152.462 156.498 152.247 156.49C151.63 156.467 151.054 156.677 150.46 156.796C148.929 157.104 147.401 157.425 145.871 157.74C145.836 157.747 145.799 157.75 145.729 157.76C145.729 157.554 145.725 157.358 145.734 157.164C145.735 157.131 145.783 157.093 145.819 157.072C146.199 156.846 146.581 156.62 146.964 156.4C147.519 156.082 148.076 155.767 148.633 155.454C148.702 155.415 148.724 155.371 148.723 155.295C148.721 155.012 148.726 154.728 148.733 154.446C148.738 154.169 148.815 154.071 149.092 154.05C149.32 154.033 149.553 154.041 149.782 154.06C149.973 154.075 150.049 154.165 150.071 154.354C150.081 154.437 150.083 154.522 150.088 154.625C150.137 154.599 150.175 154.581 150.213 154.559C151.059 154.082 151.904 153.606 152.751 153.131C152.826 153.09 152.858 153.043 152.858 152.958C152.855 152.694 152.856 152.43 152.859 152.165C152.868 151.394 152.86 150.623 152.967 149.858C153.059 149.195 153.244 148.564 153.617 148C153.694 147.884 153.79 147.773 153.897 147.685C154.117 147.501 154.347 147.512 154.564 147.699C154.748 147.858 154.869 148.064 154.97 148.281C155.238 148.858 155.4 149.465 155.445 150.095C155.489 150.714 155.495 151.337 155.52 151.958C155.53 152.226 155.543 152.493 155.563 152.76C155.566 152.801 155.607 152.85 155.644 152.875C156.409 153.368 157.177 153.861 157.945 154.352C158.088 154.444 158.233 154.535 158.399 154.642C158.399 154.559 158.398 154.495 158.399 154.432C158.402 154.19 158.523 154.061 158.762 154.06C159.001 154.058 159.239 154.06 159.475 154.082C159.662 154.099 159.736 154.175 159.747 154.363C159.764 154.642 159.762 154.921 159.755 155.201C159.749 155.422 159.75 155.424 159.942 155.529C160.498 155.835 161.053 156.148 161.607 156.46C161.935 156.644 162.258 156.833 162.588 157.015C162.698 157.076 162.75 157.153 162.732 157.283C162.718 157.39 162.731 157.499 162.728 157.607C162.727 157.654 162.717 157.701 162.71 157.759C162.415 157.698 162.131 157.639 161.848 157.583C160.442 157.296 159.035 157.009 157.628 156.724C157.272 156.652 156.917 156.559 156.555 156.517C156.18 156.473 155.799 156.48 155.405 156.464C155.39 156.644 155.373 156.806 155.36 156.968C155.319 157.513 155.281 158.058 155.237 158.603C155.17 159.434 155.1 160.265 155.028 161.096C155.021 161.172 155.062 161.194 155.112 161.219C155.516 161.431 155.922 161.644 156.327 161.855C156.811 162.109 157.295 162.363 157.78 162.615C157.875 162.664 157.911 162.727 157.905 162.836C157.895 163.045 157.902 163.253 157.902 163.462C157.902 163.49 157.897 163.52 157.891 163.574C156.85 163.326 155.816 163.08 154.774 162.835Z" fill="#074380"/>
<path d="M180.731 175.29C180.34 175.819 180.011 176.376 179.528 176.86C179.472 176.186 179.584 175.55 179.639 174.89C178.58 174.755 177.527 174.621 176.454 174.485C176.497 174.37 176.538 174.261 176.577 174.15C176.607 174.069 176.651 173.991 176.664 173.909C176.697 173.703 176.82 173.65 177.015 173.628C177.97 173.511 178.924 173.378 179.879 173.253C179.953 173.243 179.99 173.223 180.012 173.141C180.282 172.154 180.557 171.168 180.833 170.183C180.963 169.717 181.095 169.252 181.232 168.788C181.252 168.721 181.232 168.692 181.172 168.673C180.968 168.604 180.759 168.546 180.56 168.464C179.988 168.227 179.375 168.225 178.779 168.132C177.236 167.889 175.692 167.659 174.147 167.423C174.111 167.418 174.075 167.408 174.007 167.394C174.078 167.201 174.143 167.016 174.218 166.836C174.231 166.806 174.289 166.786 174.331 166.779C174.766 166.7 175.202 166.62 175.638 166.548C176.269 166.443 176.9 166.34 177.533 166.24C177.609 166.227 177.646 166.194 177.672 166.122C177.77 165.856 177.871 165.592 177.976 165.33C178.078 165.072 178.183 165.006 178.45 165.083C178.67 165.145 178.885 165.235 179.094 165.331C179.269 165.412 179.308 165.521 179.264 165.707C179.245 165.79 179.216 165.871 179.186 165.967C179.24 165.96 179.283 165.956 179.325 165.949C180.284 165.795 181.243 165.641 182.201 165.49C182.286 165.477 182.332 165.445 182.36 165.364C182.448 165.116 182.542 164.867 182.637 164.62C182.912 163.901 183.172 163.175 183.54 162.495C183.856 161.906 184.248 161.377 184.794 160.978C184.907 160.896 185.034 160.826 185.166 160.779C185.437 160.683 185.648 160.772 185.787 161.023C185.904 161.236 185.947 161.472 185.965 161.71C186.017 162.343 185.958 162.969 185.781 163.577C185.606 164.173 185.396 164.758 185.205 165.35C185.122 165.604 185.04 165.859 184.966 166.116C184.955 166.156 184.976 166.217 185.002 166.252C185.548 166.982 186.097 167.71 186.647 168.437C186.749 168.573 186.853 168.709 186.972 168.866C187 168.789 187.022 168.729 187.044 168.67C187.131 168.445 187.29 168.365 187.514 168.447C187.737 168.529 187.961 168.613 188.175 168.715C188.344 168.796 188.388 168.893 188.333 169.073C188.252 169.34 188.153 169.601 188.049 169.861C187.968 170.066 187.968 170.068 188.112 170.234C188.527 170.715 188.938 171.201 189.349 171.686C189.592 171.973 189.831 172.262 190.076 172.548C190.16 172.644 190.181 172.732 190.119 172.85C190.069 172.945 190.042 173.051 190.002 173.152C189.985 173.196 189.96 173.236 189.933 173.289C189.677 173.13 189.432 172.976 189.186 172.824C187.967 172.068 186.748 171.31 185.527 170.553C185.217 170.362 184.917 170.152 184.593 169.987C184.256 169.817 183.896 169.69 183.534 169.54C183.456 169.703 183.385 169.849 183.317 169.997C183.088 170.494 182.864 170.992 182.634 171.489C182.283 172.245 181.93 173 181.574 173.754C181.541 173.824 181.572 173.858 181.611 173.899C181.917 174.238 182.224 174.577 182.53 174.918C182.897 175.324 183.261 175.731 183.629 176.134C183.701 176.214 183.713 176.285 183.67 176.386C183.589 176.577 183.523 176.776 183.45 176.97C183.44 176.997 183.425 177.023 183.401 177.071C182.508 176.472 181.622 175.883 180.731 175.29Z" fill="#F47458"/>
<path d="M126.368 142.254H121.273V181.697H126.368V142.254Z" fill="#003366"/>
<path d="M119.252 154.063H114.156V181.475H119.252V154.063Z" fill="#003366"/>
<path d="M133.587 150.8H128.491V181.697H133.587V150.8Z" fill="#003366"/>
<path d="M112.135 149.363H107.04V181.475H112.135V149.363Z" fill="#003366"/>
<path d="M105.017 158.884H99.9216V181.475H105.017V158.884Z" fill="#003366"/>
<path d="M126.368 151.123H121.273V181.699H126.368V151.123Z" fill="#E8E8E8"/>
<path d="M119.252 160.382H114.156V181.477H119.252V160.382Z" fill="#E8E8E8"/>
<path d="M133.587 157.699H128.491V181.697H133.587V157.699Z" fill="#E8E8E8"/>
<path d="M112.135 156.764H107.04V181.475H112.135V156.764Z" fill="#E8E8E8"/>
<path d="M105.017 164.091H99.9216V181.475H105.017V164.091Z" fill="#E8E8E8"/>
<path d="M88.4931 218.181H86.5729V306.645H88.4931V218.181Z" fill="white"/>
<path d="M115.891 218.181H113.971V306.645H115.891V218.181Z" fill="white"/>
<path d="M180.006 215.965L199.355 211.263C199.355 211.263 206.198 202.086 212.788 194.173C214.816 196.098 215.983 199.098 218.023 201.004L203.523 217.724C203 218.327 202.247 218.682 201.449 218.701L180.85 219.195L180.006 215.965Z" fill="#F7A491"/>
<path d="M166.846 217.918C166.643 217.604 167.151 217.075 167.533 216.677C167.957 216.236 170.517 215.129 170.952 214.997C171.386 214.864 175.118 215.39 176.547 215.857C177.977 216.325 178.917 216.132 178.917 216.132C179.291 216.055 179.854 215.953 180.292 215.862L181.187 219.194C177.835 219.15 174.327 219.4 174.01 219.393C173.003 219.368 171.156 218.314 170.728 218.159C170.299 218.004 169.433 218.127 168.849 218.4C168.265 218.674 166.569 219.323 166.285 219.173C166.002 219.021 166.846 217.918 166.846 217.918Z" fill="#F7A491"/>
<path d="M179.122 215.099L178.298 215.254V219.902C178.298 219.902 179.032 220.102 179.122 220.034C179.211 219.969 179.122 215.099 179.122 215.099Z" fill="#F4F4F4"/>
<path d="M216.851 188.481C213.373 187.957 198.599 210.843 198.599 210.843L178.938 214.99V220.183L200.428 219.312C200.458 219.305 200.482 219.299 200.514 219.292C203.158 218.851 204.813 217.204 205.117 216.88C209.597 212.013 219.596 200.979 220.827 198.178C222.418 194.555 220.33 189.006 216.851 188.481Z" fill="#003366"/>
<path d="M281.164 218.181H86.5729V221.51H281.164V218.181Z" fill="white"/>
<path d="M115.892 218.181H86.5729V221.51H115.892V218.181Z" fill="white"/>
<path d="M232.347 176.175L236.208 186.011C236.208 186.011 231.156 192.298 227.347 192.047C224.151 191.837 225.344 187.456 225.344 187.456C225.344 187.456 225.742 181.662 224.623 178.919C223.502 176.175 232.347 176.175 232.347 176.175Z" fill="#F7A491"/>
<path d="M231.87 179.512C230.492 180.578 227.669 182.241 225.353 183.003C225.266 181.528 225.061 179.99 224.623 178.918C224.106 177.652 225.712 176.971 227.59 176.603C230.083 176.272 232.347 176.173 232.347 176.173L233.089 178.063C232.732 178.658 232.329 179.157 231.87 179.512Z" fill="#F47458"/>
<path d="M237.5 162.708C237.754 162.654 237.586 174.629 233.87 177.504C230.155 180.378 223.742 180.724 221.905 177.913C219.873 174.805 221.991 162.156 227.501 159.392C233.009 156.629 237.5 162.708 237.5 162.708Z" fill="#F7A491"/>
<path d="M230.39 153.308C234.125 154.488 236.272 156.987 237.039 158.035C238.758 158.43 240.992 159.611 242.845 163.712C245.123 168.755 242.074 173.703 238.159 175.855C234.243 178.006 234.208 180.919 234.208 180.919L233.074 178.042C233.074 178.042 233.432 175.241 234.547 173.633C235.661 172.024 233.178 170.587 232.655 169.083C232.252 167.923 232.619 165.421 231.998 163.512C231.998 163.512 228.893 160.5 226.409 160.135C222.172 159.512 225.598 151.794 230.39 153.308Z" fill="black"/>
<path d="M230.14 161.961C230.14 161.961 230.844 163.426 230.438 164.9C230.03 166.374 227.061 176.357 227.926 177.51C228.791 178.663 234.208 180.917 234.208 180.917L236.646 172.734L234.125 161.317L230.14 161.961Z" fill="black"/>
<path d="M230.917 165.223C230.917 165.223 234.966 159.136 235.8 156.497C235.8 156.497 237.049 156.42 237.728 157.035C238.408 157.651 235.205 165.086 233.563 167.981L230.917 165.223Z" fill="#003366"/>
<path d="M234.382 167.631C234.929 170.111 233.364 172.565 230.884 173.112C228.404 173.658 225.95 172.093 225.403 169.613C224.856 167.134 226.422 164.679 228.901 164.133C231.381 163.586 233.835 165.151 234.382 167.631Z" fill="#002448"/>
<path d="M233.846 167.749C234.393 170.229 232.828 172.683 230.348 173.23C227.868 173.777 225.414 172.212 224.867 169.732C224.321 167.252 225.886 164.798 228.366 164.251C230.845 163.704 233.3 165.269 233.846 167.749Z" fill="#003366"/>
<path d="M232.142 168.126C232.481 169.664 231.511 171.188 229.971 171.527C228.433 171.866 226.909 170.896 226.57 169.356C226.231 167.818 227.202 166.294 228.741 165.955C230.281 165.615 231.803 166.587 232.142 168.126Z" fill="white"/>
<path opacity="0.5" d="M227.641 169.119C227.342 167.764 228.062 166.422 229.288 165.89C229.108 165.895 228.925 165.915 228.741 165.955C227.203 166.294 226.231 167.818 226.57 169.356C226.909 170.894 228.433 171.866 229.971 171.527C230.155 171.487 230.329 171.428 230.494 171.356C229.159 171.39 227.94 170.475 227.641 169.119Z" fill="#13375B"/>
<path d="M225.269 295.227L222.781 288.098H229.295C229.633 292.674 229.76 295.761 229.76 295.761L231.416 300.449L233.098 306.02C233.098 306.02 227.558 307.447 224.652 305.842L224.974 300.297L225.269 295.227Z" fill="#F7A491"/>
<path d="M224.975 300.275C227.531 301.414 230.283 300.728 231.391 300.363L231.758 301.354L233.169 306.055C233.169 306.055 227.558 307.448 224.652 305.842L224.975 300.275Z" fill="#003366"/>
<path d="M182.517 293.948C182.517 293.948 184.329 298.245 182.824 300.024C181.32 301.804 175.059 303.554 174.239 304.518C173.418 305.482 173.481 306.303 173.481 306.303L191.054 305.804L190.857 300.515L189.237 292.545L182.517 293.948Z" fill="#F7A491"/>
<path d="M181.732 300.911C181.732 300.911 186.249 302.728 188.43 301.649C190.611 300.569 190.543 300.27 191.175 300.672C191.807 301.073 192.037 306.031 192.037 306.031L172.277 306.629C170.902 306.599 170.205 305.59 171.322 304.725C172.088 304.131 172.972 303.733 173.476 303.446C175.02 302.56 181.732 300.911 181.732 300.911Z" fill="#003366"/>
<path d="M213.997 231.934C212.029 231.396 170.851 239.342 167.516 248.426C166.974 249.904 173.548 273.29 181.983 295.629L190.945 294.252C190.945 294.252 189.811 271.378 182.118 255.772C186.662 256.9 211.207 251.838 215.704 247.832C221.439 242.719 215.965 232.473 213.997 231.934Z" fill="black"/>
<path d="M205.67 259.476C205.67 259.476 218.298 285.516 220.33 290.286C222.362 295.055 222.934 297.44 222.934 297.44H230.852C230.852 297.44 227.8 267.68 222.648 259.476C217.498 251.272 205.67 259.476 205.67 259.476Z" fill="black"/>
<path d="M221.212 184.707L252.332 184.938C254.71 184.956 256.337 186.628 255.968 188.673L244.258 253.62C243.889 255.665 241.663 257.308 239.287 257.291L208.167 257.059C205.79 257.041 204.162 255.369 204.532 253.324L216.242 188.378C216.609 186.333 218.835 184.689 221.212 184.707Z" fill="#B75742"/>
<path d="M187.221 252.793H210.174L222.367 187.954C222.717 186.16 224.927 184.707 227.304 184.707H258.424C260.801 184.707 262.445 186.16 262.095 187.954L248.879 258.039C248.529 259.833 246.319 261.286 243.943 261.286H238.315H212.823H187.221C184.113 261.286 181.593 259.385 181.593 257.04C181.593 254.694 184.113 252.793 187.221 252.793Z" fill="#F47458"/>
<path d="M218.425 301.354H221.679V261.286H218.425V301.354Z" fill="white"/>
<path d="M236.496 303.476H204.164C202.676 303.476 201.468 304.683 201.468 306.173C201.468 306.434 201.679 306.645 201.94 306.645H238.721C238.982 306.645 239.193 306.434 239.193 306.173C239.193 304.683 237.984 303.476 236.496 303.476Z" fill="white"/>
<path d="M221.932 301.354H217.972C216.8 301.354 215.85 302.304 215.85 303.476C215.85 304.648 216.8 305.598 217.972 305.598H221.932C223.104 305.598 224.054 304.648 224.054 303.476C224.054 302.306 223.104 301.354 221.932 301.354Z" fill="white"/>
<path d="M137.338 248.257H95.5743V306.613H137.338V248.257Z" fill="#074380"/>
<path d="M157.251 248.257H134.295V306.613H157.251V248.257Z" fill="#003366"/>
<path opacity="0.5" d="M155.454 252.123H136.891V254.817H155.454V252.123Z" fill="white"/>
<path opacity="0.5" d="M155.454 259.009H136.891V261.703H155.454V259.009Z" fill="white"/>
<path opacity="0.5" d="M155.454 265.895H136.891V268.589H155.454V265.895Z" fill="white"/>
</g>
</svg>
