<svg width="323" height="40" viewBox="0 0 323 40" fill="none" xmlns="http://www.w3.org/2000/svg">
<path opacity="0.6" d="M6.8342 9.39154V10.2065H2.9092V9.39154H4.4092V4.88154C4.4092 4.72154 4.4142 4.55821 4.4242 4.39154L3.2692 5.36654C3.2192 5.40654 3.16754 5.43321 3.1142 5.44654C3.0642 5.45654 3.01587 5.45654 2.9692 5.44654C2.92587 5.43654 2.88587 5.42154 2.8492 5.40154C2.81587 5.37821 2.7892 5.35321 2.7692 5.32654L2.4342 4.85654L4.6042 2.99154H5.4792V9.39154H6.8342ZM12.42 9.19154C12.5367 9.19154 12.6283 9.22654 12.695 9.29654C12.7617 9.36321 12.795 9.44988 12.795 9.55654V10.2065H7.92498V9.84154C7.92498 9.76821 7.93998 9.69154 7.96998 9.61154C7.99998 9.53154 8.04832 9.45821 8.11498 9.39154L10.355 7.14654C10.545 6.95654 10.7133 6.77488 10.86 6.60154C11.01 6.42821 11.1367 6.25488 11.24 6.08154C11.3467 5.90821 11.4267 5.73321 11.48 5.55654C11.5367 5.37654 11.565 5.18821 11.565 4.99154C11.565 4.80154 11.535 4.63488 11.475 4.49154C11.4183 4.34488 11.3383 4.22488 11.235 4.13154C11.135 4.03488 11.0133 3.96321 10.87 3.91654C10.73 3.86654 10.575 3.84154 10.405 3.84154C10.2417 3.84154 10.09 3.86488 9.94998 3.91154C9.81332 3.95821 9.68998 4.02321 9.57998 4.10654C9.47332 4.18988 9.38332 4.28988 9.30998 4.40654C9.23998 4.51988 9.18832 4.64488 9.15498 4.78154C9.10498 4.91821 9.03998 5.00988 8.95998 5.05654C8.88332 5.10321 8.76998 5.11321 8.61998 5.08654L8.05498 4.98654C8.10498 4.64654 8.19832 4.34821 8.33498 4.09154C8.47498 3.83488 8.64998 3.62154 8.85998 3.45154C9.06998 3.27821 9.30998 3.14821 9.57998 3.06154C9.85332 2.97154 10.1483 2.92654 10.465 2.92654C10.785 2.92654 11.0783 2.97488 11.345 3.07154C11.615 3.16488 11.8467 3.29988 12.04 3.47654C12.2367 3.64988 12.39 3.86154 12.5 4.11154C12.61 4.36154 12.665 4.64321 12.665 4.95654C12.665 5.22321 12.625 5.46988 12.545 5.69654C12.4683 5.92321 12.3633 6.13988 12.23 6.34654C12.0967 6.55321 11.94 6.75488 11.76 6.95154C11.5833 7.14488 11.3967 7.34154 11.2 7.54154L9.45998 9.32154C9.60332 9.28154 9.74665 9.24988 9.88998 9.22654C10.0367 9.20321 10.175 9.19154 10.305 9.19154H12.42Z" fill="black"/>
<line opacity="0.4" x1="7.99998" y1="19.2065" x2="7.99998" y2="39.2065" stroke="black"/>
<g opacity="0.4">
<line opacity="0.65" x1="16" y1="23.2065" x2="16" y2="39.2065" stroke="black"/>
<line opacity="0.65" x1="20" y1="23.2065" x2="20" y2="39.2065" stroke="black"/>
<line opacity="0.65" x1="24" y1="23.2065" x2="24" y2="39.2065" stroke="black"/>
<line opacity="0.65" x1="28" y1="23.2065" x2="28" y2="39.2065" stroke="black"/>
</g>
<path opacity="0.6" d="M35.2242 6.60654C35.2242 7.23654 35.1559 7.78154 35.0192 8.24154C34.8859 8.70154 34.7009 9.08321 34.4642 9.38654C34.2276 9.68988 33.9492 9.91488 33.6292 10.0615C33.3092 10.2082 32.9642 10.2815 32.5942 10.2815C32.2242 10.2815 31.8792 10.2082 31.5592 10.0615C31.2392 9.91488 30.9609 9.68988 30.7242 9.38654C30.4909 9.08321 30.3076 8.70154 30.1742 8.24154C30.0409 7.78154 29.9742 7.23654 29.9742 6.60654C29.9742 5.97654 30.0409 5.43154 30.1742 4.97154C30.3076 4.50821 30.4909 4.12654 30.7242 3.82654C30.9609 3.52321 31.2392 3.29821 31.5592 3.15154C31.8792 3.00154 32.2242 2.92654 32.5942 2.92654C32.9642 2.92654 33.3092 3.00154 33.6292 3.15154C33.9492 3.29821 34.2276 3.52321 34.4642 3.82654C34.7009 4.12654 34.8859 4.50821 35.0192 4.97154C35.1559 5.43154 35.2242 5.97654 35.2242 6.60654ZM34.1142 6.60654C34.1142 6.07321 34.0709 5.62988 33.9842 5.27654C33.9009 4.91988 33.7892 4.63488 33.6492 4.42154C33.5092 4.20821 33.3476 4.05654 33.1642 3.96654C32.9809 3.87654 32.7909 3.83154 32.5942 3.83154C32.3942 3.83154 32.2026 3.87654 32.0192 3.96654C31.8392 4.05654 31.6792 4.20821 31.5392 4.42154C31.3992 4.63488 31.2876 4.91988 31.2042 5.27654C31.1209 5.62988 31.0792 6.07321 31.0792 6.60654C31.0792 7.13988 31.1209 7.58488 31.2042 7.94154C31.2876 8.29488 31.3992 8.57821 31.5392 8.79154C31.6792 9.00488 31.8392 9.15654 32.0192 9.24654C32.2026 9.33654 32.3942 9.38154 32.5942 9.38154C32.7909 9.38154 32.9809 9.33654 33.1642 9.24654C33.3476 9.15654 33.5092 9.00488 33.6492 8.79154C33.7892 8.57821 33.9009 8.29488 33.9842 7.94154C34.0709 7.58488 34.1142 7.13988 34.1142 6.60654ZM40.635 9.39154V10.2065H36.71V9.39154H38.21V4.88154C38.21 4.72154 38.215 4.55821 38.225 4.39154L37.07 5.36654C37.02 5.40654 36.9683 5.43321 36.915 5.44654C36.865 5.45654 36.8167 5.45654 36.77 5.44654C36.7267 5.43654 36.6867 5.42154 36.65 5.40154C36.6167 5.37821 36.59 5.35321 36.57 5.32654L36.235 4.85654L38.405 2.99154H39.28V9.39154H40.635Z" fill="black"/>
<line opacity="0.4" x1="36" y1="19.2065" x2="36" y2="39.2065" stroke="black"/>
<g opacity="0.4">
<line opacity="0.65" x1="44" y1="23.2065" x2="44" y2="39.2065" stroke="black"/>
<line opacity="0.65" x1="48" y1="23.2065" x2="48" y2="39.2065" stroke="black"/>
<line opacity="0.65" x1="52" y1="23.2065" x2="52" y2="39.2065" stroke="black"/>
<line opacity="0.65" x1="56" y1="23.2065" x2="56" y2="39.2065" stroke="black"/>
</g>
<path opacity="0.6" d="M63.2242 6.60654C63.2242 7.23654 63.1559 7.78154 63.0192 8.24154C62.8859 8.70154 62.7009 9.08321 62.4642 9.38654C62.2276 9.68988 61.9492 9.91488 61.6292 10.0615C61.3092 10.2082 60.9642 10.2815 60.5942 10.2815C60.2242 10.2815 59.8792 10.2082 59.5592 10.0615C59.2392 9.91488 58.9609 9.68988 58.7242 9.38654C58.4909 9.08321 58.3076 8.70154 58.1742 8.24154C58.0409 7.78154 57.9742 7.23654 57.9742 6.60654C57.9742 5.97654 58.0409 5.43154 58.1742 4.97154C58.3076 4.50821 58.4909 4.12654 58.7242 3.82654C58.9609 3.52321 59.2392 3.29821 59.5592 3.15154C59.8792 3.00154 60.2242 2.92654 60.5942 2.92654C60.9642 2.92654 61.3092 3.00154 61.6292 3.15154C61.9492 3.29821 62.2276 3.52321 62.4642 3.82654C62.7009 4.12654 62.8859 4.50821 63.0192 4.97154C63.1559 5.43154 63.2242 5.97654 63.2242 6.60654ZM62.1142 6.60654C62.1142 6.07321 62.0709 5.62988 61.9842 5.27654C61.9009 4.91988 61.7892 4.63488 61.6492 4.42154C61.5092 4.20821 61.3476 4.05654 61.1642 3.96654C60.9809 3.87654 60.7909 3.83154 60.5942 3.83154C60.3942 3.83154 60.2026 3.87654 60.0192 3.96654C59.8392 4.05654 59.6792 4.20821 59.5392 4.42154C59.3992 4.63488 59.2876 4.91988 59.2042 5.27654C59.1209 5.62988 59.0792 6.07321 59.0792 6.60654C59.0792 7.13988 59.1209 7.58488 59.2042 7.94154C59.2876 8.29488 59.3992 8.57821 59.5392 8.79154C59.6792 9.00488 59.8392 9.15654 60.0192 9.24654C60.2026 9.33654 60.3942 9.38154 60.5942 9.38154C60.7909 9.38154 60.9809 9.33654 61.1642 9.24654C61.3476 9.15654 61.5092 9.00488 61.6492 8.79154C61.7892 8.57821 61.9009 8.29488 61.9842 7.94154C62.0709 7.58488 62.1142 7.13988 62.1142 6.60654ZM68.42 9.19154C68.5367 9.19154 68.6283 9.22654 68.695 9.29654C68.7617 9.36321 68.795 9.44988 68.795 9.55654V10.2065H63.925V9.84154C63.925 9.76821 63.94 9.69154 63.97 9.61154C64 9.53154 64.0483 9.45821 64.115 9.39154L66.355 7.14654C66.545 6.95654 66.7133 6.77488 66.86 6.60154C67.01 6.42821 67.1367 6.25488 67.24 6.08154C67.3467 5.90821 67.4267 5.73321 67.48 5.55654C67.5367 5.37654 67.565 5.18821 67.565 4.99154C67.565 4.80154 67.535 4.63488 67.475 4.49154C67.4183 4.34488 67.3383 4.22488 67.235 4.13154C67.135 4.03488 67.0133 3.96321 66.87 3.91654C66.73 3.86654 66.575 3.84154 66.405 3.84154C66.2417 3.84154 66.09 3.86488 65.95 3.91154C65.8133 3.95821 65.69 4.02321 65.58 4.10654C65.4733 4.18988 65.3833 4.28988 65.31 4.40654C65.24 4.51988 65.1883 4.64488 65.155 4.78154C65.105 4.91821 65.04 5.00988 64.96 5.05654C64.8833 5.10321 64.77 5.11321 64.62 5.08654L64.055 4.98654C64.105 4.64654 64.1983 4.34821 64.335 4.09154C64.475 3.83488 64.65 3.62154 64.86 3.45154C65.07 3.27821 65.31 3.14821 65.58 3.06154C65.8533 2.97154 66.1483 2.92654 66.465 2.92654C66.785 2.92654 67.0783 2.97488 67.345 3.07154C67.615 3.16488 67.8467 3.29988 68.04 3.47654C68.2367 3.64988 68.39 3.86154 68.5 4.11154C68.61 4.36154 68.665 4.64321 68.665 4.95654C68.665 5.22321 68.625 5.46988 68.545 5.69654C68.4683 5.92321 68.3633 6.13988 68.23 6.34654C68.0967 6.55321 67.94 6.75488 67.76 6.95154C67.5833 7.14488 67.3967 7.34154 67.2 7.54154L65.46 9.32154C65.6033 9.28154 65.7467 9.24988 65.89 9.22654C66.0367 9.20321 66.175 9.19154 66.305 9.19154H68.42Z" fill="black"/>
<line opacity="0.4" x1="64" y1="19.2065" x2="64" y2="39.2065" stroke="black"/>
<g opacity="0.4">
<line opacity="0.65" x1="72" y1="23.2065" x2="72" y2="39.2065" stroke="black"/>
<line opacity="0.65" x1="76" y1="23.2065" x2="76" y2="39.2065" stroke="black"/>
<line opacity="0.65" x1="80" y1="23.2065" x2="80" y2="39.2065" stroke="black"/>
<line opacity="0.65" x1="84" y1="23.2065" x2="84" y2="39.2065" stroke="black"/>
</g>
<path d="M91.2242 6.60654C91.2242 7.23654 91.1559 7.78154 91.0192 8.24154C90.8859 8.70154 90.7009 9.08321 90.4642 9.38654C90.2276 9.68988 89.9492 9.91488 89.6292 10.0615C89.3092 10.2082 88.9642 10.2815 88.5942 10.2815C88.2242 10.2815 87.8792 10.2082 87.5592 10.0615C87.2392 9.91488 86.9609 9.68988 86.7242 9.38654C86.4909 9.08321 86.3076 8.70154 86.1742 8.24154C86.0409 7.78154 85.9742 7.23654 85.9742 6.60654C85.9742 5.97654 86.0409 5.43154 86.1742 4.97154C86.3076 4.50821 86.4909 4.12654 86.7242 3.82654C86.9609 3.52321 87.2392 3.29821 87.5592 3.15154C87.8792 3.00154 88.2242 2.92654 88.5942 2.92654C88.9642 2.92654 89.3092 3.00154 89.6292 3.15154C89.9492 3.29821 90.2276 3.52321 90.4642 3.82654C90.7009 4.12654 90.8859 4.50821 91.0192 4.97154C91.1559 5.43154 91.2242 5.97654 91.2242 6.60654ZM90.1142 6.60654C90.1142 6.07321 90.0709 5.62988 89.9842 5.27654C89.9009 4.91988 89.7892 4.63488 89.6492 4.42154C89.5092 4.20821 89.3476 4.05654 89.1642 3.96654C88.9809 3.87654 88.7909 3.83154 88.5942 3.83154C88.3942 3.83154 88.2026 3.87654 88.0192 3.96654C87.8392 4.05654 87.6792 4.20821 87.5392 4.42154C87.3992 4.63488 87.2876 4.91988 87.2042 5.27654C87.1209 5.62988 87.0792 6.07321 87.0792 6.60654C87.0792 7.13988 87.1209 7.58488 87.2042 7.94154C87.2876 8.29488 87.3992 8.57821 87.5392 8.79154C87.6792 9.00488 87.8392 9.15654 88.0192 9.24654C88.2026 9.33654 88.3942 9.38154 88.5942 9.38154C88.7909 9.38154 88.9809 9.33654 89.1642 9.24654C89.3476 9.15654 89.5092 9.00488 89.6492 8.79154C89.7892 8.57821 89.9009 8.29488 89.9842 7.94154C90.0709 7.58488 90.1142 7.13988 90.1142 6.60654ZM92.09 4.98654C92.14 4.64654 92.2333 4.34821 92.37 4.09154C92.51 3.83488 92.685 3.62154 92.895 3.45154C93.105 3.27821 93.345 3.14821 93.615 3.06154C93.8883 2.97154 94.1833 2.92654 94.5 2.92654C94.82 2.92654 95.11 2.97321 95.37 3.06654C95.6333 3.15654 95.8583 3.28321 96.045 3.44654C96.235 3.60988 96.38 3.80488 96.48 4.03154C96.5833 4.25821 96.635 4.50654 96.635 4.77654C96.635 5.00654 96.6067 5.20988 96.55 5.38654C96.4967 5.55988 96.4183 5.71321 96.315 5.84654C96.215 5.97988 96.0917 6.09154 95.945 6.18154C95.7983 6.27154 95.6333 6.34654 95.45 6.40654C95.8967 6.53654 96.2317 6.74488 96.455 7.03154C96.6783 7.31488 96.79 7.67154 96.79 8.10154C96.79 8.44821 96.725 8.75654 96.595 9.02654C96.465 9.29654 96.2883 9.52488 96.065 9.71154C95.845 9.89821 95.5867 10.0415 95.29 10.1415C94.9967 10.2382 94.685 10.2865 94.355 10.2865C93.985 10.2865 93.665 10.2432 93.395 10.1565C93.125 10.0665 92.8917 9.93988 92.695 9.77654C92.5017 9.60988 92.34 9.40988 92.21 9.17654C92.08 8.94321 91.97 8.68154 91.88 8.39154L92.345 8.19654C92.4683 8.14321 92.585 8.12821 92.695 8.15154C92.8083 8.17488 92.89 8.23654 92.94 8.33654C92.9933 8.44321 93.0533 8.55821 93.12 8.68154C93.1867 8.80154 93.2717 8.91321 93.375 9.01654C93.4817 9.11654 93.6117 9.20154 93.765 9.27154C93.9217 9.33821 94.1133 9.37154 94.34 9.37154C94.57 9.37154 94.77 9.33488 94.94 9.26154C95.1133 9.18488 95.2567 9.08821 95.37 8.97154C95.4867 8.85154 95.5733 8.71821 95.63 8.57154C95.6867 8.42488 95.715 8.27988 95.715 8.13654C95.715 7.95654 95.6933 7.79154 95.65 7.64154C95.6067 7.48821 95.5217 7.35821 95.395 7.25154C95.2717 7.14488 95.095 7.06154 94.865 7.00154C94.6383 6.93821 94.34 6.90654 93.97 6.90654V6.13154C94.2733 6.12821 94.5283 6.09821 94.735 6.04154C94.945 5.98154 95.1117 5.90154 95.235 5.80154C95.3617 5.69821 95.4517 5.57488 95.505 5.43154C95.5617 5.28821 95.59 5.13154 95.59 4.96154C95.59 4.77821 95.5617 4.61654 95.505 4.47654C95.4483 4.33654 95.3683 4.21988 95.265 4.12654C95.165 4.02988 95.045 3.95821 94.905 3.91154C94.765 3.86488 94.61 3.84154 94.44 3.84154C94.2767 3.84154 94.125 3.86488 93.985 3.91154C93.8483 3.95821 93.725 4.02321 93.615 4.10654C93.5083 4.18988 93.4183 4.28988 93.345 4.40654C93.2717 4.51988 93.2183 4.64488 93.185 4.78154C93.1383 4.91821 93.075 5.00988 92.995 5.05654C92.9183 5.10321 92.805 5.11321 92.655 5.08654L92.09 4.98654Z" fill="#003366"/>
<line x1="92" y1="19.2065" x2="92" y2="39.2065" stroke="#003366"/>
<g opacity="0.4">
<line opacity="0.65" x1="100" y1="23.2065" x2="100" y2="39.2065" stroke="black"/>
<line opacity="0.65" x1="104" y1="23.2065" x2="104" y2="39.2065" stroke="black"/>
<line opacity="0.65" x1="108" y1="23.2065" x2="108" y2="39.2065" stroke="black"/>
<line opacity="0.65" x1="112" y1="23.2065" x2="112" y2="39.2065" stroke="black"/>
</g>
<path opacity="0.6" d="M119.224 6.60654C119.224 7.23654 119.156 7.78154 119.019 8.24154C118.886 8.70154 118.701 9.08321 118.464 9.38654C118.228 9.68988 117.949 9.91488 117.629 10.0615C117.309 10.2082 116.964 10.2815 116.594 10.2815C116.224 10.2815 115.879 10.2082 115.559 10.0615C115.239 9.91488 114.961 9.68988 114.724 9.38654C114.491 9.08321 114.308 8.70154 114.174 8.24154C114.041 7.78154 113.974 7.23654 113.974 6.60654C113.974 5.97654 114.041 5.43154 114.174 4.97154C114.308 4.50821 114.491 4.12654 114.724 3.82654C114.961 3.52321 115.239 3.29821 115.559 3.15154C115.879 3.00154 116.224 2.92654 116.594 2.92654C116.964 2.92654 117.309 3.00154 117.629 3.15154C117.949 3.29821 118.228 3.52321 118.464 3.82654C118.701 4.12654 118.886 4.50821 119.019 4.97154C119.156 5.43154 119.224 5.97654 119.224 6.60654ZM118.114 6.60654C118.114 6.07321 118.071 5.62988 117.984 5.27654C117.901 4.91988 117.789 4.63488 117.649 4.42154C117.509 4.20821 117.348 4.05654 117.164 3.96654C116.981 3.87654 116.791 3.83154 116.594 3.83154C116.394 3.83154 116.203 3.87654 116.019 3.96654C115.839 4.05654 115.679 4.20821 115.539 4.42154C115.399 4.63488 115.288 4.91988 115.204 5.27654C115.121 5.62988 115.079 6.07321 115.079 6.60654C115.079 7.13988 115.121 7.58488 115.204 7.94154C115.288 8.29488 115.399 8.57821 115.539 8.79154C115.679 9.00488 115.839 9.15654 116.019 9.24654C116.203 9.33654 116.394 9.38154 116.594 9.38154C116.791 9.38154 116.981 9.33654 117.164 9.24654C117.348 9.15654 117.509 9.00488 117.649 8.79154C117.789 8.57821 117.901 8.29488 117.984 7.94154C118.071 7.58488 118.114 7.13988 118.114 6.60654ZM123.105 7.54654V4.91654C123.105 4.70654 123.12 4.47654 123.15 4.22654L120.73 7.54654H123.105ZM125.035 7.54654V8.16654C125.035 8.22654 125.015 8.27821 124.975 8.32154C124.938 8.36488 124.882 8.38654 124.805 8.38654H124.04V10.2065H123.105V8.38654H119.99C119.913 8.38654 119.847 8.36488 119.79 8.32154C119.737 8.27488 119.702 8.21821 119.685 8.15154L119.575 7.60154L123.03 3.00154H124.04V7.54654H125.035Z" fill="black"/>
<line opacity="0.4" x1="120" y1="19.2065" x2="120" y2="39.2065" stroke="black"/>
<g opacity="0.4">
<line opacity="0.65" x1="128" y1="23.2065" x2="128" y2="39.2065" stroke="black"/>
<line opacity="0.65" x1="132" y1="23.2065" x2="132" y2="39.2065" stroke="black"/>
<line opacity="0.65" x1="136" y1="23.2065" x2="136" y2="39.2065" stroke="black"/>
<line opacity="0.65" x1="140" y1="23.2065" x2="140" y2="39.2065" stroke="black"/>
</g>
<path opacity="0.6" d="M147.224 6.60654C147.224 7.23654 147.156 7.78154 147.019 8.24154C146.886 8.70154 146.701 9.08321 146.464 9.38654C146.228 9.68988 145.949 9.91488 145.629 10.0615C145.309 10.2082 144.964 10.2815 144.594 10.2815C144.224 10.2815 143.879 10.2082 143.559 10.0615C143.239 9.91488 142.961 9.68988 142.724 9.38654C142.491 9.08321 142.308 8.70154 142.174 8.24154C142.041 7.78154 141.974 7.23654 141.974 6.60654C141.974 5.97654 142.041 5.43154 142.174 4.97154C142.308 4.50821 142.491 4.12654 142.724 3.82654C142.961 3.52321 143.239 3.29821 143.559 3.15154C143.879 3.00154 144.224 2.92654 144.594 2.92654C144.964 2.92654 145.309 3.00154 145.629 3.15154C145.949 3.29821 146.228 3.52321 146.464 3.82654C146.701 4.12654 146.886 4.50821 147.019 4.97154C147.156 5.43154 147.224 5.97654 147.224 6.60654ZM146.114 6.60654C146.114 6.07321 146.071 5.62988 145.984 5.27654C145.901 4.91988 145.789 4.63488 145.649 4.42154C145.509 4.20821 145.348 4.05654 145.164 3.96654C144.981 3.87654 144.791 3.83154 144.594 3.83154C144.394 3.83154 144.203 3.87654 144.019 3.96654C143.839 4.05654 143.679 4.20821 143.539 4.42154C143.399 4.63488 143.288 4.91988 143.204 5.27654C143.121 5.62988 143.079 6.07321 143.079 6.60654C143.079 7.13988 143.121 7.58488 143.204 7.94154C143.288 8.29488 143.399 8.57821 143.539 8.79154C143.679 9.00488 143.839 9.15654 144.019 9.24654C144.203 9.33654 144.394 9.38154 144.594 9.38154C144.791 9.38154 144.981 9.33654 145.164 9.24654C145.348 9.15654 145.509 9.00488 145.649 8.79154C145.789 8.57821 145.901 8.29488 145.984 7.94154C146.071 7.58488 146.114 7.13988 146.114 6.60654ZM149.425 5.66654C149.598 5.62988 149.763 5.60321 149.92 5.58654C150.08 5.56988 150.233 5.56154 150.38 5.56154C150.757 5.56154 151.088 5.61821 151.375 5.73154C151.665 5.84154 151.907 5.99488 152.1 6.19154C152.297 6.38821 152.443 6.61988 152.54 6.88654C152.64 7.14988 152.69 7.43654 152.69 7.74654C152.69 8.12988 152.623 8.47821 152.49 8.79154C152.357 9.10488 152.172 9.37321 151.935 9.59654C151.698 9.81654 151.418 9.98654 151.095 10.1065C150.775 10.2265 150.428 10.2865 150.055 10.2865C149.835 10.2865 149.625 10.2649 149.425 10.2215C149.228 10.1782 149.043 10.1199 148.87 10.0465C148.697 9.96988 148.537 9.88321 148.39 9.78654C148.243 9.68654 148.112 9.58321 147.995 9.47654L148.325 9.01654C148.395 8.91654 148.488 8.86654 148.605 8.86654C148.678 8.86654 148.758 8.89321 148.845 8.94654C148.932 8.99988 149.032 9.05821 149.145 9.12154C149.262 9.18154 149.398 9.23821 149.555 9.29154C149.712 9.34488 149.898 9.37154 150.115 9.37154C150.352 9.37154 150.563 9.33321 150.75 9.25654C150.937 9.17988 151.093 9.07321 151.22 8.93654C151.35 8.79654 151.448 8.62988 151.515 8.43654C151.582 8.24321 151.615 8.03154 151.615 7.80154C151.615 7.59154 151.583 7.40321 151.52 7.23654C151.46 7.06988 151.368 6.92821 151.245 6.81154C151.125 6.69488 150.973 6.60654 150.79 6.54654C150.607 6.48321 150.395 6.45154 150.155 6.45154C149.978 6.45154 149.797 6.46654 149.61 6.49654C149.427 6.52654 149.24 6.57321 149.05 6.63654L148.38 6.44654L148.97 3.00654H152.455V3.47154C152.455 3.62488 152.407 3.74988 152.31 3.84654C152.213 3.94321 152.052 3.99154 151.825 3.99154H149.715L149.425 5.66654Z" fill="black"/>
<line opacity="0.4" x1="148" y1="19.2065" x2="148" y2="39.2065" stroke="black"/>
<g opacity="0.4">
<line opacity="0.65" x1="156" y1="23.2065" x2="156" y2="39.2065" stroke="black"/>
<line opacity="0.65" x1="160" y1="23.2065" x2="160" y2="39.2065" stroke="black"/>
<line opacity="0.65" x1="164" y1="23.2065" x2="164" y2="39.2065" stroke="black"/>
<line opacity="0.65" x1="168" y1="23.2065" x2="168" y2="39.2065" stroke="black"/>
</g>
<path opacity="0.6" d="M175.224 6.60654C175.224 7.23654 175.156 7.78154 175.019 8.24154C174.886 8.70154 174.701 9.08321 174.464 9.38654C174.228 9.68988 173.949 9.91488 173.629 10.0615C173.309 10.2082 172.964 10.2815 172.594 10.2815C172.224 10.2815 171.879 10.2082 171.559 10.0615C171.239 9.91488 170.961 9.68988 170.724 9.38654C170.491 9.08321 170.308 8.70154 170.174 8.24154C170.041 7.78154 169.974 7.23654 169.974 6.60654C169.974 5.97654 170.041 5.43154 170.174 4.97154C170.308 4.50821 170.491 4.12654 170.724 3.82654C170.961 3.52321 171.239 3.29821 171.559 3.15154C171.879 3.00154 172.224 2.92654 172.594 2.92654C172.964 2.92654 173.309 3.00154 173.629 3.15154C173.949 3.29821 174.228 3.52321 174.464 3.82654C174.701 4.12654 174.886 4.50821 175.019 4.97154C175.156 5.43154 175.224 5.97654 175.224 6.60654ZM174.114 6.60654C174.114 6.07321 174.071 5.62988 173.984 5.27654C173.901 4.91988 173.789 4.63488 173.649 4.42154C173.509 4.20821 173.348 4.05654 173.164 3.96654C172.981 3.87654 172.791 3.83154 172.594 3.83154C172.394 3.83154 172.203 3.87654 172.019 3.96654C171.839 4.05654 171.679 4.20821 171.539 4.42154C171.399 4.63488 171.288 4.91988 171.204 5.27654C171.121 5.62988 171.079 6.07321 171.079 6.60654C171.079 7.13988 171.121 7.58488 171.204 7.94154C171.288 8.29488 171.399 8.57821 171.539 8.79154C171.679 9.00488 171.839 9.15654 172.019 9.24654C172.203 9.33654 172.394 9.38154 172.594 9.38154C172.791 9.38154 172.981 9.33654 173.164 9.24654C173.348 9.15654 173.509 9.00488 173.649 8.79154C173.789 8.57821 173.901 8.29488 173.984 7.94154C174.071 7.58488 174.114 7.13988 174.114 6.60654ZM178.39 9.39654C178.607 9.39654 178.805 9.36154 178.985 9.29154C179.165 9.21821 179.318 9.11821 179.445 8.99154C179.575 8.86488 179.675 8.71488 179.745 8.54154C179.815 8.36821 179.85 8.17988 179.85 7.97654C179.85 7.75654 179.815 7.55988 179.745 7.38654C179.678 7.20988 179.582 7.06154 179.455 6.94154C179.332 6.82154 179.182 6.72988 179.005 6.66654C178.832 6.59988 178.64 6.56654 178.43 6.56654C178.213 6.56654 178.017 6.60321 177.84 6.67654C177.667 6.74988 177.518 6.84988 177.395 6.97654C177.272 7.10321 177.177 7.25154 177.11 7.42154C177.043 7.59154 177.01 7.77154 177.01 7.96154C177.01 8.17488 177.04 8.36988 177.1 8.54654C177.16 8.72321 177.248 8.87488 177.365 9.00154C177.482 9.12488 177.625 9.22154 177.795 9.29154C177.968 9.36154 178.167 9.39654 178.39 9.39654ZM177.995 5.65654C177.942 5.72321 177.89 5.78654 177.84 5.84654C177.793 5.90654 177.747 5.96654 177.7 6.02654C177.853 5.93988 178.022 5.87154 178.205 5.82154C178.388 5.77154 178.585 5.74654 178.795 5.74654C179.075 5.74654 179.343 5.79321 179.6 5.88654C179.857 5.97654 180.082 6.11321 180.275 6.29654C180.472 6.47654 180.628 6.70154 180.745 6.97154C180.862 7.23821 180.92 7.54654 180.92 7.89654C180.92 8.22988 180.858 8.54154 180.735 8.83154C180.615 9.12154 180.445 9.37488 180.225 9.59154C180.005 9.80488 179.74 9.97488 179.43 10.1015C179.123 10.2249 178.783 10.2865 178.41 10.2865C178.037 10.2865 177.7 10.2265 177.4 10.1065C177.1 9.98654 176.843 9.81821 176.63 9.60154C176.42 9.38154 176.258 9.11821 176.145 8.81154C176.032 8.50488 175.975 8.16321 175.975 7.78654C175.975 7.45988 176.045 7.11821 176.185 6.76154C176.325 6.40488 176.542 6.02988 176.835 5.63654L178.605 3.26154C178.658 3.19154 178.735 3.13154 178.835 3.08154C178.938 3.03154 179.053 3.00654 179.18 3.00654H180.13L177.995 5.65654Z" fill="black"/>
<line opacity="0.4" x1="176" y1="19.2065" x2="176" y2="39.2065" stroke="black"/>
<g opacity="0.4">
<line opacity="0.65" x1="184" y1="23.2065" x2="184" y2="39.2065" stroke="black"/>
<line opacity="0.65" x1="188" y1="23.2065" x2="188" y2="39.2065" stroke="black"/>
<line opacity="0.65" x1="192" y1="23.2065" x2="192" y2="39.2065" stroke="black"/>
<line opacity="0.65" x1="196" y1="23.2065" x2="196" y2="39.2065" stroke="black"/>
</g>
<path opacity="0.6" d="M203.224 6.60654C203.224 7.23654 203.156 7.78154 203.019 8.24154C202.886 8.70154 202.701 9.08321 202.464 9.38654C202.228 9.68988 201.949 9.91488 201.629 10.0615C201.309 10.2082 200.964 10.2815 200.594 10.2815C200.224 10.2815 199.879 10.2082 199.559 10.0615C199.239 9.91488 198.961 9.68988 198.724 9.38654C198.491 9.08321 198.308 8.70154 198.174 8.24154C198.041 7.78154 197.974 7.23654 197.974 6.60654C197.974 5.97654 198.041 5.43154 198.174 4.97154C198.308 4.50821 198.491 4.12654 198.724 3.82654C198.961 3.52321 199.239 3.29821 199.559 3.15154C199.879 3.00154 200.224 2.92654 200.594 2.92654C200.964 2.92654 201.309 3.00154 201.629 3.15154C201.949 3.29821 202.228 3.52321 202.464 3.82654C202.701 4.12654 202.886 4.50821 203.019 4.97154C203.156 5.43154 203.224 5.97654 203.224 6.60654ZM202.114 6.60654C202.114 6.07321 202.071 5.62988 201.984 5.27654C201.901 4.91988 201.789 4.63488 201.649 4.42154C201.509 4.20821 201.348 4.05654 201.164 3.96654C200.981 3.87654 200.791 3.83154 200.594 3.83154C200.394 3.83154 200.203 3.87654 200.019 3.96654C199.839 4.05654 199.679 4.20821 199.539 4.42154C199.399 4.63488 199.288 4.91988 199.204 5.27654C199.121 5.62988 199.079 6.07321 199.079 6.60654C199.079 7.13988 199.121 7.58488 199.204 7.94154C199.288 8.29488 199.399 8.57821 199.539 8.79154C199.679 9.00488 199.839 9.15654 200.019 9.24654C200.203 9.33654 200.394 9.38154 200.594 9.38154C200.791 9.38154 200.981 9.33654 201.164 9.24654C201.348 9.15654 201.509 9.00488 201.649 8.79154C201.789 8.57821 201.901 8.29488 201.984 7.94154C202.071 7.58488 202.114 7.13988 202.114 6.60654ZM208.935 3.00654V3.48154C208.935 3.62154 208.92 3.73488 208.89 3.82154C208.86 3.90821 208.83 3.98154 208.8 4.04154L205.955 9.83154C205.905 9.93821 205.833 10.0282 205.74 10.1015C205.65 10.1715 205.53 10.2065 205.38 10.2065H204.605L207.505 4.51154C207.558 4.40821 207.612 4.31488 207.665 4.23154C207.718 4.14821 207.778 4.06821 207.845 3.99154H204.25C204.183 3.99154 204.125 3.96654 204.075 3.91654C204.025 3.86321 204 3.80321 204 3.73654V3.00654H208.935Z" fill="black"/>
<line opacity="0.4" x1="204" y1="19.2065" x2="204" y2="39.2065" stroke="black"/>
<g opacity="0.4">
<line opacity="0.65" x1="212" y1="23.2065" x2="212" y2="39.2065" stroke="black"/>
<line opacity="0.65" x1="216" y1="23.2065" x2="216" y2="39.2065" stroke="black"/>
<line opacity="0.65" x1="220" y1="23.2065" x2="220" y2="39.2065" stroke="black"/>
<line opacity="0.65" x1="224" y1="23.2065" x2="224" y2="39.2065" stroke="black"/>
</g>
<path opacity="0.6" d="M231.224 6.60654C231.224 7.23654 231.156 7.78154 231.019 8.24154C230.886 8.70154 230.701 9.08321 230.464 9.38654C230.228 9.68988 229.949 9.91488 229.629 10.0615C229.309 10.2082 228.964 10.2815 228.594 10.2815C228.224 10.2815 227.879 10.2082 227.559 10.0615C227.239 9.91488 226.961 9.68988 226.724 9.38654C226.491 9.08321 226.308 8.70154 226.174 8.24154C226.041 7.78154 225.974 7.23654 225.974 6.60654C225.974 5.97654 226.041 5.43154 226.174 4.97154C226.308 4.50821 226.491 4.12654 226.724 3.82654C226.961 3.52321 227.239 3.29821 227.559 3.15154C227.879 3.00154 228.224 2.92654 228.594 2.92654C228.964 2.92654 229.309 3.00154 229.629 3.15154C229.949 3.29821 230.228 3.52321 230.464 3.82654C230.701 4.12654 230.886 4.50821 231.019 4.97154C231.156 5.43154 231.224 5.97654 231.224 6.60654ZM230.114 6.60654C230.114 6.07321 230.071 5.62988 229.984 5.27654C229.901 4.91988 229.789 4.63488 229.649 4.42154C229.509 4.20821 229.348 4.05654 229.164 3.96654C228.981 3.87654 228.791 3.83154 228.594 3.83154C228.394 3.83154 228.203 3.87654 228.019 3.96654C227.839 4.05654 227.679 4.20821 227.539 4.42154C227.399 4.63488 227.288 4.91988 227.204 5.27654C227.121 5.62988 227.079 6.07321 227.079 6.60654C227.079 7.13988 227.121 7.58488 227.204 7.94154C227.288 8.29488 227.399 8.57821 227.539 8.79154C227.679 9.00488 227.839 9.15654 228.019 9.24654C228.203 9.33654 228.394 9.38154 228.594 9.38154C228.791 9.38154 228.981 9.33654 229.164 9.24654C229.348 9.15654 229.509 9.00488 229.649 8.79154C229.789 8.57821 229.901 8.29488 229.984 7.94154C230.071 7.58488 230.114 7.13988 230.114 6.60654ZM234.4 9.43654C234.617 9.43654 234.81 9.40654 234.98 9.34654C235.15 9.28321 235.292 9.19654 235.405 9.08654C235.522 8.97321 235.61 8.83988 235.67 8.68654C235.73 8.53321 235.76 8.36654 235.76 8.18654C235.76 7.96654 235.725 7.77654 235.655 7.61654C235.588 7.45654 235.493 7.32488 235.37 7.22154C235.25 7.11488 235.107 7.03654 234.94 6.98654C234.773 6.93321 234.593 6.90654 234.4 6.90654C234.207 6.90654 234.027 6.93321 233.86 6.98654C233.693 7.03654 233.548 7.11488 233.425 7.22154C233.305 7.32488 233.21 7.45654 233.14 7.61654C233.073 7.77654 233.04 7.96654 233.04 8.18654C233.04 8.36654 233.07 8.53321 233.13 8.68654C233.19 8.83988 233.277 8.97321 233.39 9.08654C233.507 9.19654 233.65 9.28321 233.82 9.34654C233.99 9.40654 234.183 9.43654 234.4 9.43654ZM234.4 3.75154C234.203 3.75154 234.03 3.78154 233.88 3.84154C233.733 3.90154 233.612 3.98154 233.515 4.08154C233.418 4.18154 233.345 4.29988 233.295 4.43654C233.248 4.56988 233.225 4.71154 233.225 4.86154C233.225 5.01154 233.245 5.15821 233.285 5.30154C233.328 5.44488 233.395 5.57321 233.485 5.68654C233.578 5.79654 233.7 5.88488 233.85 5.95154C234 6.01821 234.183 6.05154 234.4 6.05154C234.617 6.05154 234.8 6.01821 234.95 5.95154C235.1 5.88488 235.22 5.79654 235.31 5.68654C235.403 5.57321 235.47 5.44488 235.51 5.30154C235.553 5.15821 235.575 5.01154 235.575 4.86154C235.575 4.71154 235.55 4.56988 235.5 4.43654C235.453 4.29988 235.38 4.18154 235.28 4.08154C235.183 3.98154 235.062 3.90154 234.915 3.84154C234.768 3.78154 234.597 3.75154 234.4 3.75154ZM235.535 6.45154C235.978 6.58821 236.31 6.80488 236.53 7.10154C236.753 7.39821 236.865 7.76654 236.865 8.20654C236.865 8.52321 236.805 8.80988 236.685 9.06654C236.565 9.32321 236.397 9.54154 236.18 9.72154C235.963 9.90154 235.703 10.0415 235.4 10.1415C235.1 10.2382 234.767 10.2865 234.4 10.2865C234.033 10.2865 233.698 10.2382 233.395 10.1415C233.095 10.0415 232.837 9.90154 232.62 9.72154C232.403 9.54154 232.235 9.32321 232.115 9.06654C231.995 8.80988 231.935 8.52321 231.935 8.20654C231.935 7.76654 232.045 7.39821 232.265 7.10154C232.488 6.80488 232.822 6.58821 233.265 6.45154C232.905 6.30821 232.633 6.09988 232.45 5.82654C232.27 5.55321 232.18 5.22488 232.18 4.84154C232.18 4.57154 232.233 4.31988 232.34 4.08654C232.447 3.85321 232.597 3.65154 232.79 3.48154C232.987 3.30821 233.222 3.17321 233.495 3.07654C233.768 2.97654 234.07 2.92654 234.4 2.92654C234.73 2.92654 235.03 2.97654 235.3 3.07654C235.573 3.17321 235.807 3.30821 236 3.48154C236.197 3.65154 236.348 3.85321 236.455 4.08654C236.565 4.31988 236.62 4.57154 236.62 4.84154C236.62 5.22488 236.528 5.55321 236.345 5.82654C236.165 6.09988 235.895 6.30821 235.535 6.45154Z" fill="black"/>
<line opacity="0.4" x1="232" y1="19.2065" x2="232" y2="39.2065" stroke="black"/>
<g opacity="0.4">
<line opacity="0.65" x1="240" y1="23.2065" x2="240" y2="39.2065" stroke="black"/>
<line opacity="0.65" x1="244" y1="23.2065" x2="244" y2="39.2065" stroke="black"/>
<line opacity="0.65" x1="248" y1="23.2065" x2="248" y2="39.2065" stroke="black"/>
<line opacity="0.65" x1="252" y1="23.2065" x2="252" y2="39.2065" stroke="black"/>
</g>
<path d="M259.224 6.60654C259.224 7.23654 259.156 7.78154 259.019 8.24154C258.886 8.70154 258.701 9.08321 258.464 9.38654C258.228 9.68988 257.949 9.91488 257.629 10.0615C257.309 10.2082 256.964 10.2815 256.594 10.2815C256.224 10.2815 255.879 10.2082 255.559 10.0615C255.239 9.91488 254.961 9.68988 254.724 9.38654C254.491 9.08321 254.308 8.70154 254.174 8.24154C254.041 7.78154 253.974 7.23654 253.974 6.60654C253.974 5.97654 254.041 5.43154 254.174 4.97154C254.308 4.50821 254.491 4.12654 254.724 3.82654C254.961 3.52321 255.239 3.29821 255.559 3.15154C255.879 3.00154 256.224 2.92654 256.594 2.92654C256.964 2.92654 257.309 3.00154 257.629 3.15154C257.949 3.29821 258.228 3.52321 258.464 3.82654C258.701 4.12654 258.886 4.50821 259.019 4.97154C259.156 5.43154 259.224 5.97654 259.224 6.60654ZM258.114 6.60654C258.114 6.07321 258.071 5.62988 257.984 5.27654C257.901 4.91988 257.789 4.63488 257.649 4.42154C257.509 4.20821 257.348 4.05654 257.164 3.96654C256.981 3.87654 256.791 3.83154 256.594 3.83154C256.394 3.83154 256.203 3.87654 256.019 3.96654C255.839 4.05654 255.679 4.20821 255.539 4.42154C255.399 4.63488 255.288 4.91988 255.204 5.27654C255.121 5.62988 255.079 6.07321 255.079 6.60654C255.079 7.13988 255.121 7.58488 255.204 7.94154C255.288 8.29488 255.399 8.57821 255.539 8.79154C255.679 9.00488 255.839 9.15654 256.019 9.24654C256.203 9.33654 256.394 9.38154 256.594 9.38154C256.791 9.38154 256.981 9.33654 257.164 9.24654C257.348 9.15654 257.509 9.00488 257.649 8.79154C257.789 8.57821 257.901 8.29488 257.984 7.94154C258.071 7.58488 258.114 7.13988 258.114 6.60654ZM261.04 5.14654C261.04 5.57321 261.153 5.90154 261.38 6.13154C261.61 6.35821 261.93 6.47154 262.34 6.47154C262.56 6.47154 262.753 6.43654 262.92 6.36654C263.09 6.29654 263.233 6.20321 263.35 6.08654C263.467 5.96654 263.555 5.82821 263.615 5.67154C263.675 5.51154 263.705 5.34154 263.705 5.16154C263.705 4.95154 263.672 4.76488 263.605 4.60154C263.542 4.43488 263.45 4.29321 263.33 4.17654C263.213 4.05988 263.073 3.97154 262.91 3.91154C262.747 3.84821 262.568 3.81654 262.375 3.81654C262.172 3.81654 261.988 3.84988 261.825 3.91654C261.662 3.98321 261.522 4.07654 261.405 4.19654C261.288 4.31321 261.198 4.45321 261.135 4.61654C261.072 4.77654 261.04 4.95321 261.04 5.14654ZM262.885 7.38154C262.952 7.29821 263.013 7.21988 263.07 7.14654C263.127 7.06988 263.18 6.99321 263.23 6.91654C263.057 7.03988 262.863 7.13488 262.65 7.20154C262.437 7.26488 262.21 7.29654 261.97 7.29654C261.71 7.29654 261.46 7.25321 261.22 7.16654C260.98 7.07654 260.767 6.94488 260.58 6.77154C260.393 6.59488 260.243 6.37821 260.13 6.12154C260.02 5.86154 259.965 5.56321 259.965 5.22654C259.965 4.90988 260.023 4.61154 260.14 4.33154C260.26 4.05154 260.427 3.80821 260.64 3.60154C260.853 3.39154 261.108 3.22654 261.405 3.10654C261.702 2.98654 262.03 2.92654 262.39 2.92654C262.747 2.92654 263.07 2.98488 263.36 3.10154C263.65 3.21488 263.897 3.37654 264.1 3.58654C264.303 3.79321 264.46 4.04154 264.57 4.33154C264.68 4.61821 264.735 4.93488 264.735 5.28154C264.735 5.49821 264.715 5.70321 264.675 5.89654C264.638 6.08988 264.583 6.27821 264.51 6.46154C264.44 6.64154 264.353 6.81988 264.25 6.99654C264.15 7.16988 264.037 7.34654 263.91 7.52654L262.215 9.95654C262.165 10.0299 262.09 10.0899 261.99 10.1365C261.893 10.1832 261.783 10.2065 261.66 10.2065H260.675L262.885 7.38154Z" fill="#003366"/>
<line x1="260" y1="19.2065" x2="260" y2="39.2065" stroke="#003366"/>
<g opacity="0.4">
<line opacity="0.65" x1="268" y1="23.2065" x2="268" y2="39.2065" stroke="black"/>
<line opacity="0.65" x1="272" y1="23.2065" x2="272" y2="39.2065" stroke="black"/>
<line opacity="0.65" x1="276" y1="23.2065" x2="276" y2="39.2065" stroke="black"/>
<line opacity="0.65" x1="280" y1="23.2065" x2="280" y2="39.2065" stroke="black"/>
</g>
<path opacity="0.6" d="M286.834 9.39154V10.2065H282.909V9.39154H284.409V4.88154C284.409 4.72154 284.414 4.55821 284.424 4.39154L283.269 5.36654C283.219 5.40654 283.168 5.43321 283.114 5.44654C283.064 5.45654 283.016 5.45654 282.969 5.44654C282.926 5.43654 282.886 5.42154 282.849 5.40154C282.816 5.37821 282.789 5.35321 282.769 5.32654L282.434 4.85654L284.604 2.99154H285.479V9.39154H286.834ZM293.025 6.60654C293.025 7.23654 292.957 7.78154 292.82 8.24154C292.687 8.70154 292.502 9.08321 292.265 9.38654C292.028 9.68988 291.75 9.91488 291.43 10.0615C291.11 10.2082 290.765 10.2815 290.395 10.2815C290.025 10.2815 289.68 10.2082 289.36 10.0615C289.04 9.91488 288.762 9.68988 288.525 9.38654C288.292 9.08321 288.108 8.70154 287.975 8.24154C287.842 7.78154 287.775 7.23654 287.775 6.60654C287.775 5.97654 287.842 5.43154 287.975 4.97154C288.108 4.50821 288.292 4.12654 288.525 3.82654C288.762 3.52321 289.04 3.29821 289.36 3.15154C289.68 3.00154 290.025 2.92654 290.395 2.92654C290.765 2.92654 291.11 3.00154 291.43 3.15154C291.75 3.29821 292.028 3.52321 292.265 3.82654C292.502 4.12654 292.687 4.50821 292.82 4.97154C292.957 5.43154 293.025 5.97654 293.025 6.60654ZM291.915 6.60654C291.915 6.07321 291.872 5.62988 291.785 5.27654C291.702 4.91988 291.59 4.63488 291.45 4.42154C291.31 4.20821 291.148 4.05654 290.965 3.96654C290.782 3.87654 290.592 3.83154 290.395 3.83154C290.195 3.83154 290.003 3.87654 289.82 3.96654C289.64 4.05654 289.48 4.20821 289.34 4.42154C289.2 4.63488 289.088 4.91988 289.005 5.27654C288.922 5.62988 288.88 6.07321 288.88 6.60654C288.88 7.13988 288.922 7.58488 289.005 7.94154C289.088 8.29488 289.2 8.57821 289.34 8.79154C289.48 9.00488 289.64 9.15654 289.82 9.24654C290.003 9.33654 290.195 9.38154 290.395 9.38154C290.592 9.38154 290.782 9.33654 290.965 9.24654C291.148 9.15654 291.31 9.00488 291.45 8.79154C291.59 8.57821 291.702 8.29488 291.785 7.94154C291.872 7.58488 291.915 7.13988 291.915 6.60654Z" fill="black"/>
<line opacity="0.4" x1="288" y1="19.2065" x2="288" y2="39.2065" stroke="black"/>
<g opacity="0.4">
<line opacity="0.65" x1="296" y1="23.2065" x2="296" y2="39.2065" stroke="black"/>
<line opacity="0.65" x1="300" y1="23.2065" x2="300" y2="39.2065" stroke="black"/>
<line opacity="0.65" x1="304" y1="23.2065" x2="304" y2="39.2065" stroke="black"/>
<line opacity="0.65" x1="308" y1="23.2065" x2="308" y2="39.2065" stroke="black"/>
</g>
<path opacity="0.6" d="M314.834 9.39154V10.2065H310.909V9.39154H312.409V4.88154C312.409 4.72154 312.414 4.55821 312.424 4.39154L311.269 5.36654C311.219 5.40654 311.168 5.43321 311.114 5.44654C311.064 5.45654 311.016 5.45654 310.969 5.44654C310.926 5.43654 310.886 5.42154 310.849 5.40154C310.816 5.37821 310.789 5.35321 310.769 5.32654L310.434 4.85654L312.604 2.99154H313.479V9.39154H314.834ZM320.635 9.39154V10.2065H316.71V9.39154H318.21V4.88154C318.21 4.72154 318.215 4.55821 318.225 4.39154L317.07 5.36654C317.02 5.40654 316.968 5.43321 316.915 5.44654C316.865 5.45654 316.817 5.45654 316.77 5.44654C316.727 5.43654 316.687 5.42154 316.65 5.40154C316.617 5.37821 316.59 5.35321 316.57 5.32654L316.235 4.85654L318.405 2.99154H319.28V9.39154H320.635Z" fill="black"/>
<line opacity="0.4" x1="316" y1="19.2065" x2="316" y2="39.2065" stroke="black"/>
</svg>
