<svg width="458" height="459" viewBox="0 0 458 459" fill="none" xmlns="http://www.w3.org/2000/svg">
<ellipse opacity="0.05" cx="229" cy="229.5" rx="229" ry="229.5" fill="url(#paint0_linear_48_2175)"/>
<ellipse opacity="0.05" cx="229" cy="229.5" rx="192" ry="191.5" fill="url(#paint1_linear_48_2175)"/>
<ellipse opacity="0.05" cx="229.5" cy="229.5" rx="147.5" ry="148.5" fill="url(#paint2_linear_48_2175)"/>
<ellipse opacity="0.05" cx="229.5" cy="229.5" rx="96.5" ry="95.5" fill="url(#paint3_linear_48_2175)"/>
<path d="M270.545 207.773C270.545 239.485 229.773 266.667 229.773 266.667C229.773 266.667 189 239.485 189 207.773C189 196.959 193.296 186.588 200.942 178.942C208.588 171.296 218.959 167 229.773 167C240.586 167 250.957 171.296 258.603 178.942C266.25 186.588 270.545 196.959 270.545 207.773Z" fill="#003366"/>
<path d="M229.773 221.364C237.279 221.364 243.363 215.279 243.363 207.773C243.363 200.267 237.279 194.182 229.773 194.182C222.266 194.182 216.182 200.267 216.182 207.773C216.182 215.279 222.266 221.364 229.773 221.364Z" fill="white"/>
<defs>
<linearGradient id="paint0_linear_48_2175" x1="229" y1="0" x2="229" y2="459" gradientUnits="userSpaceOnUse">
<stop stop-color="#003366" stop-opacity="0.6"/>
<stop offset="0.784" stop-color="#003366" stop-opacity="0"/>
<stop offset="0.899" stop-color="#003366" stop-opacity="0"/>
</linearGradient>
<linearGradient id="paint1_linear_48_2175" x1="229" y1="38" x2="229" y2="421" gradientUnits="userSpaceOnUse">
<stop stop-color="#003366" stop-opacity="0.6"/>
<stop offset="0.784" stop-color="#003366" stop-opacity="0"/>
<stop offset="0.899" stop-color="#003366" stop-opacity="0"/>
</linearGradient>
<linearGradient id="paint2_linear_48_2175" x1="229.5" y1="81" x2="229.5" y2="378" gradientUnits="userSpaceOnUse">
<stop stop-color="#003366" stop-opacity="0.6"/>
<stop offset="0.784" stop-color="#003366" stop-opacity="0"/>
<stop offset="0.899" stop-color="#003366" stop-opacity="0"/>
</linearGradient>
<linearGradient id="paint3_linear_48_2175" x1="229.5" y1="134" x2="229.5" y2="325" gradientUnits="userSpaceOnUse">
<stop stop-color="#003366" stop-opacity="0.6"/>
<stop offset="0.784" stop-color="#003366" stop-opacity="0"/>
<stop offset="0.899" stop-color="#003366" stop-opacity="0"/>
</linearGradient>
</defs>
</svg>
