<svg width="150" height="150" viewBox="0 0 150 150" fill="none" xmlns="http://www.w3.org/2000/svg">
<g opacity="0.1">
<ellipse cx="133.516" cy="132.424" rx="2.01686" ry="2.0202" fill="#E03A3E"/>
<ellipse cx="137.55" cy="92.0202" rx="2.01685" ry="2.0202" fill="#E03A3E"/>
<ellipse cx="0.806742" cy="63.333" rx="0.806742" ry="0.808081" fill="#E03A3E"/>
<ellipse cx="143.949" cy="24.9493" rx="6.05057" ry="6.06061" fill="#E03A3E"/>
<ellipse cx="85.918" cy="6.36346" rx="2.01686" ry="2.0202" fill="#E03A3E"/>
<ellipse cx="16.1348" cy="10.8079" rx="8.06742" ry="8.08081" fill="#E03A3E"/>
<ellipse cx="50.4212" cy="145.353" rx="2.8236" ry="2.82829" fill="#E03A3E"/>
<ellipse cx="98.4225" cy="140.909" rx="0.806744" ry="0.808075" fill="#E03A3E"/>
<ellipse cx="8.0674" cy="110.202" rx="4.03371" ry="4.0404" fill="#E03A3E"/>
</g>
<ellipse opacity="0.1" cx="77.0171" cy="76.2622" rx="56.8753" ry="56.9697" fill="#E03A3E"/>
<path d="M83.8299 66.1738C84.9332 66.1738 85.8286 65.2784 85.8286 64.1751V61.5102C85.8286 57.4675 82.5428 54.1816 78.5001 54.1816H62.5105C58.4678 54.1816 55.1819 57.4675 55.1819 61.5102V93.4894C55.1819 97.5321 58.4678 100.818 62.5105 100.818H78.5001C82.5428 100.818 85.8286 97.5321 85.8286 93.4894V90.8245C85.8286 89.7212 84.9332 88.8258 83.8299 88.8258C82.7267 88.8258 81.8312 89.7212 81.8312 90.8245V93.4894C81.8312 95.3256 80.3362 96.8206 78.5001 96.8206H62.5105C60.6743 96.8206 59.1793 95.3256 59.1793 93.4894V61.5102C59.1793 59.6741 60.6743 58.179 62.5105 58.179H78.5001C80.3362 58.179 81.8312 59.6741 81.8312 61.5102V64.1751C81.8312 65.2784 82.7267 66.1738 83.8299 66.1738Z" fill="#E03A3E"/>
<path d="M101.231 76.0877L93.2361 68.0929C92.4553 67.3121 91.1894 67.3121 90.4086 68.0929C89.6278 68.8738 89.6278 70.1396 90.4086 70.9204L94.9923 75.5041H67.8393C66.736 75.5041 65.8406 76.3995 65.8406 77.5028C65.8406 78.6061 66.736 79.5015 67.8393 79.5015H94.9923L90.4086 84.0852C89.6278 84.866 89.6278 86.1319 90.4086 86.9127C90.7977 87.3018 91.3094 87.499 91.821 87.499C92.3327 87.499 92.8444 87.3045 93.2334 86.9127L101.228 78.9179C102.009 78.1371 102.009 76.8712 101.228 76.0904L101.231 76.0877Z" fill="#E03A3E"/>
</svg>
