<svg width="150" height="147" viewBox="0 0 150 147" fill="none" xmlns="http://www.w3.org/2000/svg">
<g opacity="0.1">
<ellipse cx="133.516" cy="130.424" rx="2.01686" ry="2.0202" fill="#003366"/>
<ellipse cx="137.549" cy="90.0202" rx="2.01685" ry="2.0202" fill="#003366"/>
<ellipse cx="0.806742" cy="61.3334" rx="0.806742" ry="0.808081" fill="#003366"/>
<ellipse cx="143.949" cy="22.9495" rx="6.05057" ry="6.06061" fill="#003366"/>
<ellipse cx="85.918" cy="4.36371" rx="2.01686" ry="2.0202" fill="#003366"/>
<ellipse cx="16.1348" cy="8.8081" rx="8.06742" ry="8.08081" fill="#003366"/>
<ellipse cx="50.4214" cy="143.354" rx="2.8236" ry="2.82829" fill="#003366"/>
<ellipse cx="98.4225" cy="138.909" rx="0.806744" ry="0.808075" fill="#003366"/>
<ellipse cx="8.0674" cy="108.202" rx="4.03371" ry="4.0404" fill="#003366"/>
</g>
<ellipse opacity="0.1" cx="77.017" cy="74.2627" rx="56.8753" ry="56.9697" fill="#003366"/>
<path d="M101.58 54.12H51.42C49.5344 54.12 48 55.6544 48 57.54V89.46C48 91.3456 49.5344 92.88 51.42 92.88H101.58C103.466 92.88 105 91.3456 105 89.46V57.54C105 55.6544 103.466 54.12 101.58 54.12ZM102.72 89.46C102.72 90.087 102.207 90.6 101.58 90.6H51.42C50.7908 90.6 50.28 90.087 50.28 89.46V57.54C50.28 56.9107 50.7908 56.4 51.42 56.4H101.58C102.207 56.4 102.72 56.9107 102.72 57.54V89.46Z" fill="#003366"/>
<path d="M103.86 64.38H49.14V68.94H103.86V64.38Z" fill="#003366"/>
<path d="M103.86 63.24H49.14C48.5108 63.24 48 63.7507 48 64.38V68.94C48 69.5693 48.5108 70.08 49.14 70.08H103.86C104.489 70.08 105 69.5693 105 68.94V64.38C105 63.7507 104.489 63.24 103.86 63.24ZM102.72 67.8H50.28V65.52H102.72V67.8Z" fill="#003366"/>
<path d="M78.78 76.92H58.26C57.6308 76.92 57.12 77.4308 57.12 78.06C57.12 78.6893 57.6308 79.2 58.26 79.2H78.78C79.4092 79.2 79.92 78.6893 79.92 78.06C79.92 77.4307 79.4092 76.92 78.78 76.92Z" fill="#003366"/>
<path d="M69.66 81.48H58.26C57.6308 81.48 57.12 81.9908 57.12 82.62C57.12 83.2492 57.6308 83.76 58.26 83.76H69.66C70.2892 83.76 70.8 83.2492 70.8 82.62C70.8 81.9908 70.2892 81.48 69.66 81.48Z" fill="#003366"/>
</svg>
