<svg width="150" height="147" viewBox="0 0 150 147" fill="none" xmlns="http://www.w3.org/2000/svg">
<g opacity="0.1">
<ellipse cx="133.516" cy="130.424" rx="2.01686" ry="2.0202" fill="#003366"/>
<ellipse cx="137.55" cy="90.0202" rx="2.01685" ry="2.0202" fill="#003366"/>
<ellipse cx="0.806742" cy="61.3334" rx="0.806742" ry="0.808081" fill="#003366"/>
<ellipse cx="143.949" cy="22.9495" rx="6.05057" ry="6.06061" fill="#003366"/>
<ellipse cx="85.918" cy="4.36371" rx="2.01686" ry="2.0202" fill="#003366"/>
<ellipse cx="16.1348" cy="8.8081" rx="8.06742" ry="8.08081" fill="#003366"/>
<ellipse cx="50.4212" cy="143.354" rx="2.8236" ry="2.82829" fill="#003366"/>
<ellipse cx="98.4225" cy="138.909" rx="0.806744" ry="0.808075" fill="#003366"/>
<ellipse cx="8.0674" cy="108.202" rx="4.03371" ry="4.0404" fill="#003366"/>
</g>
<ellipse opacity="0.1" cx="77.0171" cy="74.2627" rx="56.8753" ry="56.9697" fill="#003366"/>
<g clip-path="url(#clip0_48_2039)">
<path d="M104.195 55.8069C103.385 54.4035 102.074 53.4083 100.505 53.005C98.9351 52.6015 97.307 52.8417 95.9205 53.6808L85.5107 59.9799L73.1165 51.8347L62.8263 57.6993L72.4498 67.8834L63.3301 73.4021L57.7704 70.8891L49.5366 75.6429L59.8978 82.7117L67.3436 83.0499L101.899 64.0365C103.319 63.2551 104.341 61.9652 104.777 60.4042C105.212 58.8432 105.006 57.2104 104.195 55.8069ZM101.56 59.5067C101.368 60.196 100.916 60.7656 100.289 61.1105L66.5566 79.671L60.9965 79.4184L55.8078 75.8785L57.9563 74.6381L63.5557 77.1691L77.7198 68.5978L68.1737 58.4956L72.9923 55.7493L85.4374 63.9277L97.6495 56.5378C98.2618 56.1674 98.9807 56.0615 99.6737 56.2394C100.367 56.4175 100.945 56.8568 101.303 57.4766C101.661 58.0965 101.752 58.8174 101.56 59.5067Z" fill="#003366"/>
<path d="M98.6555 93.8256H48V97.1653H98.6555V93.8256Z" fill="#003366"/>
</g>
<defs>
<clipPath id="clip0_48_2039">
<rect width="57" height="57" fill="white" transform="translate(48 46)"/>
</clipPath>
</defs>
</svg>
