<svg width="150" height="147" viewBox="0 0 150 147" fill="none" xmlns="http://www.w3.org/2000/svg">
<g opacity="0.1">
<ellipse cx="133.516" cy="130.424" rx="2.01686" ry="2.0202" fill="#003366"/>
<ellipse cx="137.55" cy="90.0202" rx="2.01685" ry="2.0202" fill="#003366"/>
<ellipse cx="0.806742" cy="61.333" rx="0.806742" ry="0.808081" fill="#003366"/>
<ellipse cx="143.949" cy="22.9493" rx="6.05057" ry="6.06061" fill="#003366"/>
<ellipse cx="85.918" cy="4.36346" rx="2.01686" ry="2.0202" fill="#003366"/>
<ellipse cx="16.1348" cy="8.80786" rx="8.06742" ry="8.08081" fill="#003366"/>
<ellipse cx="50.4212" cy="143.353" rx="2.8236" ry="2.82829" fill="#003366"/>
<ellipse cx="98.4225" cy="138.909" rx="0.806744" ry="0.808075" fill="#003366"/>
<ellipse cx="8.0674" cy="108.202" rx="4.03371" ry="4.0404" fill="#003366"/>
</g>
<ellipse opacity="0.1" cx="77.0171" cy="74.2622" rx="56.8753" ry="56.9697" fill="#003366"/>
<g clip-path="url(#clip0_620_3519)">
<path d="M57.413 61.3479C57.413 65.7319 59.6377 69.5686 62.9863 71.8891C54.0167 74.6978 47.5 82.5144 47.5 91.7611V94.8044C47.5 95.7645 48.279 96.5435 49.2392 96.5435C50.1993 96.5435 50.9783 95.7645 50.9783 94.8044V91.7611C50.9782 82.1458 59.603 74.2392 70.3043 74.2392C81.0057 74.2392 89.6304 82.1457 89.6304 91.7611V94.8044C89.6304 95.7645 90.4095 96.5435 91.3696 96.5435C92.3298 96.5435 93.1088 95.7645 93.1088 94.8044V91.7611C93.1087 82.5146 86.5922 74.6957 77.6227 71.8889C80.9711 69.5684 83.1957 65.7318 83.1957 61.3479C83.1957 54.2392 77.413 48.4565 70.3043 48.4565C63.1956 48.4565 57.413 54.2392 57.413 61.3479ZM60.8913 61.3479C60.8913 56.157 65.1135 51.9349 70.3043 51.9349C75.4952 51.9349 79.7173 56.157 79.7173 61.3479C79.7173 66.5387 75.4952 70.7609 70.3043 70.7609C65.1135 70.7609 60.8913 66.5388 60.8913 61.3479Z" fill="#003366" stroke="#003366"/>
<path d="M105.5 87.481C105.5 80.3997 100.78 74.3667 94.1707 71.9291C96.5408 70.0205 98.0653 67.1014 98.0653 63.8261C98.0653 58.0829 93.3954 53.4131 87.6523 53.4131C86.6921 53.4131 85.9131 54.1921 85.9131 55.1523C85.9131 56.1124 86.6921 56.8914 87.6523 56.8914C91.4751 56.8914 94.587 60.0033 94.587 63.8262C94.587 67.6491 91.4751 70.761 87.6523 70.761C86.6921 70.761 85.9131 71.54 85.9131 72.5001C85.9131 73.4604 86.6921 74.2391 87.6521 74.2391C95.6144 74.2391 102.022 80.215 102.022 87.481V89.8477C102.022 90.8078 102.801 91.5869 103.761 91.5869C104.721 91.5869 105.5 90.8078 105.5 89.8477V87.481Z" fill="#003366" stroke="#003366"/>
</g>
<defs>
<clipPath id="clip0_620_3519">
<rect width="57" height="57" fill="white" transform="translate(48 44)"/>
</clipPath>
</defs>
</svg>
