<svg width="38" height="39" viewBox="0 0 38 39" fill="none" xmlns="http://www.w3.org/2000/svg">
<path d="M36.1716 15.6781C35.1115 14.6179 34.368 13.8269 34.0092 13.4259C33.9432 12.7777 33.8444 11.4319 33.8444 10.0586C33.8444 7.07947 31.42 4.65515 28.4409 4.65515C26.9431 4.65515 25.8573 4.62036 25.319 4.59106C24.8173 4.18274 23.7955 3.302 22.8214 2.32788C20.7853 0.291748 17.2156 0.291748 15.1777 2.32788C14.1184 3.38806 13.3265 4.13147 12.9246 4.49036C12.2819 4.55627 10.9388 4.65515 9.55817 4.65515C6.57996 4.65515 4.15656 7.07764 4.15656 10.0568C4.15656 11.5564 4.12268 12.6404 4.09155 13.1769C3.68506 13.6786 2.80432 14.7003 1.82837 15.6781C0.811218 16.6962 0.25 18.053 0.25 19.4995C0.25 20.946 0.811218 22.3029 1.82745 23.3209C2.88947 24.3829 3.63196 25.174 3.98993 25.575C4.05676 26.2195 4.15656 27.5653 4.15656 28.9404C4.15656 31.9196 6.57813 34.342 9.55542 34.342C11.0541 34.342 12.139 34.3768 12.6774 34.4061C13.1809 34.8163 14.2063 35.6989 15.1786 36.6711C16.1967 37.6892 17.5535 38.2495 19 38.2495C20.4465 38.2495 21.8033 37.6892 22.8214 36.6711C23.8834 35.6091 24.6763 34.8657 25.0773 34.5087C25.72 34.4427 27.0658 34.342 28.4446 34.342C31.4219 34.342 33.8444 31.9196 33.8444 28.9404C33.8444 27.4408 33.8792 26.3568 33.9085 25.8185C34.3168 25.3168 35.1957 24.2969 36.1716 23.3209C37.1897 22.3029 37.75 20.946 37.75 19.4995C37.75 18.053 37.1897 16.6962 36.1716 15.6781Z" fill="white"/>
<path d="M16.1875 26.0625C15.7078 26.0625 15.228 25.8794 14.8618 25.5132L11.1118 21.7632C10.3794 21.0308 10.3794 19.8442 11.1118 19.1118C11.8442 18.3794 13.0308 18.3794 13.7632 19.1118L16.1875 21.5361L24.2368 13.4868C24.9692 12.7544 26.1558 12.7544 26.8882 13.4868C27.6206 14.2192 27.6206 15.4058 26.8882 16.1382L17.5132 25.5132C17.147 25.8794 16.6672 26.0625 16.1875 26.0625Z" fill="#4F9756"/>
</svg>
