<svg width="28" height="28" viewBox="0 0 28 28" fill="none" xmlns="http://www.w3.org/2000/svg">
<path d="M23.45 26.6001H21.35V21.3049C21.3492 20.4817 21.0218 19.6925 20.4397 19.1104C19.8576 18.5283 19.0683 18.2009 18.2451 18.2001H9.75484C8.93164 18.2009 8.14239 18.5283 7.5603 19.1104C6.97821 19.6925 6.65082 20.4817 6.64999 21.3049V26.6001H4.54999V21.3049C4.55166 19.925 5.10056 18.6021 6.07629 17.6264C7.05203 16.6507 8.37494 16.1018 9.75484 16.1001H18.2451C19.625 16.1018 20.9479 16.6507 21.9237 17.6264C22.8994 18.6021 23.4483 19.925 23.45 21.3049V26.6001Z" fill="#FCFDFD"/>
<path d="M14 13.9999C12.754 13.9999 11.5359 13.6304 10.4999 12.9382C9.46386 12.2459 8.65638 11.262 8.17954 10.1108C7.70271 8.95964 7.57795 7.69292 7.82104 6.47084C8.06412 5.24876 8.66414 4.1262 9.54521 3.24513C10.4263 2.36406 11.5488 1.76404 12.7709 1.52096C13.993 1.27787 15.2597 1.40263 16.4109 1.87946C17.5621 2.3563 18.546 3.16378 19.2382 4.19981C19.9305 5.23584 20.3 6.45388 20.3 7.69991C20.2983 9.37026 19.634 10.9717 18.4529 12.1528C17.2718 13.334 15.6703 13.9982 14 13.9999ZM14 3.49991C13.1693 3.49991 12.3573 3.74623 11.6666 4.20773C10.9759 4.66923 10.4376 5.32519 10.1197 6.09264C9.8018 6.86009 9.71863 7.70456 9.88069 8.51929C10.0427 9.33401 10.4428 10.0824 11.0301 10.6698C11.6175 11.2571 12.3659 11.6571 13.1806 11.8192C13.9953 11.9813 14.8398 11.8981 15.6073 11.5802C16.3747 11.2623 17.0307 10.724 17.4922 10.0333C17.9537 9.34261 18.2 8.53059 18.2 7.69991C18.2 6.586 17.7575 5.51771 16.9698 4.73006C16.1822 3.9424 15.1139 3.49991 14 3.49991Z" fill="#FCFDFD"/>
</svg>
