<svg width="28" height="28" viewBox="0 0 28 28" fill="none" xmlns="http://www.w3.org/2000/svg">
<path d="M6.34988 9.49495L6.34988 9.49494C6.71944 7.80029 7.6341 6.27986 8.94889 5.17553C10.2637 4.07118 11.9032 3.44641 13.6067 3.40091C15.3102 3.35541 16.9796 3.89181 18.3494 4.92451C19.7191 5.95717 20.7107 7.42675 21.1668 9.09938L21.0703 9.12569L21.1668 9.09939L23.1232 16.276C23.1232 16.2761 23.1233 16.2761 23.1233 16.2762C23.2566 16.7585 23.2778 17.2657 23.1852 17.7577C23.0927 18.2497 22.889 18.7131 22.5901 19.111C22.294 19.5114 21.9102 19.8361 21.4692 20.0591C21.0282 20.2821 20.5422 20.3973 20.0498 20.3954C20.0496 20.3954 20.0495 20.3954 20.0494 20.3954M6.34988 9.49495L4.93383 16.4623C4.83345 16.9226 4.83575 17.4001 4.94058 17.8595C5.04541 18.3188 5.25009 18.7483 5.5395 19.1162C5.82891 19.4842 6.19566 19.7811 6.6127 19.9852C7.02973 20.1893 7.4864 20.2953 7.94899 20.2954H20.0498L20.0494 20.3954M6.34988 9.49495L4.83612 16.4409M6.34988 9.49495L4.83612 16.4409M20.0494 20.3954L7.94897 20.3954C7.47109 20.3953 6.9994 20.2858 6.56874 20.075C6.13809 19.8643 5.75953 19.5577 5.4609 19.1781C5.16228 18.7984 4.95119 18.3554 4.84309 17.8817C4.73499 17.4081 4.73261 16.9157 4.83612 16.441C4.83612 16.441 4.83612 16.441 4.83612 16.4409M20.0494 20.3954L4.83612 16.4409M22.9582 8.59031L24.9147 15.7673C24.9147 15.7673 24.9147 15.7673 24.9147 15.7673C25.1232 16.5325 25.1563 17.3364 25.0095 18.1163C24.8628 18.8962 24.5412 19.6308 24.07 20.2627C23.5988 20.8947 22.9908 21.4069 22.2936 21.7593C21.5964 22.1118 20.8288 22.2952 20.0508 22.2951H19.1879H19.1058L19.0898 22.3756C18.8579 23.5401 18.2383 24.5866 17.3364 25.3382C16.4347 26.0896 15.3061 26.4999 14.142 26.4999C12.9779 26.4999 11.8494 26.0896 10.9476 25.3382C10.0458 24.5866 9.42615 23.5401 9.19422 22.3756L9.17819 22.2951H9.09615H7.94899C7.19321 22.2951 6.44701 22.1221 5.76545 21.7887C5.08389 21.4553 4.4843 20.97 4.01105 20.3685C3.5378 19.767 3.20301 19.0647 3.0315 18.3133C2.86 17.562 2.85621 16.7809 3.02039 16.0279L4.53518 9.08296C4.99516 6.97401 6.13331 5.08269 7.76828 3.70945C9.40322 2.33624 11.4412 1.55982 13.5582 1.50323C15.6752 1.44664 17.7502 2.11312 19.4534 3.39705C21.1567 4.68102 22.3904 6.50888 22.9582 8.59031ZM11.2422 22.2951H11.1017L11.1477 22.4279C11.3666 23.059 11.7714 23.6061 12.3073 23.9942C12.8432 24.3822 13.4839 24.5921 14.1416 24.5949L14.1424 24.5949C14.8002 24.5921 15.4408 24.3822 15.9767 23.9942C16.5126 23.6061 16.9175 23.059 17.1363 22.4279L17.1823 22.2951H17.0418H11.2422Z" fill="white" stroke="#003366" stroke-width="0.2"/>
</svg>
