<svg width="10" height="12" viewBox="0 0 10 12" fill="none" xmlns="http://www.w3.org/2000/svg">
<path d="M2.29869 9.09784H2.29867C2.07577 9.0978 1.85606 9.0433 1.65585 8.93879C1.45569 8.83431 1.28042 8.68268 1.14253 8.4957C1.00466 8.30875 0.907534 8.09105 0.857846 7.85882C0.808159 7.62658 0.807066 7.38527 0.85464 7.15253C0.854641 7.15253 0.854641 7.15252 0.854642 7.15252L1.53044 3.84491L1.53044 3.8449C1.69743 3.02808 2.11099 2.29393 2.70707 1.7599C3.30331 1.22573 4.04796 0.922577 4.82285 0.900502C5.59776 0.878425 6.3562 1.13878 6.9776 1.63848C7.59882 2.13803 8.04727 2.84787 8.2534 3.65418L9.12679 7.07146C9.1268 7.07151 9.12681 7.07156 9.12683 7.07161C9.18811 7.30814 9.19785 7.55679 9.15532 7.79801C9.1128 8.03915 9.01911 8.26676 8.88118 8.46268C8.88111 8.46279 8.88103 8.46289 8.88096 8.46299L8.79921 8.40541C8.6711 8.59022 8.50513 8.74 8.31448 8.84284C8.12382 8.94568 7.91374 8.99875 7.70092 8.99784L2.29869 9.09784ZM2.29869 9.09784L7.70049 9.09784L2.29869 9.09784ZM2.90913 9.97937L2.89388 9.89772H2.81083H2.29869C1.97085 9.89773 1.64685 9.81769 1.35052 9.66307C1.05415 9.50843 0.792747 9.28298 0.586047 9.00275C0.379329 8.72249 0.232748 8.39478 0.157612 8.04368C0.0824761 7.69257 0.0808107 7.32752 0.152745 6.97561C0.152746 6.9756 0.152746 6.9756 0.152747 6.9756L0.829001 3.66848C1.03234 2.67406 1.53523 1.78357 2.25603 1.1378C2.97668 0.492182 3.87377 0.128098 4.8045 0.101561C5.73521 0.0750248 6.6484 0.387473 7.3989 0.990931C8.14958 1.59453 8.69457 2.45491 8.94552 3.43625L9.81899 6.85383C9.91031 7.21141 9.92481 7.58717 9.86052 7.9516C9.79622 8.3161 9.65538 8.65896 9.44951 8.95347C9.24365 9.24796 8.97852 9.48594 8.67531 9.64946C8.37216 9.81294 8.03887 9.89775 7.70139 9.89772H7.31613H7.23308L7.21783 9.97937C7.11619 10.5237 6.84488 11.0116 6.45173 11.361C6.05878 11.7103 5.56827 11.9 5.06348 11.9C4.55869 11.9 4.06818 11.7103 3.67522 11.361C3.28208 11.0116 3.01077 10.5237 2.90913 9.97937ZM3.76889 9.89772H3.63123L3.67379 10.0286C3.77445 10.3382 3.96105 10.6079 4.20947 10.7997C4.45802 10.9917 4.75613 11.0962 5.06303 11.0976L5.06393 11.0976C5.37083 11.0962 5.66894 10.9917 5.91749 10.7997C6.16591 10.6079 6.35251 10.3382 6.45317 10.0286L6.49573 9.89772H6.35807H3.76889Z" fill="white" stroke="#003366" stroke-width="0.2"/>
</svg>
