<svg width="28" height="28" viewBox="0 0 28 28" fill="none" xmlns="http://www.w3.org/2000/svg">
<g clip-path="url(#clip0_1017_1647)">
<mask id="mask0_1017_1647" style="mask-type:luminance" maskUnits="userSpaceOnUse" x="0" y="0" width="28" height="28">
<path d="M0 0H28V28H0V0Z" fill="white"/>
</mask>
<g mask="url(#mask0_1017_1647)">
<path d="M2.46094 21.875C1.55487 21.875 0.820312 21.1404 0.820312 20.2344V7.76562C0.820312 6.85956 1.55487 6.125 2.46094 6.125H25.5391C26.4451 6.125 27.1797 6.85956 27.1797 7.76562V20.2344C27.1797 21.1404 26.4451 21.875 25.5391 21.875H2.46094Z" stroke="white" stroke-width="1.1" stroke-miterlimit="10" stroke-linecap="round" stroke-linejoin="round"/>
<path d="M4.375 10.0625H7" stroke="white" stroke-width="1.1" stroke-miterlimit="10" stroke-linecap="round" stroke-linejoin="round"/>
<path d="M4.375 13.5625H7" stroke="white" stroke-width="1.1" stroke-miterlimit="10" stroke-linecap="round" stroke-linejoin="round"/>
<path d="M4.375 17.0625H7" stroke="white" stroke-width="1.1" stroke-miterlimit="10" stroke-linecap="round" stroke-linejoin="round"/>
<path d="M10.9375 11.375V12.25" stroke="white" stroke-width="1.1" stroke-miterlimit="10" stroke-linecap="round" stroke-linejoin="round"/>
<path d="M10.9375 15.75V16.625" stroke="white" stroke-width="1.1" stroke-miterlimit="10" stroke-linecap="round" stroke-linejoin="round"/>
<path d="M10.9375 21.875V20.125" stroke="white" stroke-width="1.1" stroke-miterlimit="10" stroke-linecap="round" stroke-linejoin="round"/>
<path d="M10.9375 7.875V6.125" stroke="white" stroke-width="1.1" stroke-miterlimit="10" stroke-linecap="round" stroke-linejoin="round"/>
<path d="M17.5777 15.6724L23.1875 10.0626" stroke="white" stroke-width="1.1" stroke-miterlimit="10" stroke-linecap="round" stroke-linejoin="round"/>
<path d="M21.5719 11.6782L17.083 10.8466" stroke="white" stroke-width="1.1" stroke-miterlimit="10" stroke-linecap="round" stroke-linejoin="round"/>
<path d="M21.5719 11.6779L22.3421 16.1055" stroke="white" stroke-width="1.1" stroke-miterlimit="10" stroke-linecap="round" stroke-linejoin="round"/>
<path d="M17.5777 15.6724L15.3125 15.2948" stroke="white" stroke-width="1.1" stroke-miterlimit="10" stroke-linecap="round" stroke-linejoin="round"/>
<path d="M17.5777 15.6723L17.9553 17.9375" stroke="white" stroke-width="1.1" stroke-miterlimit="10" stroke-linecap="round" stroke-linejoin="round"/>
</g>
</g>
<defs>
<clipPath id="clip0_1017_1647">
<rect width="28" height="28" fill="white"/>
</clipPath>
</defs>
</svg>
