<svg width="21" height="20" viewBox="0 0 21 20" fill="none" xmlns="http://www.w3.org/2000/svg">
<path d="M16.5833 9.16683H11.5833V4.16683C11.5833 3.70683 11.21 3.3335 10.75 3.3335C10.29 3.3335 9.91666 3.70683 9.91666 4.16683V9.16683H4.91666C4.45666 9.16683 4.08333 9.54016 4.08333 10.0002C4.08333 10.4602 4.45666 10.8335 4.91666 10.8335H9.91666V15.8335C9.91666 16.2935 10.29 16.6668 10.75 16.6668C11.21 16.6668 11.5833 16.2935 11.5833 15.8335V10.8335H16.5833C17.0433 10.8335 17.4167 10.4602 17.4167 10.0002C17.4167 9.54016 17.0433 9.16683 16.5833 9.16683Z" fill="#003366"/>
</svg>
