<svg width="43" height="36" viewBox="0 0 43 36" fill="none" xmlns="http://www.w3.org/2000/svg">
<path d="M38.7802 13.7859C39.3413 16.0336 39.4101 18.3756 38.9819 20.6522C38.4325 23.5588 37.0984 26.2606 35.1235 28.4666C33.1485 30.6727 30.6076 32.2992 27.7744 33.1709C24.9413 34.0427 21.9234 34.1266 19.046 33.4136C16.1685 32.7007 13.5407 31.2179 11.4456 29.125C11.0781 28.7559 10.7268 28.3689 10.3916 27.964C9.36051 26.7101 8.5259 25.3074 7.91619 23.804C7.78348 23.8804 7.65078 23.9542 7.52317 24.0306C7.2909 24.1681 7.07657 24.2979 6.8699 24.4278C6.79844 24.4736 6.72697 24.5169 6.65557 24.5601C7.18481 25.8166 7.85972 27.0068 8.66653 28.1066C8.97276 28.5241 9.29517 28.9255 9.63375 29.3108C10.0425 29.7784 10.476 30.2237 10.9326 30.6449C11.3605 31.0411 11.8086 31.415 12.2751 31.7651C15.2169 33.9935 18.7831 35.2491 22.4753 35.3564C26.1675 35.4638 29.801 34.4174 32.8679 32.3637C35.9348 30.31 38.2817 27.3515 39.5806 23.902C40.8795 20.4524 41.0654 16.6842 40.1124 13.124C39.7015 13.3429 39.2574 13.5636 38.7802 13.7859Z" fill="#003366"/>
<path d="M42.8431 8.5463C42.4985 7.48467 40.3804 7.80036 40.3804 7.80036C39.9822 7.43631 39.0023 7.46938 37.665 7.76729C37.4047 7.3854 37.1308 7.01453 36.8433 6.6547C34.6199 3.87894 31.611 1.83451 28.2077 0.787065C24.8043 -0.260376 21.1638 -0.262395 17.7593 0.781271C9.18711 3.41886 4.06009 11.9884 5.4994 20.5808C5.57341 21.0212 5.66272 21.4617 5.77255 21.9021C5.37179 22.144 4.99411 22.3807 4.63685 22.6175C1.20434 24.8757 -0.278398 26.8514 0.234624 28.5037C0.81393 30.3774 3.74876 31.1565 8.95483 30.8179C9.05689 30.8102 9.16157 30.8051 9.26624 30.7975C9.06201 30.5811 8.863 30.3647 8.67159 30.1458C8.46742 29.9141 8.26076 29.6697 8.06163 29.4126C3.69255 29.6009 1.85767 28.8321 1.62291 28.076C1.41362 27.4013 2.25069 26.0036 5.06812 24.0789C5.41267 23.8421 5.78781 23.6003 6.19361 23.3482C6.41055 23.2133 6.6351 23.0758 6.86986 22.9383C7.06637 22.8212 7.26799 22.7067 7.47474 22.5895C7.84471 22.3807 8.22581 22.1728 8.61804 21.9658C10.3738 21.034 12.3542 20.1149 14.5004 19.2365L13.4694 18.0909C11.5937 18.875 9.84295 19.6897 8.26078 20.5146C7.85753 20.7234 7.46621 20.933 7.08683 21.1435C6.98982 20.703 6.91324 20.26 6.85456 19.8195C5.82101 12.1106 10.4963 4.53649 18.1881 2.16629C21.2144 1.23843 24.4462 1.20995 27.4885 2.08433C30.5308 2.95872 33.2521 4.69811 35.3197 7.09003C35.6158 7.43376 35.899 7.79271 36.1695 8.16186C35.7587 8.28406 35.33 8.4207 34.8833 8.57178C34.8814 8.57196 34.8795 8.57287 34.8782 8.57432C34.8502 8.58197 34.8246 8.5921 34.7966 8.6023C34.3678 8.74743 33.9263 8.9053 33.4746 9.07077C33.472 9.07077 33.472 9.07077 33.4695 9.07331C33.4388 9.08351 33.4083 9.09369 33.3777 9.10638C26.8521 11.5276 18.2468 15.8862 18.2468 15.8862L13.6607 13.5185L11.9407 14.1066L15.3758 17.9229L15.7279 18.2818L15.0899 22.5564L16.8636 22.0345L18.729 18.9794C18.729 18.9794 23.8305 17.8796 27.4849 16.599L26.0763 23.7682L27.656 23.8116L34.0232 14.3051C34.0232 14.3051 34.6714 14.0938 35.6182 13.7323C35.6284 13.7297 35.6387 13.7246 35.6463 13.7221C36.047 13.5694 36.4987 13.3911 36.9758 13.19H36.9784C36.9856 13.1855 36.9933 13.1821 37.0014 13.1798C37.4608 12.9863 37.9406 12.775 38.4229 12.5459C38.8644 12.3346 39.3059 12.113 39.7295 11.8788C41.5568 10.8758 43.0625 9.68431 42.8431 8.5463Z" fill="#003366"/>
<path d="M22.5836 7.83643L21.3398 8.33933L24.8185 11.8989L29.723 9.62934L22.5836 7.83643Z" fill="#003366"/>
</svg>
