<svg width="34" height="34" viewBox="0 0 34 34" fill="none" xmlns="http://www.w3.org/2000/svg">
<path d="M22.1091 4.90669C20.4919 4.22567 18.7548 3.87485 17 3.87485C15.2452 3.87485 13.5081 4.22569 11.8908 4.90673C8.74433 6.23971 6.23971 8.74433 4.90673 11.8908C4.22569 13.5081 3.87485 15.2452 3.87485 17C3.87485 18.7548 4.22567 20.4919 4.90669 22.1091L22.1091 4.90669ZM22.1091 4.90669C25.2556 6.23964 27.7602 8.74419 29.0932 11.8906M22.1091 4.90669L29.0932 11.8906M29.0932 11.8906C29.7743 13.5079 30.1252 15.2451 30.1252 17C30.1252 18.7549 29.7743 20.4921 29.0932 22.1094C27.7602 25.2557 25.2557 27.7602 22.1094 29.0932C20.4921 29.7743 18.7549 30.1252 17 30.1252C15.2451 30.1252 13.5079 29.7743 11.8906 29.0932C8.74429 27.7602 6.23979 25.2557 4.90681 22.1094L29.0932 11.8906ZM5.98868 17C5.98868 23.0719 10.9282 28.0113 17 28.0113C23.0719 28.0113 28.0113 23.0719 28.0113 17C28.0113 10.9282 23.0719 5.98868 17 5.98868C10.9282 5.98868 5.98868 10.9282 5.98868 17Z" fill="#003366" stroke="white" stroke-width="0.3"/>
<path d="M16.2599 17.7956C16.1532 17.6867 16.0686 17.5574 16.0109 17.415C15.9532 17.2726 15.9235 17.1199 15.9236 16.9657V9.92164C15.9236 9.61032 16.0445 9.31175 16.2597 9.09161C16.4749 8.87147 16.7668 8.7478 17.0711 8.7478C17.3754 8.7478 17.6673 8.87147 17.8825 9.09161C18.0977 9.31175 18.2186 9.61032 18.2186 9.92164L16.2599 17.7956ZM16.2599 17.7956L19.7028 21.3177L16.2599 17.7956ZM18.0686 16.4793V16.5404L18.1113 16.5841L21.218 19.7622L21.2184 19.7626C21.3117 19.8574 21.386 19.9703 21.4368 20.0948C21.4877 20.2194 21.514 20.3532 21.5142 20.4884C21.5145 20.6236 21.4886 20.7575 21.4383 20.8823C21.3879 21.0071 21.314 21.1202 21.221 21.2154C21.128 21.3105 21.0178 21.3858 20.8968 21.437C20.7757 21.4882 20.6461 21.5144 20.5153 21.5142C20.3845 21.514 20.2549 21.4873 20.134 21.4358C20.0131 21.3842 19.9031 21.3086 19.8104 21.2132L19.8101 21.2128L16.3671 17.6908L16.367 17.6906C16.2741 17.5959 16.2003 17.4831 16.1499 17.3586C16.0995 17.2342 16.0735 17.1007 16.0736 16.9658V16.9657V9.92164C16.0736 9.64901 16.1795 9.38822 16.367 9.19646C16.5543 9.00482 16.8077 8.8978 17.0711 8.8978C17.3345 8.8978 17.5879 9.00482 17.7752 9.19646C17.9627 9.38822 18.0686 9.64901 18.0686 9.92164V16.4793Z" fill="#003366" stroke="white" stroke-width="0.3"/>
</svg>
