<svg width="14" height="12" viewBox="0 0 14 12" fill="none" xmlns="http://www.w3.org/2000/svg">
<path fill-rule="evenodd" clip-rule="evenodd" d="M0.553177 6.24435C0.553177 5.78438 0.962789 5.4115 1.46807 5.4115H12.1418C12.6471 5.4115 13.0567 5.78438 13.0567 6.24435C13.0567 6.70431 12.6471 7.07719 12.1418 7.07719H1.46807C0.962789 7.07719 0.553177 6.70431 0.553177 6.24435Z" fill="black"/>
<path fill-rule="evenodd" clip-rule="evenodd" d="M7.45189 0.797097C7.80918 1.12234 7.80918 1.64967 7.45189 1.97492L2.76194 6.24428L7.45189 10.5136C7.80918 10.8389 7.80918 11.3662 7.45189 11.6915C7.0946 12.0167 6.51533 12.0167 6.15804 11.6915L0.821158 6.83319C0.46387 6.50794 0.46387 5.98061 0.821158 5.65537L6.15804 0.797097C6.51533 0.47185 7.0946 0.47185 7.45189 0.797097Z" fill="black"/>
</svg>
