<svg width="12" height="10" viewBox="0 0 12 10" fill="none" xmlns="http://www.w3.org/2000/svg">
<path d="M4.26882 9.07321C4.03926 9.07315 3.81913 8.97305 3.65684 8.79491L1.06006 5.94549C0.902385 5.76636 0.815138 5.52644 0.81711 5.2774C0.819083 5.02836 0.910116 4.79014 1.0706 4.61404C1.23109 4.43794 1.44819 4.33805 1.67515 4.33588C1.90211 4.33372 2.12076 4.42945 2.28401 4.60247L4.26882 6.78037L9.716 0.803243C9.87925 0.630228 10.0979 0.534493 10.3249 0.536657C10.5518 0.538821 10.7689 0.638711 10.9294 0.814813C11.0899 0.990915 11.1809 1.22914 11.1829 1.47817C11.1849 1.72721 11.0976 1.96713 10.9399 2.14627L4.88079 8.79491C4.7185 8.97305 4.49837 9.07315 4.26882 9.07321Z" fill="white"/>
</svg>
