<svg width="20" height="21" viewBox="0 0 20 21" fill="none" xmlns="http://www.w3.org/2000/svg">
<g clip-path="url(#clip0_959_420)">
<path d="M15.2863 1.88037L14.7582 2.40847L15.2863 1.88037C14.9893 1.58344 14.5866 1.41663 14.1667 1.41663C13.7467 1.41663 13.344 1.58344 13.0471 1.88037C12.7502 2.17731 12.5833 2.58003 12.5833 2.99996V3.91663H7.41667V2.99996C7.41667 2.58003 7.24986 2.17731 6.95292 1.88037C6.65599 1.58344 6.25326 1.41663 5.83334 1.41663C5.41341 1.41663 5.01069 1.58344 4.71375 1.88037C4.41682 2.17731 4.25001 2.58003 4.25001 2.99996V3.91663H4.16667C3.30472 3.91663 2.47807 4.25904 1.86857 4.86853C1.25908 5.47802 0.916672 6.30467 0.916672 7.16663V7.99996V8.74996H1.66667H18.3333H19.0833V7.99996V7.16663C19.0833 6.30467 18.7409 5.47802 18.1314 4.86853C17.5219 4.25904 16.6953 3.91663 15.8333 3.91663H15.75V2.99996C15.75 2.58003 15.5832 2.17731 15.2863 1.88037Z" stroke="#003366" stroke-width="1.5"/>
<path d="M19.0833 9.66663V8.91663H18.3333H1.66667H0.916672V9.66663V16.3333C0.916672 17.1952 1.25908 18.0219 1.86858 18.6314C2.47807 19.2409 3.30472 19.5833 4.16667 19.5833H15.8333C16.6953 19.5833 17.5219 19.2409 18.1314 18.6314C18.7409 18.0219 19.0833 17.1952 19.0833 16.3333V9.66663Z" stroke="#003366" stroke-width="1.5"/>
</g>
<defs>
<clipPath id="clip0_959_420">
<rect width="20" height="20" fill="white" transform="translate(0 0.5)"/>
</clipPath>
</defs>
</svg>
