<svg width="26" height="26" viewBox="0 0 26 26" fill="none" xmlns="http://www.w3.org/2000/svg">
<path d="M2.5103 14.5812L2.5103 14.5812C1.98546 13.6791 1.98547 12.3216 2.51029 11.4188L2.51031 11.4188L6.3759 4.78058L2.5103 14.5812ZM2.5103 14.5812L6.3752 21.2194M2.5103 14.5812L6.3752 21.2194M23.4897 11.4188L23.4897 11.4188C24.0145 12.3209 24.0145 13.6784 23.4897 14.5812L23.4897 14.5812L19.6241 21.2194L23.4897 11.4188ZM23.4897 11.4188L19.6248 4.78058L23.4897 11.4188ZM7.67874 5.52714L7.67872 5.52717L3.81313 12.1654L7.67874 5.52714ZM7.67874 5.52714C7.80359 5.31242 8.03977 5.10326 8.31186 4.94746C8.58392 4.79168 8.88483 4.69331 9.1351 4.69331H16.8656C17.1155 4.69331 17.4163 4.79151 17.6883 4.94721C17.9604 5.10291 18.1968 5.31208 18.322 5.52717L18.3652 5.50201L18.322 5.52717L22.1869 12.1654C22.3117 12.3801 22.3762 12.6877 22.3762 12.9993C22.3762 13.3109 22.3117 13.6185 22.1869 13.8332L18.3213 20.4714L18.3213 20.4715C18.1964 20.6862 17.9602 20.8954 17.6882 21.0511C17.4161 21.2069 17.1152 21.3053 16.8649 21.3053H9.1344C8.88447 21.3053 8.58373 21.2071 8.31167 21.0514C8.03959 20.8957 7.80323 20.6865 7.67802 20.4714L7.63481 20.4966M7.67874 5.52714L7.63481 20.4966M7.63481 20.4966L7.67802 20.4714L3.81313 13.8332C3.81312 13.8332 3.81312 13.8332 3.81312 13.8332M7.63481 20.4966L3.81312 13.8332M6.3752 21.2194L6.37521 21.2194C6.63425 21.665 7.06659 22.0596 7.56113 22.3428C8.0557 22.626 8.61653 22.8 9.1351 22.8H16.8649C17.3831 22.8 17.944 22.626 18.4385 22.3428C18.9331 22.0596 19.3654 21.665 19.6241 21.2195L6.3752 21.2194ZM7.56183 3.65722C8.0564 3.37403 8.61723 3.2 9.1358 3.2H16.8649C17.3835 3.2 17.9443 3.37403 18.4389 3.65722C18.9334 3.94039 19.3658 4.33502 19.6248 4.78055L7.56183 3.65722ZM7.56183 3.65722C7.06729 3.94039 6.63495 4.33502 6.37592 4.78055L7.56183 3.65722ZM3.81312 13.8332C3.68828 13.6185 3.62385 13.3109 3.62385 12.9993M3.81312 13.8332L3.62385 12.9993M3.62385 12.9993C3.62385 12.6877 3.68828 12.3801 3.81311 12.1654L3.62385 12.9993ZM8.79207 12.9997C8.79207 15.3013 10.6798 17.1731 13 17.1731C15.3202 17.1731 17.2079 15.3013 17.2079 12.9997C17.2079 10.698 15.3202 8.82619 13 8.82619C10.6798 8.82619 8.79207 10.698 8.79207 12.9997ZM10.2975 12.9997C10.2975 11.5228 11.5094 10.3202 13 10.3202C14.4906 10.3202 15.7025 11.5228 15.7025 12.9997C15.7025 14.4765 14.4906 15.6791 13 15.6791C11.5094 15.6791 10.2975 14.4765 10.2975 12.9997Z" fill="#003366" stroke="#003366" stroke-width="0.1"/>
</svg>
