<svg width="30" height="30" viewBox="0 0 30 30" fill="none" xmlns="http://www.w3.org/2000/svg">
<rect x="0.5" y="0.5" width="29" height="29" rx="14.5" fill="white"/>
<rect x="0.5" y="0.5" width="29" height="29" rx="14.5" stroke="#626262"/>
<path d="M10 10.6196C10 10.5309 10.0177 10.4431 10.052 10.3614C10.0864 10.2797 10.1367 10.2056 10.2 10.1436C10.9266 9.43132 11.8972 9.02272 12.9144 9.00092C13.9316 8.97912 14.9189 9.34577 15.6753 10.0262L15.9093 10.2449C16.3956 10.671 17.0201 10.9058 17.6667 10.9058C18.3132 10.9058 18.9377 10.671 19.424 10.2449L19.59 10.0936C19.9967 9.77156 20.608 10.0289 20.6633 10.5442L20.6667 10.6196V16.6196C20.6667 16.7082 20.649 16.796 20.6146 16.8777C20.5803 16.9594 20.53 17.0335 20.4667 17.0956C19.7401 17.8078 18.7694 18.2164 17.7522 18.2382C16.735 18.26 15.7477 17.8934 14.9913 17.2129L14.7573 16.9942C14.2864 16.5816 13.6852 16.3478 13.0591 16.3339C12.4331 16.32 11.8222 16.5269 11.3333 16.9182V21.2862C11.3331 21.4561 11.2681 21.6196 11.1514 21.7431C11.0348 21.8667 10.8754 21.9411 10.7057 21.951C10.5361 21.961 10.3691 21.9058 10.2388 21.7967C10.1085 21.6877 10.0247 21.533 10.0047 21.3642L10 21.2862V10.6196Z" fill="#626262"/>
</svg>
