<svg width="23" height="23" viewBox="0 0 23 23" fill="none" xmlns="http://www.w3.org/2000/svg">
<g clip-path="url(#clip0_827_7754)">
<path d="M20.7036 4.61285C20.4051 4.09581 19.9222 3.72917 19.3439 3.58057C18.7656 3.43193 18.1658 3.5204 17.655 3.82954L13.8198 6.15028L9.25348 3.14941L5.46236 5.31004L9.00787 9.0621L5.64796 11.0953L3.59968 10.1694L0.566162 11.9209L4.38345 14.5251L7.12661 14.6497L19.8577 7.64481C20.3809 7.35692 20.7573 6.88171 20.9178 6.30659C21.0783 5.73147 21.0022 5.12994 20.7036 4.61285ZM19.7326 5.97592C19.6618 6.22989 19.4956 6.43973 19.2646 6.5668L6.83667 13.4049L4.78823 13.3118L2.87661 12.0076L3.66813 11.5506L5.7311 12.4831L10.9494 9.3253L7.43246 5.60342L9.20774 4.59165L13.7928 7.60474L18.292 4.88212C18.5176 4.74566 18.7824 4.70665 19.0377 4.7722C19.2931 4.83782 19.5063 4.99967 19.6381 5.228C19.7699 5.45638 19.8035 5.722 19.7326 5.97592Z" fill="white"/>
<path d="M18.6626 18.6201H0V19.8505H18.6626V18.6201Z" fill="white"/>
</g>
<rect x="1.39124" y="1.43652" width="2" height="28" transform="rotate(-45.9213 1.39124 1.43652)" fill="#E50000"/>
<rect y="2.87354" width="2" height="28" transform="rotate(-45.9213 0 2.87354)" fill="white"/>
<defs>
<clipPath id="clip0_827_7754">
<rect width="21" height="21" fill="white" transform="translate(0 1)"/>
</clipPath>
</defs>
</svg>
