<svg width="26" height="26" viewBox="0 0 26 26" fill="none" xmlns="http://www.w3.org/2000/svg">
<g clip-path="url(#clip0_989_3585)">
<path d="M25.633 4.4735C25.2634 3.83335 24.6656 3.37941 23.9495 3.19543C23.2336 3.0114 22.4909 3.12094 21.8585 3.50368L17.1102 6.37698L11.4567 2.66162L6.76289 5.33668L11.1526 9.98209L6.99267 12.4994L4.45671 11.3531L0.700928 13.5215L5.42709 16.7459L8.82339 16.9001L24.5857 8.22735C25.2334 7.87091 25.6995 7.28256 25.8982 6.57051C26.0969 5.85845 26.0027 5.1137 25.633 4.4735ZM24.4309 6.16111C24.3431 6.47555 24.1373 6.73534 23.8513 6.89266L8.46442 15.3589L5.92825 15.2436L3.56149 13.6289L4.54146 13.0631L7.09561 14.2177L13.5564 10.308L9.20207 5.69991L11.4 4.44724L17.0767 8.17773L22.6472 4.80687C22.9265 4.63793 23.2544 4.58963 23.5705 4.67078C23.8866 4.75203 24.1506 4.95241 24.3138 5.23511C24.477 5.51786 24.5186 5.84672 24.4309 6.16111Z" fill="#003366"/>
<path d="M26 21.8154H0V23.3388H26V21.8154Z" fill="#003366"/>
</g>
<defs>
<clipPath id="clip0_989_3585">
<rect width="26" height="26" fill="white"/>
</clipPath>
</defs>
</svg>
