<svg width="25" height="24" viewBox="0 0 25 24" fill="none" xmlns="http://www.w3.org/2000/svg">
<path d="M10.2919 16.5977C9.90986 16.5977 9.60022 16.9074 9.60022 17.2893C9.60022 17.6712 9.90986 17.9809 10.2919 17.9809H14.7082C15.0901 17.9809 15.3998 17.6712 15.3998 17.2893C15.3998 16.9073 15.0901 16.5977 14.7082 16.5977H10.2919Z" fill="#003366" stroke="#003366" stroke-width="0.5"/>
<path d="M4.68828 8.00134L4.84319 8.19756L4.68828 8.00134C3.88565 8.63501 3.41736 9.60133 3.41736 10.624V17.7309C3.41736 19.5763 4.91336 21.0723 6.75878 21.0723H18.2412C20.0866 21.0723 21.5826 19.5763 21.5826 17.7309V10.624C21.5826 9.60133 21.1144 8.63501 20.3118 8.00134L20.1568 8.19756L20.3118 8.00134L14.5705 3.4688C13.3565 2.5104 11.6435 2.5104 10.4295 3.4688L4.68828 8.00134ZM11.2866 4.5545C11.9981 3.99285 13.0019 3.99285 13.7134 4.5545L19.4546 9.08704C19.9249 9.45838 20.1994 10.0247 20.1994 10.624V17.7309C20.1994 18.8123 19.3227 19.689 18.2412 19.689H6.75878C5.67732 19.689 4.80062 18.8123 4.80062 17.7309V10.624C4.80062 10.0247 5.07505 9.45838 5.54542 9.08704L11.2866 4.5545Z" fill="#003366" stroke="#003366" stroke-width="0.5"/>
</svg>
