<svg width="23" height="23" viewBox="0 0 23 23" fill="none" xmlns="http://www.w3.org/2000/svg">
<path fill-rule="evenodd" clip-rule="evenodd" d="M22.4759 0.524069C22.7809 0.829024 22.8821 1.28277 22.7356 1.68841L15.5054 21.7104C15.495 21.7394 15.4833 21.768 15.4704 21.796C15.3329 22.0962 15.1121 22.3505 14.8342 22.5288C14.5564 22.7071 14.2332 22.8019 13.9031 22.8019C13.5729 22.8019 13.2497 22.7071 12.9719 22.5288C12.7007 22.3547 12.4838 22.1083 12.3457 21.8175L8.62463 14.3754L1.18253 10.6543C0.891731 10.5162 0.645256 10.2993 0.471212 10.0281C0.292905 9.75029 0.19812 9.42709 0.19812 9.09695C0.19812 8.76681 0.292905 8.44361 0.471212 8.16576C0.649518 7.88792 0.903847 7.6671 1.20397 7.52957C1.23201 7.51672 1.26057 7.50505 1.28957 7.49457L21.3116 0.264398C21.7172 0.117919 22.171 0.219114 22.4759 0.524069ZM3.19323 9.17242L9.95116 12.5514C10.1664 12.659 10.341 12.8336 10.4486 13.0488L13.8276 19.8068L19.8383 3.16169L3.19323 9.17242Z" fill="#003366"/>
</svg>
