<svg width="34" height="34" viewBox="0 0 34 34" fill="none" xmlns="http://www.w3.org/2000/svg">
<path d="M21.8647 21.6967L21.8235 21.7613L21.8993 21.773C23.3834 22.0011 25.3804 22.4536 27.0049 23.221C28.6335 23.9903 29.8664 25.0652 29.8664 26.5293C29.8664 27.3653 29.4562 28.1028 28.7371 28.7408C28.0173 29.3795 26.9908 29.9158 25.7671 30.3469C23.32 31.209 20.0969 31.6459 17 31.6459C13.6877 31.6459 10.5635 31.1807 8.20282 30.3376C6.51233 29.7338 5.49505 29.0464 4.90069 28.3786C4.30724 27.7117 4.13365 27.0625 4.13365 26.5293C4.13365 25.0655 5.36799 23.9903 6.99728 23.2209C8.62258 22.4533 10.6196 22.0006 12.1007 21.773L12.1764 21.7614L12.1352 21.6968L9.36067 17.3431L9.36074 17.343L9.35904 17.3407C8.18924 15.7215 7.57801 13.792 7.57801 11.8334C7.57801 6.62705 11.8131 2.35396 17 2.35396C22.2039 2.35396 26.422 6.63546 26.422 11.8334C26.422 13.7933 25.8234 15.6735 24.6907 17.2712L24.6906 17.2713C24.6797 17.2867 24.6758 17.2916 24.6719 17.2965C24.643 17.3334 24.6193 17.3742 21.8647 21.6967ZM23.3748 16.3224L23.3758 16.321C24.3075 15.0017 24.7998 13.4502 24.7998 11.8334C24.7998 7.50116 21.3012 3.97614 17 3.97614C12.6899 3.97614 9.20019 7.49964 9.20019 11.8334C9.20019 13.4477 9.70199 15.0536 10.6869 16.4086C10.6967 16.422 10.706 16.4357 10.7149 16.4496C10.7149 16.4496 10.7149 16.4496 10.7149 16.4496L16.9578 26.2456L17 26.3117L17.0422 26.2456C18.7115 23.6262 19.9369 21.7029 20.8374 20.2896C21.74 18.873 22.3161 17.9688 22.6854 17.3898C23.3367 16.3685 23.3444 16.3593 23.3645 16.3353C23.3672 16.332 23.3701 16.3286 23.3748 16.3224ZM13.1528 23.2934L13.1358 23.2667L13.1045 23.2706C10.584 23.5841 8.75184 24.1434 7.54826 24.7486C6.94659 25.0511 6.50029 25.366 6.20367 25.6689C5.90802 25.9707 5.75583 26.2662 5.75583 26.5293C5.75583 26.9175 6.04921 27.3274 6.57235 27.7206C7.09817 28.1158 7.86762 28.503 8.84639 28.8437C10.8045 29.5253 13.6087 30.0237 17 30.0237C20.4112 30.0237 23.2155 29.5222 25.1686 28.8391C26.1449 28.4976 26.9106 28.11 27.4334 27.7153C27.9534 27.3227 28.2442 26.9143 28.2442 26.5293C28.2442 26.2662 28.092 25.9707 27.7963 25.6689C27.4997 25.366 27.0534 25.0511 26.4517 24.7486C25.2481 24.1434 23.4159 23.5841 20.8954 23.2706L20.864 23.2667L20.847 23.2934L17.6839 28.2569L17.7261 28.2838L17.6839 28.2569C17.5351 28.4905 17.2771 28.632 17 28.632C16.7228 28.632 16.4649 28.4906 16.316 28.2569L13.1528 23.2934Z" fill="#003366" stroke="#EDF1F4" stroke-width="0.1"/>
<path d="M12.7446 11.8333C12.7446 9.48687 14.6536 7.57783 17 7.57783C19.3464 7.57783 21.2555 9.48687 21.2555 11.8333C21.2555 14.1797 19.3464 16.0887 17 16.0887C14.6536 16.0887 12.7446 14.1797 12.7446 11.8333ZM14.3667 11.8333C14.3667 13.2853 15.548 14.4666 17 14.4666C18.452 14.4666 19.6333 13.2853 19.6333 11.8333C19.6333 10.3813 18.452 9.20001 17 9.20001C15.548 9.20001 14.3667 10.3813 14.3667 11.8333Z" fill="#003366" stroke="#EDF1F4" stroke-width="0.1"/>
</svg>
