<svg width="22" height="22" viewBox="0 0 22 22" fill="none" xmlns="http://www.w3.org/2000/svg">
<path d="M13.0571 6.62857C13.483 6.62857 13.8286 6.28297 13.8286 5.85714V4.82857C13.8286 3.26823 12.5603 2 11 2H4.82857C3.26823 2 2 3.26823 2 4.82857V17.1714C2 18.7318 3.26823 20 4.82857 20H11C12.5603 20 13.8286 18.7318 13.8286 17.1714V16.1429C13.8286 15.717 13.483 15.3714 13.0571 15.3714C12.6313 15.3714 12.2857 15.717 12.2857 16.1429V17.1714C12.2857 17.8801 11.7087 18.4571 11 18.4571H4.82857C4.11989 18.4571 3.54286 17.8801 3.54286 17.1714V4.82857C3.54286 4.11989 4.11989 3.54286 4.82857 3.54286H11C11.7087 3.54286 12.2857 4.11989 12.2857 4.82857V5.85714C12.2857 6.28297 12.6313 6.62857 13.0571 6.62857Z" fill="#E03A3E"/>
<path d="M19.7733 10.4548L16.6876 7.3691C16.3863 7.06772 15.8977 7.06772 15.5963 7.3691C15.2949 7.67047 15.2949 8.15904 15.5963 8.46041L17.3655 10.2296H6.88534C6.45951 10.2296 6.11391 10.5752 6.11391 11.001C6.11391 11.4268 6.45951 11.7724 6.88534 11.7724H17.3655L15.5963 13.5416C15.2949 13.8429 15.2949 14.3315 15.5963 14.6329C15.7465 14.783 15.944 14.8592 16.1415 14.8592C16.3389 14.8592 16.5364 14.7841 16.6866 14.6329L19.7723 11.5472C20.0737 11.2458 20.0737 10.7572 19.7723 10.4558L19.7733 10.4548Z" fill="#E03A3E"/>
</svg>
