<svg width="26" height="26" viewBox="0 0 26 26" fill="none" xmlns="http://www.w3.org/2000/svg">
<path d="M23.7059 9.43115H2.29408V11.2155H23.7059V9.43115Z" fill="#003366"/>
<path d="M22.8138 5.3665H3.18623C2.4208 5.3665 1.79799 5.98931 1.79799 6.75474V19.245C1.79799 20.0104 2.4208 20.6332 3.18623 20.6332H22.8138C23.5792 20.6332 24.202 20.0104 24.202 19.245V6.75474C24.202 5.98931 23.5792 5.3665 22.8138 5.3665ZM23.2098 19.245C23.2098 19.4627 23.0315 19.6411 22.8138 19.6411H3.18623C2.96769 19.6411 2.79015 19.4628 2.79015 19.245V6.75474C2.79015 6.5361 2.96763 6.35866 3.18623 6.35866H22.8138C23.0316 6.35866 23.2098 6.53617 23.2098 6.75474V19.245Z" fill="#003366" stroke="#003366" stroke-width="0.1"/>
<path d="M23.7059 8.98535H2.29407C2.04786 8.98535 1.84799 9.18517 1.84799 9.43143V11.2158C1.84799 11.462 2.04786 11.6618 2.29407 11.6618H23.7059C23.9521 11.6618 24.152 11.462 24.152 11.2158V9.43143C24.152 9.18517 23.9521 8.98535 23.7059 8.98535ZM23.2598 10.7697H2.74015V9.87751H23.2598V10.7697Z" fill="#003366"/>
<path d="M13.8921 14.3379H5.86271C5.61649 14.3379 5.41663 14.5378 5.41663 14.784C5.41663 15.0302 5.61649 15.2301 5.86271 15.2301H13.8921C14.1384 15.2301 14.3382 15.0302 14.3382 14.784C14.3382 14.5377 14.1384 14.3379 13.8921 14.3379Z" fill="#003366"/>
<path d="M10.3235 16.1226H5.86271C5.61649 16.1226 5.41663 16.3224 5.41663 16.5686C5.41663 16.8149 5.61649 17.0147 5.86271 17.0147H10.3235C10.5697 17.0147 10.7696 16.8149 10.7696 16.5686C10.7696 16.3224 10.5697 16.1226 10.3235 16.1226Z" fill="#003366"/>
</svg>
