<svg width="22" height="22" viewBox="0 0 22 22" fill="none" xmlns="http://www.w3.org/2000/svg">
<g clip-path="url(#clip0_989_1492)">
<path d="M10 20.5776C9.10571 20.5776 8.5763 19.7407 8.5763 18.4037L8.5763 14.7378C8.5763 14.3813 8.39803 14.1139 8.13063 13.9356L1.44566 10.2812C1.17827 10.1921 1 9.83553 1 9.56813L1 8.9924C1 8.36847 1.62393 7.9228 2.15873 8.1902L7.95237 10.1511C8.21977 10.2403 8.5763 10.062 8.5763 9.70546L8.5763 6.71364C8.5763 6.44624 8.39803 6.08971 8.13063 5.91144L6.43711 4.84185C6.08058 4.66358 5.84529 4.37535 5.96164 4.16519C5.98801 4.11757 6.03073 3.91595 6.2768 3.86138C6.52287 3.80682 7.50542 4.03721 8.94228 4.2863C8.96135 4.28961 8.98586 4.29384 9.01734 4.29755C9.26552 3.71247 9.59307 3.41992 10 3.41992C10.4062 3.41992 10.7317 3.71145 10.9765 4.29452L11.0577 4.28246C12.4946 4.03337 13.4771 3.80299 13.7232 3.85755C13.9693 3.91211 14.012 4.11374 14.0384 4.16136C14.1547 4.37152 13.9194 4.65974 13.5629 4.83801L11.8694 5.90761C11.602 6.08587 11.4237 6.26797 11.4237 6.62451L11.4237 9.61633C11.4237 9.88373 11.6911 10.1511 12.0476 10.062L17.8413 8.10107C18.3761 7.83367 19 8.27934 19 8.90327L19 9.47899C19 9.83553 18.8217 10.1029 18.5543 10.2812L11.8694 13.9356C11.602 14.1139 11.4237 14.3813 11.4237 14.7378L11.4237 18.3146C11.4237 19.4733 10.8943 20.5776 10 20.5776Z" fill="#121212"/>
</g>
<defs>
<clipPath id="clip0_989_1492">
<rect width="22" height="22" fill="white" transform="translate(22) rotate(90)"/>
</clipPath>
</defs>
</svg>
