<svg width="34" height="34" viewBox="0 0 34 34" fill="none" xmlns="http://www.w3.org/2000/svg">
<path d="M19.43 7.83193V7.37791L19.8691 7.49345C25.1163 8.87428 28.8518 13.5713 28.8518 18.969C28.8518 25.4688 23.5963 30.7244 17.0964 30.7244C10.5966 30.7244 5.34099 25.4688 5.34099 18.969C5.34099 18.646 5.23485 18.404 5.07451 18.2437C4.91416 18.0833 4.67219 17.9772 4.34918 17.9772C4.02617 17.9772 3.78419 18.0833 3.62385 18.2437C3.4635 18.404 3.35736 18.646 3.35736 18.969C3.35736 25.5068 8.06567 31.1363 14.481 32.4464C21.9399 33.8848 29.1344 29.0432 30.5735 21.5863C32.013 14.1267 27.1712 6.93113 19.7137 5.49196L19.43 5.43721V5.1483V2.19631C19.43 2.03587 19.4037 1.91783 19.3596 1.8185C19.3148 1.71766 19.2435 1.61804 19.13 1.50452C18.73 1.10448 18.1465 1.10448 17.7465 1.50452L13.5868 5.66415C13.1868 6.06419 13.1868 6.64767 13.5868 7.04772L17.7465 11.2073C17.86 11.3209 17.9596 11.3921 18.0604 11.4369C18.1598 11.481 18.2778 11.5074 18.4382 11.5074C18.7612 11.5074 19.0032 11.4012 19.1636 11.2409C19.3239 11.0805 19.43 10.8386 19.43 10.5156V7.83193Z" fill="#003366" stroke="#EDF1F4" stroke-width="0.7"/>
<g clip-path="url(#clip0_116_903)">
<path d="M21.9177 15.6938V15.3154C21.9177 14.9678 21.7797 14.6345 21.5339 14.3887L21.0066 14.9161L21.5339 14.3887C21.2881 14.143 20.9548 14.0049 20.6072 14.0049C20.2597 14.0049 19.9263 14.143 19.6806 14.3887L20.1827 14.8908L19.6806 14.3887C19.4348 14.6345 19.2967 14.9678 19.2967 15.3154V15.6864H16.3127V15.3154C16.3127 14.9678 16.1746 14.6345 15.9289 14.3887C15.6831 14.143 15.3498 14.0049 15.0022 14.0049C14.6546 14.0049 14.3213 14.143 14.0756 14.3887C13.8298 14.6345 13.6917 14.9678 13.6917 15.3154V15.6938C13.1162 15.7387 12.573 15.9874 12.1619 16.3986C11.7059 16.8546 11.4497 17.473 11.4497 18.1179V18.6784V19.4284H12.1997H23.4097H24.1597V18.6784V18.1179C24.1597 17.473 23.9036 16.8546 23.4476 16.3986C23.0364 15.9874 22.4933 15.7387 21.9177 15.6938Z" stroke="#003366" stroke-width="1.5"/>
<path d="M24.1597 19.7994V19.0494H23.4097H12.1997H11.4497V19.7994V24.2835C11.4497 24.9283 11.7059 25.5468 12.1619 26.0028C12.6179 26.4588 13.2363 26.715 13.8812 26.715H21.7282C22.3731 26.715 22.9916 26.4588 23.4476 26.0028C23.9036 25.5468 24.1597 24.9283 24.1597 24.2835V19.7994Z" stroke="#003366" stroke-width="1.5"/>
</g>
<defs>
<clipPath id="clip0_116_903">
<rect width="13.452" height="13.452" fill="white" transform="translate(11.0786 13.6339)"/>
</clipPath>
</defs>
</svg>
