<svg width="21" height="21" viewBox="0 0 21 21" fill="none" xmlns="http://www.w3.org/2000/svg">
<path d="M10.5 6.50007V10.5001L12.5 12.5001M1.55005 9.50007C1.77414 7.30013 2.80031 5.25968 4.43278 3.76803C6.06525 2.27639 8.18974 1.43795 10.4009 1.4127C12.6121 1.38744 14.7552 2.17713 16.4213 3.6311C18.0874 5.08507 19.1599 7.10155 19.4342 9.2958C19.7085 11.49 19.1654 13.7085 17.9084 15.5278C16.6515 17.3472 14.7687 18.6401 12.6193 19.1599C10.47 19.6797 8.20446 19.39 6.25504 18.3461C4.30563 17.3022 2.80877 15.5772 2.05005 13.5001M1.55005 18.5001V13.5001H6.55005" stroke="#003366" stroke-width="2" stroke-linecap="round" stroke-linejoin="round"/>
</svg>
