<svg width="27" height="27" viewBox="0 0 27 27" fill="none" xmlns="http://www.w3.org/2000/svg">
<g opacity="0.5">
<path fill-rule="evenodd" clip-rule="evenodd" d="M13.4999 9.30176C11.2563 9.30176 9.43745 11.1206 9.43745 13.3643C9.43745 15.6079 11.2563 17.4268 13.4999 17.4268C15.7436 17.4268 17.5624 15.6079 17.5624 13.3643C17.5624 11.1206 15.7436 9.30176 13.4999 9.30176ZM11.0624 13.3643C11.0624 12.0181 12.1537 10.9268 13.4999 10.9268C14.8462 10.9268 15.9374 12.0181 15.9374 13.3643C15.9374 14.7105 14.8462 15.8018 13.4999 15.8018C12.1537 15.8018 11.0624 14.7105 11.0624 13.3643Z" fill="black"/>
<path fill-rule="evenodd" clip-rule="evenodd" d="M17.1993 3.86596C16.137 0.144289 10.8628 0.144291 9.80066 3.86596C9.47158 5.01906 8.28691 5.70303 7.12375 5.41147C3.36964 4.47046 0.73248 9.03816 3.42448 11.8188C4.25856 12.6804 4.25856 14.0483 3.42448 14.9098C0.73248 17.6905 3.36964 22.2582 7.12375 21.3172C8.28691 21.0256 9.47158 21.7096 9.80066 22.8627C10.8628 26.5843 16.137 26.5843 17.1993 22.8627C17.5283 21.7096 18.713 21.0256 19.8762 21.3172C23.6302 22.2582 26.2674 17.6905 23.5754 14.9098C22.7414 14.0483 22.7414 12.6804 23.5754 11.8188C26.2674 9.03816 23.6302 4.47046 19.8762 5.41147C18.713 5.70303 17.5283 5.01906 17.1993 3.86596ZM11.3632 4.3119C11.9767 2.16231 15.0232 2.16231 15.6365 4.3119C16.2064 6.30831 18.2575 7.49249 20.2713 6.9877C22.4396 6.44418 23.9627 9.08245 22.4079 10.6885C20.9638 12.1801 20.9638 14.5485 22.4079 16.0401C23.9627 17.6462 22.4396 20.2844 20.2713 19.7409C18.2575 19.2362 16.2064 20.4204 15.6365 22.4168C15.0232 24.5663 11.9767 24.5663 11.3632 22.4168C10.7935 20.4204 8.74246 19.2362 6.72864 19.7409C4.56031 20.2844 3.03712 17.6462 4.59199 16.0401C6.03605 14.5485 6.03605 12.1801 4.59199 10.6885C3.03712 9.08245 4.56031 6.44418 6.72864 6.9877C8.74246 7.49249 10.7935 6.30831 11.3632 4.3119Z" fill="black"/>
</g>
</svg>
