<svg width="19" height="19" viewBox="0 0 19 19" fill="none" xmlns="http://www.w3.org/2000/svg">
<path d="M13.6187 2.64056V2.74056H13.7188H14.5625C16.058 2.74056 17.275 3.95757 17.275 5.45306V14.4756C17.275 15.9711 16.058 17.1881 14.5625 17.1881H4.4375C2.94201 17.1881 1.725 15.9711 1.725 14.4756V5.45306C1.725 3.95757 2.94201 2.74056 4.4375 2.74056H5.28125H5.38125V2.64056V2.10059C5.38125 1.84518 5.58834 1.63809 5.84375 1.63809C6.09916 1.63809 6.30625 1.84518 6.30625 2.10059V2.64056V2.74056H6.40625H12.5938H12.6938V2.64056V2.10059C12.6938 1.84518 12.9008 1.63809 13.1562 1.63809C13.4117 1.63809 13.6187 1.84518 13.6187 2.10059V2.64056ZM5.38125 3.76556V3.66556H5.28125H4.4375C3.45173 3.66556 2.65 4.46729 2.65 5.45306V6.02106V6.12106H2.75H16.25H16.35V6.02106V5.45306C16.35 4.46729 15.5483 3.66556 14.5625 3.66556H13.7188H13.6187V3.76556V4.30527C13.6187 4.56068 13.4117 4.76777 13.1562 4.76777C12.9008 4.76777 12.6938 4.56068 12.6938 4.30527V3.76556V3.66556H12.5938H6.40625H6.30625V3.76556V4.30527C6.30625 4.56068 6.09916 4.76777 5.84375 4.76777C5.58834 4.76777 5.38125 4.56068 5.38125 4.30527V3.76556ZM2.75 7.04606H2.65V7.14606V14.4756C2.65 15.4614 3.45173 16.2631 4.4375 16.2631H14.5625C15.5483 16.2631 16.35 15.4614 16.35 14.4756V7.14606V7.04606H16.25H2.75Z" fill="#003366" stroke="#003366" stroke-width="0.2"/>
<path d="M9.42929 10.9298L9.5 11.0006L9.57071 10.9298L11.423 9.07755C11.6037 8.89687 11.8963 8.89687 12.077 9.07755C12.2577 9.25822 12.2577 9.55086 12.077 9.73154L10.2247 11.5838L10.154 11.6545L10.2247 11.7253L12.077 13.5775C12.2577 13.7582 12.2577 14.0509 12.077 14.2315C11.9866 14.3219 11.8685 14.367 11.75 14.367C11.6315 14.367 11.5134 14.3219 11.423 14.2315L9.57071 12.3792L9.5 12.3085L9.42929 12.3792L7.57699 14.2315C7.48662 14.3219 7.36846 14.367 7.25 14.367C7.13154 14.367 7.01338 14.3219 6.92301 14.2315C6.74233 14.0509 6.74233 13.7582 6.92301 13.5775L8.7753 11.7253L8.84601 11.6545L8.7753 11.5838L6.92301 9.73154C6.74233 9.55086 6.74233 9.25822 6.92301 9.07755C7.10368 8.89687 7.39632 8.89687 7.57699 9.07755L9.42929 10.9298Z" fill="#003366" stroke="#003366" stroke-width="0.2"/>
</svg>
