<svg width="14" height="14" viewBox="0 0 14 14" fill="none" xmlns="http://www.w3.org/2000/svg">
<path d="M5.64965 1.79191C6.1958 0.662732 7.8042 0.662731 8.35035 1.79191L9.26326 3.67941C9.48191 4.13146 9.91225 4.44412 10.4097 4.51237L12.487 4.79734C13.7296 4.96782 14.2267 6.4975 13.3215 7.36585L11.8085 8.81735C11.4462 9.16499 11.2818 9.67089 11.3706 10.1651L11.7415 12.2287C11.9634 13.4633 10.6621 14.4087 9.55657 13.8162L7.70856 12.8257C7.26597 12.5885 6.73403 12.5885 6.29144 12.8257L4.44343 13.8162C3.33788 14.4087 2.03665 13.4633 2.25852 12.2287L2.6294 10.1651C2.71823 9.67089 2.55385 9.16499 2.19148 8.81735L0.678475 7.36585C-0.22667 6.4975 0.270355 4.96782 1.51304 4.79734L3.59026 4.51237C4.08775 4.44412 4.51809 4.13146 4.73674 3.67941L5.64965 1.79191Z" fill="#FFAB08"/>
</svg>
