<svg width="10" height="16" viewBox="0 0 10 16" fill="none" xmlns="http://www.w3.org/2000/svg">
<path d="M5 7.16667C5.92047 7.16667 6.66667 6.42047 6.66667 5.5C6.66667 4.57953 5.92047 3.83333 5 3.83333C4.07953 3.83333 3.33333 4.57953 3.33333 5.5C3.33333 6.42047 4.07953 7.16667 5 7.16667Z" fill="white"/>
<path fill-rule="evenodd" clip-rule="evenodd" d="M10 5.5C10 7.9775 8.19809 10.0341 5.83333 10.4309V14.6667C5.83333 15.1269 5.46024 15.5 5 15.5C4.53976 15.5 4.16667 15.1269 4.16667 14.6667V10.4309C1.80191 10.0341 0 7.9775 0 5.5C0 2.73858 2.23858 0.5 5 0.5C7.76142 0.5 10 2.73858 10 5.5ZM5 8.83333C6.84095 8.83333 8.33333 7.34095 8.33333 5.5C8.33333 3.65905 6.84095 2.16667 5 2.16667C3.15905 2.16667 1.66667 3.65905 1.66667 5.5C1.66667 7.34095 3.15905 8.83333 5 8.83333Z" fill="white"/>
</svg>
