<svg width="34" height="33" viewBox="0 0 34 33" fill="none" xmlns="http://www.w3.org/2000/svg">
<circle cx="17.1318" cy="16.5" r="16" fill="#2A8D56" stroke="white"/>
<circle cx="17.1318" cy="16.5" r="12.5" fill="white"/>
<g clip-path="url(#clip0_966_1179)">
<path d="M23.5979 14.9869C23.5128 14.7236 23.2794 14.5367 23.0031 14.5118L19.251 14.1711L17.7673 10.6983C17.6579 10.4438 17.4087 10.2791 17.1319 10.2791C16.8551 10.2791 16.6059 10.4438 16.4965 10.6989L15.0128 14.1711L11.2601 14.5118C10.9843 14.5372 10.7515 14.7236 10.6659 14.9869C10.5803 15.2501 10.6593 15.5388 10.8679 15.7208L13.7041 18.2082L12.8678 21.8922C12.8066 22.1631 12.9117 22.4431 13.1364 22.6055C13.2573 22.6928 13.3986 22.7372 13.5411 22.7372C13.664 22.7372 13.7859 22.7041 13.8953 22.6387L17.1319 20.7043L20.3673 22.6387C20.6041 22.7811 20.9025 22.7681 21.1268 22.6055C21.3516 22.4426 21.4567 22.1625 21.3955 21.8922L20.5591 18.2082L23.3953 15.7213C23.6039 15.5388 23.6835 15.2506 23.5979 14.9869Z" fill="#003366"/>
</g>
<defs>
<clipPath id="clip0_966_1179">
<rect width="13" height="13" fill="white" transform="translate(10.6318 10)"/>
</clipPath>
</defs>
</svg>
