<svg width="19" height="19" viewBox="0 0 19 19" fill="none" xmlns="http://www.w3.org/2000/svg">
<g clip-path="url(#clip0_624_4025)">
<path d="M9.70249 13.9991H3.21687C2.89417 13.9991 2.63124 13.736 2.63124 13.414V7.0352H15.2606V8.20526C15.2606 8.76097 15.7112 9.21151 16.2669 9.21151C16.8226 9.21151 17.2731 8.76096 17.2731 8.20526V4.04838C17.2731 2.61799 16.1104 1.45532 14.6801 1.45532H3.21124C1.78133 1.45532 0.618744 2.61808 0.618744 4.04838V13.414C0.618744 14.8473 1.78375 16.0116 3.21631 16.0116H9.70193C10.2576 16.0116 10.7082 15.561 10.7082 15.0053C10.7082 14.4503 10.2589 13.9991 9.70249 13.9991ZM3.21124 3.46838H14.6806C15.0002 3.46838 15.2606 3.72884 15.2606 4.04838V5.02213H2.63124V4.04838C2.63124 3.72884 2.8917 3.46838 3.21124 3.46838Z" fill="#003366" stroke="white"/>
<path d="M3.87217 4.74405C4.14956 4.74405 4.37442 4.51919 4.37442 4.2418C4.37442 3.96442 4.14956 3.73955 3.87217 3.73955C3.59479 3.73955 3.36992 3.96442 3.36992 4.2418C3.36992 4.51919 3.59479 4.74405 3.87217 4.74405Z" fill="#003366" stroke="#003366" stroke-width="0.1"/>
<path d="M5.46519 4.74405C5.74257 4.74405 5.96744 4.51919 5.96744 4.2418C5.96744 3.96442 5.74257 3.73955 5.46519 3.73955C5.1878 3.73955 4.96294 3.96442 4.96294 4.2418C4.96294 4.51919 5.1878 4.74405 5.46519 4.74405Z" fill="#003366" stroke="#003366" stroke-width="0.1"/>
<path d="M7.05818 4.74405C7.33556 4.74405 7.56043 4.51919 7.56043 4.2418C7.56043 3.96442 7.33556 3.73955 7.05818 3.73955C6.78079 3.73955 6.55593 3.96442 6.55593 4.2418C6.55593 4.51919 6.78079 4.74405 7.05818 4.74405Z" fill="#003366" stroke="#003366" stroke-width="0.1"/>
<path d="M14.2852 8.76489C12.0263 8.76489 10.1886 10.6019 10.1886 12.8615C10.1886 15.121 12.0257 16.9581 14.2852 16.9581C16.5447 16.9581 18.3818 15.121 18.3818 12.8615C18.3818 10.6019 16.5441 8.76489 14.2852 8.76489ZM14.2852 14.9445C13.1371 14.9445 12.2016 14.0091 12.2016 12.861C12.2016 11.7128 13.1371 10.7774 14.2852 10.7774C15.4333 10.7774 16.3688 11.7128 16.3688 12.861C16.3688 14.0091 15.4333 14.9445 14.2852 14.9445Z" fill="#003366" stroke="white"/>
<path d="M13.5728 13.5719L13.5728 13.5719L15.3331 13.1924L15.6865 12.8387L15.6863 12.8385C15.6863 12.8385 15.6862 12.8384 15.6862 12.8384L15.2914 12.444V11.726C15.2914 11.1703 14.8409 10.7197 14.2852 10.7197C13.7295 10.7197 13.2789 11.1703 13.2789 11.726V12.8611C13.2789 13.1288 13.3864 13.3844 13.5728 13.5719Z" fill="#003366" stroke="white"/>
</g>
<defs>
<clipPath id="clip0_624_4025">
<rect width="18" height="18" fill="white" transform="translate(0.5 0.206543)"/>
</clipPath>
</defs>
</svg>
