<svg width="15" height="15" viewBox="0 0 15 15" fill="none" xmlns="http://www.w3.org/2000/svg">
<path fill-rule="evenodd" clip-rule="evenodd" d="M11.8126 6.67831C11.756 6.44323 11.9007 6.20698 12.1352 6.1504C12.3697 6.09323 12.6065 6.2379 12.6631 6.47298C12.7687 6.91048 12.8247 7.36723 12.8247 7.83681C12.8247 11.0364 10.2271 13.6346 7.02691 13.6346C3.82733 13.6346 1.22916 11.0364 1.22916 7.83681C1.22916 4.63665 3.82733 2.03906 7.02691 2.03906C7.4965 2.03906 7.95325 2.09506 8.39075 2.20065C8.62583 2.25723 8.7705 2.49406 8.71333 2.72856C8.65675 2.96306 8.4205 3.10773 8.18541 3.05115C7.81383 2.96131 7.42591 2.91406 7.02691 2.91406C4.30975 2.91406 2.10416 5.11965 2.10416 7.83681C2.10416 10.554 4.30975 12.7596 7.02691 12.7596C9.74408 12.7596 11.9497 10.554 11.9497 7.83681C11.9497 7.43781 11.9024 7.0499 11.8126 6.67831Z" fill="black"/>
<path fill-rule="evenodd" clip-rule="evenodd" d="M9.11233 7.83688C9.11233 7.59538 9.30833 7.39938 9.54983 7.39938C9.79074 7.39938 9.98733 7.59538 9.98733 7.83688C9.98733 9.47021 8.66083 10.7967 7.02691 10.7967C5.39358 10.7967 4.06708 9.47021 4.06708 7.83688C4.06708 6.20296 5.39358 4.87646 7.02691 4.87646C7.26841 4.87646 7.46441 5.07305 7.46441 5.31396C7.46441 5.55546 7.26841 5.75146 7.02691 5.75146C5.87599 5.75146 4.94208 6.68596 4.94208 7.83688C4.94208 8.9878 5.87599 9.92171 7.02691 9.92171C8.17783 9.92171 9.11233 8.9878 9.11233 7.83688Z" fill="black"/>
<path fill-rule="evenodd" clip-rule="evenodd" d="M13.6425 3.62337L11.8592 5.4072C11.777 5.48945 11.6656 5.53554 11.5495 5.53554H9.76566C9.52416 5.53554 9.32816 5.33954 9.32816 5.09804V3.3142C9.32816 3.19812 9.37425 3.0867 9.4565 3.00445L11.2403 1.2212C11.3477 1.11387 11.5028 1.06954 11.6504 1.10454C11.798 1.13954 11.917 1.24804 11.9648 1.39212L12.3417 2.52204L13.4716 2.89887C13.6157 2.9467 13.7242 3.0657 13.7592 3.21329C13.7942 3.36087 13.7498 3.51604 13.6425 3.62337ZM12.5237 3.50554L11.8575 3.28329C11.7268 3.23954 11.6242 3.13687 11.5804 3.0062L11.3582 2.34004L10.2032 3.49504V4.66054H11.3687L12.5237 3.50554Z" fill="black"/>
<path fill-rule="evenodd" clip-rule="evenodd" d="M9.4565 4.78834C9.62742 4.61743 9.9045 4.61743 10.0754 4.78834C10.2463 4.95926 10.2463 5.23634 10.0754 5.40726L7.39967 8.08243C7.22875 8.25334 6.95167 8.25334 6.78133 8.08243C6.61042 7.91209 6.61042 7.63501 6.78133 7.46409L9.4565 4.78834Z" fill="black"/>
</svg>
