<svg width="46" height="15" viewBox="0 0 46 15" fill="none" xmlns="http://www.w3.org/2000/svg">
<path d="M17.4659 0.263782L11.4445 14.7705H7.51435L4.55328 3.1945C4.37099 2.48062 4.2152 2.22083 3.66859 1.91768C2.77321 1.42894 1.3004 0.970495 0 0.684943L0.0910117 0.263872H6.41412C7.22056 0.263872 7.9456 0.806947 8.12789 1.74315L9.6936 10.1394L13.5608 0.263872L17.4659 0.263782ZM32.8603 10.0321C32.8777 6.2054 27.6158 5.99713 27.6536 4.28518C27.6639 3.76261 28.1544 3.20965 29.2288 3.07005C29.7623 2.99839 31.2304 2.94586 32.8944 3.71716L33.5466 0.64231C32.6513 0.314215 31.5005 0 30.0702 0C26.3965 0 23.8104 1.97283 23.7886 4.7956C23.7645 6.883 25.6337 8.04788 27.0436 8.74307C28.4913 9.45441 28.9754 9.9086 28.9703 10.5466C28.9609 11.5202 27.8152 11.9457 26.7466 11.9649C24.8774 11.9943 23.7932 11.4549 22.9274 11.0478L22.2545 14.2283C23.1217 14.6304 24.7274 14.9794 26.3892 15C30.2937 14.9998 32.848 13.048 32.8603 10.0321ZM42.5615 14.7706H46L42.9997 0.263872H39.8254C39.1121 0.263872 38.5108 0.683855 38.2429 1.32725L32.6688 14.7706H36.5703L37.3447 12.6041H42.1138L42.5615 14.7706ZM38.414 9.63075L40.3713 4.18368L41.4973 9.63075H38.414ZM22.7776 0.263782L19.7023 14.7705H15.9846L19.0607 0.263782H22.7776Z" fill="white"/>
</svg>
