<svg width="35" height="35" viewBox="0 0 35 35" fill="none" xmlns="http://www.w3.org/2000/svg">
<path d="M5.83334 30.6248C5.03126 30.6248 4.34462 30.3392 3.77344 29.7681C3.20226 29.1969 2.91667 28.5103 2.91667 27.7082V11.6665C2.91667 10.8644 3.20226 10.1778 3.77344 9.60661C4.34462 9.03543 5.03126 8.74984 5.83334 8.74984H11.6667V5.83317C11.6667 5.03109 11.9523 4.34446 12.5234 3.77327C13.0946 3.20209 13.7813 2.9165 14.5833 2.9165H20.4167C21.2188 2.9165 21.9054 3.20209 22.4766 3.77327C23.0477 4.34446 23.3333 5.03109 23.3333 5.83317V8.74984H29.1667C29.9688 8.74984 30.6554 9.03543 31.2266 9.60661C31.7977 10.1778 32.0833 10.8644 32.0833 11.6665V27.7082C32.0833 28.5103 31.7977 29.1969 31.2266 29.7681C30.6554 30.3392 29.9688 30.6248 29.1667 30.6248H5.83334ZM5.83334 27.7082H29.1667V11.6665H5.83334V27.7082ZM14.5833 8.74984H20.4167V5.83317H14.5833V8.74984Z" fill="#003366"/>
</svg>
